<?xml version="1.0" encoding="utf-8"?>
<!-- Generator: Adobe Illustrator 20.1.0, SVG Export Plug-In . SVG Version: 6.00 Build 0)  -->
<svg version="1.1" id="Layer_1" xmlns="http://www.w3.org/2000/svg" xmlns:xlink="http://www.w3.org/1999/xlink" x="0px" y="0px"
	 viewBox="137.1 319.2 50.7 98.2" style="enable-background:new 137.1 319.2 50.7 98.2;" xml:space="preserve">
<style type="text/css">
	.st0{fill:#65B1D2;}
	.st1{fill:#DBE2E6;}
	.st2{fill:none;}
	.st3{fill:#FFFFFF;}
	.st4{fill:#BC9546;}
	.st5{fill:#FCD577;}
	.st6{fill:#BA6B24;}
</style>
<path class="st0" d="M187.8,409.4c0,4.3-3.7,7.9-8.3,7.9h-33.9c-4.6,0-8.3-3.5-8.3-7.9v-82.3c0-4.3,3.7-7.9,8.3-7.9h33.9
	c4.6,0,8.3,3.5,8.3,7.9V409.4z"/>
<path class="st1" d="M168.8,324.6c0,0.7-0.5,1.2-1.1,1.2h-10.5c-0.6,0-1.1-0.5-1.1-1.2l0,0c0-0.7,0.5-1.2,1.1-1.2h10.5
	C168.3,323.4,168.8,323.9,168.8,324.6L168.8,324.6z"/>
<rect x="134.3" y="320.5" class="st2" width="56.4" height="93.7"/>
<rect x="139.7" y="331.8" class="st3" width="45.6" height="73.5"/>
<rect x="148" y="347.7" class="st4" width="29" height="38.6"/>
<rect x="148" y="347.7" class="st4" width="29" height="1.9"/>
<path class="st4" d="M151.1,390.3v4.3h-3.4l0.6-1c0.4-0.6,0.3-1.4-0.3-1.9c-0.4-0.3-0.7-0.9-0.7-1.5"/>
<path class="st4" d="M178.7,390.3c0,0.6-0.3,1.1-0.7,1.5c-0.6,0.5-0.7,1.3-0.3,1.9l0.6,1h-3.4v-4.3"/>
<g>
	<path class="st5" d="M145.1,388.1v2.2h34.8v-2.2c-1,0-1.9-0.8-1.9-1.9h-31.1C146.9,387.3,146.1,388.1,145.1,388.1z"/>
	<path class="st5" d="M179.9,343.6v2.2c-1,0-1.9,0.8-1.9,1.9h-31.1c0-1-0.8-1.9-1.9-1.9v-2.2H179.9z"/>
</g>
<path class="st4" d="M179.9,345.8c-1,0-1.9,0.8-1.9,1.9h-31.1c0-1-0.8-1.9-1.9-1.9H179.9z"/>
<g>
	<rect x="149.4" y="377.9" class="st5" width="26.1" height="6.9"/>
	<rect x="149.4" y="349.1" class="st5" width="11.6" height="25.9"/>
	<rect x="163.9" y="349.1" class="st5" width="11.6" height="25.9"/>
</g>
<g>
	<path class="st6" d="M157.9,365.7c-0.7,0-1.1-0.9-0.6-1.4c0.3-0.2,0.7-0.3,1-0.1c0.3,0.2,0.5,0.5,0.4,0.9
		C158.7,365.4,158.3,365.7,157.9,365.7z"/>
	<path class="st6" d="M167,365.7c-0.7,0-1.1-0.9-0.6-1.4c0.2-0.2,0.6-0.3,0.9-0.1c0.3,0.2,0.5,0.5,0.5,0.9
		C167.8,365.4,167.4,365.7,167,365.7z"/>
	<path class="st6" d="M155.5,382.3c-0.3,0-0.7-0.2-0.8-0.5c-0.1-0.3,0-0.7,0.3-1c0.6-0.5,1.5,0.1,1.3,0.8
		C156.2,382,155.9,382.3,155.5,382.3z"/>
	<path class="st6" d="M169.5,382.3c-0.3,0-0.7-0.2-0.8-0.5c-0.1-0.3,0-0.7,0.3-1c0.6-0.4,1.4,0.1,1.3,0.8
		C170.2,382,169.9,382.3,169.5,382.3z"/>
</g>
</svg>
