<?xml version="1.0" encoding="utf-8"?>
<!-- Generator: Adobe Illustrator 20.1.0, SVG Export Plug-In . SVG Version: 6.00 Build 0)  -->
<svg version="1.1" id="Слой_1" xmlns="http://www.w3.org/2000/svg" xmlns:xlink="http://www.w3.org/1999/xlink" x="0px" y="0px"
	 viewBox="0 0 57.3 66" style="enable-background:new 0 0 57.3 66;" xml:space="preserve">
<style type="text/css">
	.st0{fill:#8DC6FF;}
	.st1{fill:#69CC69;}
	.st2{fill:#FF5050;}
	.st3{fill:#FFFFFF;}
</style>
<g>
	<path class="st0" d="M47.8,47.8v-6.1c0-1.3-0.8-2.5-1.9-3c0.2,1,0.2,2.1,0.2,3.2c0,6-2.6,11.5-6.8,15.3v3.9c4.4-3.3,7.7-7.9,9-13.3
		H47.8z M31.8,18.8V7.8h4.3c1.8,0,3.2-1.4,3.2-3.1V3.2c0-1.7-1.4-3.1-3.2-3.1H13.4c-1.8,0-3.2,1.4-3.2,3.1v1.5
		c0,1.7,1.4,3.1,3.2,3.1h4.3v11.1c-10.3,3-17.4,12.3-17.4,23c0,13.2,11,24,24.4,24c4.2,0,8.2-1,11.6-2.9c0-0.2,0-0.4,0-0.6v-2.9
		c-3.3,2.1-7.3,3.4-11.6,3.4c-11.8,0-21.4-9.4-21.4-21c0-9.7,6.7-18.1,16.3-20.4l1.1-0.3V4.8h-7.3c-0.1,0-0.2-0.1-0.2-0.1V3.2
		c0,0,0.1-0.1,0.2-0.1h22.7c0.1,0,0.2,0.1,0.2,0.1v1.5c0,0-0.1,0.1-0.2,0.1h-7.3v16.4l1.1,0.3c7.4,1.9,13,7.3,15.2,14.1
		c1.3,0.1,2.5,0.7,3.5,1.5C46.9,28.5,40.5,21.5,31.8,18.8z"/>
</g>
<path class="st1" d="M33.1,59.2h0.3c-2.6,1.3-5.6,2-8.7,2c-9.5,0-17.4-6.6-19.2-15.3c1.3-1.7,5-5.1,11-1.4c4.8,3,8.4,3.6,11.5,3
	c-0.7,1-1.2,2.3-1.2,3.6V53C26.8,56.4,29.6,59.2,33.1,59.2z"/>
<path class="st1" d="M36.3,44.9h-2.5c0.8-0.5,1.7-0.7,2.5-0.8V44.9z"/>
<path class="st1" d="M43.5,47.6c-1.1,3.4-3.1,6.4-5.7,8.7h-4.7c-1.8,0-3.3-1.5-3.3-3.3v-1.9c0-1.8,1.5-3.3,3.3-3.3h6.2v-3.3
	C41.1,45.2,42.6,46.4,43.5,47.6z"/>
<ellipse class="st1" cx="14.5" cy="37.7" rx="1.7" ry="1.6"/>
<ellipse class="st1" cx="36.6" cy="32.2" rx="1.7" ry="1.6"/>
<ellipse class="st1" cx="22.3" cy="28.9" rx="1.7" ry="1.6"/>
<ellipse class="st1" cx="27.6" cy="38.4" rx="3.6" ry="3.5"/>
<ellipse class="st1" cx="18.7" cy="40.6" rx="0.8" ry="0.8"/>
<ellipse class="st1" cx="6.8" cy="39.1" rx="0.8" ry="0.8"/>
<ellipse class="st1" cx="36.2" cy="40.6" rx="0.8" ry="0.8"/>
<ellipse class="st1" cx="42.7" cy="41.3" rx="0.8" ry="0.8"/>
<ellipse class="st1" cx="30.4" cy="31.8" rx="0.8" ry="0.8"/>
<ellipse class="st1" cx="19.5" cy="34.1" rx="0.8" ry="0.8"/>
<path class="st2" d="M57.3,51.1V53c0,1.8-1.5,3.3-3.3,3.3h-6.2v6.1c0,1.8-1.5,3.3-3.3,3.3h-1.9c-1.8,0-3.3-1.5-3.3-3.3v-6.1h-6.2
	c-1.8,0-3.3-1.5-3.3-3.3v-1.9c0-1.8,1.5-3.3,3.3-3.3h6.2v-6.1c0-1.8,1.5-3.3,3.3-3.3h1.9c0.5,0,1,0.1,1.4,0.3c1.1,0.5,1.9,1.7,1.9,3
	v6.1H54C55.8,47.8,57.3,49.3,57.3,51.1z"/>
<path class="st3" d="M36,57.7c-0.8,0.6-1.7,1.1-2.6,1.5h2.9v0.3c0.5-0.3,1-0.6,1.4-1v-0.9H36z"/>
<path class="st0" d="M37.7,58.5v3.6c-0.4,0.3-0.9,0.5-1.4,0.8c0-0.2,0-0.4,0-0.6v-2.9C36.8,59.2,37.2,58.9,37.7,58.5z"/>
</svg>
