<?xml version="1.0" encoding="utf-8"?>
<!-- Generator: Adobe Illustrator 20.1.0, SVG Export Plug-In . SVG Version: 6.00 Build 0)  -->
<svg version="1.1" id="Слой_1" xmlns="http://www.w3.org/2000/svg" xmlns:xlink="http://www.w3.org/1999/xlink" x="0px" y="0px"
	 viewBox="0 0 132 131.2" style="enable-background:new 0 0 132 131.2;" xml:space="preserve">
<style type="text/css">
	.st0{fill:#62C7D7;}
	.st1{fill:#828282;}
	.st2{opacity:0.2;fill:#FFFFFF;}
	.st3{fill:#FFFFFF;}
	.st4{fill:#549465;}
	.st5{fill:#F7F1E6;}
	.st6{fill:#232323;}
	.st7{fill:#D64329;}
	.st8{fill:#6CA2D7;}
	.st9{fill:#EF4F24;}
	.st10{fill:#DD4A21;}
	.st11{fill:#E3E4E5;}
	.st12{opacity:0.7;fill:#FFFFFF;}
	.st13{fill:#0F3041;}
	.st14{fill:#FAAE3E;}
	.st15{fill:#F05C42;}
	.st16{fill:#0C8485;}
	.st17{opacity:0.5;fill:#232323;}
	.st18{opacity:5.000000e-02;fill:#231F20;}
	.st19{fill:#FFA6D9;}
	.st20{fill:#4D4D4D;}
	.st21{opacity:0.2;fill:#828282;}
	.st22{opacity:0.1;fill:#231F20;}
	.st23{opacity:0.25;fill:#FFFFFF;}
</style>
<rect x="6.1" y="34.4" class="st0" width="106.5" height="89.5"/>
<path class="st1" d="M-0.2,33.4V125c0,3.4,2.7,6.1,6.1,6.1h119.8c3.3,0,6.1-2.7,6.1-6.1V33.4c0-3.3-2.7-6.1-6.1-6.1H5.9
	C2.5,27.4-0.2,30.1-0.2,33.4z M6.1,34.4h106.5V124H6.1V34.4z"/>
<circle class="st2" cx="123.2" cy="79.7" r="5"/>
<rect x="6.1" y="99.2" class="st4" width="106.5" height="25.2"/>
<g>
	<rect x="16.9" y="67.3" class="st5" width="52.5" height="49.2"/>
	<g>
		<rect x="48.7" y="56.9" class="st6" width="4.9" height="5.6"/>
		<polygon class="st7" points="16.9,67.3 69.3,67.3 63.5,61.5 22.1,61.5 		"/>
	</g>
	<g>
		<g>
			<g>
				<rect x="24.1" y="74.2" class="st8" width="6.1" height="16"/>
				<path class="st6" d="M30.5,90.5h-6.7V74h6.7V90.5z M24.4,89.9h5.5V74.5h-5.5V89.9z"/>
			</g>
			<rect x="27" y="70.8" class="st6" width="0.5" height="19.6"/>
			<rect x="24" y="81.3" class="st6" width="6.3" height="0.3"/>
			<rect x="24" y="86" class="st6" width="6.2" height="0.3"/>
			<path class="st3" d="M22.4,77.1H32c0,0,0.6-5.2-4.5-5.8C27.5,71.3,22.9,71.5,22.4,77.1z"/>
			<path class="st9" d="M27.5,71.3c0,0-3.3,0.1-3.5,5.8h1.6C25.6,77.1,25.5,72.3,27.5,71.3z"/>
			<path class="st9" d="M27.2,71.3c0,0,2.6,0.1,2.8,5.8h-1.5C28.6,77.1,28.6,72.3,27.2,71.3z"/>
		</g>
		<g>
			<g>
				<rect x="40.2" y="74.5" class="st8" width="6.1" height="16"/>
				<path class="st6" d="M46.6,90.5h-6.7V74h6.7V90.5z M40.5,89.9H46V74.5h-5.5V89.9z"/>
			</g>
			<rect x="43.1" y="70.8" class="st6" width="0.5" height="19.4"/>
			<rect x="40.2" y="81.3" class="st6" width="6.1" height="0.3"/>
			<rect x="40.2" y="86" class="st6" width="6.1" height="0.3"/>
			<path class="st3" d="M38.3,77.1h9.6c0,0,0.6-5.2-4.5-5.8C43.4,71.3,38.9,71.5,38.3,77.1z"/>
			<path class="st9" d="M43.5,71.3c0,0-3.3,0.1-3.5,5.8h1.6C41.6,77.1,41.5,72.3,43.5,71.3z"/>
			<path class="st9" d="M43.3,71.3c0,0,2.6,0.1,2.8,5.8h-1.5C44.6,77.1,44.7,72.3,43.3,71.3z"/>
		</g>
		<g>
			<g>
				<rect x="56.1" y="74.2" class="st8" width="6.1" height="16"/>
				<path class="st6" d="M62.5,90.5h-6.7V74h6.7V90.5z M56.4,89.9h5.5V74.5h-5.5V89.9z"/>
			</g>
			<rect x="58.9" y="70.8" class="st6" width="0.5" height="19.4"/>
			<rect x="56.1" y="81.3" class="st6" width="6" height="0.3"/>
			<rect x="56.1" y="86" class="st6" width="6" height="0.3"/>
			<path class="st3" d="M54.3,77.1h9.6c0,0,0.6-5.2-4.5-5.8C59.4,71.3,54.8,71.5,54.3,77.1z"/>
			<path class="st9" d="M59.5,71.3c0,0-3.3,0.1-3.5,5.8h1.6C57.6,77.1,57.5,72.3,59.5,71.3z"/>
			<path class="st9" d="M59.3,71.3c0,0,2.6,0.1,2.8,5.8h-1.5C60.6,77.1,60.7,72.3,59.3,71.3z"/>
		</g>
	</g>
	<g>
		<path class="st6" d="M43.1,102.1h-0.7H25.7v14.4h0.7h0.4h15.6h0.7h15.9h0.7h0.7v-14.4H43.1z"/>
		<g>
			<rect x="26.8" y="103" class="st8" width="15.6" height="9.1"/>
			<rect x="43.1" y="103" class="st8" width="15.9" height="9.1"/>
		</g>
	</g>
	<g>
		<g>
			<rect x="25" y="96.8" class="st10" width="5.2" height="8.4"/>
			<rect x="25" y="96" class="st9" width="5.2" height="7.3"/>
			<rect x="30.2" y="96.8" class="st11" width="5.2" height="8.4"/>
			<rect x="30.2" y="96" class="st3" width="5.2" height="7.3"/>
			<rect x="35.4" y="96.8" class="st10" width="5.2" height="8.4"/>
			<rect x="35.4" y="96" class="st9" width="5.2" height="7.3"/>
			<rect x="40.5" y="96.8" class="st11" width="5.2" height="8.4"/>
			<rect x="40.5" y="96" class="st3" width="5.2" height="7.3"/>
			<rect x="45.7" y="96.8" class="st10" width="5.2" height="8.4"/>
			<rect x="45.7" y="96" class="st9" width="5.2" height="7.3"/>
			<rect x="50.9" y="96.8" class="st11" width="5.2" height="8.4"/>
			<rect x="50.9" y="96" class="st3" width="5.2" height="7.3"/>
			<rect x="56.1" y="96.8" class="st10" width="5.2" height="8.4"/>
			<rect x="56.1" y="96" class="st9" width="5.2" height="7.3"/>
		</g>
	</g>
</g>
<g>
	<rect x="76.3" y="42" class="st12" width="30.3" height="49"/>
	<g>
		<rect x="78.6" y="44.4" class="st13" width="25.8" height="7"/>
		<rect x="93.6" y="78.7" class="st14" width="10.7" height="10.1"/>
		<rect x="93.6" y="54" class="st15" width="10.7" height="10.1"/>
		<rect x="78.8" y="54" class="st16" width="10.7" height="10.1"/>
		<rect x="78.8" y="79.1" class="st15" width="10.7" height="10.1"/>
		<rect x="93.6" y="66.7" class="st16" width="10.7" height="10.1"/>
		<rect x="78.8" y="66.7" class="st14" width="10.7" height="10.1"/>
	</g>
</g>
<g>
	<rect x="12.9" y="41.9" class="st17" width="57.3" height="2.6"/>
	<rect x="38.3" y="46.6" class="st17" width="31.7" height="2.6"/>
</g>
<rect x="111.2" y="34.4" class="st18" width="1.5" height="89.6"/>
<g>
	<g>
		<circle class="st19" cx="62.6" cy="28.1" r="5.1"/>
		<path class="st19" d="M74.8,15.7c-0.1-0.1-0.2-0.1-0.2-0.2l-0.2-0.2c0,0-0.1-0.1-0.1-0.1c-6.6-6-16.8-5.8-23.2,0.5l-0.7,0.7l-1,1
			c-1.3,1.3-1.2,3.3,0,4.6c1.3,1.3,3.3,1.3,4.6,0l1.8-1.8c4-4,10.6-4,14.6,0l1.3,1.2c1.2,1.2,3.3,1.2,4.5,0c0.6-0.6,0.9-1.4,0.9-2.3
			c0-0.8-0.3-1.7-0.9-2.3L74.8,15.7z"/>
		<path class="st19" d="M83.6,9.3l-1.1-1.1c0,0,0,0,0,0l-0.8-0.8c-0.1-0.1-0.3-0.3-0.5-0.4C70.4-2.5,53.9-2.2,43.4,7.9
			c-0.1,0-0.1,0.1-0.2,0.1l-1.9,1.9c-1.1,1.1-1.1,3,0,4.2c1.1,1.1,3,1.2,4.1,0l1.9-1.9c0,0,0,0,0,0c8.5-8.2,21.9-8.2,30.5-0.2
			l1.5,1.5c1.1,1.1,3,1.1,4.2,0C84.7,12.3,84.7,10.5,83.6,9.3z"/>
	</g>
</g>
</svg>
