<?xml version="1.0" encoding="utf-8"?>
<!-- Generator: Adobe Illustrator 20.1.0, SVG Export Plug-In . SVG Version: 6.00 Build 0)  -->
<svg version="1.1" id="Слой_1" xmlns="http://www.w3.org/2000/svg" xmlns:xlink="http://www.w3.org/1999/xlink" x="0px" y="0px"
	 viewBox="0 0 58.6 122.6" style="enable-background:new 0 0 58.6 122.6;" xml:space="preserve">
<style type="text/css">
	.st0{fill:#62C7D7;}
	.st1{fill:#828282;}
	.st2{opacity:0.2;fill:#FFFFFF;}
	.st3{fill:#FFFFFF;}
	.st4{fill:#549465;}
	.st5{fill:#F7F1E6;}
	.st6{fill:#232323;}
	.st7{fill:#D64329;}
	.st8{fill:#6CA2D7;}
	.st9{fill:#EF4F24;}
	.st10{fill:#DD4A21;}
	.st11{fill:#E3E4E5;}
	.st12{opacity:0.7;fill:#FFFFFF;}
	.st13{fill:#0F3041;}
	.st14{fill:#FAAE3E;}
	.st15{fill:#F05C42;}
	.st16{fill:#0C8485;}
	.st17{opacity:0.5;fill:#232323;}
	.st18{opacity:5.000000e-02;fill:#231F20;}
	.st19{fill:#FFA6D9;}
	.st20{fill:#4D4D4D;}
	.st21{opacity:0.2;fill:#828282;}
	.st22{opacity:0.1;fill:#231F20;}
	.st23{opacity:0.25;fill:#FFFFFF;}
</style>
<rect x="4.8" y="40.6" class="st0" width="48.6" height="72"/>
<path class="st1" d="M52.9,35H5.5c-2.7,0-4.8,1.8-4.8,4.1v79.3c0,2.3,2.2,4.1,4.8,4.1h47.4c2.7,0,4.8-1.8,4.8-4.1V39.1
	C57.7,36.8,55.6,35,52.9,35z M53.4,40.6v72H4.8v-72H53.4z"/>
<circle class="st2" cx="29.9" cy="117.3" r="3"/>
<path class="st23" d="M37.1,38.4c0,0.4-0.4,0.8-0.8,0.8H22.1c-0.4,0-0.8-0.4-0.8-0.8l0,0c0-0.4,0.4-0.8,0.8-0.8h14.3
	C36.8,37.6,37.1,38,37.1,38.4L37.1,38.4z"/>
<rect x="4.8" y="40.6" class="st22" width="48.7" height="1.3"/>
<g>
	<rect x="7.4" y="44.5" class="st17" width="44.1" height="2"/>
	<rect x="27" y="48" class="st17" width="24.4" height="2"/>
</g>
<rect x="4.8" y="72.3" class="st4" width="48.6" height="17.5"/>
<g>
	<rect x="15.5" y="59" class="st5" width="27.2" height="25.5"/>
	<g>
		<rect x="31.9" y="53.6" class="st6" width="2.5" height="2.9"/>
		<polygon class="st7" points="15.5,59 42.6,59 39.6,56 18.1,56 		"/>
	</g>
	<g>
		<g>
			<g>
				<rect x="19.2" y="62.6" class="st8" width="3.2" height="8.3"/>
				<path class="st6" d="M22.5,71H19v-8.6h3.4V71z M19.3,70.7h2.9v-8h-2.9V70.7z"/>
			</g>
			<rect x="20.7" y="60.8" class="st6" width="0.2" height="10.1"/>
			<rect x="19.2" y="66.2" class="st6" width="3.2" height="0.1"/>
			<rect x="19.2" y="68.7" class="st6" width="3.3" height="0.1"/>
			<path class="st3" d="M18.3,64h5c0,0,0.3-2.7-2.3-3C20.9,61,18.6,61.1,18.3,64z"/>
			<path class="st9" d="M20.9,61c0,0-1.7,0-1.8,3h0.8C19.9,64,19.9,61.6,20.9,61z"/>
			<path class="st9" d="M20.8,61c0,0,1.4,0,1.4,3h-0.8C21.5,64,21.5,61.6,20.8,61z"/>
		</g>
		<g>
			<g>
				<rect x="27.5" y="62.7" class="st8" width="3.2" height="8.3"/>
				<path class="st6" d="M30.8,71h-3.4v-8.6h3.4V71z M27.7,70.7h2.9v-8h-2.9V70.7z"/>
			</g>
			<rect x="29" y="60.8" class="st6" width="0.2" height="10"/>
			<rect x="27.5" y="66.2" class="st6" width="3.1" height="0.1"/>
			<rect x="27.5" y="68.7" class="st6" width="3.1" height="0.1"/>
			<path class="st3" d="M26.5,64h5c0,0,0.3-2.7-2.3-3C29.2,61,26.8,61.1,26.5,64z"/>
			<path class="st9" d="M29.2,61c0,0-1.7,0-1.8,3h0.8C28.3,64,28.2,61.6,29.2,61z"/>
			<path class="st9" d="M29.1,61c0,0,1.4,0,1.4,3h-0.8C29.8,64,29.9,61.6,29.1,61z"/>
		</g>
		<g>
			<g>
				<rect x="35.7" y="62.6" class="st8" width="3.2" height="8.3"/>
				<path class="st6" d="M39,71h-3.4v-8.6H39V71z M35.9,70.7h2.9v-8h-2.9V70.7z"/>
			</g>
			<rect x="37.2" y="60.8" class="st6" width="0.2" height="10"/>
			<rect x="35.7" y="66.2" class="st6" width="3.1" height="0.1"/>
			<rect x="35.7" y="68.7" class="st6" width="3.1" height="0.1"/>
			<path class="st3" d="M34.8,64h5c0,0,0.3-2.7-2.3-3C37.4,61,35.1,61.1,34.8,64z"/>
			<path class="st9" d="M37.5,61c0,0-1.7,0-1.8,3h0.8C36.5,64,36.5,61.6,37.5,61z"/>
			<path class="st9" d="M37.4,61c0,0,1.4,0,1.5,3h-0.8C38.1,64,38.1,61.6,37.4,61z"/>
		</g>
	</g>
	<g>
		<path class="st6" d="M29,77h-0.4H20v7.5h0.4h0.2h8.1H29h8.3h0.4h0.4V77H29z"/>
		<g>
			<rect x="20.6" y="77.4" class="st8" width="8.1" height="4.7"/>
			<rect x="29" y="77.4" class="st8" width="8.3" height="4.7"/>
		</g>
	</g>
	<g>
		<g>
			<rect x="19.7" y="74.2" class="st10" width="2.7" height="4.3"/>
			<rect x="19.7" y="73.8" class="st9" width="2.7" height="3.8"/>
			<rect x="22.3" y="74.2" class="st11" width="2.7" height="4.3"/>
			<rect x="22.3" y="73.8" class="st3" width="2.7" height="3.8"/>
			<rect x="25" y="74.2" class="st10" width="2.7" height="4.3"/>
			<rect x="25" y="73.8" class="st9" width="2.7" height="3.8"/>
			<rect x="27.7" y="74.2" class="st11" width="2.7" height="4.3"/>
			<rect x="27.7" y="73.8" class="st3" width="2.7" height="3.8"/>
			<rect x="30.4" y="74.2" class="st10" width="2.7" height="4.3"/>
			<rect x="30.4" y="73.8" class="st9" width="2.7" height="3.8"/>
			<rect x="33" y="74.2" class="st11" width="2.7" height="4.3"/>
			<rect x="33" y="73.8" class="st3" width="2.7" height="3.8"/>
			<rect x="35.7" y="74.2" class="st10" width="2.7" height="4.3"/>
			<rect x="35.7" y="73.8" class="st9" width="2.7" height="3.8"/>
		</g>
	</g>
</g>
<rect x="8.1" y="92.9" class="st12" width="41.8" height="19.6"/>
<g>
	<rect x="12.4" y="95.2" class="st13" width="33.1" height="5.8"/>
	<rect x="31.3" y="103.9" class="st15" width="13.8" height="8.7"/>
	<rect x="12.4" y="103.9" class="st16" width="13.8" height="8.7"/>
</g>
<rect x="4.8" y="111.4" class="st18" width="48.6" height="1.3"/>
<g>
	<g>
		<circle class="st19" cx="29.4" cy="37.5" r="6.8"/>
		<path class="st19" d="M45.7,21c-0.1-0.1-0.2-0.2-0.3-0.3l-0.3-0.3c-0.1-0.1-0.1-0.1-0.2-0.1c-8.8-8-22.4-7.7-30.8,0.7l-1,1
			l-1.4,1.4c-1.7,1.7-1.7,4.4,0,6.1c1.7,1.7,4.4,1.7,6.1,0l2.4-2.4c5.4-5.4,14.1-5.4,19.5,0l1.7,1.7c1.7,1.7,4.3,1.6,6,0
			c0.8-0.8,1.2-1.9,1.2-3c0-1.1-0.4-2.2-1.2-3L45.7,21z"/>
		<path class="st19" d="M57.4,12.6L56,11.2c0,0,0,0,0,0L54.8,10c-0.2-0.2-0.4-0.4-0.6-0.5C39.8-3.1,17.8-2.8,3.9,10.7
			c-0.1,0.1-0.1,0.1-0.2,0.2l-2.6,2.6c-1.5,1.5-1.5,4,0,5.5c1.5,1.5,4,1.5,5.5,0l2.6-2.6c0,0,0,0,0-0.1c11.3-10.9,29.2-11,40.6-0.2
			l2,2c1.5,1.5,4,1.5,5.5,0C58.9,16.6,58.9,14.1,57.4,12.6z"/>
	</g>
</g>
</svg>
