<?xml version="1.0" encoding="utf-8"?>
<!-- Generator: Adobe Illustrator 20.1.0, SVG Export Plug-In . SVG Version: 6.00 Build 0)  -->
<svg version="1.1" id="Objects" xmlns="http://www.w3.org/2000/svg" xmlns:xlink="http://www.w3.org/1999/xlink" x="0px" y="0px"
	 viewBox="0 0 177.4 184.4" style="enable-background:new 0 0 177.4 184.4;" xml:space="preserve">
<style type="text/css">
	.st0{fill:#F2C351;}
	.st1{fill:#2B352D;}
	.st2{fill:#D19F30;}
	.st3{fill:#58715B;}
	.st4{fill:#4D634F;}
	.st5{fill:#6A8A6F;}
	.st6{fill:#607E64;}
	.st7{fill-rule:evenodd;clip-rule:evenodd;fill:#C7CCCC;}
	.st8{fill-rule:evenodd;clip-rule:evenodd;fill:#DCE0F0;}
	.st9{fill-rule:evenodd;clip-rule:evenodd;fill:#DADBDB;}
	.st10{fill-rule:evenodd;clip-rule:evenodd;fill:#BCC2C2;}
	.st11{fill:#BCAB97;}
	.st12{fill:#AD9A85;}
	.st13{fill:#AA9B7D;}
	.st14{fill:#BAAE93;}
	.st15{fill:#434142;}
	.st16{fill:none;stroke:#AA9B7D;stroke-width:0.7332;stroke-miterlimit:10;}
	.st17{fill:#B8D8CB;}
	.st18{fill:#F7F7F8;}
	.st19{fill:#998767;}
	.st20{fill:#80B0D1;}
	.st21{fill:#DDE2E6;}
	.st22{fill:#E2E2E1;}
	.st23{fill:none;}
	.st24{fill:none;stroke:#464646;stroke-width:2;stroke-linecap:round;stroke-linejoin:round;stroke-miterlimit:10;}
	.st25{clip-path:url(#SVGID_2_);}
	.st26{fill:none;stroke:#464646;stroke-linecap:round;stroke-linejoin:round;stroke-miterlimit:10;}
	
		.st27{fill-rule:evenodd;clip-rule:evenodd;fill:none;stroke:#464646;stroke-linecap:round;stroke-linejoin:round;stroke-miterlimit:10;}
	.st28{fill:none;stroke:#464646;stroke-width:0.7332;stroke-linecap:round;stroke-linejoin:round;stroke-miterlimit:10;}
	.st29{fill:#D58264;}
	.st30{fill:#5E9282;}
	.st31{fill:#DC9941;}
</style>
<g>
	<g>
		<path class="st0" d="M293.8,39.5h-68.5c-0.7,0-1.4,0-2.1,0.1c-0.7-0.1-1.4-0.1-2.1-0.1h-94.9c-8.8,0-15.9,1.8-15.9,12.6v65.4
			c0,7,7.1,12.6,15.9,12.6h94.9c0.7,0,1.4,0,2.1-0.1c0.7,0.1,1.4,0.1,2.1,0.1h68.5c8.8,0,15.9-5.6,15.9-12.6V52.1
			C309.6,41.8,302.5,39.5,293.8,39.5z"/>
		<rect x="104" y="160.5" class="st1" width="14.5" height="11.4"/>
		<polygon class="st0" points="238.5,118.7 210.1,118.7 118.5,118.7 118.5,163.9 210.1,163.9 238.5,163.9 302.8,163.9 302.8,118.7 
					"/>
		<polygon class="st2" points="238.5,118.7 210.1,118.7 118.5,118.7 118.5,124 210.1,124 238.5,124 302.8,124 302.8,118.7 		"/>
		<path class="st2" d="M97.3,112.6c0,11.8,0,51.3,0,51.3h27.4c0,0,0-48.3,0-61c0-12.6-16.2-41.4-32.5-24
			C81.5,90.4,97.3,100.8,97.3,112.6z"/>
	</g>
</g>
<g>
	<g>
		<g>
			<g>
				<g>
					<g>
						<g>
							<path class="st3" d="M27.2,63.4c0,0,2.6-5.9,1.7-10.5c-1-4.6-3.9-12.4-4.1-14.7c-0.2-2.3-0.6,4.5-1.3,7.1
								c-0.8,2.6-1.5,8-1.2,11.3c0.3,3.2,1.8,6.9,1.8,6.9L27.2,63.4z"/>
							<g>
								<path class="st4" d="M24.4,41.2h-0.1c-0.3,0-0.3,0.1-0.3,0.3l0,0c0,0.1,0,0.3,0.3,0.3h0.1"/>
								<path class="st4" d="M24.7,43.4h-0.1c-0.3,0-0.3,0.1-0.3,0.3l0,0c0,0.1,0,0.3,0.3,0.3h0.1"/>
								<path class="st4" d="M23.9,44.5h-0.1c-0.3,0-0.3,0.1-0.3,0.3l0,0c0,0.1,0,0.3,0.3,0.3h0.1"/>
								<path class="st4" d="M24.7,45.8h-0.1c-0.3,0-0.3,0.1-0.3,0.3l0,0c0,0.1,0,0.3,0.3,0.3h0.1"/>
								<path class="st4" d="M23.4,46.6h-0.1c-0.3,0-0.3,0.1-0.3,0.3l0,0c0,0.1,0,0.3,0.3,0.3h0.1"/>
								<path class="st4" d="M24.2,47.9h-0.1c-0.3,0-0.3,0.1-0.3,0.3l0,0c0,0.1,0,0.3,0.3,0.3h0.1"/>
								<path class="st4" d="M23,49.3h-0.1c-0.3,0-0.3,0.1-0.3,0.3l0,0c0,0.1,0,0.3,0.3,0.3H23"/>
								<path class="st4" d="M24.4,50.4h-0.1c-0.3,0-0.3,0.1-0.3,0.3l0,0c0,0.1,0,0.3,0.3,0.3h0.1"/>
								<path class="st4" d="M23.4,51.9h-0.1C23,51.9,23,52,23,52.2l0,0c0,0.1,0,0.3,0.3,0.3h0.1"/>
								<path class="st4" d="M24.2,53.4h-0.1c-0.3,0-0.3,0.1-0.3,0.3l0,0c0,0.1,0,0.3,0.3,0.3h0.1"/>
								<path class="st4" d="M23.9,55.4h-0.1c-0.3,0-0.3,0.1-0.3,0.3l0,0c0,0.1,0,0.3,0.3,0.3h0.1"/>
								<path class="st4" d="M23.9,57.9h-0.1c-0.3,0-0.3,0.1-0.3,0.3l0,0c0,0.1,0,0.3,0.3,0.3h0.1"/>
							</g>
						</g>
						<g>
							<path class="st5" d="M21.6,63.9c0,0,2.1-4.7,1.3-8.4c-0.8-3.7-3.1-9.9-3.3-11.8c-0.2-1.8-0.4,3.6-1.1,5.7
								c-0.6,2.1-1.2,6.4-0.9,9c0.2,2.6,1.4,5.5,1.4,5.5L21.6,63.9z"/>
							<g>
								<path class="st6" d="M18.6,54.3h-0.1c-0.3,0-0.3,0.1-0.3,0.3l0,0c0,0.1,0,0.3,0.3,0.3h0.1"/>
								<path class="st6" d="M18,55.7h-0.1c-0.3,0-0.3,0.1-0.3,0.3l0,0c0,0.1,0,0.3,0.3,0.3H18"/>
								<path class="st6" d="M18.5,57.1h-0.1c-0.3,0-0.3,0.1-0.3,0.3l0,0c0,0.1,0,0.3,0.3,0.3h0.1"/>
								<path class="st6" d="M18,58.4h-0.1c-0.3,0-0.3,0.1-0.3,0.3l0,0c0,0.1,0,0.3,0.3,0.3H18"/>
								<path class="st6" d="M18.9,60.3h-0.1c-0.3,0-0.3,0.1-0.3,0.3l0,0c0,0.1,0,0.3,0.3,0.3h0.1"/>
								<path class="st6" d="M18.2,52.6h-0.1c-0.3,0-0.3,0.1-0.3,0.3l0,0c0,0.1,0,0.3,0.3,0.3h0.1"/>
								<path class="st6" d="M19.1,51.3H19c-0.3,0-0.3,0.1-0.3,0.3l0,0c0,0.1,0,0.3,0.3,0.3h0.1"/>
								<path class="st6" d="M18.6,50.1h-0.1c-0.3,0-0.3,0.1-0.3,0.3l0,0c0,0.1,0,0.3,0.3,0.3h0.1"/>
								<path class="st6" d="M19.3,49h-0.1c-0.3,0-0.3,0.1-0.3,0.3l0,0c0,0.1,0,0.3,0.3,0.3h0.1"/>
								<path class="st6" d="M19.2,47.1h-0.1c-0.3,0-0.3,0.1-0.3,0.3l0,0c0,0.1,0,0.3,0.3,0.3h0.1"/>
							</g>
						</g>
						<g>
							<path class="st5" d="M32.1,63.6c0,0,2-4.5,1.3-8c-0.7-3.5-3-9.5-3.1-11.3c-0.2-1.8-0.4,3.4-1,5.4c-0.6,2-1.1,6.2-0.9,8.6
								c0.2,2.5,1.4,5.3,1.4,5.3L32.1,63.6z"/>
							<g>
								<path class="st6" d="M29.3,55.1h-0.1c-0.3,0-0.3,0.1-0.3,0.3l0,0c0,0.1,0,0.3,0.3,0.3h0.1"/>
								<path class="st6" d="M28.6,56.6h-0.1c-0.3,0-0.3,0.1-0.3,0.3l0,0c0,0.1,0,0.3,0.3,0.3h0.1"/>
								<path class="st6" d="M29.2,57.9h-0.1c-0.3,0-0.3,0.1-0.3,0.3l0,0c0,0.1,0,0.3,0.3,0.3h0.1"/>
								<path class="st6" d="M28.6,59.3h-0.1c-0.3,0-0.3,0.1-0.3,0.3l0,0c0,0.1,0,0.3,0.3,0.3h0.1"/>
								<path class="st6" d="M29.6,61.1h-0.1c-0.3,0-0.3,0.1-0.3,0.3l0,0c0,0.1,0,0.3,0.3,0.3h0.1"/>
								<path class="st6" d="M28.9,53.5h-0.1c-0.3,0-0.3,0.1-0.3,0.3l0,0c0,0.1,0,0.3,0.3,0.3h0.1"/>
								<path class="st6" d="M29.7,52.2h-0.1c-0.3,0-0.3,0.1-0.3,0.3l0,0c0,0.1,0,0.3,0.3,0.3h0.1"/>
								<path class="st6" d="M29.3,50.9h-0.1c-0.3,0-0.3,0.1-0.3,0.3l0,0c0,0.1,0,0.3,0.3,0.3h0.1"/>
								<path class="st6" d="M30,49.9h-0.1c-0.3,0-0.3,0.1-0.3,0.3l0,0c0,0.1,0,0.3,0.3,0.3H30"/>
								<path class="st6" d="M29.8,47.9h-0.1c-0.3,0-0.3,0.1-0.3,0.3l0,0c0,0.1,0,0.3,0.3,0.3h0.1"/>
							</g>
						</g>
					</g>
					<g>
						<g>
							<g>
								<path class="st7" d="M25.3,63.8c0.2,0.8,1.5,0.9,3.1,0.8c1.7-0.1,2.5-0.7,2.4-1.5c-0.1-0.8-1.2-1.1-2.9-0.8
									C26.2,62.7,25.1,63,25.3,63.8z"/>
								<path class="st8" d="M29.3,62.5c0.4,0.1,0.7,1.3-0.6,1.3v-0.1c0.8-0.1,1.1-0.9,0.5-1.1c-0.1,0-0.3,0-0.5,0v-0.1
									C28.9,62.5,29.1,62.5,29.3,62.5z M28.7,63.8c-0.1,0-0.2,0-0.3,0c-1.4-0.2-0.7-1.1,0.3-1.3v0.1c-0.6,0.2-1.2,0.8-0.4,1
									c0.1,0,0.3,0.1,0.4,0V63.8z"/>
								<path class="st9" d="M28,64.2c-0.5-0.2-2-0.8-2-1.3c-0.1,0.1-0.2,0.1-0.3,0.2c0.2,0.6,1.6,1.2,2.2,1.3
									c0.5,0.1,1.4,0.2,2.3-0.1c0.2-0.1,0.4-0.3,0.5-0.5C29.8,64.4,28.5,64.4,28,64.2z"/>
							</g>
							<g>
								<path class="st10" d="M30.8,63c-0.3-0.6-1.4-0.9-2.9-0.6c-0.9,0.2-1.6,0.3-2,0.6c0,0.1,0,0.2,0,0.3c0.2,0.8,1.3,0.8,2.8,0.7
									C29.9,64,30.7,63.5,30.8,63z"/>
								<path class="st9" d="M27.4,64c-0.6-0.3-1.4-0.7-1.3-1.1c-0.1,0-0.1,0-0.1,0.1c0,0.1,0,0.2,0,0.3c0,0,0,0,0,0
									c0.2,0.2,0.6,0.5,1,0.7C27,64,27.2,64,27.4,64z"/>
							</g>
						</g>
						<g>
							<g>
								<path class="st7" d="M15.9,63c0.2,0.8,1.5,0.9,3.1,0.8c1.7-0.1,2.5-0.7,2.4-1.5c-0.1-0.8-1.2-1.1-2.9-0.8
									C16.8,61.9,15.7,62.3,15.9,63z"/>
								<path class="st8" d="M19.9,61.7c0.4,0.1,0.7,1.3-0.6,1.3v-0.1c0.8-0.1,1.1-0.9,0.5-1.1c-0.1,0-0.3,0-0.5,0v-0.1
									C19.5,61.7,19.7,61.7,19.9,61.7z M19.3,63c-0.1,0-0.2,0-0.3,0c-1.4-0.2-0.7-1.1,0.3-1.3v0.1c-0.6,0.2-1.2,0.8-0.4,1
									c0.1,0,0.3,0.1,0.4,0V63z"/>
								<path class="st9" d="M18.5,63.4c-0.5-0.2-2-0.8-2-1.3c-0.1,0.1-0.2,0.1-0.3,0.2c0.2,0.6,1.6,1.2,2.2,1.3
									c0.5,0.1,1.4,0.2,2.3-0.1c0.2-0.1,0.4-0.3,0.5-0.5C20.3,63.6,19.1,63.6,18.5,63.4z"/>
							</g>
							<g>
								<path class="st10" d="M21.3,62.2c-0.3-0.6-1.4-0.9-2.9-0.6c-0.9,0.2-1.6,0.3-2,0.6c0,0.1,0,0.2,0,0.3
									c0.2,0.8,1.3,0.8,2.8,0.7C20.5,63.2,21.2,62.7,21.3,62.2z"/>
								<path class="st9" d="M17.9,63.2c-0.6-0.3-1.4-0.7-1.3-1.1c-0.1,0-0.1,0-0.1,0.1c0,0.1,0,0.2,0,0.3c0,0,0,0,0,0
									c0.2,0.2,0.6,0.5,1,0.7C17.6,63.2,17.7,63.2,17.9,63.2z"/>
							</g>
						</g>
						<g>
							<g>
								<path class="st7" d="M36.1,63.4c-0.2,1-1.8,1.1-3.8,1c-2-0.1-3-0.8-2.9-1.7c0.1-0.9,1.5-1.3,3.5-1
									C34.9,62.1,36.3,62.5,36.1,63.4z"/>
								<path class="st8" d="M32,61.9V62c-0.2-0.1-0.4-0.1-0.6,0c-0.7,0.2-0.3,1.2,0.6,1.3v0.2c-1.6,0-1.3-1.5-0.8-1.5
									C31.5,61.9,31.7,61.9,32,61.9z M32,63.3c0.1,0,0.3,0,0.5-0.1c1-0.3,0.2-1-0.5-1.2v-0.1c1.2,0.2,2,1.3,0.4,1.5
									c-0.1,0-0.3,0-0.4,0V63.3z"/>
								<path class="st9" d="M32.9,63.9c0.6-0.2,2.5-0.9,2.3-1.6c0.1,0.1,0.3,0.1,0.4,0.2c-0.2,0.7-2,1.4-2.6,1.6
									c-0.6,0.2-1.7,0.2-2.7-0.1c-0.3-0.2-0.5-0.3-0.6-0.5C30.7,64.2,32.2,64.1,32.9,63.9z"/>
							</g>
							<g>
								<path class="st7" d="M29.5,62.4c0.3-0.7,1.6-1.1,3.4-0.7c1,0.2,1.9,0.4,2.5,0.7c0,0.1,0.1,0.2,0,0.4c-0.2,0.9-1.6,1-3.4,0.9
									C30.5,63.6,29.6,63.1,29.5,62.4z"/>
								<path class="st9" d="M33.6,63.7c0.8-0.3,1.7-0.9,1.6-1.4c0.1,0,0.1,0.1,0.2,0.1c0,0.1,0.1,0.2,0,0.4c0,0,0,0,0,0
									c-0.3,0.3-0.7,0.6-1.2,0.8C34,63.7,33.8,63.7,33.6,63.7z"/>
							</g>
						</g>
						<g>
							<g>
								<path class="st7" d="M27.1,63.7c-0.2,1-1.8,1.1-3.8,1c-2-0.1-3-0.8-2.9-1.7c0.1-0.9,1.5-1.3,3.5-1
									C25.9,62.4,27.2,62.8,27.1,63.7z"/>
								<path class="st8" d="M23,62.2v0.1c-0.2-0.1-0.4-0.1-0.6,0c-0.7,0.2-0.3,1.2,0.6,1.3v0.2c-1.6,0-1.3-1.5-0.8-1.5
									C22.5,62.1,22.7,62.1,23,62.2z M23,63.5c0.1,0,0.3,0,0.5-0.1c1-0.3,0.2-1-0.5-1.2v-0.1c1.2,0.2,2,1.3,0.4,1.5
									c-0.1,0-0.3,0-0.4,0V63.5z"/>
								<path class="st9" d="M23.9,64.2c0.6-0.2,2.5-0.9,2.3-1.6c0.1,0.1,0.3,0.1,0.4,0.2c-0.2,0.7-2,1.4-2.6,1.6
									c-0.6,0.2-1.7,0.2-2.7-0.1c-0.3-0.2-0.5-0.3-0.6-0.5C21.7,64.4,23.2,64.4,23.9,64.2z"/>
							</g>
							<g>
								<path class="st7" d="M20.5,62.7c0.3-0.8,1.6-1.1,3.4-0.7c1,0.2,1.9,0.4,2.5,0.7c0,0.1,0.1,0.2,0,0.4c-0.2,0.9-1.6,1-3.4,0.9
									C21.5,63.9,20.6,63.4,20.5,62.7z"/>
								<path class="st9" d="M24.6,64c0.8-0.3,1.7-0.9,1.6-1.4c0.1,0,0.1,0.1,0.2,0.1c0,0.1,0.1,0.2,0,0.4c0,0,0,0,0,0
									c-0.3,0.3-0.7,0.6-1.2,0.8C25,63.9,24.8,63.9,24.6,64z"/>
							</g>
						</g>
					</g>
				</g>
				<g>
					<polygon class="st11" points="17.2,82.1 33.3,82.1 36.3,66.2 14.8,66.2 					"/>
					<path class="st12" d="M14.2,68.7c0,0.5,0.4,1,1,1h20.7c0.5,0,1-0.4,1-1v-4.3c0-0.5-0.4-1-1-1H15.2c-0.5,0-1,0.4-1,1V68.7z"/>
				</g>
			</g>
		</g>
		<g>
			
				<rect x="108.7" y="81.9" transform="matrix(-1 -4.486956e-11 4.486956e-11 -1 271.3046 217.8355)" class="st13" width="54" height="54"/>
			
				<rect x="110.8" y="84" transform="matrix(-1 -4.490598e-11 4.490598e-11 -1 271.6374 218.0455)" class="st14" width="50" height="50"/>
			
				<rect x="130.9" y="84" transform="matrix(-1 -4.494861e-11 4.494861e-11 -1 271.6374 170.402)" class="st15" width="9.8" height="2.4"/>
			
				<rect x="130.9" y="102.8" transform="matrix(-1 -4.513424e-11 4.513424e-11 -1 271.6374 207.9874)" class="st15" width="9.8" height="2.4"/>
			
				<rect x="130.9" y="119.6" transform="matrix(-1 -4.494861e-11 4.494861e-11 -1 271.6374 241.6025)" class="st15" width="9.8" height="2.4"/>
			<line class="st16" x1="160.8" y1="102.8" x2="110.8" y2="102.8"/>
			<line class="st16" x1="160.8" y1="119.6" x2="110.8" y2="119.6"/>
		</g>
		<g>
			
				<rect x="54.7" y="81.9" transform="matrix(-1 -4.486956e-11 4.486956e-11 -1 163.3886 217.8355)" class="st13" width="54" height="54"/>
			
				<rect x="56.8" y="84" transform="matrix(-1 -4.483359e-11 4.483359e-11 -1 163.7214 218.0455)" class="st17" width="50" height="50"/>
			<circle class="st15" cx="100.4" cy="90.5" r="1.5"/>
			
				<rect x="0.8" y="81.9" transform="matrix(-1 -4.497082e-11 4.497082e-11 -1 55.4726 217.8355)" class="st13" width="54" height="54"/>
			
				<rect x="2.9" y="84" transform="matrix(-1 -4.494239e-11 4.494239e-11 -1 55.8054 218.0455)" class="st18" width="50" height="50"/>
			<circle class="st15" cx="46.5" cy="90.5" r="1.5"/>
		</g>
		<g>
			
				<rect x="6.8" y="136.1" transform="matrix(-1 -4.492863e-11 4.492863e-11 -1 164.7043 276.2943)" class="st19" width="151.1" height="4.2"/>
			
				<rect x="146.2" y="140.2" transform="matrix(-1 -4.501833e-11 4.501833e-11 -1 296.981 312.1152)" class="st19" width="4.6" height="31.7"/>
			
				<rect x="138.6" y="140.2" transform="matrix(-1 -7.529634e-11 7.529634e-11 -1 281.544 312.0319)" class="st19" width="4.3" height="31.6"/>
			
				<rect x="23.3" y="140.2" transform="matrix(-1 -7.408486e-11 7.408486e-11 -1 51.0039 312.0319)" class="st19" width="4.5" height="31.6"/>
			
				<rect x="13.4" y="140.2" transform="matrix(-1 -4.458268e-11 4.458268e-11 -1 31.4951 312.1152)" class="st19" width="4.7" height="31.7"/>
		</g>
	</g>
</g>
<path class="st20" d="M177.4,169.3c0,8.2-7,14.8-15.7,14.8H98.1c-8.6,0-15.7-6.6-15.7-14.8V14.8c0-8.2,7-14.8,15.7-14.8h63.6
	c8.6,0,15.7,6.6,15.7,14.8V169.3z"/>
<path class="st21" d="M141.5,10.1c0,1.2-0.9,2.3-2,2.3h-19.7c-1.1,0-2-1-2-2.3l0,0c0-1.2,0.9-2.3,2-2.3h19.7
	C140.6,7.9,141.5,8.9,141.5,10.1L141.5,10.1z"/>
<rect x="89" y="22.4" class="st22" width="81.9" height="136.1"/>
<rect x="77" y="2.5" class="st23" width="105.9" height="176"/>
<g>
	<defs>
		<rect id="SVGID_1_" x="88.5" y="22.4" width="82.4" height="136.1"/>
	</defs>
	<clipPath id="SVGID_2_">
		<use xlink:href="#SVGID_1_"  style="overflow:visible;"/>
	</clipPath>
	<g class="st25">
		<g>
			<g>
				<g>
					<g>
						<g>
							<path class="st26" d="M32.2,63.4c0,0,2.6-5.9,1.7-10.5c-1-4.6-3.9-12.4-4.1-14.7c-0.2-2.3-0.6,4.5-1.3,7.1
								c-0.8,2.6-1.5,8-1.2,11.3c0.3,3.2,1.8,6.9,1.8,6.9L32.2,63.4z"/>
							<g>
								<path class="st26" d="M29.5,41.2h-0.1c-0.3,0-0.3,0.1-0.3,0.3l0,0c0,0.1,0,0.3,0.3,0.3h0.1"/>
								<path class="st26" d="M29.7,43.4h-0.1c-0.3,0-0.3,0.1-0.3,0.3l0,0c0,0.1,0,0.3,0.3,0.3h0.1"/>
								<path class="st26" d="M28.9,44.5h-0.1c-0.3,0-0.3,0.1-0.3,0.3l0,0c0,0.1,0,0.3,0.3,0.3h0.1"/>
								<path class="st26" d="M29.7,45.8h-0.1c-0.3,0-0.3,0.1-0.3,0.3l0,0c0,0.1,0,0.3,0.3,0.3h0.1"/>
								<path class="st26" d="M28.4,46.6h-0.1c-0.3,0-0.3,0.1-0.3,0.3l0,0c0,0.1,0,0.3,0.3,0.3h0.1"/>
								<path class="st26" d="M29.2,47.9h-0.1c-0.3,0-0.3,0.1-0.3,0.3l0,0c0,0.1,0,0.3,0.3,0.3h0.1"/>
								<path class="st26" d="M28,49.3h-0.1c-0.3,0-0.3,0.1-0.3,0.3l0,0c0,0.1,0,0.3,0.3,0.3H28"/>
								<path class="st26" d="M29.5,50.4h-0.1c-0.3,0-0.3,0.1-0.3,0.3l0,0c0,0.1,0,0.3,0.3,0.3h0.1"/>
								<path class="st26" d="M28.4,51.9h-0.1C28,51.9,28,52,28,52.2l0,0c0,0.1,0,0.3,0.3,0.3h0.1"/>
								<path class="st26" d="M29.2,53.4h-0.1c-0.3,0-0.3,0.1-0.3,0.3l0,0c0,0.1,0,0.3,0.3,0.3h0.1"/>
								<path class="st26" d="M28.9,55.4h-0.1c-0.3,0-0.3,0.1-0.3,0.3l0,0c0,0.1,0,0.3,0.3,0.3h0.1"/>
								<path class="st26" d="M28.9,57.9h-0.1c-0.3,0-0.3,0.1-0.3,0.3l0,0c0,0.1,0,0.3,0.3,0.3h0.1"/>
							</g>
						</g>
						<g>
							<path class="st26" d="M26.6,63.9c0,0,2.1-4.7,1.3-8.4c-0.8-3.7-3.1-9.9-3.3-11.8c-0.2-1.8-0.4,3.6-1.1,5.7
								c-0.6,2.1-1.2,6.4-0.9,9c0.2,2.6,1.4,5.5,1.4,5.5L26.6,63.9z"/>
							<g>
								<path class="st26" d="M23.7,54.3h-0.1c-0.3,0-0.3,0.1-0.3,0.3l0,0c0,0.1,0,0.3,0.3,0.3h0.1"/>
								<path class="st26" d="M23,55.7h-0.1c-0.3,0-0.3,0.1-0.3,0.3l0,0c0,0.1,0,0.3,0.3,0.3H23"/>
								<path class="st26" d="M23.5,57.1h-0.1c-0.3,0-0.3,0.1-0.3,0.3l0,0c0,0.1,0,0.3,0.3,0.3h0.1"/>
								<path class="st26" d="M23,58.4h-0.1c-0.3,0-0.3,0.1-0.3,0.3l0,0c0,0.1,0,0.3,0.3,0.3H23"/>
								<path class="st26" d="M24,60.3h-0.1c-0.3,0-0.3,0.1-0.3,0.3l0,0c0,0.1,0,0.3,0.3,0.3H24"/>
								<path class="st26" d="M23.2,52.6h-0.1c-0.3,0-0.3,0.1-0.3,0.3l0,0c0,0.1,0,0.3,0.3,0.3h0.1"/>
								<path class="st26" d="M24.1,51.3H24c-0.3,0-0.3,0.1-0.3,0.3l0,0c0,0.1,0,0.3,0.3,0.3h0.1"/>
								<path class="st26" d="M23.7,50.1h-0.1c-0.3,0-0.3,0.1-0.3,0.3l0,0c0,0.1,0,0.3,0.3,0.3h0.1"/>
								<path class="st26" d="M24.3,49h-0.1c-0.3,0-0.3,0.1-0.3,0.3l0,0c0,0.1,0,0.3,0.3,0.3h0.1"/>
								<path class="st26" d="M24.2,47.1h-0.1c-0.3,0-0.3,0.1-0.3,0.3l0,0c0,0.1,0,0.3,0.3,0.3h0.1"/>
							</g>
						</g>
						<g>
							<path class="st26" d="M37.2,63.6c0,0,2-4.5,1.3-8c-0.7-3.5-3-9.5-3.1-11.3c-0.2-1.8-0.4,3.4-1,5.4c-0.6,2-1.1,6.2-0.9,8.6
								c0.2,2.5,1.4,5.3,1.4,5.3L37.2,63.6z"/>
							<g>
								<path class="st26" d="M34.3,55.1h-0.1c-0.3,0-0.3,0.1-0.3,0.3l0,0c0,0.1,0,0.3,0.3,0.3h0.1"/>
								<path class="st26" d="M33.7,56.5h-0.1c-0.3,0-0.3,0.1-0.3,0.3l0,0c0,0.1,0,0.3,0.3,0.3h0.1"/>
								<path class="st26" d="M34.2,57.9h-0.1c-0.3,0-0.3,0.1-0.3,0.3l0,0c0,0.1,0,0.3,0.3,0.3h0.1"/>
								<path class="st26" d="M33.7,59.2h-0.1c-0.3,0-0.3,0.1-0.3,0.3l0,0c0,0.1,0,0.3,0.3,0.3h0.1"/>
								<path class="st26" d="M34.6,61.1h-0.1c-0.3,0-0.3,0.1-0.3,0.3l0,0c0,0.1,0,0.3,0.3,0.3h0.1"/>
								<path class="st26" d="M33.9,53.4h-0.1c-0.3,0-0.3,0.1-0.3,0.3l0,0c0,0.1,0,0.3,0.3,0.3h0.1"/>
								<path class="st26" d="M34.8,52.2h-0.1c-0.3,0-0.3,0.1-0.3,0.3l0,0c0,0.1,0,0.3,0.3,0.3h0.1"/>
								<path class="st26" d="M34.3,50.9h-0.1c-0.3,0-0.3,0.1-0.3,0.3l0,0c0,0.1,0,0.3,0.3,0.3h0.1"/>
								<path class="st26" d="M35,49.9h-0.1c-0.3,0-0.3,0.1-0.3,0.3l0,0c0,0.1,0,0.3,0.3,0.3H35"/>
								<path class="st26" d="M34.9,47.9h-0.1c-0.3,0-0.3,0.1-0.3,0.3l0,0c0,0.1,0,0.3,0.3,0.3h0.1"/>
							</g>
						</g>
					</g>
					<g>
						<g>
							<g>
								<path class="st27" d="M30.3,63.8c0.2,0.8,1.5,0.9,3.1,0.8c1.7-0.1,2.5-0.7,2.4-1.5c-0.1-0.8-1.2-1.1-2.9-0.8
									C31.3,62.7,30.2,63,30.3,63.8z"/>
								<path class="st27" d="M34.4,62.5c0.4,0.1,0.7,1.3-0.6,1.3v-0.1c0.8-0.1,1.1-0.9,0.5-1.1c-0.1,0-0.3,0-0.5,0v-0.1
									C33.9,62.5,34.2,62.5,34.4,62.5z M33.7,63.8c-0.1,0-0.2,0-0.3,0c-1.4-0.2-0.7-1.1,0.3-1.3v0.1c-0.6,0.2-1.2,0.8-0.4,1
									c0.1,0,0.3,0.1,0.4,0V63.8z"/>
								<path class="st27" d="M33,64.2c-0.5-0.2-2-0.8-2-1.3c-0.1,0.1-0.2,0.1-0.3,0.2c0.2,0.6,1.6,1.2,2.2,1.3
									c0.5,0.1,1.4,0.2,2.3-0.1c0.2-0.1,0.4-0.3,0.5-0.5C34.8,64.4,33.6,64.4,33,64.2z"/>
							</g>
							<g>
								<path class="st27" d="M35.8,62.9c-0.3-0.6-1.4-0.9-2.9-0.6c-0.9,0.2-1.6,0.3-2,0.6c0,0.1,0,0.2,0,0.3C31,64,32.2,64,33.7,64
									C35,63.9,35.7,63.5,35.8,62.9z"/>
								<path class="st27" d="M32.4,64c-0.6-0.3-1.4-0.7-1.3-1.1c-0.1,0-0.1,0-0.1,0.1c0,0.1,0,0.2,0,0.3c0,0,0,0,0,0
									c0.2,0.2,0.6,0.5,1,0.7C32,64,32.2,64,32.4,64z"/>
							</g>
						</g>
						<g>
							<g>
								<path class="st27" d="M20.9,63c0.2,0.8,1.5,0.9,3.1,0.8c1.7-0.1,2.5-0.7,2.4-1.5c-0.1-0.8-1.2-1.1-2.9-0.8
									C21.8,61.9,20.7,62.2,20.9,63z"/>
								<path class="st27" d="M24.9,61.7c0.4,0.1,0.7,1.3-0.6,1.3v-0.1c0.8-0.1,1.1-0.9,0.5-1.1c-0.1,0-0.3,0-0.5,0v-0.1
									C24.5,61.7,24.7,61.7,24.9,61.7z M24.3,63c-0.1,0-0.2,0-0.3,0c-1.4-0.2-0.7-1.1,0.3-1.3v0.1c-0.6,0.2-1.2,0.8-0.4,1
									c0.1,0,0.3,0.1,0.4,0V63z"/>
								<path class="st27" d="M23.6,63.4c-0.5-0.2-2-0.8-2-1.3c-0.1,0.1-0.2,0.1-0.3,0.2c0.2,0.6,1.6,1.2,2.2,1.3
									c0.5,0.1,1.4,0.2,2.3-0.1c0.2-0.1,0.4-0.3,0.5-0.5C25.4,63.6,24.1,63.6,23.6,63.4z"/>
							</g>
							<g>
								<path class="st27" d="M26.4,62.2c-0.3-0.6-1.4-0.9-2.9-0.6c-0.9,0.2-1.6,0.3-2,0.6c0,0.1,0,0.2,0,0.3
									c0.2,0.8,1.3,0.8,2.8,0.7C25.5,63.2,26.3,62.7,26.4,62.2z"/>
								<path class="st27" d="M23,63.2c-0.6-0.3-1.4-0.7-1.3-1.1c-0.1,0-0.1,0-0.1,0.1c0,0.1,0,0.2,0,0.3c0,0,0,0,0,0
									c0.2,0.2,0.6,0.5,1,0.7C22.6,63.2,22.8,63.2,23,63.2z"/>
							</g>
						</g>
						<g>
							<g>
								<path class="st27" d="M41.1,63.4c-0.2,1-1.8,1.1-3.8,1c-2-0.1-3-0.8-2.9-1.7c0.1-0.9,1.5-1.3,3.5-1
									C40,62.1,41.3,62.5,41.1,63.4z"/>
								<path class="st27" d="M37,61.9V62c-0.2-0.1-0.4-0.1-0.6,0c-0.7,0.2-0.3,1.2,0.6,1.3v0.2c-1.6,0-1.3-1.5-0.8-1.5
									C36.5,61.8,36.8,61.8,37,61.9z M37,63.3c0.1,0,0.3,0,0.5-0.1c1-0.3,0.2-1-0.5-1.2v-0.1c1.2,0.2,2,1.3,0.4,1.5
									c-0.1,0-0.3,0-0.4,0V63.3z"/>
								<path class="st27" d="M37.9,63.9c0.6-0.2,2.5-0.9,2.3-1.6c0.1,0.1,0.3,0.1,0.4,0.2c-0.2,0.7-2,1.4-2.6,1.6
									c-0.6,0.2-1.7,0.2-2.7-0.1c-0.3-0.2-0.5-0.3-0.6-0.5C35.8,64.2,37.2,64.1,37.9,63.9z"/>
							</g>
							<g>
								<path class="st27" d="M34.5,62.4c0.3-0.7,1.6-1.1,3.4-0.7c1,0.2,1.9,0.4,2.5,0.7c0,0.1,0.1,0.2,0,0.4
									c-0.2,0.9-1.6,1-3.4,0.9C35.5,63.6,34.7,63.1,34.5,62.4z"/>
								<path class="st27" d="M38.6,63.7c0.8-0.3,1.7-0.9,1.6-1.4c0.1,0,0.1,0.1,0.2,0.1c0,0.1,0.1,0.2,0,0.4c0,0,0,0,0,0
									c-0.3,0.3-0.7,0.6-1.2,0.8C39.1,63.6,38.9,63.7,38.6,63.7z"/>
							</g>
						</g>
						<g>
							<g>
								<path class="st27" d="M32.1,63.7c-0.2,1-1.8,1.1-3.8,1c-2-0.1-3-0.8-2.9-1.7c0.1-0.9,1.5-1.3,3.5-1
									C30.9,62.3,32.3,62.8,32.1,63.7z"/>
								<path class="st27" d="M28,62.2v0.1c-0.2-0.1-0.4-0.1-0.6,0c-0.7,0.2-0.3,1.2,0.6,1.3v0.2c-1.6,0-1.3-1.5-0.8-1.5
									C27.5,62.1,27.7,62.1,28,62.2z M28,63.5c0.1,0,0.3,0,0.5-0.1c1-0.3,0.2-1-0.5-1.2v-0.1c1.2,0.2,2,1.3,0.4,1.5
									c-0.1,0-0.3,0-0.4,0V63.5z"/>
								<path class="st27" d="M28.9,64.2c0.6-0.2,2.5-0.9,2.3-1.6c0.1,0.1,0.3,0.1,0.4,0.2c-0.2,0.7-2,1.4-2.6,1.6
									c-0.6,0.2-1.7,0.2-2.7-0.1c-0.3-0.2-0.5-0.3-0.6-0.5C26.7,64.4,28.2,64.4,28.9,64.2z"/>
							</g>
							<g>
								<path class="st27" d="M25.5,62.7c0.3-0.8,1.6-1.1,3.4-0.7c1,0.2,1.9,0.4,2.5,0.7c0,0.1,0.1,0.2,0,0.4
									c-0.2,0.9-1.6,1-3.4,0.9C26.5,63.9,25.6,63.4,25.5,62.7z"/>
								<path class="st27" d="M29.6,63.9c0.8-0.3,1.7-0.9,1.6-1.4c0.1,0,0.1,0.1,0.2,0.1c0,0.1,0.1,0.2,0,0.4c0,0,0,0,0,0
									c-0.3,0.3-0.7,0.6-1.2,0.8C30,63.9,29.8,63.9,29.6,63.9z"/>
							</g>
						</g>
					</g>
				</g>
				<g>
					<polygon class="st26" points="22.2,82.1 38.3,82.1 41.3,66.2 19.9,66.2 					"/>
					<path class="st26" d="M19.2,68.7c0,0.5,0.4,1,1,1H41c0.5,0,1-0.4,1-1v-4.3c0-0.5-0.4-1-1-1H20.2c-0.5,0-1,0.4-1,1V68.7z"/>
				</g>
			</g>
		</g>
		<g>
			
				<rect x="113.7" y="81.9" transform="matrix(-1 -4.486956e-11 4.486956e-11 -1 281.3637 217.8146)" class="st26" width="54" height="54"/>
			
				<rect x="115.8" y="84" transform="matrix(-1 -4.487001e-11 4.487001e-11 -1 281.6964 218.0246)" class="st26" width="50" height="50"/>
			<polyline class="st28" points="136,102.8 136,105.2 145.7,105.2 145.7,102.8 			"/>
			<line class="st28" x1="136" y1="102.8" x2="115.8" y2="102.8"/>
			<line class="st28" x1="165.9" y1="102.8" x2="145.7" y2="102.8"/>
			<polyline class="st28" points="136,121.9 136,124.3 145.7,124.3 145.7,121.9 			"/>
			<line class="st28" x1="136" y1="121.9" x2="115.8" y2="121.9"/>
			<line class="st28" x1="165.9" y1="121.9" x2="145.7" y2="121.9"/>
		</g>
		<g>
			
				<rect x="59.7" y="81.9" transform="matrix(-1 -4.486956e-11 4.486956e-11 -1 173.4477 217.8146)" class="st26" width="54" height="54"/>
			
				<rect x="61.9" y="84" transform="matrix(-1 -4.490598e-11 4.490598e-11 -1 173.7805 218.0246)" class="st26" width="50" height="50"/>
			<circle class="st26" cx="105.4" cy="90.5" r="1.5"/>
			
				<rect x="5.8" y="81.9" transform="matrix(-1 -4.497082e-11 4.497082e-11 -1 65.5317 217.8146)" class="st26" width="54" height="54"/>
			
				<rect x="7.9" y="84" transform="matrix(-1 -4.490598e-11 4.490598e-11 -1 65.8645 218.0246)" class="st26" width="50" height="50"/>
			<circle class="st26" cx="51.5" cy="90.5" r="1.5"/>
		</g>
		<polyline class="st26" points="11.8,136.1 11.8,140.2 162.9,140.2 162.9,136.4 		"/>
		
			<rect x="151.2" y="140.2" transform="matrix(-1 -4.541668e-11 4.541668e-11 -1 307.0401 312.0943)" class="st26" width="4.6" height="31.7"/>
		
			<rect x="143.6" y="140.2" transform="matrix(-1 -7.487801e-11 7.487801e-11 -1 291.6031 312.011)" class="st26" width="4.3" height="31.6"/>
		
			<rect x="28.3" y="140.2" transform="matrix(-1 -7.367808e-11 7.367808e-11 -1 61.063 312.011)" class="st26" width="4.5" height="31.6"/>
		
			<rect x="18.4" y="140.2" transform="matrix(-1 -4.497037e-11 4.497037e-11 -1 41.5542 312.0943)" class="st26" width="4.7" height="31.7"/>
	</g>
</g>
<rect x="97.2" y="39.2" class="st29" width="19.6" height="19.6"/>
<rect x="120.1" y="39.2" class="st30" width="19.6" height="19.6"/>
<rect x="143" y="39.2" class="st31" width="19.6" height="19.6"/>
</svg>
