<?xml version="1.0" encoding="utf-8"?>
<!-- Generator: Adobe Illustrator 20.1.0, SVG Export Plug-In . SVG Version: 6.00 Build 0)  -->
<svg version="1.1" id="Objects" xmlns="http://www.w3.org/2000/svg" xmlns:xlink="http://www.w3.org/1999/xlink" x="0px" y="0px"
	 viewBox="0 0 239.3 133" style="enable-background:new 0 0 239.3 133;" xml:space="preserve">
<style type="text/css">
	.st0{fill:#F2C351;}
	.st1{fill:#2B352D;}
	.st2{fill:#D19F30;}
	.st3{fill:#545368;}
	.st4{fill:#AE4343;}
	.st5{fill:#DC9941;}
	.st6{fill:#5E9282;}
	.st7{fill:#6FAF9B;}
	.st8{fill:#FFFFFF;}
	.st9{fill:#E5CF9C;}
	.st10{fill:#C16F56;}
	.st11{fill:#D58264;}
	.st12{fill:#B5966D;}
	.st13{fill:none;}
	.st14{fill:none;stroke:#464646;stroke-width:2;stroke-linecap:round;stroke-linejoin:round;stroke-miterlimit:10;}
</style>
<g>
	<g>
		<path class="st0" d="M205.3,0.1h-68.5c-0.7,0-1.4,0-2.1,0.1c-0.7-0.1-1.4-0.1-2.1-0.1H37.6c-8.8,0-15.9,1.8-15.9,12.6v65.4
			c0,7,7.1,12.6,15.9,12.6h94.9c0.7,0,1.4,0,2.1-0.1c0.7,0.1,1.4,0.1,2.1,0.1h68.5c8.8,0,15.9-5.6,15.9-12.6V12.7
			C221.1,2.4,214,0.1,205.3,0.1z"/>
		<rect x="15.5" y="121.2" class="st1" width="14.5" height="11.4"/>
		<rect x="209.3" y="121.2" class="st1" width="14.5" height="11.4"/>
		<polygon class="st0" points="150,79.3 121.6,79.3 30,79.3 30,124.5 121.6,124.5 150,124.5 214.3,124.5 214.3,79.3 		"/>
		<polygon class="st2" points="150,79.3 121.6,79.3 30,79.3 30,84.6 121.6,84.6 150,84.6 214.3,84.6 214.3,79.3 		"/>
		<path class="st2" d="M8.8,73.2c0,11.8,0,51.3,0,51.3h27.4c0,0,0-48.3,0-61c0-12.6-16.2-41.4-32.5-24C-7,51,8.8,61.5,8.8,73.2z"/>
		<path class="st2" d="M230.4,73.2c0,11.8,0,51.3,0,51.3H203c0,0,0-48.3,0-61c0-12.6,16.2-41.4,32.5-24
			C246.3,51,230.4,61.5,230.4,73.2z"/>
	</g>
</g>
<rect x="-11.5" y="-36.9" class="st13" width="105.9" height="176"/>
</svg>
