<?xml version="1.0" encoding="utf-8"?>
<!-- Generator: Adobe Illustrator 20.1.0, SVG Export Plug-In . SVG Version: 6.00 Build 0)  -->
<svg version="1.1" id="Objects" xmlns="http://www.w3.org/2000/svg" xmlns:xlink="http://www.w3.org/1999/xlink" x="0px" y="0px"
	 viewBox="0 0 80.3 43.8" style="enable-background:new 0 0 80.3 43.8;" xml:space="preserve">
<style type="text/css">
	.st0{fill:#F2C351;}
	.st1{fill:#2B352D;}
	.st2{fill:#D19F30;}
	.st3{fill:#545368;}
	.st4{fill:#AE4343;}
	.st5{fill:#DC9941;}
	.st6{fill:#5E9282;}
	.st7{fill:#6FAF9B;}
	.st8{fill:#FFFFFF;}
	.st9{fill:#E5CF9C;}
	.st10{fill:#C16F56;}
	.st11{fill:#D58264;}
	.st12{fill:#B5966D;}
	.st13{fill:none;}
	.st14{fill:none;stroke:#464646;stroke-width:2;stroke-linecap:round;stroke-linejoin:round;stroke-miterlimit:10;}
</style>
<g>
	<g>
		<polygon class="st3" points="34.5,38 70.8,38 70.9,32.9 34.5,32.9 		"/>
		
			<rect x="50" y="14.5" transform="matrix(5.279160e-03 -1 1 5.279160e-03 21.1163 82.8575)" class="st4" width="4.4" height="32.6"/>
		
			<rect x="35.7" y="28.8" transform="matrix(5.023246e-03 -1 1 5.023246e-03 6.9688 68.4813)" class="st5" width="4.4" height="3.9"/>
		
			<rect x="64.8" y="29.4" transform="matrix(5.526308e-03 -1 1 5.526308e-03 35.7446 97.7283)" class="st5" width="4.4" height="3"/>
		<rect x="48.4" y="9.8" transform="matrix(5.308631e-03 -1 1 5.308631e-03 27.199 76.875)" class="st6" width="7.7" height="30"/>
		
			<rect x="39.8" y="21.3" transform="matrix(5.593048e-03 -1 1 5.593048e-03 18.6784 68.2228)" class="st7" width="7.7" height="6.9"/>
		
			<rect x="61.8" y="23.3" transform="matrix(5.156643e-03 -1 1 5.156643e-03 39.1351 88.9932)" class="st8" width="4.9" height="3.1"/>
	</g>
	<g>
		<ellipse transform="matrix(0.9782 -0.2078 0.2078 0.9782 -1.1224 6.3095)" class="st9" cx="29.5" cy="8.5" rx="2.2" ry="2.2"/>
		<g>
			<path class="st10" d="M14.7,34.8c-1.4,0.6-2.9-0.1-3.5-1.5L5.5,19.3c-0.1-0.3,0-0.6,0.3-0.7l4-1.6c0.3-0.1,0.6,0,0.7,0.3
				l5.7,14.1C16.7,32.7,16.1,34.3,14.7,34.8z M6.7,19.3l5.5,13.6c0.3,0.8,1.3,1.2,2.1,0.9c0.8-0.3,1.2-1.3,0.9-2.1L9.6,18.1
				L6.7,19.3z"/>
		</g>
		<g>
			<path class="st10" d="M19.9,12.8L9.1,23.5c-0.2,0.2-0.6,0.2-0.8,0l-3-3c-0.2-0.2-0.2-0.6,0-0.8L16.1,9c1-1,2.7-1,3.8,0
				C20.9,10,20.9,11.7,19.9,12.8z M8.7,22.4L19.1,12c0.6-0.6,0.6-1.6,0-2.3c-0.6-0.6-1.6-0.6-2.3,0L6.5,20.1L8.7,22.4z"/>
		</g>
		<polygon class="st11" points="25.2,2.4 21.5,-0.1 18.4,4.7 22.1,7 26.4,13.2 29.5,8.5 29.5,8.5 32.6,3.7 		"/>
		<polygon class="st10" points="18.6,8.7 19.6,9.2 22.1,6.8 21.1,6.2 		"/>
		<ellipse class="st10" cx="8.5" cy="20.2" rx="3.8" ry="3.8"/>
		<ellipse class="st8" cx="8.5" cy="20.2" rx="1.9" ry="1.9"/>
		<path class="st11" d="M21.7,38.1c0-4.1-3.4-7.5-7.5-7.5c-4.1,0-7.5,3.4-7.5,7.5H21.7z"/>
	</g>
	<rect y="38" class="st12" width="80.3" height="5.8"/>
</g>
<rect x="56.5" y="18.6" class="st13" width="105.9" height="176"/>
</svg>
