<?xml version="1.0" encoding="utf-8"?>
<!-- Generator: Adobe Illustrator 20.1.0, SVG Export Plug-In . SVG Version: 6.00 Build 0)  -->
<svg version="1.1" id="Слой_1" xmlns="http://www.w3.org/2000/svg" xmlns:xlink="http://www.w3.org/1999/xlink" x="0px" y="0px"
	 viewBox="0 0 122.8 199.2" style="enable-background:new 0 0 122.8 199.2;" xml:space="preserve">
<style type="text/css">
	.st0{fill:#F79520;}
	.st1{fill:#CEC59F;}
	.st2{fill:#EF4858;}
	.st3{fill:#BCBEC0;}
	.st4{fill:#939598;}
	.st5{fill:#FBB161;}
	.st6{fill:#424142;}
	.st7{fill:#1D75BC;}
	.st8{fill:#F8E69C;}
	.st9{fill:#282561;}
	.st10{fill:#3E51A3;}
	.st11{fill:#BE202E;}
	.st12{fill:#E1C960;}
	.st13{fill:#009447;}
	.st14{fill:#4DAE48;}
	.st15{fill:#66B3D4;}
	.st16{fill:#E5E5E4;}
	.st17{clip-path:url(#SVGID_2_);}
	.st18{fill:#EADAB0;}
	.st19{fill:#0EAAC2;}
	.st20{fill:#D8C59C;}
	.st21{fill:#F04F32;}
	.st22{fill:#3E803D;}
	.st23{fill:#F8CE48;}
	.st24{fill:#57AA46;}
	.st25{fill:#EEB530;}
	.st26{fill:#BE2426;}
	.st27{clip-path:url(#SVGID_4_);}
	.st28{fill:#212F3C;}
	.st29{fill:#1B9BBE;}
	.st30{fill:#87D37C;}
</style>
<path class="st15" d="M101.6,1H13.3C6,1,0,7.1,0,14.4v171.3c0,7.4,6,13.4,13.4,13.4h88.3c7.4,0,13.4-6,13.4-13.4V14.4
	C115,7.1,109,1,101.6,1z M58.8,194.2c-0.4,0.1-0.9,0.1-1.3,0.1c-4.3,0-7.8-3.5-7.8-7.8s3.5-7.8,7.8-7.8c0.4,0,0.9,0.1,1.3,0.1
	c3.7,0.6,6.5,3.8,6.5,7.7S62.5,193.6,58.8,194.2z M81.1,14.8H33.9c-1.7,0-3.1-1.4-3.1-3.1c0-1.7,1.4-3.1,3.1-3.1h47.2
	c1.7,0,3.1,1.4,3.1,3.1C84.2,13.4,82.8,14.8,81.1,14.8z"/>
<path class="st16" d="M104.7,22.5c-0.5-0.5-1.2-0.7-1.9-0.7h-44H12.4c-1.6,0-3,1.3-3,3v15.6v131.1c0,0.5,0.1,0.9,0.3,1.4
	c0.5,0.9,1.5,1.6,2.6,1.6h46.4h44c1.6,0,3-1.3,3-3V40.2V24.7C105.7,23.8,105.3,23,104.7,22.5z"/>
<g>
	<defs>
		<path id="SVGID_1_" d="M104.7,22.2c-0.5-0.5-1.2-0.7-1.9-0.7h-44H12.4c-1.6,0-3,1.3-3,3V40v131.1c0,0.5,0.1,0.9,0.3,1.4
			c0.5,0.9,1.5,1.6,2.6,1.6h46.4h44c1.6,0,3-1.3,3-3V40V24.4C105.7,23.6,105.3,22.8,104.7,22.2z"/>
	</defs>
	<clipPath id="SVGID_2_">
		<use xlink:href="#SVGID_1_"  style="overflow:visible;"/>
	</clipPath>
	<g class="st17">
		<path class="st18" d="M0.8,78.3c0,9.1,7.4,16.5,16.5,16.5h83.3v-33H17.3C8.2,61.8,0.8,69.1,0.8,78.3L0.8,78.3z"/>
		<path class="st19" d="M17.3,61.8h87v-3.7h-87c-11.1,0-20.2,9.1-20.2,20.2c0,11.1,9.1,20.2,20.2,20.2h87v-3.7h-87
			c-9.1,0-16.5-7.4-16.5-16.5C0.8,69.1,8.2,61.8,17.3,61.8L17.3,61.8z"/>
		<polygon class="st20" points="91.7,69.1 54.4,69.1 54.4,66.9 91.7,66.9 91.7,69.1 		"/>
		<polygon class="st21" points="85.8,87.9 75.9,81.7 66,87.9 66,66.9 85.8,66.9 85.8,87.9 		"/>
		<path class="st22" d="M102.1,157.4l-16.5,0.1v-40.4h16.5c11.1,0,20.1,9,20.1,20.1l0,0C122.2,148.4,113.2,157.4,102.1,157.4
			L102.1,157.4z"/>
		<path class="st23" d="M102,137.3c0,9.1-7.4,16.5-16.5,16.5H2.3v-33h83.3C94.7,120.8,102,128.2,102,137.3L102,137.3z"/>
		<path class="st24" d="M102,137.3c0,9.1-7.4,16.5-16.5,16.5h-87v3.7h87c11.1,0,20.2-9.1,20.2-20.2c0-11.1-9.1-20.2-20.2-20.2h-87
			v3.7h87C94.7,120.8,102,128.2,102,137.3L102,137.3z"/>
		<polygon class="st25" points="10.9,128.4 52.4,128.4 52.4,125.9 10.9,125.9 10.9,128.4 		"/>
		<polygon class="st26" points="26.7,146.9 31.7,140.8 36.6,146.9 36.6,125.9 26.7,125.9 26.7,146.9 		"/>
		<path class="st18" d="M85.6,101.8H-7v10.3h92.6c2.9,0,5.2-2.3,5.2-5.2C90.8,104.1,88.4,101.8,85.6,101.8L85.6,101.8z"/>
		<path class="st26" d="M114.9,106.9L114.9,106.9c0,4.7-3.8,8.5-8.5,8.5H85.6v-3.3c2.9,0,5.2-2.3,5.2-5.2c0-2.8-2.3-5.2-5.2-5.2
			v-3.3h20.8C111.1,98.5,114.9,102.3,114.9,106.9L114.9,106.9z"/>
		<path class="st21" d="M85.6,98.5h-95.9v3.3h95.9c2.9,0,5.2,2.3,5.2,5.2c0,2.8-2.3,5.2-5.2,5.2h-95.9v3.3h95.9
			c4.7,0,8.5-3.8,8.5-8.5C94.1,102.2,90.3,98.5,85.6,98.5L85.6,98.5z"/>
	</g>
</g>
<g>
	<defs>
		<path id="SVGID_3_" d="M120.5,22.2c-0.6-0.5-1.4-0.7-2.3-0.7H66.7H12.4c-1.9,0-3.5,1.3-3.5,3V40v131.1c0,0.5,0.2,0.9,0.4,1.4
			c0.6,0.9,1.7,1.6,3.1,1.6h54.3h51.5c1.9,0,3.5-1.3,3.5-3V40V24.4C121.6,23.6,121.2,22.8,120.5,22.2z"/>
	</defs>
	<clipPath id="SVGID_4_">
		<use xlink:href="#SVGID_3_"  style="overflow:visible;"/>
	</clipPath>
	<g class="st27">
		<path class="st18" d="M0.3,78.3c0,9.1,7.4,16.5,16.5,16.5h83.3v-33H16.8C7.7,61.8,0.3,69.1,0.3,78.3L0.3,78.3z"/>
		<path class="st19" d="M16.8,61.8h87v-3.7h-87c-11.1,0-20.2,9.1-20.2,20.2c0,11.1,9.1,20.2,20.2,20.2h87v-3.7h-87
			c-9.1,0-16.5-7.4-16.5-16.5C0.3,69.1,7.7,61.8,16.8,61.8L16.8,61.8z"/>
		<polygon class="st20" points="91.3,69.1 54,69.1 54,66.9 91.3,66.9 91.3,69.1 		"/>
		<polygon class="st21" points="85.3,87.9 75.4,81.7 65.5,87.9 65.5,66.9 85.3,66.9 85.3,87.9 		"/>
		<path class="st22" d="M101.6,157.4l-16.5,0.1v-40.4h16.5c11.1,0,20.1,9,20.1,20.1l0,0C121.7,148.4,112.7,157.4,101.6,157.4
			L101.6,157.4z"/>
		<path class="st23" d="M101.5,137.3c0,9.1-7.4,16.5-16.5,16.5H1.8v-33h83.3C94.2,120.8,101.5,128.2,101.5,137.3L101.5,137.3z"/>
		<path class="st24" d="M101.5,137.3c0,9.1-7.4,16.5-16.5,16.5h-87v3.7h87c11.1,0,20.2-9.1,20.2-20.2c0-11.1-9.1-20.2-20.2-20.2h-87
			v3.7h87C94.2,120.8,101.5,128.2,101.5,137.3L101.5,137.3z"/>
		<polygon class="st25" points="10.4,128.4 51.9,128.4 51.9,125.9 10.4,125.9 10.4,128.4 		"/>
		<polygon class="st26" points="26.2,146.9 31.2,140.8 36.1,146.9 36.1,125.9 26.2,125.9 26.2,146.9 		"/>
		<path class="st18" d="M85.1,101.8H-7.5v10.3h92.6c2.9,0,5.2-2.3,5.2-5.2C90.3,104.1,88,101.8,85.1,101.8L85.1,101.8z"/>
		<path class="st26" d="M114.4,106.9L114.4,106.9c0,4.7-3.8,8.5-8.5,8.5H85.1v-3.3c2.9,0,5.2-2.3,5.2-5.2c0-2.8-2.3-5.2-5.2-5.2
			v-3.3h20.8C110.6,98.5,114.4,102.3,114.4,106.9L114.4,106.9z"/>
		<path class="st21" d="M85.1,98.5h-95.9v3.3h95.9c2.9,0,5.2,2.3,5.2,5.2c0,2.8-2.3,5.2-5.2,5.2h-95.9v3.3h95.9
			c4.7,0,8.5-3.8,8.5-8.5C93.6,102.2,89.8,98.5,85.1,98.5L85.1,98.5z"/>
	</g>
</g>
</svg>
