<?xml version="1.0" encoding="utf-8"?>
<!-- Generator: Adobe Illustrator 20.1.0, SVG Export Plug-In . SVG Version: 6.00 Build 0)  -->
<svg version="1.1" id="Слой_1" xmlns="http://www.w3.org/2000/svg" xmlns:xlink="http://www.w3.org/1999/xlink" x="0px" y="0px"
	 viewBox="0 0 132.1 93.3" style="enable-background:new 0 0 132.1 93.3;" xml:space="preserve">
<style type="text/css">
	.st0{fill:#F79520;}
	.st1{fill:#CEC59F;}
	.st2{fill:#EF4858;}
	.st3{fill:#BCBEC0;}
	.st4{fill:#939598;}
	.st5{fill:#FBB161;}
	.st6{fill:#424142;}
	.st7{fill:#1D75BC;}
	.st8{fill:#F8E69C;}
	.st9{fill:#282561;}
	.st10{fill:#3E51A3;}
	.st11{fill:#BE202E;}
	.st12{fill:#E1C960;}
	.st13{fill:#009447;}
	.st14{fill:#4DAE48;}
	.st15{fill:#66B3D4;}
	.st16{fill:#E5E5E4;}
	.st17{clip-path:url(#SVGID_2_);}
	.st18{fill:#EADAB0;}
	.st19{fill:#0EAAC2;}
	.st20{fill:#D8C59C;}
	.st21{fill:#F04F32;}
	.st22{fill:#3E803D;}
	.st23{fill:#F8CE48;}
	.st24{fill:#57AA46;}
	.st25{fill:#EEB530;}
	.st26{fill:#BE2426;}
	.st27{clip-path:url(#SVGID_4_);}
	.st28{fill:#212F3C;}
	.st29{fill:#1B9BBE;}
	.st30{fill:#87D37C;}
</style>
<g>
	<polygon class="st10" points="58.9,8.1 58.8,93.1 131.5,93.1 131.5,8.1 58.9,8.1 	"/>
	<path class="st10" d="M123.9,83.1V0l0-0.1c-0.2,0-64.9,0-65.1,0c-6,0.2-10.7,3.1-10.7,9.1v74.1H123.9L123.9,83.1z"/>
	<path class="st11" d="M58.8,93.1V0c-6,0.2-10.7,3.1-10.7,9.1v76.3C48.1,91.4,52.8,92.9,58.8,93.1L58.8,93.1z"/>
	<path class="st8" d="M129,83.4H59.1c-8.2,0-8.2,6.6,0,6.6H129V83.4L129,83.4z"/>
	<polygon class="st12" points="123.9,0.7 123.9,83.5 129,90.1 129.1,8.1 123.9,0.7 	"/>
	<polygon class="st2" points="107.4,19.3 74,19.3 74,42 107.4,42 107.4,19.3 	"/>
	<polygon class="st8" points="105.5,25.6 76.3,25.6 76.3,23.9 105.5,23.9 105.5,25.6 	"/>
	<polygon class="st8" points="105.5,30.5 76.3,30.5 76.3,28.8 105.5,28.8 105.5,30.5 	"/>
	<polygon class="st8" points="105.5,35.4 76.3,35.4 76.3,33.6 105.5,33.6 105.5,35.4 	"/>
</g>
<g>
	<path class="st13" d="M23.3,38.6c9.4-5.1,21.1-1.7,26.5,7.5L15,64.9C10.2,55.4,13.9,43.7,23.3,38.6L23.3,38.6z M59.5,40.9
		c-8.2-14.6-26.7-19.9-41.5-12C3.2,36.9-2.4,55.2,5.2,70.1l-5.2,2.8l7.6,14.2l64.2-34.6l-7.6-14.2L59.5,40.9L59.5,40.9z"/>
	<polygon class="st6" points="21.6,34.4 20.5,35 17.4,29.3 18.5,28.7 21.6,34.4 	"/>
	<polygon class="st6" points="24.8,30.8 23.6,31.2 22.3,27 23.5,26.6 24.8,30.8 	"/>
	<polygon class="st6" points="29.5,31.9 28.2,32.1 27.3,25.7 28.6,25.5 29.5,31.9 	"/>
	<polygon class="st6" points="33.5,29.6 32.2,29.6 32.2,25.2 33.5,25.2 33.5,29.6 	"/>
	<polygon class="st6" points="37.5,32.2 36.2,31.9 37.4,25.6 38.7,25.8 37.5,32.2 	"/>
	<polygon class="st6" points="42.3,31.5 41.1,31 42.5,26.9 43.8,27.3 42.3,31.5 	"/>
	<polygon class="st6" points="45.3,35.2 44.2,34.6 47.4,28.9 48.5,29.6 45.3,35.2 	"/>
	<polygon class="st6" points="50.2,36.2 49.2,35.3 52,32 53,32.8 50.2,36.2 	"/>
	<polygon class="st6" points="51.9,41.1 51,40 56,35.9 56.8,36.9 51.9,41.1 	"/>
	<polygon class="st6" points="15.9,35.6 17,34.8 14.2,31.4 13.2,32.2 15.9,35.6 	"/>
	<polygon class="st6" points="14.3,40.1 15.2,39.1 10.3,34.8 9.4,35.8 14.3,40.1 	"/>
	<polygon class="st6" points="10.1,42.2 10.9,41.1 7.2,38.7 6.5,39.8 10.1,42.2 	"/>
	<polygon class="st6" points="10.1,46.9 10.6,45.7 4.6,43.2 4.1,44.4 10.1,46.9 	"/>
	<polygon class="st6" points="6.8,50.6 7.2,49.3 2.9,48.2 2.6,49.5 6.8,50.6 	"/>
	<polygon class="st6" points="8.4,55.2 8.4,53.8 2,53.4 1.9,54.7 8.4,55.2 	"/>
	<polygon class="st6" points="6.5,59.7 6.3,58.4 2,58.9 2.1,60.3 6.5,59.7 	"/>
	<polygon class="st6" points="9.6,63.8 9.3,62.5 3,64.4 3.4,65.7 9.6,63.8 	"/>
	<polygon class="st6" points="5.3,78.9 1.6,72.1 2.6,71.5 6.3,78.4 5.3,78.9 	"/>
	<polygon class="st6" points="7.7,74.8 5.2,70.2 6.1,69.6 8.6,74.3 7.7,74.8 	"/>
	<polygon class="st6" points="12.4,75.1 8.7,68.2 9.7,67.7 13.4,74.6 12.4,75.1 	"/>
	<polygon class="st6" points="14.8,71 12.3,66.3 13.2,65.8 15.7,70.5 14.8,71 	"/>
	<polygon class="st6" points="19.5,71.3 15.8,64.4 16.8,63.9 20.4,70.8 19.5,71.3 	"/>
	<polygon class="st6" points="21.8,67.2 19.3,62.5 20.3,62 22.8,66.7 21.8,67.2 	"/>
	<polygon class="st6" points="26.6,67.5 22.9,60.6 23.8,60.1 27.5,67 26.6,67.5 	"/>
	<polygon class="st6" points="28.9,63.4 26.4,58.7 27.4,58.2 29.9,62.9 28.9,63.4 	"/>
	<polygon class="st6" points="33.6,63.7 29.9,56.8 30.9,56.3 34.6,63.2 33.6,63.7 	"/>
	<polygon class="st6" points="36,59.6 33.5,54.9 34.4,54.4 36.9,59 36,59.6 	"/>
	<polygon class="st6" points="40.7,59.9 37,53 38,52.5 41.7,59.4 40.7,59.9 	"/>
	<polygon class="st6" points="43,55.7 40.5,51.1 41.5,50.6 44,55.2 43,55.7 	"/>
	<polygon class="st6" points="47.8,56.1 44.1,49.2 45,48.7 48.7,55.5 47.8,56.1 	"/>
	<polygon class="st6" points="50.1,51.9 47.6,47.3 48.6,46.8 51.1,51.4 50.1,51.9 	"/>
	<polygon class="st6" points="54.9,52.2 51.2,45.4 52.1,44.9 55.8,51.7 54.9,52.2 	"/>
	<polygon class="st6" points="57.2,48.1 54.7,43.5 55.6,43 58.2,47.6 57.2,48.1 	"/>
	<polygon class="st6" points="61.9,48.4 58.2,41.6 59.2,41.1 62.9,47.9 61.9,48.4 	"/>
	<polygon class="st6" points="64.3,44.3 61.8,39.7 62.7,39.2 65.2,43.8 64.3,44.3 	"/>
	<polygon class="st14" points="71.9,52.5 7.7,87.1 3.8,79.8 68,45.2 71.9,52.5 	"/>
</g>
</svg>
