<?xml version="1.0" encoding="utf-8"?>
<!-- Generator: Adobe Illustrator 20.1.0, SVG Export Plug-In . SVG Version: 6.00 Build 0)  -->
<svg version="1.1" id="Слой_1" xmlns="http://www.w3.org/2000/svg" xmlns:xlink="http://www.w3.org/1999/xlink" x="0px" y="0px"
	 viewBox="0 0 123.9 89.1" style="enable-background:new 0 0 123.9 89.1;" xml:space="preserve">
<style type="text/css">
	.st0{fill:#F79520;}
	.st1{fill:#CEC59F;}
	.st2{fill:#EF4858;}
	.st3{fill:#BCBEC0;}
	.st4{fill:#939598;}
	.st5{fill:#FBB161;}
	.st6{fill:#424142;}
	.st7{fill:#1D75BC;}
	.st8{fill:#F8E69C;}
	.st9{fill:#282561;}
	.st10{fill:#3E51A3;}
	.st11{fill:#BE202E;}
	.st12{fill:#E1C960;}
	.st13{fill:#009447;}
	.st14{fill:#4DAE48;}
	.st15{fill:#66B3D4;}
	.st16{fill:#E5E5E4;}
	.st17{clip-path:url(#SVGID_2_);}
	.st18{fill:#EADAB0;}
	.st19{fill:#0EAAC2;}
	.st20{fill:#D8C59C;}
	.st21{fill:#F04F32;}
	.st22{fill:#3E803D;}
	.st23{fill:#F8CE48;}
	.st24{fill:#57AA46;}
	.st25{fill:#EEB530;}
	.st26{fill:#BE2426;}
	.st27{clip-path:url(#SVGID_4_);}
	.st28{fill:#212F3C;}
	.st29{fill:#1B9BBE;}
	.st30{fill:#87D37C;}
</style>
<g>
	<polygon class="st0" points="115.9,85.2 110,83 118,61.8 123.8,64 115.9,85.2 	"/>
	<polygon class="st1" points="123.8,64.1 118,61.9 121.3,58.5 123.3,56.4 123.5,59.3 123.8,64.1 	"/>
	<path class="st2" d="M112.2,88.1l-1.2-0.4c-1.3-0.5-1.9-1.9-1.5-3.2l1.3-3.6l5.9,2.2l-1.3,3.6C114.9,87.9,113.5,88.6,112.2,88.1
		L112.2,88.1z"/>
	<polygon class="st3" points="116.5,83.6 110.7,81.4 111.2,79.9 117.1,82.1 116.5,83.6 	"/>
	<polygon class="st4" points="117,82.3 111.1,80.1 111.7,78.6 117.5,80.8 117,82.3 	"/>
	<polygon class="st3" points="117.5,81 111.6,78.8 112.2,77.4 118,79.5 117.5,81 	"/>
	<polygon class="st5" points="116.2,78.9 113.9,78 119.7,62.5 122,63.4 116.2,78.9 	"/>
	<polygon class="st6" points="123.5,59.3 121.3,58.5 123.3,56.4 123.5,59.3 	"/>
	<polygon class="st7" points="120.1,46.6 105.6,85.5 73.2,73.4 87.7,34.4 120.1,46.6 	"/>
	<polygon class="st8" points="112,51.5 108.5,61 87,53 90.6,43.5 112,51.5 	"/>
	<polygon class="st9" points="91.6,37.9 90.5,37.5 91.8,34.2 92.8,34.6 91.6,37.9 	"/>
	<polygon class="st9" points="94.7,39 93.7,38.7 94.9,35.4 95.9,35.8 94.7,39 	"/>
	<polygon class="st9" points="97.8,40.2 96.8,39.8 98,36.5 99.1,36.9 97.8,40.2 	"/>
	<polygon class="st9" points="101,41.4 99.9,41 101.1,37.7 102.2,38.1 101,41.4 	"/>
	<polygon class="st9" points="104.1,42.5 103,42.2 104.3,38.9 105.3,39.3 104.1,42.5 	"/>
	<polygon class="st9" points="107.2,43.7 106.2,43.3 107.4,40.1 108.4,40.4 107.2,43.7 	"/>
	<polygon class="st9" points="110.3,44.9 109.3,44.5 110.5,41.2 111.6,41.6 110.3,44.9 	"/>
	<polygon class="st9" points="113.5,46.1 112.4,45.7 113.7,42.4 114.7,42.8 113.5,46.1 	"/>
	<polygon class="st9" points="116.6,47.2 115.6,46.8 116.8,43.6 117.8,43.9 116.6,47.2 	"/>
	<polygon class="st4" points="109.2,53.8 91,47 91.3,46.1 109.5,52.9 109.2,53.8 	"/>
	<polygon class="st4" points="108.5,55.7 90.3,48.9 90.6,48.1 108.8,54.9 108.5,55.7 	"/>
	<polygon class="st4" points="107.7,57.7 89.5,50.9 89.8,50 108.1,56.8 107.7,57.7 	"/>
</g>
<g>
	<g>
		<g>
			<path class="st28" d="M55.6,71.7c0.2,0.5,0,1-0.4,1.2c-0.5,0.2-1,0-1.2-0.5L21,1.3c-0.2-0.5,0-1,0.4-1.2c0.5-0.2,1,0,1.2,0.5
				L55.6,71.7z"/>
			<g>
				<path class="st29" d="M65.8,23.8C72.8,39,66.2,57,51,64c-15.2,7-33.2,0.4-40.2-14.8C3.7,34.1,10.4,16.1,25.5,9
					C40.7,2,58.7,8.6,65.8,23.8L65.8,23.8z"/>
				<g>
					<path class="st30" d="M22.7,49C22.7,49,22.8,49,22.7,49C22.8,49,22.7,49,22.7,49L22.7,49z"/>
					<path class="st30" d="M39.1,40.9l-3.8-0.6l-1.1,0.4l-1.9-1.5L30,39.2l-2,1l-0.6,1.3L25.6,40l-2,1l-0.4,1.3l-2.1,1l-0.5-0.9
						l-1.3-0.5l-0.5-1c0,0-1.2,0.3-1.1,0.5c0.2,0.2-0.5,1.2-0.5,1.2c-0.3,0-1.8-1.4-1.8-1.4l0.5-1.4c0,0,2.8-1.2,3.1-1.4
						c0.2-0.2,2,0,2.2,0c0.2,0,1.2-2.9,1.1-3c-0.1-0.1-0.7-3.9-0.8-4.1c-0.1-0.2,1-2.8,1-2.8l3-1.5L24.6,25l0.3-0.2l3.2-0.2l0.9-2.8
						l-1,0.4c-0.1-0.7-3.1-2.3-3.2-2c-0.1,0.3-1.4,1.8-1.4,1.8l-4,1.9c0,0-0.2,2.3-0.2,2.4l-1.3-0.5l-1.1,0.4l-0.9-2l2.1-2.1
						l0.4-0.2l1.4,0.5l2.2-2.1l2.2-1.1c-0.8-1.3-3.2-2-3.2-2L19,18c0.3,0.1-1.8,3.1-1.8,3.1c-0.1,0.1-0.5,0.2-0.5,0.2
						c-0.9-1.1-4.5-0.3-4.5-0.3l0,0C5,33.1,9.1,44.9,9.1,44.9l0.2,0l0.5-0.1l1.3-0.4l1.3,0.5c0,0-0.2-0.2,1.2-0.5
						c1.4-0.3,3.5,0.7,3.5,0.7l2.1-0.9l1.4,0.5l2-0.9l0.5,1.1c0,0-0.6,1.2-0.6,1.7c0,0.4,0.2,2,0.3,2.4c0,0,0.1,0.1,0.5,0.8
						c0.6,1.2,4.5,2.4,4.5,2.4l2-0.8l1,2l3.5,2.7c0,0,0.9,2.5,1.1,2.4c0,0,1.2,1.3,1.6,1.2c0,0,1.6,1.4,1.6,1.6c0,0,0.7,0.6,1,1
						c0.3,0.3,1.5,0.7,1.5,0.7l1.8-0.9c0,0-1.3-0.6-1.6-0.7C40.8,61,39.6,60,39.6,60s0-0.1-0.2-0.4c-0.2-0.3-0.1-2.7-0.3-3
						c-0.2-0.3,1.6-2,1.6-2l-1.4-3l1.5-1.9c0,0-0.9-1.7-0.8-2c0-0.3,1.3-1.3,1.4-1.9c0.1-0.6-0.4-3.1-0.4-3.3
						C41,42.4,39.1,40.7,39.1,40.9L39.1,40.9z"/>
					<polygon class="st30" points="26.5,29 27.8,29.4 28.4,28.1 27,27.6 25.9,28 26.3,28.8 					"/>
					<polygon class="st30" points="29.2,27.5 27.8,27.2 27.4,26.1 29.4,25.2 29.7,26.1 29.4,27.2 					"/>
					<polygon class="st30" points="38.9,14.8 39.4,15.8 40.8,16.2 41.1,15.1 40.1,14.4 					"/>
					<polygon class="st30" points="41,13.9 41.5,12.6 43.7,12.6 43.7,14.8 42.7,15.3 42.3,14.2 					"/>
					<path class="st30" d="M43.5,6.7l1.3,2.9c0,0,0.3,0.3,1.7,0.7l2.2-0.1l-0.4,1.4l-2,1.1l-0.6,1.2l0.9,2l-1.3-0.4l-2,1l0,2.3
						l1.8,1.4l1.8-0.6l0.7-1.8c0,0,1.6-1.5,1.8-2.9c0.2-1.4,1.5,1,1.5,1l1,1.4l1.4,0.4l1.4-1.8l-2.6-1.2l0.4-1.2l2.7,0.8l0.6,1.1
						l1.2-0.4l1.2,0.5l1.2-0.4C59.4,14.8,53.4,8.4,43.5,6.7L43.5,6.7z"/>
					<path class="st30" d="M67.5,44.7l-1.9-0.4l-0.9-2l-3.4-2.8l0.8-3.1L60.3,35l-1-2.4l-2.1,0.1l-2.2,0.6l-1.5,2.2l-2.2,0.8
						l-2.5,0.1c0,0-2.2-2.1-2.2-2.2l-1.4-2.9l0.4-1.3l-1.4-3.5l0.5-1.2l1.9-0.9l1.1-1.6l3.5-1.9l3.6,0.6c0,0,1.6-2.8,2.5-3
						c0.9-0.2,1.6-0.1,2.1-0.2c0.5-0.1,2.2-0.9,2.2-0.9S72,27.9,67.5,44.7L67.5,44.7z"/>
				</g>
			</g>
			<path class="st28" d="M51.6,66.6c-16.5,7.6-36,0.5-43.6-16c-7.6-16.5-0.5-36,16-43.6l-2-4.3C3.1,11.3-5.1,33.7,3.6,52.5
				c8.7,18.8,31.1,27.1,49.9,18.3L51.6,66.6z"/>
		</g>
		<rect x="34.7" y="74.1" class="st28" width="5.3" height="8.9"/>
		<path class="st28" d="M54.9,87.1c0,1-0.8,1.9-1.9,1.9H21.7c-1,0-1.9-0.8-1.9-1.9v-2.2c0-1,0.8-1.9,1.9-1.9H53c1,0,1.9,0.8,1.9,1.9
			V87.1z"/>
	</g>
</g>
</svg>
