<?xml version="1.0" encoding="utf-8"?>
<!-- Generator: Adobe Illustrator 20.1.0, SVG Export Plug-In . SVG Version: 6.00 Build 0)  -->
<svg version="1.1" id="Layer_1" xmlns="http://www.w3.org/2000/svg" xmlns:xlink="http://www.w3.org/1999/xlink" x="0px" y="0px"
	 viewBox="0 0 145.4 108.5" style="enable-background:new 0 0 145.4 108.5;" xml:space="preserve">
<style type="text/css">
	.st0{fill:#42C6E7;}
	.st1{fill:#BFDC35;}
	.st2{fill:#F8DD57;}
	.st3{fill:#513224;}
	.st4{fill:#FA0900;}
</style>
<g>
	<g>
		<g>
			<path class="st0" d="M138.4,0c3.8,0,6.9,3.6,6.9,8.1v91.9c0,4.5-3.1,8.1-6.9,8.1H7.1c-3.8,0-6.9-3.6-6.9-8.1V8.1
				C0.2,3.6,3.3,0,7.1,0H138.4z"/>
		</g>
		<g>
			<rect x="128" y="78.6" class="st1" width="8.8" height="20.3"/>
		</g>
		<g>
			<rect x="128" y="9.3" class="st1" width="8.8" height="5.8"/>
		</g>
		<g>
			<rect x="128" y="18.1" class="st1" width="8.8" height="5.8"/>
		</g>
		<g>
			<rect x="128" y="27" class="st1" width="8.8" height="5.8"/>
		</g>
		<g>
			<rect x="128" y="58.4" class="st1" width="8.8" height="15.9"/>
		</g>
		<g>
			<rect x="8.2" y="9.3" class="st2" width="116.2" height="89.6"/>
		</g>
		<g>
			<path class="st3" d="M86.3,35.7c1.2,0.5,2.3,1,3.4,1.4c5.8,2.5,10.9,4.7,17.1,3.2c9.3-2.3,16-4.4,17.6-5v-3.2
				c-2.3,0.9-9.1,3.6-17.3,5.6l-5.6-28.5h-1.8l4.7,29c-4.7,0.6-8.8-1.2-13.8-3.3c-4.9-2.1-10.5-5.4-17.9-6.2
				c-6.5-0.7-16,1.6-26.1,3.8l19-23.3h-2.3l-20.2,24c0.6-0.1,1.6-0.3,2.4-0.5c-0.8,0.2-1.6,0.4-2.4,0.5c-2.3,0.5-4.6,1.1-6.9,1.6
				c-0.8,0.2-1.6,0.4-2.4,0.6c-4,1-7.9,2-11.5,3c-5.3,1.4-10.8,1.6-14.3,2.2v3.6c3.5-0.7,9.4-2,14.9-3.4c3.5-0.9,7.3-1.9,11.2-2.9
				c9,4,38.7,16.8,44.5,19.1l-1.5,8.3c-2.9-1.6-6.6-3.9-10.9-4.5c-16.2-2.1-30.8,8.7-35.7,13.9L8.2,57.8v4.5l19.2,14.5
				c-4.7,2-13.2,3.5-19.2,4.2c-0.1,0-0.2,0-0.2,0l0.1,1.2V87c5.6-0.9,21.7-4.3,25.9-9c1.4-1.5,4.1-3.7,7.5-5.7
				c2.6,4.1,6.7,14.6,11.3,26.5h7.4c-4.7-12.7-11.5-24-14.5-28.7c5.8-2.7,12.9-4.6,20.3-3.6c7.5,1,11.8,4.5,15.9,8
				c3.9,3.3,7.5,7.4,13.1,7.5c8.8,0.1,24.1-2.8,29.3-4v-6.6c-3.4,0.8-20.6,6.2-29.5,6c-4-0.1-6.4-3.6-9.9-6.5
				c-1-0.8-2.1-1.7-3.3-2.6l0,0L86.3,35.7z M106,38c-0.2,0-0.4,0.1-0.6,0.1c-0.1,0-0.2,0-0.4,0C105.4,38.1,105.8,38.1,106,38z
				 M39.9,36.5c0.8-0.2,1.7-0.4,2.5-0.6c0.4-0.1,0.7-0.2,1.1-0.2c11.2-2.6,22.2-4.5,29.1-3.7c3.9,0.4,7.3,1.3,10.3,2.4l-3.3,17.9
				C73.7,50,50.3,41.6,38.7,36.8C39.1,36.7,39.5,36.6,39.9,36.5z"/>
		</g>
		<g>
			<path class="st4" d="M100.1,58.6l7.2-6l-26.7,2.8l18.9,19l-2-10.1c4.4,0.6,9.9,2.4,9.9,4.5c0,7.6,0,7.8-0.1,14.2
				c0,3.2-0.1,7.9-0.1,15.9l5.9,0c0.1-8,0.1-12.7,0.1-15.9c0.1-6.4,0.1-6.6,0.1-14.3C113.4,62,104.8,59.5,100.1,58.6z"/>
		</g>
	</g>
	<g>
		<polygon class="st4" points="46.6,42.1 38.4,28.3 38,36.3 30.8,39.8 		"/>
	</g>
</g>
</svg>
