<?xml version="1.0" encoding="utf-8"?>
<!-- Generator: Adobe Illustrator 20.1.0, SVG Export Plug-In . SVG Version: 6.00 Build 0)  -->
<svg version="1.1" id="Layer_1" xmlns="http://www.w3.org/2000/svg" xmlns:xlink="http://www.w3.org/1999/xlink" x="0px" y="0px"
	 viewBox="0 0 157.8 182.8" style="enable-background:new 0 0 157.8 182.8;" xml:space="preserve">
<style type="text/css">
	.st0{fill:#42C6E7;}
	.st1{fill:#FFFFFF;}
	.st2{fill:#F8DD57;}
	.st3{fill:#513224;}
	.st4{fill:#BFDC35;}
	.st5{fill:#FA0900;}
</style>
<g>
	<g>
		<g>
			<path class="st0" d="M154,64.3H95.9c-2.8,0-5.1,2.6-5.1,5.7v108.7c0,3.2,2.3,5.7,5.1,5.7H154c2.8,0,5.2-2.6,5.2-5.7V70
				C159.1,66.8,156.8,64.3,154,64.3z M153.2,164.2H96.6V74.9h56.7V164.2z"/>
			<path class="st1" d="M154,186H95.9c-3.7,0-6.7-3.2-6.7-7.2V70c0-4,3-7.2,6.7-7.2H154c3.7,0,6.7,3.2,6.7,7.2v108.7
				C160.7,182.7,157.7,186,154,186z M95.9,65.8c-2,0-3.6,1.9-3.6,4.2v108.7c0,2.3,1.6,4.2,3.6,4.2H154c2,0,3.6-1.9,3.6-4.2V70
				c0-2.3-1.6-4.2-3.6-4.2H95.9z M154.8,165.7H95.1V73.4h59.7V165.7z M98.1,162.7h53.6V76.4H98.1V162.7z"/>
		</g>
	</g>
	<g>
		<g>
			<rect x="96.6" y="74.9" class="st2" width="56.7" height="89.3"/>
		</g>
	</g>
	<g>
		<g>
			<path class="st1" d="M131.5,175.8c0,2.6-2.1,4.7-4.7,4.7H123c-2.6,0-4.7-2.1-4.7-4.7v-3.8c0-2.6,2.1-4.7,4.7-4.7h3.8
				c2.6,0,4.7,2.1,4.7,4.7V175.8z"/>
		</g>
	</g>
	<g>
		<g>
			<path class="st1" d="M140.7,69.6c0,0.5-0.4,1-0.9,1H110c-0.5,0-0.9-0.4-0.9-1l0,0c0-0.5,0.4-1,0.9-1h29.9
				C140.3,68.6,140.7,69.1,140.7,69.6L140.7,69.6z"/>
		</g>
	</g>
	<g>
		<g>
			<path class="st3" d="M112.1,143.4c3.4-0.8,6.9-1.8,10.3-2.9c3.4-1.1,6.8-2.4,9.9-3.9c1.5-0.8,3-1.6,4.3-2.6
				c1.3-0.9,2.3-2.1,2.5-2.9c0.1-0.2,0.1-0.4,0.1-0.5c0-0.1-0.1-0.6-0.1-0.7c-0.1-0.5-0.4-0.9-0.8-1.3c-0.8-0.8-2.4-1.4-4-1.7
				c-1.7-0.4-3.5-0.6-5.3-0.8c-1.9-0.3-3.8-0.5-5.9-1.4c-0.5-0.3-1.1-0.6-1.5-1c-0.5-0.4-0.9-1.1-1.2-1.7c-0.3-0.6-0.3-1.3-0.3-1.9
				c0-0.6,0.2-1.3,0.4-1.8c0.5-1.2,1.3-2,2.1-2.7c0.8-0.7,1.7-1.2,2.6-1.6c3.5-1.7,7.1-2.5,10.4-4c0.8-0.4,1.6-0.8,2.2-1.4
				c0.3-0.3,0.5-0.6,0.6-1c0.1-0.4,0-0.8-0.2-1.2c-0.4-0.8-1.1-1.4-1.8-2c-0.7-0.6-1.5-1.1-2.2-1.6c0.8,0.4,1.6,0.9,2.4,1.4
				c0.8,0.5,1.5,1.1,2.1,2c0.3,0.4,0.5,0.9,0.4,1.5c0,0.6-0.3,1.1-0.6,1.5c-0.7,0.8-1.5,1.3-2.3,1.8c-3.3,1.8-6.9,3-9.9,4.9
				c-1.5,0.9-2.8,2.1-3.1,3.3c-0.1,0.3-0.1,0.6-0.1,0.9c0,0.3,0.1,0.6,0.2,0.8c0.2,0.4,0.6,0.7,1.2,0.9c1.3,0.5,3.1,0.6,4.9,0.7
				c1.8,0.1,3.7,0.1,5.7,0.4c2,0.3,4.1,0.7,6.2,2.2c1,0.8,1.9,1.9,2.4,3.1c0.1,0.1,0.1,0.3,0.2,0.5l0.1,0.3l0.1,0.2l0,0.2l0,0l0,0.1
				l0,0.1c0,0.2,0.1,0.4,0.1,0.6c0.1,0.7,0.1,1.5-0.1,2.2c-0.3,1.4-1,2.6-1.7,3.5c-0.7,0.9-1.5,1.7-2.3,2.4
				c-1.6,1.4-3.2,2.5-4.9,3.6c-3.4,2-6.8,3.7-10.3,5.1c-3.5,1.5-7,2.8-10.7,4L112.1,143.4z"/>
		</g>
	</g>
	<g>
		<g>
			<ellipse class="st4" cx="112.2" cy="136.9" rx="8.4" ry="9.1"/>
		</g>
	</g>
	<g>
		<g>
			<path class="st5" d="M112,126.8c-5.3,0-9.6,4.3-9.6,9.6c0,8.2,8,18,9.6,18c1.6,0,9.6-9.8,9.6-18
				C121.5,131.1,117.3,126.8,112,126.8z M112,142.2c-3.2,0-5.8-2.6-5.8-5.8c0-3.2,2.6-5.8,5.8-5.8c3.2,0,5.8,2.6,5.8,5.8
				C117.8,139.6,115.2,142.2,112,142.2z"/>
		</g>
	</g>
	<g>
		<g>
			<ellipse class="st4" cx="134.3" cy="94.6" rx="4.5" ry="4.9"/>
		</g>
	</g>
	<g>
		<g>
			<path class="st5" d="M134.2,89.1c-2.9,0-5.2,2.3-5.2,5.2c0,4.4,4.3,9.7,5.2,9.7c0.9,0,5.2-5.3,5.2-9.7
				C139.4,91.4,137.1,89.1,134.2,89.1z M134.2,97.4c-1.7,0-3.1-1.4-3.1-3.1c0-1.7,1.4-3.1,3.1-3.1c1.7,0,3.1,1.4,3.1,3.1
				C137.4,96,135.9,97.4,134.2,97.4z"/>
		</g>
	</g>
</g>
<g>
	<g>
		<g>
			<circle class="st4" cx="55" cy="49.3" r="47.9"/>
		</g>
	</g>
	<g>
		<g>
			<rect x="53.6" y="1.5" class="st3" width="2.9" height="95.7"/>
		</g>
	</g>
	<g>
		<g>
			<rect x="7.2" y="47.9" class="st3" width="95.7" height="2.9"/>
		</g>
	</g>
	<g>
		<g>
			<path class="st3" d="M55,29c-12.6,0-25.1-2.5-36.8-7.6l1.2-2.7c22.7,9.8,48.7,9.8,71.3,0l1.2,2.7C80.2,26.5,67.6,29,55,29z"/>
		</g>
	</g>
	<g>
		<g>
			<path class="st3" d="M90.7,79.9c-22.7-9.8-48.7-9.8-71.3,0l-1.8-2.4c23.4-10.1,52-9.7,75.4,0.4L90.7,79.9z"/>
		</g>
	</g>
	<g>
		<g>
			<path class="st3" d="M74.1,94.4l-2.7-1.2c12.1-27.9,12.1-59.9,0-87.8l2.7-1.2C86.4,32.9,86.4,65.8,74.1,94.4z"/>
		</g>
	</g>
	<g>
		<g>
			<path class="st3" d="M36,94.4C23.6,65.8,23.6,32.9,36,4.3l2.7,1.2c-12.1,27.9-12.1,59.9,0,87.8L36,94.4z"/>
		</g>
	</g>
	<g>
		<g>
			<path class="st3" d="M55,98.6c-27.2,0-49.3-22.1-49.3-49.3C5.7,22.2,27.9,0,55,0c27.2,0,49.3,22.1,49.3,49.3
				C104.4,76.5,82.2,98.6,55,98.6z M55,2.9C29.5,2.9,8.7,23.8,8.7,49.3c0,25.6,20.8,46.4,46.4,46.4c25.6,0,46.4-20.8,46.4-46.4
				C101.4,23.8,80.6,2.9,55,2.9z"/>
		</g>
	</g>
	<g>
		<g>
			
				<rect x="37.1" y="60.2" transform="matrix(0.7071 -0.7071 0.7071 0.7071 -32.0841 48.8244)" class="st3" width="11.6" height="5.8"/>
		</g>
	</g>
	<g>
		<g>
			<ellipse transform="matrix(0.7071 -0.7071 0.7071 0.7071 -9.9282 58.0056)" class="st1" cx="65.1" cy="41" rx="25.6" ry="25.6"/>
		</g>
	</g>
	<g>
		<g>
			<path class="st3" d="M65.1,68c-7.2,0-14-2.8-19.1-7.9c-10.5-10.5-10.5-27.7,0-38.2c5.1-5.1,11.9-7.9,19.1-7.9
				c7.2,0,14,2.8,19.1,7.9c10.5,10.5,10.5,27.7,0,38.2C79,65.2,72.3,68,65.1,68z M65.1,16.9c-6.4,0-12.5,2.5-17,7.1
				c-9.4,9.4-9.4,24.7,0,34.1c4.6,4.6,10.6,7.1,17,7.1s12.5-2.5,17-7.1c9.4-9.4,9.4-24.7,0-34.1C77.5,19.4,71.5,16.9,65.1,16.9z"/>
		</g>
	</g>
	<g>
		<g>
			<path class="st2" d="M15.1,103.6c-3.3,3.3-8.6,3.3-11.8,0l-0.8-0.8c-3.3-3.3-3.3-8.6,0-11.9l25.1-25.1c3.3-3.3,8.6-3.3,11.9,0
				l0.8,0.8c3.3,3.3,3.3,8.6,0,11.8L15.1,103.6z"/>
		</g>
	</g>
	<g>
		<g>
			<ellipse class="st0" cx="65.3" cy="35.7" rx="9.9" ry="10.9"/>
		</g>
	</g>
	<g>
		<g>
			<path class="st5" d="M65.1,23.6c-6.3,0-11.4,5.1-11.4,11.4c0,9.7,9.5,21.4,11.4,21.4c1.9,0,11.4-11.6,11.4-21.4
				C76.5,28.7,71.4,23.6,65.1,23.6z M65.1,41.9c-3.8,0-6.9-3.1-6.9-6.9s3.1-6.9,6.9-6.9c3.8,0,6.9,3.1,6.9,6.9S68.9,41.9,65.1,41.9z
				"/>
		</g>
	</g>
</g>
</svg>
