<?xml version="1.0" encoding="utf-8"?>
<!-- Generator: Adobe Illustrator 20.1.0, SVG Export Plug-In . SVG Version: 6.00 Build 0)  -->
<svg version="1.1" id="Layer_1" xmlns="http://www.w3.org/2000/svg" xmlns:xlink="http://www.w3.org/1999/xlink" x="0px" y="0px"
	 viewBox="285 311.7 73.8 74.5" style="enable-background:new 285 311.7 73.8 74.5;" xml:space="preserve">
<style type="text/css">
	.st0{fill:#66B3D4;}
	.st1{fill:#E5E5E4;}
	.st2{clip-path:url(#SVGID_2_);}
	.st3{fill:#317060;}
	.st4{fill:#80C588;}
	.st5{fill:#2B6657;}
	.st6{fill:#2F6C5C;}
	.st7{fill:none;stroke:#2B6657;stroke-width:2;stroke-linecap:round;stroke-linejoin:round;stroke-miterlimit:10;}
</style>
<path class="st0" d="M323.2,311.9h-33c-2.8,0-5,2.3-5,5v64c0,2.8,2.2,5,5,5h33c2.8,0,5-2.2,5-5v-64
	C328.2,314.1,325.9,311.9,323.2,311.9z M307.2,384.1c-0.2,0-0.3,0-0.5,0c-1.6,0-2.9-1.3-2.9-2.9c0-1.6,1.3-2.9,2.9-2.9
	c0.2,0,0.3,0,0.5,0c1.4,0.2,2.4,1.4,2.4,2.9C309.6,382.6,308.6,383.8,307.2,384.1z M315.5,317h-17.7c-0.6,0-1.2-0.5-1.2-1.2
	s0.5-1.2,1.2-1.2h17.7c0.7,0,1.2,0.5,1.2,1.2S316.2,317,315.5,317z"/>
<path class="st1" d="M324.3,319.9c-0.2-0.2-0.4-0.3-0.7-0.3h-16.4h-17.3c-0.6,0-1.1,0.5-1.1,1.1v5.8v49c0,0.2,0,0.4,0.1,0.5
	c0.2,0.4,0.6,0.6,1,0.6h17.3h16.4c0.6,0,1.1-0.5,1.1-1.1v-49v-5.8C324.7,320.4,324.6,320.1,324.3,319.9z"/>
<g>
	<defs>
		<path id="SVGID_1_" d="M373.7,319.9c-0.5-0.2-1.1-0.3-1.7-0.3h-39.2h-41.4c-1.5,0-2.6,0.5-2.6,1.1v5.8v49c0,0.2,0.1,0.4,0.3,0.5
			c0.4,0.4,1.3,0.6,2.3,0.6h41.4H372c1.5,0,2.6-0.5,2.6-1.1v-49v-5.8C374.6,320.4,374.3,320.1,373.7,319.9z"/>
	</defs>
	<clipPath id="SVGID_2_">
		<use xlink:href="#SVGID_1_"  style="overflow:visible;"/>
	</clipPath>
	<g class="st2">
		<path class="st3" d="M311.8,376.4v-27.8c0-2.6,2.1-4.7,4.7-4.7h3.6c2.6,0,4.7,2.1,4.7,4.7v27.8H311.8z"/>
		<circle class="st3" cx="320.7" cy="356.3" r="8.5"/>
		<g>
			<path class="st3" d="M346,352.5c0.9,0,1.7-0.8,1.7-1.7c0-3.7-3-6.7-6.7-6.7h-6.3c-0.9,0-1.7,0.8-1.7,1.7c0,0.9,0.8,1.7,1.7,1.7
				h6.3c1.9,0,3.4,1.5,3.4,3.4C344.4,351.8,345.1,352.5,346,352.5z"/>
		</g>
		<path class="st3" d="M317.3,376.4c0-2.7,2.2-4.9,4.9-4.9c2.7,0,4.9,2.2,4.9,4.9H317.3z"/>
		<path class="st4" d="M302.1,376.4v-27.8c0-2.6,2.1-4.7,4.7-4.7h3.6c2.6,0,4.7,2.1,4.7,4.7v27.8H302.1z"/>
		<path class="st4" d="M307.6,376.4c0-2.7,2.2-4.9,4.9-4.9s4.9,2.2,4.9,4.9H307.6z"/>
		<path class="st4" d="M330.1,337.6c-7.4-8.6-20.3-9.5-28.9-2.1c-8.6,7.4-9.5,20.3-2.1,28.9L330.1,337.6z"/>
		<path class="st4" d="M309.8,350.7c6.4,7.4,17.6,8.2,25,1.8c7.4-6.4,8.2-17.6,1.8-25L309.8,350.7z"/>
		<circle class="st4" cx="338.5" cy="328.8" r="7.4"/>
		<circle class="st4" cx="339.8" cy="325" r="5.2"/>
		<path class="st4" d="M353.4,334h-8.7c-2.9,0-5.2-2.4-5.2-5.2l0,0c0-2.9,2.4-5.2,5.2-5.2h8.7c2.9,0,5.2,2.4,5.2,5.2l0,0
			C358.7,331.7,356.3,334,353.4,334z"/>
		<path class="st4" d="M354.1,336.3h-15.5c-0.8,0-1.4-0.6-1.4-1.4l0,0c0-0.8,0.6-1.4,1.4-1.4h15.5c0.8,0,1.4,0.6,1.4,1.4v0
			C355.5,335.6,354.9,336.3,354.1,336.3z"/>
		<path class="st4" d="M356.1,327.2L356.1,327.2c-1.2,0-2.1-1-2.1-2.1l0,0c0-1.2,1-2.1,2.1-2.1h0c1.2,0,2.1,1,2.1,2.1v0
			C358.2,326.2,357.2,327.2,356.1,327.2z"/>
		<circle class="st5" cx="340.4" cy="322.9" r="1.2"/>
		<path class="st4" d="M331.8,331.6c0,0-3.5,3.1-8.5,0.8l-1.7,6l6.8,0.9l4.5-4.3L331.8,331.6z"/>
		<g>
			<path class="st4" d="M293.2,351.8c9.4,3.7,19.9,0,25-8.3c0.1,2.8-0.3,5.7-1.4,8.4c-4.2,10.6-16.1,15.8-26.7,11.6
				s-15.8-16.1-11.6-26.7c0.5-1.2,1-2.3,1.7-3.4C280.5,341.4,285.4,348.8,293.2,351.8z"/>
		</g>
		<circle class="st5" cx="356.3" cy="324.8" r="0.5"/>
		<circle class="st4" cx="312" cy="356.3" r="8.5"/>
		<g>
			<path class="st4" d="M342.3,355.5c0.9,0,1.7-0.8,1.7-1.7c0-3.7-3-6.7-6.7-6.7h-6.3c-0.9,0-1.7,0.8-1.7,1.7s0.8,1.7,1.7,1.7h6.3
				c1.9,0,3.4,1.5,3.4,3.4C340.6,354.7,341.4,355.5,342.3,355.5z"/>
		</g>
		<g>
			
				<ellipse transform="matrix(0.9303 -0.3668 0.3668 0.9303 -103.285 136.3863)" class="st6" cx="307.2" cy="339.9" rx="0.6" ry="0.6"/>
			
				<ellipse transform="matrix(0.9303 -0.3668 0.3668 0.9303 -101.8161 136.6722)" class="st6" cx="308.7" cy="336.2" rx="2" ry="2"/>
			
				<ellipse transform="matrix(0.9303 -0.3668 0.3668 0.9303 -102.5821 135.3638)" class="st6" cx="304.9" cy="337.6" rx="0.9" ry="0.9"/>
			
				<ellipse transform="matrix(0.9303 -0.3668 0.3668 0.9303 -103.9719 135.086)" class="st6" cx="303.5" cy="341.1" rx="1.7" ry="1.7"/>
			
				<ellipse transform="matrix(0.9303 -0.3668 0.3668 0.9303 -103.189 137.5375)" class="st6" cx="310.3" cy="340.3" rx="0.9" ry="0.9"/>
		</g>
		<path class="st7" d="M355.1,334c0,0-13.2,0.4-14.6-0.6"/>
	</g>
</g>
</svg>
