<?xml version="1.0" encoding="utf-8"?>
<!-- Generator: Adobe Illustrator 20.1.0, SVG Export Plug-In . SVG Version: 6.00 Build 0)  -->
<svg version="1.1" id="Layer_1" xmlns="http://www.w3.org/2000/svg" xmlns:xlink="http://www.w3.org/1999/xlink" x="0px" y="0px"
	 viewBox="0 0 259.5 206.5" style="enable-background:new 0 0 259.5 206.5;" xml:space="preserve">
<style type="text/css">
	.st0{fill:#FFD655;}
	.st1{fill:#E8E8E8;}
	.st2{opacity:5.000000e-02;}
	.st3{fill:#ABD35F;}
	.st4{fill:#D2D8D8;}
	.st5{fill:#34BFC6;}
</style>
<g>
	<g>
		<path class="st0" d="M240.4,63.6l-1.6-3.5l-5.6-4.6l-9.4-4.5c-0.6-2.5-1.4-5.3-2.6-8.3c-1.9-5-4.1-8.2-6.8-11.3l22.2-31.4h-9.1
			l-17.8,25.6c-4.6-6.5-11.9-7.9-14-8.1c-3.3-0.3-25.4,0.3-27.6,21.2c-0.8,7-0.3,13.1,0.6,19.4c2.9,18.5,7.6,23,7.6,23L150.9,173
			l9.7-0.5l15-59l18-15.8c0,0,3.3,4.1,11.6,1.2c9.4-3.2,16.5-14.1,17.2-18.8l0,0l22.1-11.8l15.1,23V66.4L240.4,63.6z M224.6,69.8
			c0.4-2.9,0.7-6.2,0.5-10.1l5.3,2.5l1.7,3.1L224.6,69.8z"/>
	</g>
	<g>
		<g class="st2">
			<g>
				<path d="M238.3,68.8l-1.8-3.8l-10.2-6.5c0,0,1.2,5.5,0.9,8.3c-0.2,2-1.6,9-1.6,9L238.3,68.8z"/>
			</g>
		</g>
		<g>
			<g>
				<path class="st3" d="M236,66.6l-1.8-3.8L224,56.3c0,0,1.2,5.5,0.9,8.3c-0.2,2-1.6,9-1.6,9L236,66.6z"/>
			</g>
		</g>
	</g>
	<g>
		<g class="st2">
			<g>
				<polygon points="182.8,88.5 190.2,97.1 176.8,108.5 				"/>
			</g>
		</g>
		<g>
			<g>
				<polygon class="st3" points="180.5,86.2 187.9,94.8 174.6,106.2 				"/>
			</g>
		</g>
	</g>
	<g>
		<polygon class="st1" points="87.6,90.1 118.4,82.3 122.5,186.6 89.4,186 		"/>
	</g>
	<g>
		<g>
			<path class="st1" d="M212,95.1c0,0,9-7.7,10.4-14.9l6.7-4l15.3-7.8l15.1,23v39l-39.4,10.3L212,95.1z"/>
		</g>
		<g>
			<path class="st4" d="M214.1,97.7l3.2,7.9l17.2-8.4l4.3,11.2l-18.5,6.5l2.4,19.6l14.8-1l-2.2-15.1l13.3-1.1l3,11.2l8-0.6v-35
				L244,69.7l-15,7.6c0,0-1.4,4.7-3.2,7.7C222.2,90.8,214.1,97.7,214.1,97.7z"/>
		</g>
	</g>
	<g>
		<g>
			<polygon class="st1" points="28.5,104.7 79.6,92.6 82.1,186 33.7,187.2 			"/>
		</g>
		<g>
			<polygon class="st4" points="36.6,108.3 41.1,102.9 49.4,101.4 50.9,112.9 51,116.3 37.2,116.7 			"/>
		</g>
		<g>
			<polygon class="st4" points="50.3,101.3 52.2,115.9 60.8,116.1 60.8,112.8 61.8,112.5 59.5,99.9 			"/>
		</g>
		<g>
			<polygon class="st4" points="60.1,99.8 62.5,112.2 72.7,112 69.9,98.2 			"/>
		</g>
		<g>
			<polygon class="st4" points="70.8,98 73.7,111.7 79.7,111.7 79.3,95.8 			"/>
		</g>
		<g>
			<polygon class="st4" points="68.8,112.8 83.1,112.4 83.6,134.5 68.5,134.9 			"/>
		</g>
		<g>
			<path class="st4" d="M57.3,117.1l0.4,11.6l-20.1,0.5c0,0-0.2-11.8,0-11.8C37.9,117.4,57.3,117.1,57.3,117.1z"/>
		</g>
		<g>
			<polygon class="st4" points="71.2,135.7 83.5,135.3 83.8,157.2 71.6,157 			"/>
		</g>
		<g>
			<polygon class="st4" points="71.9,157.9 83.8,158 83.9,165.4 67.1,165.7 67.1,163.1 71.9,163 			"/>
		</g>
		<g>
			<polygon class="st4" points="71.8,170.8 71.8,166.1 80.3,166.1 80.5,169.8 84,169.8 84.1,173.4 67.2,173.6 67.1,171 			"/>
		</g>
		<g>
			<polygon class="st4" points="72,177.5 71.9,174.1 80.8,174.1 81,177.1 84.1,177 84.4,180.9 67.3,181.4 67.3,177.8 			"/>
		</g>
		<g>
			<polygon class="st4" points="58.9,166.1 59.5,181.2 66.7,181.2 66.5,166.1 			"/>
		</g>
		<g>
			<polygon class="st4" points="58.9,175 58.9,181.5 41.1,181.6 41.1,175.5 			"/>
		</g>
		<g>
			<polygon class="st4" points="58.6,174.1 58.4,164.8 40.7,165.2 40.9,174.8 			"/>
		</g>
		<g>
			<polygon class="st4" points="40.7,164.3 58.2,164.1 58.1,157.6 40.6,158 			"/>
		</g>
		<g>
			<polygon class="st4" points="40.5,157.2 58.2,156.9 57.8,149.1 40.3,149.5 			"/>
		</g>
		<g>
			<polygon class="st4" points="40.3,148.3 58,148.2 57.7,140.3 39.9,140.5 			"/>
		</g>
		<g>
			<polygon class="st4" points="40,139.8 53.9,139.6 53.6,129.5 39.7,129.7 			"/>
		</g>
	</g>
	<g>
		<g>
			<path class="st1" d="M170.1,66c0,0,2.2,10.6,6,15.2l-11.8,44.1L150.9,173l-7.6,16.2l-8.9,6.3l-4.2-4.5l-4.1-111L170.1,66z"/>
		</g>
		<g>
			<polygon class="st4" points="138.3,78.4 141.3,87.9 129.9,88.1 129.7,80.5 			"/>
		</g>
		<g>
			<polygon class="st4" points="129.8,89.1 141.3,88.8 142.3,91.4 138.8,93.4 138.6,100 141.6,100 141.8,104.2 138.1,104.2 
				138.1,105 130.2,104.8 			"/>
		</g>
		<g>
			<path class="st4" d="M139.3,78.2l3.7,12.7l12.3-2.2l-1.4,4l18.2,0.9l3-11.4c0,0-2.2-1.4-5.6-11.8L139.3,78.2z"/>
		</g>
		<g>
			<polygon class="st4" points="153.5,93.3 171.9,94.5 170.2,101 151,99.5 			"/>
		</g>
		<g>
			<polygon class="st4" points="150.7,100.2 169.9,101.6 168.4,107 148.2,106.1 			"/>
		</g>
		<g>
			<polygon class="st4" points="147.9,106.8 168,107.7 166.5,112.5 146,111.1 			"/>
		</g>
		<g>
			<polygon class="st4" points="145.8,112 166.1,113.2 164.6,118.2 145.3,117 			"/>
		</g>
		<g>
			<polygon class="st4" points="145.1,117.9 164.3,118.9 163.6,124.8 145,123.4 			"/>
		</g>
		<g>
			<polygon class="st4" points="144.9,124.1 163.3,125.4 161.4,131.6 144.3,131.3 			"/>
		</g>
		<g>
			<polygon class="st4" points="140.6,132.3 161.4,132.3 158.1,144.2 141.2,142.4 			"/>
		</g>
		<g>
			<polygon class="st4" points="141.3,143.1 157.7,144.7 154,157.7 142.4,157.3 			"/>
		</g>
		<g>
			<polygon class="st4" points="142.4,158.1 153.7,158.5 149.4,172.9 143.5,172.1 			"/>
		</g>
		<g>
			<polygon class="st4" points="130.8,170.3 149.5,173.7 148.4,176.5 145.6,182.1 130.9,179.6 			"/>
		</g>
		<g>
			<polygon class="st4" points="130.8,169.3 141.6,171.3 140,152.9 130.2,153.5 			"/>
		</g>
		<g>
			<polygon class="st4" points="130.2,152.7 139.8,152.2 139.2,141.2 129.7,141.7 			"/>
		</g>
		<g>
			<polygon class="st4" points="130.7,131.1 139.4,130.6 138.7,117.7 130.3,117.9 			"/>
		</g>
		<g>
			<polygon class="st4" points="130.5,117 138.6,116.9 138,105.7 130.2,105.5 			"/>
		</g>
	</g>
	<g>
		<g>
			<path class="st1" d="M205.2,99l11.4,69.8l6.7,22.4l-63.9,15l-12.3-8.2l9.2-17.2l19.2-67.1l18-15.8
				C193.6,97.7,199.7,100.6,205.2,99z"/>
		</g>
		<g>
			<path class="st4" d="M175.9,134.9c0,0,25.4-5.5,25.3-5.7c-0.1-0.2-2.1-13.6-2.1-13.6l5.8-1l-1.9-11.9c0,0-5.2,0.7-8.5-0.8
				l-14.4,11l-6.9,20.4L175.9,134.9z"/>
		</g>
		<g>
			<polygon class="st4" points="191.6,132.1 206.4,128.9 209.5,141.7 194.2,145.3 			"/>
		</g>
		<g>
			<polygon class="st4" points="191.2,146.7 211.4,142.3 213.5,157.9 194.8,162.3 			"/>
		</g>
		<g>
			<polygon class="st4" points="195,163.3 214,159 214.9,164.1 195.8,168.2 			"/>
		</g>
		<g>
			<polygon class="st4" points="195,169.2 214.9,165 215.3,168.6 218.3,178.8 198.3,183.6 			"/>
		</g>
		<g>
			<path class="st4" d="M198.4,184.6l19.7-4.7c0,0,2.8,11.1,2.8,10.9c0-0.2-19.7,4.6-19.7,4.6L198.4,184.6z"/>
		</g>
		<g>
			<polygon class="st4" points="181,183.9 180.8,178.8 187.8,177.6 186.6,170.6 194.4,168.6 188.5,141.8 172,143 157.1,184.7 
				161.2,203.9 200.2,195.7 196.8,180.6 			"/>
		</g>
	</g>
	<g>
		<polygon class="st4" points="107.3,168.2 122.5,167.6 122.7,169.1 107.5,179.8 		"/>
	</g>
	<g>
		<polygon class="st4" points="108.3,158.5 123.4,158.4 122.8,141.5 107.5,142.1 		"/>
	</g>
	<g>
		<polygon class="st4" points="107.5,141.4 122.8,141 122.5,128.7 107.1,129.4 		"/>
	</g>
	<g>
		<polygon class="st4" points="111.5,128.6 122.4,128.1 121.7,105.6 110.6,105.6 		"/>
	</g>
	<g>
		<polygon class="st4" points="90.6,105.3 121.5,105.1 120.9,96 106.1,96.7 105.9,89.8 90.2,90.2 		"/>
	</g>
	<g>
		<polygon class="st4" points="104.9,83.5 106.1,87.6 113.3,85.6 112.2,81.6 		"/>
	</g>
	<g>
		<polygon class="st4" points="90.7,105.9 107.2,105.8 107.6,117.9 90.7,118.5 		"/>
	</g>
	<g>
		<polygon class="st4" points="104,136 104.1,129.6 106.6,129.6 106.8,141.5 91.5,141.7 91.5,136.6 		"/>
	</g>
	<g>
		<polygon class="st4" points="91.5,142.4 106.6,142.1 107.2,158.8 92.2,159.3 		"/>
	</g>
	<g>
		<g>
			<g class="st2">
				<g>
					<path d="M191.4,29.7c4.5-1.4,14.3-2.1,21.9,11.7c7.6,13.7,7.8,16.2,8.2,23.8s-1.6,16.4-6.1,23c-4.5,6.6-9.4,7.2-15.7,5.3
						c-6.3-1.8-13.9-12.7-16.9-20.1c-3.1-7.4-3.9-23.4-3.5-29.1S183.7,32.2,191.4,29.7z"/>
				</g>
			</g>
			<g>
				<g>
					<path class="st3" d="M187.6,25.9c4.5-1.4,14.3-2.1,21.9,11.7c7.6,13.7,7.8,16.2,8.2,23.8s-1.6,16.4-6.1,23
						c-4.5,6.6-9.4,7.2-15.7,5.3c-6.3-1.8-13.9-12.7-16.9-20.1c-3.1-7.4-3.9-23.4-3.5-29.1C175.8,34.8,179.9,28.4,187.6,25.9z"/>
				</g>
			</g>
		</g>
		<g>
			<path class="st5" d="M196.2,55.7c6.1-1.6,10.3,2.2,11.7,7.3c1.4,5.1,1,11.5-2.7,15.5c-3.7,4-8.4,3.7-12.9-1.2
				C187.9,72.3,186.6,58.2,196.2,55.7z"/>
		</g>
	</g>
	<g>
		<g>
			<g>
				<path class="st1" d="M97.4,51.4c0,0,13.1,14.2,18,23.4l53.3-16.6c0,0-2.9-15.2,1-25.6c3.9-10.5,13.9-13.1,13.9-13.1l-4.5-19.3
					h-42.3L97.4,51.4z"/>
			</g>
			<g>
				<polygon class="st4" points="128.3,15 137.1,3.4 153.9,15.9 145.5,27 				"/>
			</g>
			<g>
				<polygon class="st4" points="155,16 162.9,5.3 175,13.7 166.8,25.1 				"/>
			</g>
			<g>
				<polygon class="st4" points="154.1,11.3 159.8,3.8 154.1,0.1 147.7,0.1 144.7,5.3 				"/>
			</g>
			<g>
				<polygon class="st4" points="121.3,43.8 125.8,49.2 131.3,45.2 136.7,52.1 146.8,44.8 137.9,33.6 128.3,41 126.8,39.3 				"/>
			</g>
			<g>
				<polygon class="st4" points="145.1,36.8 150.1,30.3 154.2,33.4 156.9,30.4 167.2,38 159.4,47.8 				"/>
			</g>
		</g>
		<g>
			<ellipse class="st3" cx="105" cy="51.5" rx="2.4" ry="2.4"/>
		</g>
		<g>
			<ellipse class="st3" cx="111.3" cy="42.4" rx="2.4" ry="2.4"/>
		</g>
		<g>
			<ellipse class="st3" cx="117.5" cy="34.4" rx="2.4" ry="2.4"/>
		</g>
		<g>
			<ellipse class="st3" cx="124.3" cy="25.7" rx="2.4" ry="2.4"/>
		</g>
		<g>
			<ellipse class="st3" cx="110.5" cy="58.9" rx="2.4" ry="2.4"/>
		</g>
		<g>
			<ellipse class="st3" cx="116.6" cy="67" rx="2.4" ry="2.4"/>
		</g>
		<g>
			<ellipse class="st3" cx="127.7" cy="63.9" rx="2.4" ry="2.4"/>
		</g>
		<g>
			<ellipse class="st3" cx="138.3" cy="60.8" rx="2.4" ry="2.4"/>
		</g>
		<g>
			<ellipse class="st3" cx="149.1" cy="57.4" rx="2.4" ry="2.4"/>
		</g>
		<g>
			<ellipse class="st3" cx="160.5" cy="54.2" rx="2.4" ry="2.4"/>
		</g>
	</g>
	<g>
		<g>
			<g>
				<path class="st1" d="M11.2,21c0,0,22.3,12.1,38.2,17.4s36.6,11.1,41.9,17.4c5.3,6.4,15.7,20.7,15.7,20.7S29.2,100,1,102L11.2,21
					z"/>
			</g>
			<g>
				<polygon class="st4" points="14.7,56 12.6,77.7 22,88.6 46.4,83.4 41.8,67.1 34.7,69 36.9,77.4 33.8,78.4 21.6,67.1 22.9,64.2 
					31.1,64.4 31.3,58.1 				"/>
			</g>
			<g>
				<polygon class="st4" points="14.6,48.2 25.1,49.2 27.1,29.9 16.5,28.8 				"/>
			</g>
			<g>
				<polygon class="st4" points="32,35.5 30,49.9 42.9,52.1 45.6,38.2 				"/>
			</g>
		</g>
		<g>
			<ellipse class="st3" cx="53.1" cy="45" rx="2.3" ry="2.3"/>
		</g>
		<g>
			<ellipse class="st3" cx="62.3" cy="48.4" rx="2.3" ry="2.3"/>
		</g>
		<g>
			<ellipse class="st3" cx="72.6" cy="51.5" rx="2.3" ry="2.3"/>
		</g>
		<g>
			<ellipse class="st3" cx="83.6" cy="57.1" rx="2.3" ry="2.3"/>
		</g>
		<g>
			<ellipse class="st3" cx="92" cy="65.1" rx="2.3" ry="2.3"/>
		</g>
		<g>
			<ellipse class="st3" cx="98.4" cy="73.3" rx="2.3" ry="2.3"/>
		</g>
		<g>
			<ellipse class="st3" cx="87.8" cy="76.8" rx="2.3" ry="2.3"/>
		</g>
		<g>
			<ellipse class="st3" cx="78.4" cy="79.6" rx="2.3" ry="2.3"/>
		</g>
		<g>
			<ellipse class="st3" cx="67.2" cy="82.2" rx="2.3" ry="2.3"/>
		</g>
		<g>
			<ellipse class="st3" cx="56.2" cy="85.3" rx="2.3" ry="2.3"/>
		</g>
	</g>
	<g>
		<polygon class="st3" points="259.5,80.9 253.7,71.7 259.5,72.8 		"/>
	</g>
</g>
</svg>
