<?xml version="1.0" encoding="utf-8"?>
<!-- Generator: Adobe Illustrator 20.1.0, SVG Export Plug-In . SVG Version: 6.00 Build 0)  -->
<svg version="1.1" id="Layer_2" xmlns="http://www.w3.org/2000/svg" xmlns:xlink="http://www.w3.org/1999/xlink" x="0px" y="0px"
	 viewBox="0 0 261.3 169.7" style="enable-background:new 0 0 261.3 169.7;" xml:space="preserve">
<style type="text/css">
	.st0{fill:#9C9C92;}
	.st1{fill:#A09D9D;}
	.st2{fill:#ECE6DA;}
	.st3{fill:#D1CFCF;}
	.st4{fill:#7FCCC2;}
	.st5{opacity:0.63;fill:url(#SVGID_1_);}
	.st6{fill:#FAFFF9;}
	.st7{fill:#FF7233;}
	.st8{fill:#F9FFFF;}
	.st9{fill:#F75B23;}
	.st10{fill:#DEDEDE;}
	.st11{fill:#DFD5BC;}
	.st12{fill:#FFFFFF;}
	.st13{fill:#F9BC54;}
	.st14{fill:#154D6E;}
	.st15{fill:#FD5037;}
	.st16{fill:#ACDDE4;}
	.st17{fill:#4D4D4D;}
	.st18{fill:#FDCF60;}
	.st19{fill:#D6A433;}
</style>
<g>
	<rect x="103.1" y="144.3" class="st0" width="55.2" height="18.4"/>
	<rect x="92.7" y="162.7" class="st1" width="76" height="6.4"/>
	<path class="st2" d="M227.5,148.2H33.9c-4,0-7.2-3.2-7.2-7.2v-12.7h208V141C234.7,144.9,231.5,148.2,227.5,148.2z"/>
	<path class="st3" d="M234.7,128.3h-208V6.5c0-2.6,2.1-4.8,4.8-4.8h198.4c2.6,0,4.8,2.1,4.8,4.8V128.3z"/>
	<rect x="38.2" y="13.3" class="st4" width="185" height="103.5"/>
</g>
<linearGradient id="SVGID_1_" gradientUnits="userSpaceOnUse" x1="38.2184" y1="65.0046" x2="223.2067" y2="65.0046">
	<stop  offset="0" style="stop-color:#000000"/>
	<stop  offset="1" style="stop-color:#1A3E56"/>
</linearGradient>
<polygon class="st5" points="38.2,116.7 38.2,13.3 223.2,13.3 "/>
<circle class="st6" cx="84.5" cy="85.4" r="22.9"/>
<circle class="st6" cx="179.9" cy="85.4" r="22.9"/>
<g>
	<g>
		<polygon class="st7" points="26.6,13.1 -0.2,49.9 37.1,49.9 57.4,13.1 		"/>
		<polygon class="st7" points="86,13.1 74.4,49.9 111,49.9 116.1,13.1 		"/>
		<polygon class="st8" points="37.1,49.9 57.4,13.1 86,13.1 74.4,49.9 		"/>
		<polygon class="st8" points="116.1,13.1 145.4,13.1 150.5,49.9 111,49.9 		"/>
		<polygon class="st7" points="234.9,13.1 261.7,49.9 224.4,49.9 204.1,13.1 		"/>
		<polygon class="st7" points="175.5,13.1 187.1,49.9 150.5,49.9 145.4,13.1 		"/>
		<polygon class="st8" points="224.4,49.9 204.1,13.1 175.5,13.1 187.1,49.9 		"/>
		<path class="st9" d="M-0.2,49.9c0.4,0.8,6.3,10.1,17.3,10.9c8.1,0.6,15.9-3.7,20-10.9"/>
		<path class="st10" d="M37.1,49.9c0.7,1.1,6.2,9,16.1,10.1c8.2,1,16.4-3,21.2-10.1"/>
		<path class="st9" d="M74.4,49.9c0.7,1.1,6.2,8.9,16.2,9.9c7.9,0.8,15.7-3.1,20.4-9.9"/>
		<path class="st10" d="M111,49.9c4.2,7.1,12,11.4,20.2,11.2c12.3-0.3,18.9-10.6,19.3-11.2"/>
		<path class="st9" d="M150.5,49.9c4.2,7.1,11.8,11.3,19.7,10.7c10.7-0.8,16.4-9.9,16.8-10.7"/>
		<path class="st10" d="M187.1,49.9c4.1,7.2,12,11.5,20,11c11.3-0.6,16.9-10.4,17.3-11"/>
		<path class="st9" d="M224.4,49.9c3.9,7.7,12.2,12.4,20.5,11.7c11.2-0.9,16.5-11.1,16.8-11.7"/>
	</g>
	<rect x="26.6" y="8.6" class="st0" width="208.3" height="4.5"/>
	<rect x="26.6" y="0" class="st3" width="208.3" height="8.6"/>
</g>
<circle class="st11" cx="84.5" cy="85.4" r="21.4"/>
<circle class="st11" cx="179.9" cy="85.4" r="21.4"/>
<g>
	<path class="st7" d="M72.4,80c0-0.1,0.1-0.2,0.2-0.2h3.3c2.3,0,3.6,1.7,3.6,3.2c0,1.1,0,2.7-1.8,3.2v0c1.1,0.4,1.9,1.6,1.9,3
		c0,0.9,0,3.8-3.7,3.8h-3.3c-0.1,0-0.2-0.1-0.2-0.2V80z M75.6,84.8c0,0.1,0.1,0.1,0.1,0.1c0.2,0,0.5-0.2,0.5-0.5v-1.5
		c0-0.3-0.3-0.5-0.5-0.5c-0.1,0-0.1,0-0.1,0.1V84.8z M75.6,90.2c0,0.1,0,0.1,0.1,0.1c0.3,0,0.5-0.2,0.5-0.5V88
		c0-0.3-0.3-0.5-0.5-0.5c-0.1,0-0.1,0.1-0.1,0.1V90.2z"/>
	<path class="st7" d="M83.3,79.8c0.1,0,0.2,0.1,0.2,0.2v9c0,0.2,0.1,0.4,0.3,0.4c0.2,0,0.3-0.2,0.3-0.4v-9c0-0.1,0.1-0.2,0.2-0.2h3
		c0.1,0,0.2,0.1,0.2,0.2v9.4c0,1.9-1.3,3.6-3.7,3.6c-2.3,0-3.7-1.7-3.7-3.6V80c0-0.1,0.1-0.2,0.2-0.2H83.3z"/>
	<path class="st7" d="M87.8,79.9c0-0.1,0-0.1,0.1-0.1h3.2c0.1,0,0.2,0.1,0.2,0.2l0.8,3.6c0,0.1,0.1,0.1,0.1,0.1c0,0,0.1-0.1,0.1-0.1
		l0.8-3.6c0-0.1,0.1-0.2,0.2-0.2h3.1c0.1,0,0.2,0.1,0.1,0.2l-2.3,7.4c-0.1,0.2-0.2,0.7-0.2,0.9v4.4c0,0.1-0.1,0.2-0.2,0.2h-3.4
		c-0.1,0-0.2-0.1-0.2-0.2v-4.5c0-0.3,0-0.5-0.2-0.9L87.8,79.9z"/>
</g>
<g>
	<ellipse class="st12" cx="173.6" cy="97.4" rx="2.5" ry="2.4"/>
	<ellipse class="st12" cx="181.6" cy="97.4" rx="2.5" ry="2.4"/>
	<polygon class="st12" points="192,75.9 189.4,80.7 164.8,80.7 166.7,84.7 175.3,84.7 175.3,86.2 167.4,86.2 168,87.5 182.6,87.5 
		182.6,89.2 168.7,89.2 170.5,93 184.6,93 192.6,77.6 197,77.6 197,75.9 	"/>
	<rect x="186.5" y="79.9" class="st12" width="1.6" height="1.4"/>
	<rect x="167.6" y="79.9" class="st12" width="1.6" height="1.4"/>
</g>
</svg>
