<?xml version="1.0" encoding="utf-8"?>
<!-- Generator: Adobe Illustrator 20.1.0, SVG Export Plug-In . SVG Version: 6.00 Build 0)  -->
<svg version="1.1" id="Layer_2" xmlns="http://www.w3.org/2000/svg" xmlns:xlink="http://www.w3.org/1999/xlink" x="0px" y="0px"
	 viewBox="0 0 87.7 71.3" style="enable-background:new 0 0 87.7 71.3;" xml:space="preserve">
<style type="text/css">
	.st0{fill:#9C9C92;}
	.st1{fill:#A09D9D;}
	.st2{fill:#ECE6DA;}
	.st3{fill:#D1CFCF;}
	.st4{fill:#7FCCC2;}
	.st5{opacity:0.63;fill:url(#SVGID_1_);}
	.st6{fill:#FAFFF9;}
	.st7{fill:#FF7233;}
	.st8{fill:#F9FFFF;}
	.st9{fill:#F75B23;}
	.st10{fill:#DEDEDE;}
	.st11{fill:#DFD5BC;}
	.st12{fill:#FFFFFF;}
	.st13{fill:#F9BC54;}
	.st14{fill:#154D6E;}
	.st15{fill:#FD5037;}
	.st16{fill:#ACDDE4;}
	.st17{fill:#4D4D4D;}
	.st18{fill:#FDCF60;}
	.st19{fill:#D6A433;}
</style>
<g>
	
		<rect x="0.1" y="24.7" transform="matrix(1 8.538230e-03 -8.538230e-03 1 0.4114 -0.2511)" class="st14" width="59.1" height="46.8"/>
	
		<rect x="26.6" y="24.7" transform="matrix(1 8.533601e-03 -8.533601e-03 1 0.4112 -0.251)" class="st15" width="6.1" height="46.8"/>
	
		<rect x="0.1" y="43.2" transform="matrix(1 8.538230e-03 -8.538230e-03 1 0.3958 -0.2513)" class="st15" width="59.1" height="6.1"/>
	<path class="st15" d="M28.7,31.1c0.1-0.1-0.4-0.7-0.2-2.7c0.1-1.2,0.4-2,0.8-3.3c0.4-1,0.9-2.3,1.6-3.2c1.3-1.9,2.9-4,4.8-5.3
		c1.8-1.5,3.9-2.3,5.9-3.1c2.1-0.5,4.1-0.9,6-0.7c1.9,0,3.7,0.8,5.2,1.2c1.5,0.4,2.8,1.5,3.6,1.9c0.9,0.6,1.4,1.1,1.4,1.1l0,0.7
		c0,0-7.9-0.1-15.6,2.4c-3.8,1.1-7.7,2.8-10.2,5.2c-1.3,1.1-2.2,2.6-2.6,3.7c-0.4,1.1-0.3,2.1-0.4,2.1L28.7,31.1z"/>
	<path class="st15" d="M30.8,31.8c-0.1-0.1,0.4-0.7,0.2-2.7c-0.1-1.2-0.4-2-0.7-3.3c-0.4-1.1-0.9-2.3-1.5-3.2
		c-1.3-1.9-2.9-4.1-4.7-5.4c-1.8-1.5-3.9-2.4-5.9-3.2c-2-0.5-4.1-1-6-0.8c-1.9,0-3.7,0.7-5.3,1.1c-1.5,0.4-2.8,1.4-3.7,1.9
		c-0.9,0.6-1.4,1.1-1.4,1.1l0,0.7c0,0,7.9,0,15.5,2.7c3.8,1.1,7.6,2.9,10.1,5.4c1.3,1.2,2.2,2.6,2.5,3.8c0.4,1.1,0.3,2.1,0.4,2.1
		L30.8,31.8z"/>
</g>
<g>
	<g>
		
			<ellipse transform="matrix(0.9758 -0.2186 0.2186 0.9758 -10.3797 16.3968)" class="st18" cx="68.9" cy="55.1" rx="10.9" ry="10.9"/>
		<path class="st19" d="M71.4,66.1c-6.1,1.4-12.1-2.5-13.5-8.6s2.5-12.1,8.6-13.5c6.1-1.4,12.1,2.5,13.5,8.6S77.5,64.8,71.4,66.1z
			 M66.6,44.8c-5.7,1.3-9.3,7-8,12.7c1.3,5.7,7,9.3,12.7,8c5.7-1.3,9.3-7,8-12.7C78,47.1,72.3,43.5,66.6,44.8z"/>
	</g>
	<g>
		
			<ellipse transform="matrix(0.9758 -0.2186 0.2186 0.9758 -10.3797 16.3968)" class="st18" cx="68.9" cy="55.1" rx="9.4" ry="9.4"/>
		<path class="st19" d="M71,64.6c-5.2,1.2-10.5-2.1-11.6-7.4c-1.2-5.2,2.1-10.5,7.4-11.6c5.2-1.2,10.5,2.1,11.6,7.4
			S76.3,63.4,71,64.6z M66.9,46.3c-4.9,1.1-7.9,5.9-6.8,10.8c1.1,4.9,5.9,7.9,10.8,6.8c4.9-1.1,7.9-5.9,6.8-10.8
			C76.6,48.3,71.8,45.2,66.9,46.3z"/>
	</g>
</g>
<g>
	<g>
		<ellipse transform="matrix(0.9758 -0.2186 0.2186 0.9758 -6.0279 17.5301)" class="st18" cx="76.2" cy="36" rx="10.9" ry="10.9"/>
		<path class="st19" d="M78.7,47c-6.1,1.4-12.1-2.5-13.5-8.6c-1.4-6.1,2.5-12.1,8.6-13.5c6.1-1.4,12.1,2.5,13.5,8.6
			S84.8,45.7,78.7,47z M73.9,25.7c-5.7,1.3-9.3,7-8,12.7c1.3,5.7,7,9.3,12.7,8c5.7-1.3,9.3-7,8-12.7C85.3,28,79.6,24.4,73.9,25.7z"
			/>
	</g>
	<g>
		<ellipse transform="matrix(0.9758 -0.2186 0.2186 0.9758 -6.0279 17.5301)" class="st18" cx="76.2" cy="36" rx="9.4" ry="9.4"/>
		<path class="st19" d="M78.3,45.5c-5.2,1.2-10.5-2.1-11.6-7.4c-1.2-5.2,2.1-10.5,7.4-11.6s10.5,2.1,11.6,7.4S83.6,44.3,78.3,45.5z
			 M74.2,27.2c-4.9,1.1-7.9,5.9-6.8,10.8c1.1,4.9,5.9,7.9,10.8,6.8c4.9-1.1,7.9-5.9,6.8-10.8C83.9,29.2,79.1,26.1,74.2,27.2z"/>
	</g>
</g>
<g>
	<g>
		<ellipse transform="matrix(0.9758 -0.2186 0.2186 0.9758 -0.9655 13.3427)" class="st18" cx="59.8" cy="11" rx="10.9" ry="10.9"/>
		<path class="st19" d="M62.3,22.1c-6.1,1.4-12.1-2.5-13.5-8.6C47.4,7.4,51.3,1.4,57.3,0c6.1-1.4,12.1,2.5,13.5,8.6
			C72.2,14.6,68.4,20.7,62.3,22.1z M57.5,0.7c-5.7,1.3-9.3,7-8,12.7c1.3,5.7,7,9.3,12.7,8c5.7-1.3,9.3-7,8-12.7
			C68.9,3,63.2-0.6,57.5,0.7z"/>
	</g>
	<g>
		<ellipse transform="matrix(0.9758 -0.2186 0.2186 0.9758 -0.9655 13.3427)" class="st18" cx="59.8" cy="11" rx="9.4" ry="9.4"/>
		<path class="st19" d="M61.9,20.5c-5.2,1.2-10.5-2.1-11.6-7.4c-1.2-5.2,2.1-10.5,7.4-11.6s10.5,2.1,11.6,7.4S67.2,19.4,61.9,20.5z
			 M57.8,2.2C53,3.3,49.9,8.1,51,13c1.1,4.9,5.9,7.9,10.8,6.8s7.9-5.9,6.8-10.8S62.7,1.1,57.8,2.2z"/>
	</g>
</g>
</svg>
