<?xml version="1.0" encoding="utf-8"?>
<!-- Generator: Adobe Illustrator 20.1.0, SVG Export Plug-In . SVG Version: 6.00 Build 0)  -->
<svg version="1.1" id="Layer_2" xmlns="http://www.w3.org/2000/svg" xmlns:xlink="http://www.w3.org/1999/xlink" x="0px" y="0px"
	 viewBox="0 0 89.3 145.9" style="enable-background:new 0 0 89.3 145.9;" xml:space="preserve">
<style type="text/css">
	.st0{fill:#9C9C92;}
	.st1{fill:#A09D9D;}
	.st2{fill:#ECE6DA;}
	.st3{fill:#D1CFCF;}
	.st4{fill:#7FCCC2;}
	.st5{opacity:0.63;fill:url(#SVGID_1_);}
	.st6{fill:#FAFFF9;}
	.st7{fill:#FF7233;}
	.st8{fill:#F9FFFF;}
	.st9{fill:#F75B23;}
	.st10{fill:#DEDEDE;}
	.st11{fill:#DFD5BC;}
	.st12{fill:#FFFFFF;}
	.st13{fill:#F9BC54;}
	.st14{fill:#154D6E;}
	.st15{fill:#FD5037;}
	.st16{fill:#ACDDE4;}
	.st17{fill:#4D4D4D;}
	.st18{fill:#FDCF60;}
	.st19{fill:#D6A433;}
</style>
<g>
	<path class="st1" d="M89.2,138.3c0,4.2-3.4,7.5-7.5,7.5H44.6c-4.2,0-7.5-3.4-7.5-7.5V43.7c0-4.2,3.4-7.5,7.5-7.5h37.1
		c4.2,0,7.5,3.4,7.5,7.5V138.3z"/>
	<rect x="39" y="49.6" class="st12" width="48.3" height="80.7"/>
	<path class="st2" d="M68.8,44.1H53.7c-0.4,0-0.8-0.4-0.8-0.8l0,0c0-0.5,0.4-0.8,0.8-0.8h15.1c0.4,0,0.8,0.4,0.8,0.8l0,0
		C69.6,43.8,69.2,44.1,68.8,44.1z"/>
	<circle class="st2" cx="73.2" cy="43.3" r="0.8"/>
	<circle class="st6" cx="62.9" cy="90.4" r="16.9"/>
	<circle class="st13" cx="62.9" cy="90.4" r="15.7"/>
	<g>
		<ellipse class="st12" cx="58.2" cy="99.2" rx="1.8" ry="1.7"/>
		<ellipse class="st12" cx="64.1" cy="99.2" rx="1.8" ry="1.7"/>
		<polygon class="st12" points="71.7,83.4 69.8,86.9 51.8,86.9 53.1,89.9 59.4,89.9 59.4,91 53.6,91 54.1,92 64.8,92 64.8,93.2 
			54.6,93.2 55.9,96 66.3,96 72.2,84.7 75.4,84.7 75.4,83.4 		"/>
		<rect x="67.7" y="86.4" class="st12" width="1.2" height="1"/>
		<rect x="53.8" y="86.4" class="st12" width="1.2" height="1"/>
	</g>
</g>
<g>
	<path class="st16" d="M44.2,117.4l-33.8,10.5c-2.2,0.7-4.6-0.6-5.3-2.8l-5-16c-0.7-2.2,0.6-4.6,2.8-5.3l33.8-10.5
		c2.2-0.7,4.6,0.6,5.3,2.8l5,16C47.7,114.3,46.4,116.7,44.2,117.4z"/>
	
		<rect x="0.3" y="104.3" transform="matrix(0.9551 -0.2962 0.2962 0.9551 -30.3621 11.306)" class="st17" width="43.7" height="3.1"/>
</g>
<g>
	<g>
		<circle class="st18" cx="64" cy="56.3" r="10.9"/>
		<path class="st19" d="M64,67.6c-6.2,0-11.3-5.1-11.3-11.3S57.7,45,64,45c6.2,0,11.3,5.1,11.3,11.3S70.2,67.6,64,67.6z M64,45.7
			c-5.8,0-10.6,4.8-10.6,10.6c0,5.8,4.8,10.6,10.6,10.6c5.8,0,10.6-4.8,10.6-10.6C74.5,50.5,69.8,45.7,64,45.7z"/>
	</g>
	<g>
		<circle class="st18" cx="64" cy="56.3" r="9.4"/>
		<path class="st19" d="M64,66c-5.4,0-9.7-4.4-9.7-9.7s4.4-9.7,9.7-9.7c5.4,0,9.7,4.4,9.7,9.7S69.3,66,64,66z M64,47.3
			c-5,0-9,4.1-9,9s4.1,9,9,9s9-4.1,9-9S68.9,47.3,64,47.3z"/>
	</g>
</g>
<g>
	<g>
		<circle class="st18" cx="75.2" cy="39.3" r="10.9"/>
		<path class="st19" d="M75.2,50.6C69,50.6,64,45.5,64,39.3S69,28,75.2,28c6.2,0,11.3,5.1,11.3,11.3S81.5,50.6,75.2,50.6z
			 M75.2,28.7c-5.8,0-10.6,4.8-10.6,10.6c0,5.8,4.8,10.6,10.6,10.6c5.8,0,10.6-4.8,10.6-10.6C85.8,33.4,81.1,28.7,75.2,28.7z"/>
	</g>
	<g>
		<circle class="st18" cx="75.2" cy="39.3" r="9.4"/>
		<path class="st19" d="M75.2,49c-5.4,0-9.7-4.4-9.7-9.7s4.4-9.7,9.7-9.7c5.4,0,9.7,4.4,9.7,9.7S80.6,49,75.2,49z M75.2,30.2
			c-5,0-9,4.1-9,9s4.1,9,9,9c5,0,9-4.1,9-9S80.2,30.2,75.2,30.2z"/>
	</g>
</g>
<g>
	<g>
		<circle class="st18" cx="64.7" cy="11.3" r="10.9"/>
		<path class="st19" d="M64.7,22.6c-6.2,0-11.3-5.1-11.3-11.3S58.5,0,64.7,0C70.9,0,76,5.1,76,11.3S70.9,22.6,64.7,22.6z M64.7,0.7
			c-5.8,0-10.6,4.8-10.6,10.6c0,5.8,4.8,10.6,10.6,10.6c5.8,0,10.6-4.8,10.6-10.6C75.3,5.5,70.6,0.7,64.7,0.7z"/>
	</g>
	<g>
		<circle class="st18" cx="64.7" cy="11.3" r="9.4"/>
		<path class="st19" d="M64.7,21c-5.4,0-9.7-4.4-9.7-9.7s4.4-9.7,9.7-9.7s9.7,4.4,9.7,9.7S70.1,21,64.7,21z M64.7,2.3
			c-5,0-9,4.1-9,9s4.1,9,9,9c5,0,9-4.1,9-9S69.7,2.3,64.7,2.3z"/>
	</g>
</g>
</svg>
