<?xml version="1.0" encoding="utf-8"?>
<!-- Generator: Adobe Illustrator 20.1.0, SVG Export Plug-In . SVG Version: 6.00 Build 0)  -->
<svg version="1.1" id="Режим_изоляции"
	 xmlns="http://www.w3.org/2000/svg" xmlns:xlink="http://www.w3.org/1999/xlink" x="0px" y="0px" viewBox="0 0 147.7 100.7"
	 style="enable-background:new 0 0 147.7 100.7;" xml:space="preserve">
<style type="text/css">
	.st0{fill:#DB657A;}
	.st1{opacity:0.11;fill:#FFFFFF;}
	.st2{fill:#F8BD36;}
	.st3{fill:#FCED99;}
	.st4{fill:#E2AF5B;}
	.st5{fill:#AE4441;}
	.st6{fill:#434E5B;}
	.st7{fill:#FFFFFF;}
</style>
<path class="st0" d="M123.8,54.2c0-0.4-0.2-0.8-0.5-1.1c-0.3-0.3-0.8-0.5-1.3-0.5h-4.6c0,0,0,0,0-0.1c0,0,0,0,0,0
	c-3.5-10-14.8-18.9-24.7-20.7c-0.3-0.1-0.6-0.1-0.9-0.2v-5.6h0c0,0-0.1,0-0.1,0c-3.8,0-6.8,2.3-6.8,5.1l-21.7,0.2
	c-15.7,0-28.9,9.6-32.7,22.5c-0.3,1.1-0.9,3.4-1,6.8c-1-0.1-2.2-0.5-3.6-1.3c0.8-0.5,1.8-0.9,2.4-2.3l0,0c0.8-1.7,0.2-3.3-1-4.5
	c-1-1-2.5-1.8-3.9-1.9c-4.4-0.1-2.8,5.6,0.1,8.2l0.2,0.2c0.2,0.1,0.3,0.2,0.4,0.3c-0.7,0.6-1.9,1.3-3.2,1.6
	c-0.4,0.1-0.7,0.5-0.7,0.9c0,0,0,0,0,0c0,0.2,0.1,0.3,0.3,0.3c0.5,0.1,2,0.1,4.5-2.1c1.3,1.1,3,1.9,4.5,2.3c0,0.2,0,0.4,0,0.6h0
	c0,0.8,0.1,1.7,0.2,2.7c0,0,2.6,15.8,17.2,20.9l-0.1,7.6h0c0,3.1,2.9,5.7,6.4,5.7c3.3,0,5.9-2.2,6.3-5c0.1-0.3,0.1-0.6,0.1-0.9h0v0
	l0-3.5c1.6,0.1,26.5,0.2,27,0.1l0,3.6h0c0,3.1,2.9,5.7,6.4,5.7c3.3,0,5.9-2.2,6.3-5c0.1-0.3,0.1-0.6,0.1-0.9h0v0h0l0-6
	c8.5-3.5,15.1-8.8,17.9-16.9c0,0,0,0,0,0h4.7c1,0,1.7-0.7,1.8-1.5c0-0.1,0-0.2,0-0.3v0v0V54.2z M25,58.3c-3.1-1.7-3.7-7-0.1-5.4
	c0.5,0.2,0.9,0.6,1.2,1.1c0.2,0.3,0.3,0.6,0.4,0.8c0.2,0.6,0.2,1.2-0.1,1.7C25.7,57.6,25,58.3,25,58.3z"/>
<path class="st1" d="M71.2,15.5c0.1,1.6,0.6,3.2,1.5,4.7c3,4.6,9.1,6,13.7,3c2.2-1.4,3.6-3.5,4.2-5.8L71.2,15.5z"/>
<g>
	<ellipse transform="matrix(0.8427 -0.5384 0.5384 0.8427 4.8464 45.8718)" class="st2" cx="80.9" cy="14.6" rx="9.9" ry="9.9"/>
	<path class="st3" d="M75.9,6.7c-4.4,2.8-5.7,8.6-2.9,13c2.8,4.4,8.6,5.7,13,2.9c4.4-2.8,5.7-8.6,2.9-13C86.1,5.2,80.2,3.9,75.9,6.7
		z M85.8,22.3c-4.2,2.7-9.8,1.5-12.5-2.8C70.6,15.3,71.8,9.7,76,7c4.2-2.7,9.8-1.5,12.5,2.8C91.3,14,90,19.6,85.8,22.3z"/>
	<ellipse transform="matrix(0.8427 -0.5384 0.5384 0.8427 4.8464 45.8718)" class="st4" cx="80.9" cy="14.6" rx="6.8" ry="6.8"/>
	<ellipse transform="matrix(0.8427 -0.5384 0.5384 0.8427 4.9541 45.9658)" class="st3" cx="81.1" cy="14.5" rx="6.4" ry="6.4"/>
</g>
<g>
	<ellipse transform="matrix(0.8427 -0.5384 0.5384 0.8427 -17.053 10.9015)" class="st2" cx="10.1" cy="34.6" rx="9.9" ry="9.9"/>
	<path class="st3" d="M5.1,26.7c-4.4,2.8-5.7,8.6-2.9,13c2.8,4.4,8.6,5.7,13,2.9c4.4-2.8,5.7-8.6,2.9-13
		C15.3,25.2,9.4,23.9,5.1,26.7z M15,42.3c-4.2,2.7-9.8,1.5-12.5-2.8C-0.2,35.3,1,29.7,5.2,27c4.2-2.7,9.8-1.5,12.5,2.8
		C20.5,34,19.2,39.6,15,42.3z"/>
	<ellipse transform="matrix(0.8427 -0.5384 0.5384 0.8427 -17.053 10.9015)" class="st4" cx="10.1" cy="34.6" rx="6.8" ry="6.8"/>
	<ellipse transform="matrix(0.8427 -0.5384 0.5384 0.8427 -16.9453 10.9955)" class="st3" cx="10.3" cy="34.5" rx="6.4" ry="6.4"/>
</g>
<g>
	<ellipse transform="matrix(0.8427 -0.5384 0.5384 0.8427 -23.7583 86.908)" class="st2" cx="136.8" cy="84.1" rx="9.9" ry="9.9"/>
	<path class="st3" d="M131.8,76.2c-4.4,2.8-5.7,8.6-2.9,13c2.8,4.4,8.6,5.7,13,2.9c4.4-2.8,5.7-8.6,2.9-13
		C142,74.7,136.2,73.4,131.8,76.2z M141.7,91.8c-4.2,2.7-9.8,1.5-12.5-2.8c-2.7-4.2-1.5-9.8,2.8-12.5c4.2-2.7,9.8-1.5,12.5,2.8
		C147.2,83.4,146,89.1,141.7,91.8z"/>
	<ellipse transform="matrix(0.8427 -0.5384 0.5384 0.8427 -23.7584 86.908)" class="st4" cx="136.8" cy="84.1" rx="6.8" ry="6.8"/>
	<ellipse transform="matrix(0.8427 -0.5384 0.5384 0.8427 -23.6507 87.002)" class="st3" cx="137.1" cy="84" rx="6.4" ry="6.4"/>
</g>
<ellipse transform="matrix(0.8427 -0.5384 0.5384 0.8427 -1.8431 42.8424)" class="st2" cx="72.4" cy="24.6" rx="9.9" ry="9.9"/>
<path class="st3" d="M67.3,16.6c-4.4,2.8-5.7,8.6-2.9,13c2.8,4.4,8.6,5.7,13,2.9c4.4-2.8,5.7-8.6,2.9-13
	C77.5,15.1,71.7,13.8,67.3,16.6z M77.3,32.2c-4.2,2.7-9.8,1.5-12.5-2.8c-2.7-4.2-1.5-9.8,2.8-12.5c4.2-2.7,9.8-1.5,12.5,2.8
	C82.7,23.9,81.5,29.5,77.3,32.2z"/>
<path class="st1" d="M62.5,25.2c0.1,1.6,0.6,3.2,1.5,4.7c3,4.6,9.1,6,13.7,3c2.2-1.4,3.6-3.5,4.2-5.8L62.5,25.2z"/>
<ellipse transform="matrix(0.8427 -0.5384 0.5384 0.8427 -1.8431 42.8424)" class="st4" cx="72.4" cy="24.6" rx="6.8" ry="6.8"/>
<ellipse transform="matrix(0.8427 -0.5384 0.5384 0.8427 -1.7354 42.9365)" class="st3" cx="72.6" cy="24.4" rx="6.4" ry="6.4"/>
<ellipse transform="matrix(0.8427 -0.5384 0.5384 0.8427 5.2547 37.7123)" class="st2" cx="67.2" cy="9.9" rx="9.9" ry="9.9"/>
<path class="st3" d="M62.1,1.9c-4.4,2.8-5.7,8.6-2.9,13c2.8,4.4,8.6,5.7,13,2.9c4.4-2.8,5.7-8.6,2.9-13C72.3,0.4,66.5-0.9,62.1,1.9z
	 M72,17.5c-4.2,2.7-9.8,1.5-12.5-2.8c-2.7-4.2-1.5-9.8,2.8-12.5c4.2-2.7,9.8-1.5,12.5,2.8C77.5,9.2,76.3,14.8,72,17.5z"/>
<path class="st1" d="M57.3,10.5c0.1,1.6,0.6,3.2,1.5,4.7c3,4.6,9.1,6,13.7,3c2.2-1.4,3.6-3.5,4.2-5.8L57.3,10.5z"/>
<ellipse transform="matrix(0.8427 -0.5384 0.5384 0.8427 5.2547 37.7123)" class="st4" cx="67.2" cy="9.9" rx="6.8" ry="6.8"/>
<ellipse transform="matrix(0.8427 -0.5384 0.5384 0.8427 5.3624 37.8063)" class="st3" cx="67.4" cy="9.7" rx="6.4" ry="6.4"/>
<path class="st5" d="M83.5,35.5c0,0.1,0,0.2,0,0.3c-0.1-0.7-0.6-1.2-1.2-1.2H60.7c-0.4,0-0.7,0.2-0.9,0.4c-0.2,0.2-0.3,0.4-0.3,0.7
	c0-0.1,0-0.2,0-0.3c0-0.4,0.1-0.8,0.4-1c0.2-0.3,0.6-0.4,0.9-0.4h21.5C83,34,83.5,34.7,83.5,35.5z"/>
<ellipse class="st6" cx="102.7" cy="53" rx="3.8" ry="3.4"/>
<ellipse class="st7" cx="103.6" cy="52" rx="0.9" ry="0.8"/>
<path class="st6" d="M83.5,35.5L83.5,35.5c-0.1,0.5-0.6,0.9-1.2,0.9H60.7c-0.6,0-1.1-0.4-1.2-0.9v0c0.1-0.2,0.2-0.4,0.3-0.5
	c0.2-0.2,0.6-0.3,0.9-0.3h21.5C82.9,34.6,83.4,35,83.5,35.5z"/>
</svg>
