<?xml version="1.0" encoding="utf-8"?>
<!-- Generator: Adobe Illustrator 20.1.0, SVG Export Plug-In . SVG Version: 6.00 Build 0)  -->
<svg version="1.1" id="Режим_изоляции"
	 xmlns="http://www.w3.org/2000/svg" xmlns:xlink="http://www.w3.org/1999/xlink" x="0px" y="0px" viewBox="0 0 179.6 171.6"
	 style="enable-background:new 0 0 179.6 171.6;" xml:space="preserve">
<style type="text/css">
	.st0{fill:#66B3D4;}
	.st1{fill:#DDE4E8;}
	.st2{fill:#FFFFFF;}
	.st3{fill:#31363D;}
	.st4{fill:#73BCC4;}
	.st5{fill:#3FB149;}
	.st6{fill:#EC8457;}
	.st7{fill:#5E9BA3;}
</style>
<path class="st0" d="M133.9,157.4c0,7.5-6.5,13.6-14.5,13.6H60.7c-8,0-14.5-6.1-14.5-13.6V14.6C46.2,7.1,52.7,1,60.7,1h58.8
	c8,0,14.5,6.1,14.5,13.6V157.4z"/>
<path class="st1" d="M100.7,10.3c0,1.2-0.8,2.1-1.8,2.1H80.7c-1,0-1.8-0.9-1.8-2.1l0,0c0-1.2,0.8-2.1,1.8-2.1h18.2
	C99.9,8.2,100.7,9.2,100.7,10.3L100.7,10.3z"/>
<rect x="49.8" y="18" class="st2" width="80.5" height="133.7"/>
<path class="st3" d="M29.4,60.1l-2.2,1.5c-1.2-1.2-2.5-1.9-3.8-2.5l0,0l0.5-2.6c0.1-0.6-0.3-1.1-0.9-1.3l-4.6-0.8
	c-0.6-0.1-1.1,0.3-1.2,0.9l-0.5,2.6c-1.5,0.1-2.8,0.3-4.4,0.9l0,0l-1.5-2.2c-0.3-0.5-1-0.5-1.5-0.2l-3.8,2.6
	c-0.5,0.3-0.4,0.8-0.1,1.3L7,62.5C5.8,63.8,5,65,4.5,66.4l-0.1,0L1.7,66c-0.6-0.1-1.2,0.3-1.3,0.9l-0.8,4.6
	c-0.1,0.6,0.3,1.1,0.9,1.2l2.7,0.5c0.1,1.5,0.3,2.9,1,4.4l0,0L2,79.1c-0.5,0.3-0.6,0.8-0.2,1.3l2.6,3.8c0.3,0.5,0.8,0.6,1.3,0.3
	L7.9,83c1.3,1.2,2.4,1.8,3.8,2.4l0,0l-0.5,2.6c-0.1,0.6,0.3,1.1,0.9,1.2l4.6,0.8c0.6,0.1,1.1-0.3,1.2-0.9l0.6-2.7
	c1.5-0.1,2.9-0.4,4.5-1l0,0l1.5,2.2c0.3,0.5,0.8,0.8,1.3,0.4l3.8-2.6c0.5-0.3,0.6-1.1,0.3-1.6l-1.5-2.2c1.2-1.2,1.8-2.4,2.4-3.8l0,0
	l2.6,0.5c0.6,0.1,1.1-0.3,1.2-0.9l0.8-4.5c0.1-0.6-0.3-1.1-0.9-1.2l-2.6-0.5c-0.1-1.5-0.5-3.1-1-4.4l0,0l2.2-1.5
	c0.5-0.3,0.7-1.1,0.4-1.5l-2.6-3.8C30.6,59.7,29.9,59.8,29.4,60.1z M18.8,78.9c-0.1,0-0.1,0-0.2,0c-0.2,0-0.4,0.1-0.6,0.1
	c-0.1,0-0.2,0-0.3,0c-0.1,0-0.2,0-0.3,0c-0.1,0-0.1,0-0.2,0c-0.3,0-0.6-0.1-0.9-0.1c-0.3-0.1-0.6-0.1-0.9-0.2
	c-0.1,0-0.2-0.1-0.3-0.1c-0.3-0.1-0.7-0.3-1-0.5c-0.7-0.5-1.4-1.1-1.9-1.8c-1.1-1.6-1.4-3.5-1-5.3c0-0.2,0.1-0.3,0.1-0.5
	c0-0.1,0-0.1,0-0.2c0-0.1,0.1-0.2,0.1-0.3c0.1-0.3,0.3-0.6,0.4-0.9c0.1-0.1,0.1-0.2,0.2-0.3c0.5-0.7,1.1-1.4,1.8-1.9
	c0.9-0.6,1.9-1,2.9-1.1c0.1,0,0.2,0,0.3,0c0.2,0,0.3,0,0.5,0c0.1,0,0.2,0,0.3,0c0.1,0,0.1,0,0.2,0c0.1,0,0.2,0,0.3,0
	c0.2,0,0.3,0,0.5,0.1c0.1,0,0.2,0,0.3,0.1c0.3,0.1,0.5,0.1,0.8,0.2c0.1,0,0.2,0.1,0.3,0.1c0.1,0,0.2,0.1,0.3,0.1
	c0.1,0.1,0.3,0.1,0.4,0.2c0.8,0.5,1.6,1.1,2.2,2c0.3,0.5,0.6,1,0.8,1.5c0,0.1,0.1,0.2,0.1,0.3c0,0.2,0.1,0.3,0.1,0.5
	c0,0.1,0,0.2,0.1,0.3c0,0.1,0,0.1,0,0.2c0,0.1,0,0.3,0.1,0.4c0,0.1,0,0.2,0,0.3c0,0.1,0,0.2,0,0.3c0,0.1,0,0.2,0,0.2
	c0,0.1,0,0.1,0,0.2c0,0.1,0,0.2,0,0.3c0,0.1,0,0.1,0,0.2c0,0.1,0,0.2,0,0.3c0,0.1,0,0.1,0,0.2c0,0.2-0.1,0.4-0.2,0.6
	c0,0.1,0,0.1,0,0.2c0,0.1-0.1,0.2-0.1,0.3s-0.1,0.2-0.1,0.3c0,0,0,0.1-0.1,0.1c0,0.1-0.1,0.2-0.1,0.3c-0.5,0.9-1.2,1.7-2.1,2.3
	c-0.7,0.5-1.5,0.8-2.3,1C19,78.8,18.9,78.8,18.8,78.9z"/>
<path class="st3" d="M56.1,47l-2,0.5c-0.6-1.2-1.3-2.1-2.2-2.9l0,0l1.1-1.8c0.2-0.4,0.1-0.9-0.3-1.2l-3.1-1.8
	c-0.4-0.2-0.9-0.1-1.2,0.3l-1,1.8c-1.2-0.3-2.1-0.5-3.5-0.5l0,0l-0.5-2c-0.1-0.5-0.6-0.7-1.1-0.5l-3.5,0.9c-0.5,0.1-0.5,0.5-0.4,0.9
	l0.5,2c-1.2,0.6-2.1,1.3-2.9,2.2l-0.1,0L34,43.9c-0.4-0.2-0.9-0.1-1.2,0.3L31,47.3c-0.2,0.4-0.1,0.9,0.3,1.2l1.8,1.1
	c-0.3,1.2-0.5,2.2-0.5,3.6l0,0l-2,0.5c-0.5,0.1-0.6,0.4-0.5,0.9l0.9,3.5c0.1,0.5,0.5,0.7,0.9,0.6l2-0.5c0.6,1.2,1.3,2,2.2,2.8l0,0
	l-1.1,1.8c-0.2,0.4-0.1,0.9,0.3,1.2l3.1,1.8c0.4,0.2,0.9,0.1,1.2-0.3l1.1-1.8c1.2,0.3,2.3,0.5,3.6,0.4l0,0l0.5,2
	c0.1,0.5,0.4,0.8,0.9,0.7l3.5-0.9c0.5-0.1,0.7-0.6,0.6-1.1l-0.5-2c1.2-0.6,2-1.3,2.8-2.1l0,0l1.8,1.1c0.4,0.2,0.9,0.1,1.2-0.3
	l1.8-3.1c0.2-0.4,0.1-0.9-0.3-1.2l-1.8-1.1c0.3-1.2,0.5-2.4,0.5-3.5l0,0l2-0.5c0.5-0.1,0.8-0.6,0.7-1l-0.9-3.5
	C57.1,47,56.5,46.9,56.1,47z M43.2,58c-0.1,0-0.1,0-0.2,0c-0.2,0-0.3-0.1-0.5-0.1c-0.1,0-0.2-0.1-0.2-0.1c-0.1,0-0.2-0.1-0.2-0.1
	c0,0-0.1,0-0.1,0c-0.2-0.1-0.4-0.2-0.6-0.3c-0.2-0.1-0.4-0.3-0.6-0.4c-0.1-0.1-0.1-0.1-0.2-0.2c-0.2-0.2-0.4-0.4-0.6-0.6
	c-0.4-0.5-0.7-1.2-0.9-1.9c-0.4-1.5-0.1-3,0.7-4.2c0.1-0.1,0.1-0.2,0.2-0.3c0,0,0.1-0.1,0.1-0.1c0.1-0.1,0.1-0.1,0.2-0.2
	c0.2-0.2,0.3-0.4,0.5-0.5c0.1-0.1,0.1-0.1,0.2-0.2c0.5-0.4,1.2-0.7,1.9-0.9c0.8-0.2,1.7-0.2,2.5-0.1c0.1,0,0.2,0,0.2,0.1
	c0.1,0,0.2,0.1,0.4,0.1c0.1,0,0.2,0.1,0.2,0.1c0,0,0.1,0,0.1,0c0.1,0,0.2,0.1,0.2,0.1c0.1,0.1,0.2,0.1,0.3,0.2
	c0.1,0,0.1,0.1,0.2,0.1c0.2,0.1,0.3,0.2,0.5,0.4c0.1,0.1,0.1,0.1,0.2,0.2c0.1,0.1,0.1,0.1,0.2,0.2c0.1,0.1,0.2,0.2,0.3,0.3
	c0.5,0.6,0.9,1.3,1.1,2.1c0.1,0.4,0.2,0.9,0.2,1.3c0,0.1,0,0.2,0,0.3c0,0.1,0,0.3,0,0.4c0,0.1,0,0.2,0,0.3c0,0.1,0,0.1,0,0.2
	c0,0.1,0,0.2-0.1,0.3c0,0.1,0,0.2-0.1,0.2c0,0.1,0,0.1-0.1,0.2c0,0.1,0,0.1-0.1,0.2c0,0,0,0.1,0,0.1c0,0.1-0.1,0.2-0.1,0.2
	c0,0,0,0.1-0.1,0.1c0,0.1-0.1,0.1-0.1,0.2c0,0,0,0.1-0.1,0.1c-0.1,0.1-0.2,0.3-0.3,0.4c0,0-0.1,0.1-0.1,0.1
	c-0.1,0.1-0.1,0.1-0.2,0.2c-0.1,0.1-0.1,0.1-0.2,0.2c0,0-0.1,0.1-0.1,0.1c-0.1,0.1-0.1,0.1-0.2,0.2c-0.6,0.5-1.3,0.9-2.2,1.2
	c-0.7,0.2-1.3,0.2-2,0.1C43.3,58,43.2,58,43.2,58z"/>
<g>
	<path class="st4" d="M108.6,47.9c0,0-30-1.1-40.8,41.6c0,0,12.7-8,22.6,1.9C90.4,91.4,86,78.7,108.6,47.9z"/>
	<path class="st4" d="M146.8,78.1c0,0,8,28.9-31.1,49.3c0,0,4.9-14.2-7-21.5C108.7,105.8,122.1,107.2,146.8,78.1z"/>
	<path class="st5" d="M141.1,84.5c0.3-0.3,0.5-0.6,0.8-0.9c0.1-0.1,0.1-0.1,0.2-0.2c2.3-2.5,4.7-5.3,7.3-8.4c0,0,0.7-0.9,2-2.4
		c4.6-5.7,18.3-23.5,24.3-41.3l-0.1-0.1L162,20.6l-0.5-0.4l-14-11.1C128,21.3,111,44.7,111,44.7c-27.6,36.3-20,48.1-20,48.1l8.2,6.5
		l0.5,0.4l7.6,6.1c0,0,10.3,3.9,33.1-20.2c0.1-0.1,0.2-0.3,0.4-0.4C140.8,84.9,141,84.7,141.1,84.5z"/>
	<path class="st6" d="M104.1,121.4c0,0,3.7-8.9-0.7-15.5l-5.4-4.3l-6.8-5.4c0,0-8.3-7.4-17,6c0,0,5.8-3.1,6.5-0.5
		c0,0-15.5,18.7-8.5,19.9c0,0,3.4-3.1,6.4-1.6c0,0,1.4,2,1.4,4.5c0,2.5-1.3,5.5-6.4,8.1c-0.8,0.4-1.7,0.8-2.7,1.1
		c0,0,0.1,0.8,0.5,1.6c1.1,2.4,5,5,18.1-9.7c0,0,4.8-1.1,2.9,3.8c0,0-1.1,2.8-2.7,3.4C89.6,133,95.6,137.4,104.1,121.4z"/>
	<path class="st4" d="M176.7,2c-0.2-0.2-0.3-0.3-0.4-0.5c0,0-0.1,0-0.1,0c0,0,0-0.2,0-0.2c-1.5-0.7-10.7-4.7-24.9,5.8l12.5,9.9
		l0.2,0.1l0.5,0.4l12,9.5C182.2,12.9,178.3,4.3,176.7,2z"/>
	<path class="st7" d="M100.3,98.7l-9.6-7.6l-0.5-0.4c0,0-1.6,5.7,6,13.2c9,5.6,13.6,2.3,13.6,2.3L100.3,98.7z"/>
	<g>
		<path class="st2" d="M156.5,27L156.5,27c-1.2-1-3.2-2-5.1-2.4c-4.5-1-9.3,0.7-12.4,4.6c-2.5,3.2-3.3,7.1-2.4,10.8
			c0.6,2.6,2.4,5.4,4.2,6.8l0.1-0.1c5.5,4.3,13.3,3.3,17.6-2.1C162.8,39.2,161.9,31.4,156.5,27z M152.7,45.8
			c-0.3,0.1-0.6,0.2-0.9,0.3c-0.1,0-0.3,0.1-0.4,0.1c-0.3,0.1-0.6,0.1-0.9,0.2c-0.8,0.1-1.5,0.2-2.3,0.1c-0.5,0-0.9-0.1-1.4-0.2
			c-1.4-0.3-2.7-0.9-3.8-1.8c-1.2-0.9-2.1-2.1-2.7-3.3c-0.2-0.4-0.3-0.8-0.5-1.2c-0.1-0.4-0.2-0.9-0.3-1.3c-0.1-0.3-0.1-0.6-0.1-0.9
			c0-0.3,0-0.6,0-0.9c0-0.2,0-0.3,0-0.5c0-0.3,0.1-0.6,0.1-0.9c0.3-1.5,0.9-3,1.9-4.3c1.2-1.6,2.8-2.6,4.6-3.2
			c0.1,0,0.3-0.1,0.4-0.1c0.3-0.1,0.6-0.1,0.9-0.2c0.3-0.1,0.6-0.1,0.9-0.1c0.5,0,0.9,0,1.4,0c0.5,0,0.9,0.1,1.4,0.2
			c0.3,0.1,0.6,0.1,0.9,0.2c0.3,0.1,0.6,0.2,0.9,0.3c0.2,0.1,0.3,0.1,0.5,0.2c0.5,0.3,1,0.6,1.5,1c0.6,0.5,1.2,1.1,1.7,1.7
			c0.2,0.3,0.4,0.5,0.5,0.8c0.2,0.3,0.3,0.5,0.4,0.8c0.2,0.4,0.4,0.8,0.5,1.3c0.2,0.7,0.4,1.5,0.4,2.2c0,0.3,0,0.6,0,0.9
			c0,0.2,0,0.3,0,0.5c-0.1,1.8-0.8,3.6-2,5.2C155.4,44.3,154.1,45.2,152.7,45.8z"/>
		<path class="st2" d="M137.7,51.3c-2.7-2.1-6.7-1.8-8.9,0.9c0,0-0.1-0.1-0.2-0.1c0,0,0,0,0,0c-0.1,0.1,0,0.3-0.1,0.4
			c0,0.1,0,0.2-0.1,0.2c-0.6,0.9-0.8,1.9-0.9,2.9c0,0-0.1-0.1-0.1-0.1c-0.2,2,1,4.3,2.2,5.3l0,0c3,2.4,6.8,1.8,8.9-0.9
			C140.7,57.3,140.4,53.4,137.7,51.3z M135.7,60.6c-0.1,0.1-0.3,0.1-0.4,0.2c-0.1,0-0.1,0-0.2,0.1c-0.1,0-0.3,0.1-0.4,0.1
			c-0.4,0.1-0.8,0.1-1.1,0.1c-0.2,0-0.5-0.1-0.7-0.1c-0.7-0.2-1.3-0.5-1.9-0.9c-0.6-0.5-1-1-1.3-1.6c-0.1-0.2-0.2-0.4-0.2-0.6
			c-0.1-0.2-0.1-0.4-0.1-0.6c0-0.1,0-0.3,0-0.4c0-0.2,0-0.3,0-0.5c0-0.1,0-0.1,0-0.2c0-0.2,0-0.3,0.1-0.5c0.1-0.8,0.4-1.5,1-2.1
			c0.6-0.8,1.4-1.3,2.3-1.6c0.1,0,0.1,0,0.2-0.1c0.1,0,0.3-0.1,0.4-0.1c0.2,0,0.3,0,0.5-0.1c0.2,0,0.5,0,0.7,0
			c0.2,0,0.5,0.1,0.7,0.1c0.1,0,0.3,0.1,0.4,0.1c0.1,0,0.1,0,0.2,0c0.4,0.2,0.8,0.5,0.8,0.5l0,0c0.6,0.5,0.7,0.7,1,1
			c0.1,0.1,0.3,0.3,0.3,0.4c0.1,0.1,0.2,0.3,0.3,0.4c0.1,0.2,0.2,0.4,0.3,0.7c0.1,0.4,0.2,0.7,0.2,1.1c0,0.2,0,0.3,0,0.5
			c0,0.1,0,0.2,0,0.2c-0.1,0.9-0.4,1.8-1,2.6C137.1,59.8,136.4,60.3,135.7,60.6z"/>
		<path class="st2" d="M151.9,33.3c-2.1-1.7-5.1-1.3-6.8,0.8c-1.6,2-1.5,4.7,0.3,6.4c0.1,0.1,0.2,0.2,0.2,0.2l0,0
			c2.4,1.9,5.3,1.4,6.9-0.7C154.2,37.9,154,34.9,151.9,33.3z M150.4,40.5c-0.1,0-0.2,0.1-0.3,0.1c-0.1,0-0.1,0-0.2,0
			c-0.1,0-0.2,0.1-0.3,0.1c-0.3,0-0.6,0.1-0.9,0c-0.2,0-0.4,0-0.5-0.1c-0.5-0.1-1-0.4-1.5-0.7c-0.4-0.4-0.8-0.8-1-1.3
			c-0.1-0.1-0.1-0.2-0.1-0.4c0,0,0,0,0,0c-0.1-0.2-0.1-0.3-0.1-0.5c0-0.1,0-0.2,0-0.3c0-0.1,0-0.2,0-0.4c0-0.1,0-0.1,0-0.2
			c0-0.1,0-0.2,0-0.4c0.1-0.6,0.3-1.2,0.7-1.7c0.5-0.6,1.1-1,1.8-1.2c0.1,0,0.1,0,0.2,0c0.1,0,0.2-0.1,0.3-0.1c0.1,0,0.2,0,0.3,0
			c0.2,0,0.4,0,0.5,0c0.2,0,0.4,0,0.5,0.1c0.1,0,0.2,0.1,0.3,0.1c0.1,0,0.1,0.2,0.3,0.2c0.3,0.1,0.5,0.4,0.7,0.6l-0.3-0.3L151,34
			c0.6,0.5,0.6,0.5,0.7,0.7c0.1,0.1,0.2,0.3,0.3,0.4c0.1,0.1,0.2,0.2,0.2,0.3c0.1,0.2,0.2,0.3,0.2,0.5c0.1,0.3,0.2,0.6,0.2,0.9
			c0,0.1,0,0.2,0,0.4c0,0.1,0,0.1,0,0.2c-0.1,0.7-0.3,1.4-0.8,2C151.4,39.8,150.9,40.2,150.4,40.5z"/>
		<path class="st2" d="M156.8,27.2L156.8,27.2C156.8,27.2,156.8,27.2,156.8,27.2L156.8,27.2z"/>
		<path class="st2" d="M141.1,47.1C141.1,47.1,141.1,47.1,141.1,47.1L141.1,47.1L141.1,47.1z"/>
		<path class="st2" d="M146,40.9C146,40.9,146,40.9,146,40.9L146,40.9L146,40.9z"/>
	</g>
</g>
</svg>
