<?xml version="1.0" encoding="utf-8"?>
<!-- Generator: Adobe Illustrator 20.1.0, SVG Export Plug-In . SVG Version: 6.00 Build 0)  -->
<svg version="1.1" id="Режим_изоляции"
	 xmlns="http://www.w3.org/2000/svg" xmlns:xlink="http://www.w3.org/1999/xlink" x="0px" y="0px" viewBox="0 0 120.3 113.5"
	 style="enable-background:new 0 0 120.3 113.5;" xml:space="preserve">
<style type="text/css">
	.st0{fill:#0DAAA3;}
	.st1{fill:#73BCC4;}
	.st2{fill:#31363D;}
</style>
<path class="st0" d="M78.6,63.5l-6.1,0.2c-0.9-3.8-2.4-6.7-4.2-9.6l0-0.1l4.2-4.5c0.9-1,0.9-2.6-0.1-3.5l-7.7-7.3
	c-1-0.9-2.5-0.9-3.5,0.1L57,43.1c-3-1.7-5.7-3-9.6-3.7l0,0l-0.2-6.1c0-1.4-1.3-2.3-2.7-2.3L34,31.3c-1.4,0-1.8,1-1.8,2.4l0.2,6.1
	c-3.8,0.9-6.9,2.4-9.7,4.2l-0.2,0l-4.5-4.2c-1-0.9-2.6-0.9-3.5,0.1l-7.3,7.7c-0.9,1-0.9,2.5,0.1,3.5l4.4,4.4c-1.7,3-3,5.9-3.7,9.8
	l0,0l-6.1,0.2c-1.4,0-2.1,0.8-2.1,2.2L0,78.3c0,1.4,0.8,2.3,2.2,2.3l6.1-0.2c0.9,3.8,2.4,6.6,4.2,9.5l0,0.1l-4.2,4.5
	c-0.9,1-0.9,2.6,0.1,3.5l7.7,7.3c1,0.9,2.5,0.9,3.5-0.1l4.5-4.4c3,1.7,6.1,3,9.9,3.7l0,0l0.2,6.1c0,1.4,0.6,2.6,2,2.5l10.6-0.3
	c1.4,0,2.5-1.3,2.5-2.6l-0.2-6.1c3.8-0.9,6.5-2.4,9.4-4.2l0,0l4.4,4.2c1,0.9,2.5,0.9,3.5-0.1l7.3-7.7c0.9-1,0.9-2.5-0.1-3.5
	l-4.4-4.3c1.7-3,3-6.6,3.7-9.7l0,0l6.1-0.2c1.4,0,2.8-1.1,2.7-2.5l-0.3-10.6C81.4,64.2,79.9,63.5,78.6,63.5z M34.6,86.2
	c-0.1-0.1-0.3-0.1-0.4-0.2c-0.5-0.2-0.9-0.4-1.3-0.7c-0.2-0.1-0.4-0.3-0.6-0.4c-0.2-0.1-0.4-0.3-0.6-0.4c-0.1-0.1-0.2-0.1-0.3-0.2
	c-0.6-0.4-1.1-0.9-1.6-1.4c-0.5-0.5-1-1-1.4-1.6c-0.2-0.2-0.3-0.5-0.5-0.7c-0.5-0.7-0.9-1.5-1.3-2.2c-0.8-1.8-1.3-3.9-1.4-6
	c-0.1-4.5,1.7-8.6,4.7-11.5c0.3-0.3,0.5-0.5,0.8-0.7c0.1-0.1,0.2-0.2,0.3-0.2c0.2-0.2,0.4-0.3,0.6-0.4c0.6-0.4,1.2-0.8,1.9-1.2
	c0.2-0.1,0.4-0.2,0.7-0.3c1.8-0.8,3.8-1.3,5.9-1.4c2.5-0.1,4.9,0.5,7,1.5c0.2,0.1,0.4,0.2,0.7,0.3c0.3,0.2,0.6,0.4,1,0.6
	c0.2,0.1,0.4,0.3,0.6,0.4c0.1,0.1,0.2,0.1,0.3,0.2c0.2,0.1,0.4,0.3,0.6,0.5c0.3,0.2,0.6,0.5,0.8,0.7c0.2,0.2,0.4,0.3,0.5,0.5
	c0.4,0.4,0.8,0.9,1.2,1.4c0.1,0.2,0.3,0.4,0.4,0.6c0.1,0.2,0.3,0.4,0.4,0.6c0.2,0.3,0.4,0.6,0.5,1c1,2,1.6,4.2,1.7,6.6
	c0,1.3-0.1,2.6-0.4,3.8c-0.1,0.2-0.1,0.5-0.2,0.7c-0.1,0.4-0.2,0.7-0.3,1.1c-0.1,0.2-0.2,0.5-0.3,0.7c-0.1,0.2-0.1,0.3-0.2,0.5
	c-0.1,0.3-0.3,0.6-0.4,0.9c-0.1,0.2-0.2,0.4-0.4,0.6c-0.1,0.2-0.2,0.3-0.3,0.5c-0.1,0.1-0.2,0.3-0.3,0.4c-0.1,0.1-0.1,0.2-0.2,0.3
	c-0.1,0.2-0.3,0.4-0.5,0.6c-0.1,0.1-0.2,0.2-0.2,0.3c-0.2,0.2-0.3,0.4-0.5,0.5c-0.1,0.1-0.2,0.2-0.3,0.3c-0.3,0.3-0.7,0.7-1.1,1
	C50.1,83.9,50,84,49.9,84c-0.2,0.2-0.4,0.3-0.6,0.4c-0.2,0.1-0.4,0.3-0.6,0.4c-0.1,0.1-0.2,0.1-0.3,0.2c-0.2,0.1-0.4,0.3-0.6,0.4
	c-2.1,1.1-4.4,1.8-6.9,1.9c-2,0.1-4-0.3-5.7-1C34.9,86.3,34.7,86.2,34.6,86.2z"/>
<path class="st1" d="M95.1,15l-2.8,0.1c-0.4-1.8-1.1-3.1-2-4.5l0-0.1l2-2.1c0.4-0.5,0.4-1.2,0-1.6l-3.6-3.4c-0.5-0.4-1.2-0.4-1.6,0
	l-1.9,2.1c-1.4-0.8-2.7-1.4-4.5-1.7l0,0L80.6,1c0-0.6-0.6-1.1-1.2-1.1l-4.9,0.1c-0.6,0-0.9,0.5-0.8,1.1L73.7,4
	c-1.8,0.4-3.2,1.1-4.5,2l-0.1,0L67,4c-0.5-0.4-1.2-0.4-1.6,0l-3.4,3.6c-0.4,0.5-0.4,1.2,0,1.6l2.1,2c-0.8,1.4-1.4,2.8-1.7,4.6l0,0
	L59.5,16c-0.6,0-1,0.4-1,1l0.1,4.9c0,0.6,0.4,1.1,1,1.1l2.8-0.1c0.4,1.8,1.1,3.1,2,4.4l0,0l-2,2.1c-0.4,0.5-0.4,1.2,0,1.6l3.6,3.4
	c0.5,0.4,1.2,0.4,1.6,0l2.1-2.1c1.4,0.8,2.8,1.4,4.6,1.7l0,0l0.1,2.8c0,0.6,0.3,1.2,0.9,1.2l4.9-0.1c0.6,0,1.2-0.6,1.2-1.2l-0.1-2.8
	c1.8-0.4,3-1.1,4.4-2l0,0l2.1,2c0.5,0.4,1.2,0.4,1.6,0l3.4-3.6c0.4-0.5,0.4-1.2,0-1.6l-2.1-2c0.8-1.4,1.4-3.1,1.7-4.5l0,0l2.8-0.1
	c0.6,0,1.3-0.5,1.3-1.1L96.5,16C96.5,15.3,95.8,15,95.1,15z M74.7,25.6c-0.1,0-0.1-0.1-0.2-0.1c-0.2-0.1-0.4-0.2-0.6-0.3
	c-0.1-0.1-0.2-0.1-0.3-0.2c-0.1-0.1-0.2-0.1-0.3-0.2c0,0-0.1-0.1-0.1-0.1c-0.3-0.2-0.5-0.4-0.7-0.6c-0.2-0.2-0.5-0.5-0.7-0.7
	c-0.1-0.1-0.2-0.2-0.2-0.3c-0.2-0.3-0.4-0.7-0.6-1c-0.4-0.8-0.6-1.8-0.6-2.8c-0.1-2.1,0.8-4,2.2-5.3c0.1-0.1,0.3-0.2,0.4-0.3
	c0,0,0.1-0.1,0.1-0.1c0.1-0.1,0.2-0.1,0.3-0.2c0.3-0.2,0.6-0.4,0.9-0.5c0.1-0.1,0.2-0.1,0.3-0.2c0.8-0.4,1.8-0.6,2.8-0.6
	c1.2,0,2.3,0.2,3.3,0.7c0.1,0,0.2,0.1,0.3,0.2c0.2,0.1,0.3,0.2,0.4,0.3c0.1,0.1,0.2,0.1,0.3,0.2c0,0,0.1,0.1,0.1,0.1
	c0.1,0.1,0.2,0.1,0.3,0.2c0.1,0.1,0.3,0.2,0.4,0.3c0.1,0.1,0.2,0.2,0.2,0.2c0.2,0.2,0.4,0.4,0.6,0.7c0.1,0.1,0.1,0.2,0.2,0.3
	c0.1,0.1,0.1,0.2,0.2,0.3c0.1,0.1,0.2,0.3,0.3,0.5c0.5,0.9,0.8,2,0.8,3.1c0,0.6,0,1.2-0.2,1.8c0,0.1-0.1,0.2-0.1,0.3
	c0,0.2-0.1,0.3-0.2,0.5c0,0.1-0.1,0.2-0.1,0.3c0,0.1-0.1,0.1-0.1,0.2c-0.1,0.1-0.1,0.3-0.2,0.4c-0.1,0.1-0.1,0.2-0.2,0.3
	c0,0.1-0.1,0.2-0.1,0.2c0,0.1-0.1,0.1-0.1,0.2c0,0-0.1,0.1-0.1,0.1c-0.1,0.1-0.1,0.2-0.2,0.3c0,0-0.1,0.1-0.1,0.1
	c-0.1,0.1-0.2,0.2-0.2,0.3c0,0-0.1,0.1-0.1,0.1c-0.2,0.2-0.3,0.3-0.5,0.5c0,0-0.1,0.1-0.1,0.1c-0.1,0.1-0.2,0.1-0.3,0.2
	c-0.1,0.1-0.2,0.1-0.3,0.2c0,0-0.1,0.1-0.1,0.1c-0.1,0.1-0.2,0.1-0.3,0.2c-1,0.5-2.1,0.8-3.2,0.9c-0.9,0-1.8-0.1-2.7-0.4
	C74.8,25.6,74.8,25.6,74.7,25.6z"/>
<path class="st2" d="M118.8,48.8l-2.7,0.1c-0.4-1.7-1-2.9-1.8-4.2l0,0l1.8-1.9c0.4-0.4,0.4-1.1,0-1.5l-3.4-3.2
	c-0.4-0.4-1.1-0.4-1.5,0l-1.8,1.9c-1.3-0.8-2.5-1.3-4.2-1.6l0,0l-0.1-2.7c0-0.6-0.6-1-1.2-1l-4.6,0.1c-0.6,0-0.8,0.4-0.8,1l0.1,2.7
	c-1.7,0.4-3,1-4.2,1.8l-0.1,0l-2-1.8c-0.4-0.4-1.1-0.4-1.5,0l-3.2,3.4c-0.4,0.4-0.4,1.1,0,1.5l1.9,1.9c-0.8,1.3-1.3,2.6-1.6,4.3l0,0
	l-2.7,0.1c-0.6,0-0.9,0.4-0.9,1l0.1,4.6c0,0.6,0.4,1,0.9,1l2.7-0.1c0.4,1.7,1,2.9,1.8,4.1l0,0l-1.8,1.9c-0.4,0.4-0.4,1.1,0,1.5
	l3.4,3.2c0.4,0.4,1.1,0.4,1.5,0l1.9-1.9c1.3,0.8,2.6,1.3,4.3,1.6l0,0l0.1,2.7c0,0.6,0.3,1.1,0.9,1.1l4.6-0.1c0.6,0,1.1-0.6,1.1-1.1
	l-0.1-2.7c1.7-0.4,2.8-1,4.1-1.8l0,0l1.9,1.8c0.4,0.4,1.1,0.4,1.5,0l3.2-3.4c0.4-0.4,0.4-1.1,0-1.5l-1.9-1.8
	c0.8-1.3,1.3-2.9,1.6-4.2l0,0l2.7-0.1c0.6,0,1.2-0.5,1.2-1.1l-0.1-4.6C120,49.1,119.4,48.8,118.8,48.8z M99.7,58.6
	c-0.1,0-0.1-0.1-0.2-0.1c-0.2-0.1-0.4-0.2-0.6-0.3c-0.1-0.1-0.2-0.1-0.3-0.2c-0.1-0.1-0.2-0.1-0.3-0.2c0,0-0.1-0.1-0.1-0.1
	c-0.2-0.2-0.5-0.4-0.7-0.6c-0.2-0.2-0.4-0.4-0.6-0.7c-0.1-0.1-0.1-0.2-0.2-0.3c-0.2-0.3-0.4-0.6-0.5-1c-0.4-0.8-0.6-1.7-0.6-2.6
	c-0.1-2,0.7-3.7,2.1-5c0.1-0.1,0.2-0.2,0.4-0.3c0,0,0.1-0.1,0.1-0.1c0.1-0.1,0.2-0.1,0.3-0.2c0.3-0.2,0.5-0.4,0.8-0.5
	c0.1,0,0.2-0.1,0.3-0.1c0.8-0.4,1.7-0.6,2.6-0.6c1.1,0,2.1,0.2,3,0.7c0.1,0,0.2,0.1,0.3,0.1c0.1,0.1,0.3,0.2,0.4,0.2
	c0.1,0.1,0.2,0.1,0.3,0.2c0,0,0.1,0.1,0.1,0.1c0.1,0.1,0.2,0.1,0.3,0.2c0.1,0.1,0.2,0.2,0.4,0.3c0.1,0.1,0.2,0.1,0.2,0.2
	c0.2,0.2,0.4,0.4,0.5,0.6c0.1,0.1,0.1,0.2,0.2,0.3c0.1,0.1,0.1,0.2,0.2,0.3c0.1,0.1,0.2,0.3,0.2,0.4c0.4,0.9,0.7,1.8,0.7,2.9
	c0,0.6,0,1.1-0.2,1.7c0,0.1-0.1,0.2-0.1,0.3c0,0.2-0.1,0.3-0.2,0.5c0,0.1-0.1,0.2-0.1,0.3c0,0.1-0.1,0.1-0.1,0.2
	c-0.1,0.1-0.1,0.3-0.2,0.4c-0.1,0.1-0.1,0.2-0.2,0.3c0,0.1-0.1,0.1-0.1,0.2c0,0.1-0.1,0.1-0.1,0.2c0,0-0.1,0.1-0.1,0.1
	c-0.1,0.1-0.1,0.2-0.2,0.3c0,0-0.1,0.1-0.1,0.1c-0.1,0.1-0.1,0.2-0.2,0.2c0,0-0.1,0.1-0.1,0.1c-0.2,0.2-0.3,0.3-0.5,0.4
	c0,0-0.1,0.1-0.1,0.1c-0.1,0.1-0.2,0.1-0.3,0.2s-0.2,0.1-0.3,0.2c0,0-0.1,0.1-0.1,0.1c-0.1,0.1-0.2,0.1-0.3,0.2
	c-0.9,0.5-1.9,0.8-3,0.8c-0.9,0-1.7-0.1-2.5-0.4C99.8,58.7,99.7,58.7,99.7,58.6z"/>
</svg>
