<?xml version="1.0" encoding="utf-8"?>
<!-- Generator: Adobe Illustrator 20.1.0, SVG Export Plug-In . SVG Version: 6.00 Build 0)  -->
<svg version="1.1" id="Objects" xmlns="http://www.w3.org/2000/svg" xmlns:xlink="http://www.w3.org/1999/xlink" x="0px" y="0px"
	 viewBox="0 0 431.8 110.6" style="enable-background:new 0 0 431.8 110.6;" xml:space="preserve">
<style type="text/css">
	.st0{fill:#AAAAAA;}
	.st1{fill:#3FB23F;}
	.st2{fill:#F2E6CD;}
	.st3{fill:#EA4F78;}
	.st4{fill:#1F4368;}
	.st5{fill:#FFAB25;}
	.st6{fill:#16B0A6;}
	.st7{fill:#DB6579;}
	.st8{fill:#FFFFFF;}
	.st9{fill:none;stroke:#FFFFFF;stroke-width:3;stroke-linecap:round;stroke-linejoin:round;}
	.st10{fill:none;stroke:#FFFFFF;stroke-width:3;stroke-linecap:round;stroke-linejoin:round;stroke-dasharray:11.9961,11.9961;}
</style>
<rect x="-0.1" y="96.7" class="st0" width="431.9" height="13.8"/>
<path class="st1" d="M47.6,86.2c-4.4,0-7.9-3.5-7.9-7.9V34.2c0-4.4,3.5-7.9,7.9-7.9h33.3c4.4,0,7.9,3.5,7.9,7.9v44.2
	c0,4.4-3.5,7.9-7.9,7.9H47.6z"/>
<path class="st2" d="M85.5,78.3c0,2.5-2.1,4.6-4.6,4.6H47.6c-2.5,0-4.6-2.1-4.6-4.6V34.2c0-2.5,2.1-4.6,4.6-4.6h33.3
	c2.5,0,4.6,2.1,4.6,4.6V78.3z"/>
<g>
	<polygon class="st3" points="71,31.8 57.4,31.8 58.5,23.6 70,23.6 	"/>
	<circle class="st3" cx="64.2" cy="22.5" r="4.1"/>
	<circle class="st4" cx="64.2" cy="22.5" r="1.6"/>
</g>
<g>
	<g>
		<g>
			<path class="st4" d="M53.2,42.5h-4.5v-4.5h4.5V42.5z M49.4,41.8h3.2v-3.2h-3.2V41.8z"/>
		</g>
		<g>
			<rect x="56.3" y="39.8" class="st4" width="23.4" height="0.9"/>
		</g>
	</g>
	<g>
		<g>
			<path class="st4" d="M53.2,53.1h-4.5v-4.5h4.5V53.1z M49.4,52.5h3.2v-3.2h-3.2V52.5z"/>
		</g>
		<g>
			<rect x="56.3" y="50.5" class="st4" width="23.4" height="0.9"/>
		</g>
	</g>
	<g>
		<g>
			<path class="st4" d="M53.2,63.8h-4.5v-4.5h4.5V63.8z M49.4,63.2h3.2V60h-3.2V63.2z"/>
		</g>
		<g>
			<rect x="56.3" y="61.2" class="st4" width="23.4" height="0.9"/>
		</g>
	</g>
	<g>
		<g>
			<path class="st4" d="M53.2,74.5h-4.5V70h4.5V74.5z M49.4,73.9h3.2v-3.2h-3.2V73.9z"/>
		</g>
		<g>
			<rect x="56.3" y="71.9" class="st4" width="23.4" height="0.9"/>
		</g>
	</g>
</g>
<g>
	<polygon class="st5" points="51,63.4 48.4,60.8 49.1,60.1 50.9,61.9 54.1,57.9 54.9,58.5 	"/>
</g>
<g>
	<g>
		<rect x="130.2" y="37.7" transform="matrix(0.9813 -0.1926 0.1926 0.9813 -7.7007 29.2674)" class="st5" width="33" height="33"/>
		<g>
			
				<rect x="140.4" y="40.1" transform="matrix(0.9813 -0.1926 0.1926 0.9813 -5.7252 28.1876)" class="st4" width="3.4" height="6.8"/>
			
				<rect x="145.2" y="39.2" transform="matrix(0.9813 -0.1926 0.1926 0.9813 -5.4524 29.1006)" class="st4" width="3.4" height="6.8"/>
		</g>
		<polygon class="st4" points="140.5,66.3 137.7,64.6 135.8,67.2 136.7,67 137.5,70.9 140.3,70.3 139.6,66.5 		"/>
	</g>
	<g>
		<rect x="123.4" y="2.9" transform="matrix(0.9813 -0.1926 0.1926 0.9813 -1.1159 27.2994)" class="st5" width="33" height="33"/>
		<g>
			
				<rect x="133.6" y="5.3" transform="matrix(0.9813 -0.1926 0.1926 0.9813 0.8613 26.2171)" class="st4" width="3.4" height="6.8"/>
			<rect x="138.4" y="4.3" transform="matrix(0.9813 -0.1925 0.1925 0.9813 1.132 27.1135)" class="st4" width="3.4" height="6.8"/>
		</g>
		<polygon class="st4" points="133.7,31.4 130.9,29.7 128.9,32.4 129.9,32.2 130.6,36 133.5,35.5 132.7,31.6 		"/>
	</g>
	<g>
		<path class="st6" d="M129.9,82.9c-0.7,0-1.3-0.2-1.9-0.6c-0.7-0.5-1.2-1.3-1.4-2.1L112.4,7.5l-19.6,3.9c-1.8,0.4-3.5-0.8-3.9-2.6
			c-0.4-1.8,0.8-3.5,2.6-3.9l22.9-4.5c1.8-0.4,3.5,0.8,3.9,2.6l14.3,72.7l30-5.9c1.8-0.4,3.5,0.8,3.9,2.6c0.4,1.8-0.8,3.5-2.6,3.9
			l-33.3,6.5C130.3,82.9,130.1,82.9,129.9,82.9z"/>
	</g>
	
		<ellipse transform="matrix(0.9813 -0.1926 0.1926 0.9813 -12.8938 26.5005)" class="st7" cx="129.9" cy="79.6" rx="17.4" ry="17.4"/>
	<ellipse transform="matrix(0.9813 -0.1926 0.1926 0.9813 -12.8958 26.5061)" class="st4" cx="129.9" cy="79.6" rx="6.6" ry="6.6"/>
</g>
<g>
	<line class="st8" x1="-0.1" y1="99.9" x2="431.8" y2="100.7"/>
	<g>
		<line class="st9" x1="-0.1" y1="99.9" x2="5.9" y2="99.9"/>
		<line class="st10" x1="17.9" y1="99.9" x2="419.8" y2="100.7"/>
		<line class="st9" x1="425.8" y1="100.7" x2="431.8" y2="100.7"/>
	</g>
</g>
</svg>
