<?xml version="1.0" encoding="utf-8"?>
<!-- Generator: Adobe Illustrator 20.1.0, SVG Export Plug-In . SVG Version: 6.00 Build 0)  -->
<svg version="1.1" id="Objects" xmlns="http://www.w3.org/2000/svg" xmlns:xlink="http://www.w3.org/1999/xlink" x="0px" y="0px"
	 viewBox="0 0 117.7 204.3" style="enable-background:new 0 0 117.7 204.3;" xml:space="preserve">
<style type="text/css">
	.st0{fill:#022640;}
	.st1{fill:#66B3D4;}
	.st2{fill:#88B5C0;}
	.st3{fill:#E5E5E4;}
</style>
<rect x="36.8" y="180.1" class="st0" width="41.9" height="18.5"/>
<path class="st1" d="M103.7,0.9H14.1C6.6,0.9,0.5,7,0.5,14.5v173.9c0,7.5,6.1,13.6,13.6,13.6h89.6c7.5,0,13.6-6.1,13.6-13.6V14.5
	C117.3,7,111.2,0.9,103.7,0.9z M60.2,197c-0.4,0.1-0.9,0.1-1.3,0.1c-4.4,0-7.9-3.6-7.9-7.9c0-4.4,3.6-7.9,7.9-7.9
	c0.5,0,0.9,0.1,1.3,0.1c3.8,0.6,6.6,3.9,6.6,7.8C66.8,193.1,64,196.4,60.2,197z M82.9,14.9h-48c-1.8,0-3.2-1.4-3.2-3.2
	c0-1.8,1.4-3.2,3.2-3.2h48c1.8,0,3.2,1.4,3.2,3.2C86.1,13.4,84.7,14.9,82.9,14.9z"/>
<circle class="st2" cx="45.1" cy="189.2" r="3.2"/>
<circle class="st2" cx="72.8" cy="189.2" r="3.2"/>
<path class="st3" d="M106.8,22.6c-0.5-0.5-1.2-0.8-2-0.8H60.2H13.1c-1.7,0-3,1.4-3,3v15.8v133.1c0,0.5,0.1,1,0.3,1.4
	c0.5,1,1.5,1.6,2.7,1.6h47.1h44.6c1.7,0,3-1.4,3-3V40.7V24.9C107.8,24,107.4,23.2,106.8,22.6z"/>
</svg>
