<?xml version="1.0" encoding="utf-8"?>
<!-- Generator: Adobe Illustrator 20.1.0, SVG Export Plug-In . SVG Version: 6.00 Build 0)  -->
<svg version="1.1" id="Objects" xmlns="http://www.w3.org/2000/svg" xmlns:xlink="http://www.w3.org/1999/xlink" x="0px" y="0px"
	 viewBox="0 0 172.3 94" style="enable-background:new 0 0 172.3 94;" xml:space="preserve">
<style type="text/css">
	.st0{fill:#56A3C4;}
	.st1{fill:#1F4368;}
	.st2{fill:#FFAB25;}
	.st3{fill:#DB6579;}
	.st4{fill:#E5E5E4;}
	.st5{fill:#C1C1C1;}
</style>
<g>
	<ellipse class="st0" cx="143.1" cy="81.4" rx="11.8" ry="11.8"/>
	<path class="st1" d="M143.1,86.6c2.9,0,5.2-2.3,5.2-5.2c0-2.8-2.3-5.2-5.2-5.2c-2.8,0-5.2,2.3-5.2,5.2
		C138,84.2,140.3,86.6,143.1,86.6z"/>
	<ellipse class="st0" cx="40.7" cy="81.4" rx="12.1" ry="12.1"/>
	<path class="st1" d="M40.7,86.7c2.9,0,5.3-2.4,5.3-5.3c0-2.9-2.4-5.3-5.3-5.3c-2.9,0-5.3,2.4-5.3,5.3
		C35.4,84.3,37.8,86.7,40.7,86.7z"/>
	<path class="st2" d="M115.8,16.8c0,0-8.9-8.1-25.2-15.4v15.4H115.8z"/>
	<path class="st3" d="M91.9,20.2c10.2,0,18.2,0,21.1,0c11.7,0,31.6,28.9,31.6,28.9s12.8,2.2,21.2,7.2c8.4,5,5,25.2,5,25.2h-13
		c0-8.3-6.8-15.1-15.1-15.1s-15.1,6.7-15.1,15.1H91.8v-4.1h0.1V20.2L91.9,20.2z"/>
	<rect x="159.1" y="59.1" class="st1" width="6.9" height="4.4"/>
	<path class="st4" d="M95.9,46.5h41.6c0,0-15-22.2-23.3-22.2c-8.3,0-18.3,0-18.3,0L95.9,46.5L95.9,46.5z"/>
	<path class="st5" d="M88.9,0.4v19.8c0.4,0,0.8,0,1.3,0v57.1h0l0,0v4.1H55.4c0-8.3-6.8-15.1-15.1-15.1s-15.1,6.8-15.1,15.1H4.9V62.9
		H0V0.4H88.9z"/>
	<rect x="9.1" y="62.9" class="st1" width="2.3" height="9.3"/>
</g>
</svg>
