<?xml version="1.0" encoding="utf-8"?>
<!-- Generator: Adobe Illustrator 20.1.0, SVG Export Plug-In . SVG Version: 6.00 Build 0)  -->
<svg version="1.1" id="Objects" xmlns="http://www.w3.org/2000/svg" xmlns:xlink="http://www.w3.org/1999/xlink" x="0px" y="0px"
	 viewBox="0 0 117.3 203.5" style="enable-background:new 0 0 117.3 203.5;" xml:space="preserve">
<style type="text/css">
	.st0{fill:#56A3C4;}
	.st1{fill:#FFFFFF;}
	.st2{clip-path:url(#SVGID_2_);}
	.st3{fill:#A7373E;}
	.st4{fill:#E48082;}
	.st5{opacity:0.15;}
	.st6{fill:#5B3939;}
	.st7{fill:none;stroke:#D4E5E6;stroke-width:1.5;stroke-linecap:round;stroke-miterlimit:10;}
	.st8{fill:#422A2A;}
	.st9{fill:none;stroke:#D4E5E6;stroke-width:0.75;stroke-linecap:round;stroke-miterlimit:10;}
	.st10{fill:#D4E5E6;}
	.st11{fill:none;stroke:#FFFFFF;stroke-width:2;stroke-linecap:round;stroke-miterlimit:10;}
	.st12{fill:#E1DAAA;}
	.st13{fill:#FEF8D2;}
	.st14{fill:#67615B;}
	.st15{opacity:0.63;}
	.st16{fill:#E2CB85;}
	.st17{fill:#B76959;}
	.st18{fill:#8F5145;}
	.st19{opacity:0.2;}
	.st20{fill:none;stroke:#FCEFD0;stroke-miterlimit:10;}
	.st21{fill:#FCEFD0;}
	.st22{fill:#286024;}
	.st23{fill:#F08F24;}
	.st24{fill:none;stroke:#604123;stroke-width:4;stroke-linecap:round;stroke-miterlimit:10;}
	.st25{fill:#FFA440;}
	.st26{opacity:0.21;}
	.st27{fill:#9AB6B8;}
	.st28{opacity:0.43;}
	.st29{fill:none;stroke:#FFFFFF;stroke-miterlimit:10;}
	.st30{fill:#604123;}
	.st31{fill:none;stroke:#604123;stroke-width:4;stroke-linecap:square;stroke-miterlimit:10;}
	.st32{fill:#4983B3;}
	.st33{fill:none;stroke:#2D5977;stroke-width:5;stroke-linecap:square;stroke-miterlimit:10;}
	.st34{fill:none;stroke:#2D5977;stroke-width:2;stroke-linecap:square;stroke-miterlimit:10;}
	.st35{fill:#336D9E;}
	.st36{fill:#2D5977;}
	.st37{fill:none;stroke:#2D5977;stroke-linecap:square;stroke-miterlimit:10;}
	.st38{fill:#CCEFFF;}
</style>
<path class="st0" d="M100.6,203.5l-84.1,0c-9,0-16.4-7.3-16.4-16.4l0-174.9c0-6.4,5.2-11.7,11.7-11.7l93.5,0
	c6.4,0,11.7,5.2,11.7,11.7l0,174.9C116.9,196.1,109.6,203.5,100.6,203.5z"/>
<path class="st1" d="M8.5,170.8l0-157.4c0-2.5,2.1-4.6,4.6-4.6l90.9,0c2.5,0,4.6,2.1,4.6,4.6l0,157.4c0,4.2-3.4,7.7-7.7,7.7l-84.8,0
	C11.9,178.4,8.5,175,8.5,170.8z"/>
<g>
	<defs>
		<path id="SVGID_1_" d="M8.5,170.3l0-157.4c0-2.5,2.1-4.6,4.6-4.6l90.9,0c2.5,0,4.6,2.1,4.6,4.6l0,157.4c0,4.2-3.4,7.7-7.7,7.7
			l-84.8,0C11.9,177.9,8.5,174.5,8.5,170.3z"/>
	</defs>
	<clipPath id="SVGID_2_">
		<use xlink:href="#SVGID_1_"  style="overflow:visible;"/>
	</clipPath>
	<g class="st2">
		<g>
			<rect x="100.5" y="93.5" class="st12" width="88.1" height="65.6"/>
			<rect x="100.5" y="111" class="st13" width="87.8" height="48.1"/>
			<rect x="100.5" y="100.2" class="st13" width="87.8" height="4.9"/>
			<g id="XMLID_878_">
				<rect x="112" y="116.8" class="st14" width="4.8" height="10.3"/>
				<rect x="112" y="129.5" class="st14" width="4.8" height="10.3"/>
				<rect x="112" y="142.2" class="st14" width="4.8" height="10.3"/>
			</g>
			<polygon id="XMLID_877_" class="st14" points="97.6,144.1 55,144.1 55,66.3 97.6,57.4 			"/>
			<path id="XMLID_843_" class="st12" d="M55,63v96.1h45.5V51.6L55,63z M88.7,59h5.5v5.5h-5.5V59z M88.7,68.1h5.5v5.5h-5.5V68.1z
				 M88.7,77.2h5.5v5.5h-5.5V77.2z M88.7,86.4h5.5v5.5h-5.5V86.4z M66.7,128.3h-5.5v-5.5h5.5V128.3z M66.7,119.2h-5.5v-5.5h5.5
				V119.2z M66.7,110.1h-5.5v-5.5h5.5V110.1z M66.7,101h-5.5v-5.5h5.5V101z M66.7,91.8h-5.5v-5.5h5.5V91.8z M66.7,82.7h-5.5v-5.5
				h5.5V82.7z M66.7,73.6h-5.5v-5.5h5.5V73.6z M76,137.4h-5.5v-5.5H76V137.4z M76,128.3h-5.5v-5.5H76V128.3z M76,119.2h-5.5v-5.5H76
				V119.2z M76,110.1h-5.5v-5.5H76V110.1z M76,101h-5.5v-5.5H76V101z M76,91.8h-5.5v-5.5H76V91.8z M76,82.7h-5.5v-5.5H76V82.7z
				 M76,73.6h-5.5v-5.5H76V73.6z M79.4,68.1h5.5v5.5h-5.5V68.1z M84.9,137.4h-5.5v-5.5h5.5V137.4z M84.9,128.3h-5.5v-5.5h5.5V128.3z
				 M84.9,119.2h-5.5v-5.5h5.5V119.2z M84.9,110.1h-5.5v-5.5h5.5V110.1z M84.9,101h-5.5v-5.5h5.5V101z M85.1,91.8h-5.5v-5.5h5.5
				V91.8z M85.1,82.7h-5.5v-5.5h5.5V82.7z M88.5,95.5H94v5.5h-5.5V95.5z M94.3,137.4h-5.5V132h5.5V137.4z M94.3,128.3h-5.5v-5.5h5.5
				V128.3z M94.3,119.2h-5.5v-5.5h5.5V119.2z M94.3,110.1h-5.5v-5.5h5.5V110.1z"/>
			<rect x="100.5" y="93.5" class="st15" width="11.5" height="65.6"/>
			<rect x="100.5" y="92.4" class="st14" width="90.8" height="2.7"/>
		</g>
		<g>
			<rect x="-31.5" y="70.4" class="st16" width="34.7" height="58"/>
			<path id="XMLID_778_" class="st17" d="M-35.3,65v94.5h40V65H-35.3z M-5.5,119.7h4.8v4.8h-4.8V119.7z M-5.5,111.7h4.8v4.8h-4.8
				V111.7z M-5.5,103.6h4.8v4.8h-4.8V103.6z M-5.5,95.6h4.8v4.8h-4.8V95.6z M-5.5,87.6h4.8v4.8h-4.8V87.6z M-5.5,79.5h4.8v4.8h-4.8
				V79.5z M-5.5,71.5h4.8v4.8h-4.8V71.5z M-13.7,119.7h4.8v4.8h-4.8V119.7z M-13.7,111.7h4.8v4.8h-4.8V111.7z M-13.7,103.6h4.8v4.8
				h-4.8V103.6z M-13.7,95.6h4.8v4.8h-4.8V95.6z M-13.7,87.6h4.8v4.8h-4.8V87.6z M-13.7,79.5h4.8v4.8h-4.8V79.5z M-13.7,71.5h4.8
				v4.8h-4.8V71.5z M-21.6,119.7h4.8v4.8h-4.8V119.7z M-21.6,111.7h4.8v4.8h-4.8V111.7z M-21.6,103.6h4.8v4.8h-4.8V103.6z
				 M-29.8,119.7h4.8v4.8h-4.8V119.7z M-29.8,111.7h4.8v4.8h-4.8V111.7z"/>
			<g id="XMLID_53_">
				<g id="XMLID_225_">
					
						<rect x="6.7" y="17.7" transform="matrix(-1 -1.224647e-16 1.224647e-16 -1 45.8259 113.684)" class="st18" width="32.4" height="78.4"/>
				</g>
				<g id="XMLID_203_">
					<path id="XMLID_204_" class="st18" d="M4.3,16.2l0.4,143.2h38.7L43,16.2H4.3z M33.6,42.6h4.3v4.3h-4.3V42.6z M33.6,35.5h4.3
						v4.3h-4.3V35.5z M33.6,28.4h4.3v4.3h-4.3V28.4z M33.6,21.3h4.3v4.3h-4.3V21.3z M25.2,21.2h2.8V34h-2.8V21.2z M20,21.2h2.8V34
						H20V21.2z M14.7,21.2h2.8V34h-2.8V21.2z M9.4,21.2h2.8V34H9.4V21.2z"/>
				</g>
				<g id="XMLID_178_">
					<path class="st16" d="M28.3,75.8h6.9c0.6,0,1.1-0.5,1.1-1.1V59.4c0-0.6-0.5-1.1-1.1-1.1h-6.9c-0.6,0-1.1,0.5-1.1,1.1v15.3
						C27.2,75.3,27.7,75.8,28.3,75.8z"/>
					
						<rect x="27.2" y="58.1" transform="matrix(-1 -1.224647e-16 1.224647e-16 -1 63.4268 126.6554)" class="st6" width="9.1" height="10.4"/>
					<path id="XMLID_202_" class="st19" d="M28,58.2h7.3c0.3,0,0.5,0.1,0.7,0.3h-6c-0.5,0-0.9,0.4-0.9,0.9v15.8
						c0,0.2,0.1,0.4,0.2,0.5H28c-0.5,0-0.9-0.4-0.9-0.9V59.1C27.2,58.6,27.6,58.2,28,58.2z"/>
					<path class="st20" d="M27.2,75.8h9.1V59.4c0-0.6-0.5-1.1-1.1-1.1h-6.9c-0.6,0-1.1,0.5-1.1,1.1V75.8z"/>
					<path id="XMLID_197_" class="st21" d="M29.7,58c0-1.1,0.9-2,2-2s2,0.9,2,2H29.7z"/>
					
						<rect x="27.2" y="65.6" transform="matrix(-1 -1.224647e-16 1.224647e-16 -1 63.4234 132.9113)" class="st21" width="9.1" height="1.8"/>
					
						<rect x="25.4" y="74.4" transform="matrix(-1 -1.224647e-16 1.224647e-16 -1 63.3027 150.6832)" class="st21" width="12.5" height="1.8"/>
					<polygon class="st19" points="23.8,78.2 36.3,78.2 37.9,76.2 25.4,76.2 					"/>
					<polygon id="XMLID_196_" class="st18" points="28.3,72.2 35.2,72.2 34.4,74.4 29.1,74.4 					"/>
					<circle id="XMLID_194_" class="st22" cx="34.5" cy="72.3" r="1.1"/>
					<circle id="XMLID_193_" class="st22" cx="33.6" cy="71.4" r="0.9"/>
					<circle id="XMLID_192_" class="st22" cx="32.7" cy="72.3" r="0.9"/>
					<circle id="XMLID_191_" class="st22" cx="32.5" cy="70.7" r="0.8"/>
					<circle id="XMLID_186_" class="st22" cx="31" cy="72.2" r="0.8"/>
					<circle id="XMLID_185_" class="st22" cx="30.2" cy="71.5" r="0.5"/>
					<circle id="XMLID_184_" class="st22" cx="29.7" cy="72.2" r="0.6"/>
					<circle id="XMLID_183_" class="st22" cx="28.8" cy="71.6" r="1"/>
					<circle id="XMLID_182_" class="st22" cx="30.8" cy="71.2" r="1.1"/>
					<ellipse id="XMLID_181_" class="st22" cx="32.4" cy="71.6" rx="1" ry="0.9"/>
				</g>
				<g id="XMLID_162_">
					<path class="st16" d="M12.4,75.6h6.9c0.6,0,1.1-0.5,1.1-1.1V59.2c0-0.6-0.5-1.1-1.1-1.1h-6.9c-0.6,0-1.1,0.5-1.1,1.1v15.3
						C11.3,75.2,11.8,75.6,12.4,75.6z"/>
					
						<rect x="11.3" y="58" transform="matrix(-1 -1.224647e-16 1.224647e-16 -1 31.6802 119.5166)" class="st6" width="9.1" height="3.5"/>
					<path id="XMLID_177_" class="st19" d="M12.2,58.1h7.3c0.3,0,0.5,0.1,0.7,0.3h-6c-0.5,0-0.9,0.4-0.9,0.9v15.8
						c0,0.2,0.1,0.4,0.2,0.5h-1.3c-0.5,0-0.9-0.4-0.9-0.9V59C11.3,58.5,11.7,58.1,12.2,58.1z"/>
					<path class="st20" d="M11.3,75.6h9.1V59.2c0-0.6-0.5-1.1-1.1-1.1h-6.9c-0.6,0-1.1,0.5-1.1,1.1V75.6z"/>
					<path id="XMLID_174_" class="st21" d="M13.8,57.9c0-1.1,0.9-2,2-2s2,0.9,2,2H13.8z"/>
					
						<rect x="11.3" y="65.4" transform="matrix(-1 -1.224647e-16 1.224647e-16 -1 31.6768 132.657)" class="st21" width="9.1" height="1.8"/>
					
						<rect x="9.5" y="74.3" transform="matrix(-1 -1.224647e-16 1.224647e-16 -1 31.5561 150.429)" class="st21" width="12.5" height="1.8"/>
					<polygon class="st19" points="7.9,78.1 20.4,78.1 22,76.1 9.5,76.1 					"/>
					<polygon id="XMLID_173_" class="st18" points="12.4,72.1 19.3,72.1 18.5,74.3 13.2,74.3 					"/>
					<circle id="XMLID_172_" class="st22" cx="18.6" cy="72.2" r="1.1"/>
					<circle id="XMLID_171_" class="st22" cx="17.7" cy="71.2" r="0.9"/>
					<circle id="XMLID_170_" class="st22" cx="16.8" cy="72.2" r="0.9"/>
					<circle id="XMLID_169_" class="st22" cx="16.7" cy="70.6" r="0.8"/>
					<circle id="XMLID_168_" class="st22" cx="15.2" cy="72.1" r="0.8"/>
					<circle id="XMLID_167_" class="st22" cx="14.3" cy="71.4" r="0.5"/>
					<circle id="XMLID_166_" class="st22" cx="13.9" cy="72.1" r="0.6"/>
					<circle id="XMLID_165_" class="st22" cx="13" cy="71.5" r="1"/>
					<circle id="XMLID_164_" class="st22" cx="14.9" cy="71.1" r="1.1"/>
					<ellipse id="XMLID_163_" class="st22" cx="16.6" cy="71.5" rx="1" ry="0.9"/>
				</g>
				<g id="XMLID_144_">
					<path class="st16" d="M28.3,107.7h6.9c0.6,0,1.1-0.5,1.1-1.1V91.3c0-0.6-0.5-1.1-1.1-1.1h-6.9c-0.6,0-1.1,0.5-1.1,1.1v15.3
						C27.2,107.2,27.7,107.7,28.3,107.7z"/>
					
						<rect x="27.2" y="90" transform="matrix(-1 -1.224647e-16 1.224647e-16 -1 63.4268 185.6141)" class="st6" width="9.1" height="5.6"/>
					<path id="XMLID_161_" class="st19" d="M28,90.2h7.3c0.3,0,0.5,0.1,0.7,0.3h-6c-0.5,0-0.9,0.4-0.9,0.9v15.8
						c0,0.2,0.1,0.4,0.2,0.5H28c-0.5,0-0.9-0.4-0.9-0.9V91C27.2,90.6,27.6,90.2,28,90.2z"/>
					<path class="st20" d="M27.2,107.7h9.1V91.3c0-0.6-0.5-1.1-1.1-1.1h-6.9c-0.6,0-1.1,0.5-1.1,1.1V107.7z"/>
					<path id="XMLID_156_" class="st21" d="M29.7,89.9c0-1.1,0.9-2,2-2s2,0.9,2,2H29.7z"/>
					
						<rect x="27.2" y="97.5" transform="matrix(-1 -1.224647e-16 1.224647e-16 -1 63.4234 196.7421)" class="st21" width="9.1" height="1.8"/>
					
						<rect x="25.4" y="106.4" transform="matrix(-1 -1.224647e-16 1.224647e-16 -1 63.3027 214.5141)" class="st21" width="12.5" height="1.8"/>
					<polygon class="st19" points="23.8,110.2 36.3,110.2 37.9,108.2 25.4,108.2 					"/>
					<polygon id="XMLID_155_" class="st18" points="28.3,104.2 35.2,104.2 34.4,106.4 29.1,106.4 					"/>
					<circle id="XMLID_154_" class="st22" cx="34.5" cy="104.2" r="1.1"/>
					<circle id="XMLID_153_" class="st22" cx="33.6" cy="103.3" r="0.9"/>
					<circle id="XMLID_152_" class="st22" cx="32.7" cy="104.2" r="0.9"/>
					<circle id="XMLID_151_" class="st22" cx="32.5" cy="102.6" r="0.8"/>
					<circle id="XMLID_150_" class="st22" cx="31" cy="104.1" r="0.8"/>
					<circle id="XMLID_149_" class="st22" cx="30.2" cy="103.4" r="0.5"/>
					<circle id="XMLID_148_" class="st22" cx="29.7" cy="104.2" r="0.6"/>
					<circle id="XMLID_147_" class="st22" cx="28.8" cy="103.5" r="1"/>
					<circle id="XMLID_146_" class="st22" cx="30.8" cy="103.1" r="1.1"/>
					<ellipse id="XMLID_145_" class="st22" cx="32.4" cy="103.5" rx="1" ry="0.9"/>
				</g>
				<g id="XMLID_126_">
					<path class="st16" d="M12.4,107.6h6.9c0.6,0,1.1-0.5,1.1-1.1V91.1c0-0.6-0.5-1.1-1.1-1.1h-6.9c-0.6,0-1.1,0.5-1.1,1.1v15.3
						C11.3,107.1,11.8,107.6,12.4,107.6z"/>
					
						<rect x="11.3" y="89.9" transform="matrix(-1 -1.224647e-16 1.224647e-16 -1 31.6802 190.232)" class="st6" width="9.1" height="10.4"/>
					<path id="XMLID_143_" class="st19" d="M12.2,90h7.3c0.3,0,0.5,0.1,0.7,0.3h-6c-0.5,0-0.9,0.4-0.9,0.9V107
						c0,0.2,0.1,0.4,0.2,0.5h-1.3c-0.5,0-0.9-0.4-0.9-0.9V90.9C11.3,90.4,11.7,90,12.2,90z"/>
					<path class="st20" d="M11.3,107.6h9.1V91.1c0-0.6-0.5-1.1-1.1-1.1h-6.9c-0.6,0-1.1,0.5-1.1,1.1V107.6z"/>
					<path id="XMLID_138_" class="st21" d="M13.8,89.8c0-1.1,0.9-2,2-2s2,0.9,2,2H13.8z"/>
					
						<rect x="11.3" y="97.3" transform="matrix(-1 -1.224647e-16 1.224647e-16 -1 31.6768 196.4878)" class="st21" width="9.1" height="1.8"/>
					
						<rect x="9.5" y="106.2" transform="matrix(-1 -1.224647e-16 1.224647e-16 -1 31.5561 214.2598)" class="st21" width="12.5" height="1.8"/>
					<polygon class="st19" points="7.9,110 20.4,110 22,108 9.5,108 					"/>
					<polygon id="XMLID_137_" class="st18" points="12.4,104 19.3,104 18.5,106.2 13.2,106.2 					"/>
					<circle id="XMLID_136_" class="st22" cx="18.6" cy="104.1" r="1.1"/>
					<circle id="XMLID_135_" class="st22" cx="17.7" cy="103.2" r="0.9"/>
					<circle id="XMLID_134_" class="st22" cx="16.8" cy="104.1" r="0.9"/>
					<circle id="XMLID_133_" class="st22" cx="16.7" cy="102.5" r="0.8"/>
					<circle id="XMLID_132_" class="st22" cx="15.2" cy="104" r="0.8"/>
					<circle id="XMLID_131_" class="st22" cx="14.3" cy="103.3" r="0.5"/>
					<circle id="XMLID_130_" class="st22" cx="13.9" cy="104" r="0.6"/>
					<circle id="XMLID_129_" class="st22" cx="13" cy="103.4" r="1"/>
					<circle id="XMLID_128_" class="st22" cx="14.9" cy="103" r="1.1"/>
					<ellipse id="XMLID_127_" class="st22" cx="16.6" cy="103.4" rx="1" ry="0.9"/>
				</g>
				<g id="XMLID_108_">
					<path class="st16" d="M28.2,133.9h6.9c0.6,0,1.1-0.5,1.1-1.1v-15.3c0-0.6-0.5-1.1-1.1-1.1h-6.9c-0.6,0-1.1,0.5-1.1,1.1v15.3
						C27.1,133.5,27.6,133.9,28.2,133.9z"/>
					<path id="XMLID_125_" class="st19" d="M28,116.4h7.3c0.3,0,0.5,0.1,0.7,0.3h-6c-0.5,0-0.9,0.4-0.9,0.9v15.8
						c0,0.2,0.1,0.4,0.2,0.5H28c-0.5,0-0.9-0.4-0.9-0.9v-15.8C27.1,116.8,27.5,116.4,28,116.4z"/>
					<path class="st20" d="M27.1,133.9h9.1v-16.4c0-0.6-0.5-1.1-1.1-1.1h-6.9c-0.6,0-1.1,0.5-1.1,1.1V133.9z"/>
					<path id="XMLID_120_" class="st21" d="M29.7,116.2c0-1.1,0.9-2,2-2s2,0.9,2,2H29.7z"/>
					
						<rect x="27.1" y="123.7" transform="matrix(-1 -1.224647e-16 1.224647e-16 -1 63.3745 249.2514)" class="st21" width="9.1" height="1.8"/>
					
						<rect x="25.4" y="132.6" transform="matrix(-1 -1.224647e-16 1.224647e-16 -1 63.2537 267.0233)" class="st21" width="12.5" height="1.8"/>
					<polygon class="st19" points="23.8,136.4 36.3,136.4 37.9,134.4 25.4,134.4 					"/>
					<polygon id="XMLID_119_" class="st18" points="28.2,130.4 35.2,130.4 34.4,132.6 29,132.6 					"/>
					<circle id="XMLID_118_" class="st22" cx="34.5" cy="130.5" r="1.1"/>
					<circle id="XMLID_117_" class="st22" cx="33.5" cy="129.5" r="0.9"/>
					<circle id="XMLID_116_" class="st22" cx="32.6" cy="130.4" r="0.9"/>
					<circle id="XMLID_115_" class="st22" cx="32.5" cy="128.9" r="0.8"/>
					<circle id="XMLID_114_" class="st22" cx="31" cy="130.4" r="0.8"/>
					<circle id="XMLID_113_" class="st22" cx="30.2" cy="129.7" r="0.5"/>
					<circle id="XMLID_112_" class="st22" cx="29.7" cy="130.4" r="0.6"/>
					<circle id="XMLID_111_" class="st22" cx="28.8" cy="129.8" r="1"/>
					<circle id="XMLID_110_" class="st22" cx="30.8" cy="129.4" r="1.1"/>
					<ellipse id="XMLID_109_" class="st22" cx="32.4" cy="129.8" rx="1" ry="0.9"/>
				</g>
				<g id="XMLID_90_">
					<path class="st16" d="M12.4,133.8h6.9c0.6,0,1.1-0.5,1.1-1.1v-15.3c0-0.6-0.5-1.1-1.1-1.1h-6.9c-0.6,0-1.1,0.5-1.1,1.1v15.3
						C11.3,133.3,11.8,133.8,12.4,133.8z"/>
					<path id="XMLID_107_" class="st19" d="M12.1,116.3h7.3c0.3,0,0.5,0.1,0.7,0.3h-6c-0.5,0-0.9,0.4-0.9,0.9v15.8
						c0,0.2,0.1,0.4,0.2,0.5h-1.3c-0.5,0-0.9-0.4-0.9-0.9v-15.8C11.3,116.7,11.7,116.3,12.1,116.3z"/>
					<path class="st20" d="M11.3,133.8h9.1v-16.4c0-0.6-0.5-1.1-1.1-1.1h-6.9c-0.6,0-1.1,0.5-1.1,1.1V133.8z"/>
					<path id="XMLID_102_" class="st21" d="M13.8,116c0-1.1,0.9-2,2-2c1.1,0,2,0.9,2,2H13.8z"/>
					
						<rect x="11.3" y="123.6" transform="matrix(-1 -1.224647e-16 1.224647e-16 -1 31.6279 248.9971)" class="st21" width="9.1" height="1.8"/>
					
						<rect x="9.5" y="132.5" transform="matrix(-1 -1.224647e-16 1.224647e-16 -1 31.5071 266.7691)" class="st21" width="12.5" height="1.8"/>
					<polygon class="st19" points="7.9,136.3 20.4,136.3 22,134.3 9.5,134.3 					"/>
					<polygon id="XMLID_101_" class="st18" points="12.4,130.3 19.3,130.3 18.5,132.5 13.2,132.5 					"/>
					<circle id="XMLID_100_" class="st22" cx="18.6" cy="130.3" r="1.1"/>
					<circle id="XMLID_99_" class="st22" cx="17.7" cy="129.4" r="0.9"/>
					<circle id="XMLID_98_" class="st22" cx="16.8" cy="130.3" r="0.9"/>
					<circle id="XMLID_97_" class="st22" cx="16.6" cy="128.7" r="0.8"/>
					<circle id="XMLID_96_" class="st22" cx="15.1" cy="130.2" r="0.8"/>
					<circle id="XMLID_95_" class="st22" cx="14.3" cy="129.5" r="0.5"/>
					<circle id="XMLID_94_" class="st22" cx="13.9" cy="130.3" r="0.6"/>
					<circle id="XMLID_93_" class="st22" cx="12.9" cy="129.7" r="1"/>
					<circle id="XMLID_92_" class="st22" cx="14.9" cy="129.3" r="1.1"/>
					<ellipse id="XMLID_91_" class="st22" cx="16.5" cy="129.7" rx="1" ry="0.9"/>
				</g>
				
					<rect x="2.1" y="78.6" transform="matrix(-1 -1.224647e-16 1.224647e-16 -1 48.0325 160.5767)" class="st17" width="43.9" height="3.4"/>
				<g id="XMLID_72_">
					<path class="st16" d="M28,44.2h6.9c0.6,0,1.1-0.5,1.1-1.1V27.8c0-0.6-0.5-1.1-1.1-1.1H28c-0.6,0-1.1,0.5-1.1,1.1v15.3
						C26.9,43.7,27.4,44.2,28,44.2z"/>
					
						<rect x="26.9" y="26.6" transform="matrix(-1 -1.224647e-16 1.224647e-16 -1 62.9005 63.5236)" class="st6" width="9.1" height="10.4"/>
					<path id="XMLID_89_" class="st19" d="M27.8,26.7h7.3c0.3,0,0.5,0.1,0.7,0.3h-6c-0.5,0-0.9,0.4-0.9,0.9v15.8
						c0,0.2,0.1,0.4,0.2,0.5h-1.3c-0.5,0-0.9-0.4-0.9-0.9V27.6C26.9,27.1,27.3,26.7,27.8,26.7z"/>
					<path class="st20" d="M26.9,44.2H36V27.8c0-0.6-0.5-1.1-1.1-1.1H28c-0.6,0-1.1,0.5-1.1,1.1V44.2z"/>
					<path id="XMLID_84_" class="st21" d="M29.4,26.4c0-1.1,0.9-2,2-2s2,0.9,2,2H29.4z"/>
					
						<rect x="26.9" y="34" transform="matrix(-1 -1.224647e-16 1.224647e-16 -1 62.8972 69.7793)" class="st21" width="9.1" height="1.8"/>
					
						<rect x="25.1" y="42.9" transform="matrix(-1 -1.224647e-16 1.224647e-16 -1 62.7763 87.5513)" class="st21" width="12.5" height="1.8"/>
					<polygon class="st19" points="23.5,46.7 36,46.7 37.6,44.7 25.1,44.7 					"/>
					<polygon id="XMLID_83_" class="st18" points="28,40.7 35,40.7 34.2,42.9 28.8,42.9 					"/>
					<circle id="XMLID_82_" class="st22" cx="34.2" cy="40.7" r="1.1"/>
					<circle id="XMLID_81_" class="st22" cx="33.3" cy="39.8" r="0.9"/>
					<circle id="XMLID_80_" class="st22" cx="32.4" cy="40.7" r="0.9"/>
					<circle id="XMLID_79_" class="st22" cx="32.3" cy="39.1" r="0.8"/>
					<circle id="XMLID_78_" class="st22" cx="30.8" cy="40.6" r="0.8"/>
					<circle id="XMLID_77_" class="st22" cx="29.9" cy="39.9" r="0.5"/>
					<circle id="XMLID_76_" class="st22" cx="29.5" cy="40.7" r="0.6"/>
					<circle id="XMLID_75_" class="st22" cx="28.6" cy="40.1" r="1"/>
					<circle id="XMLID_74_" class="st22" cx="30.5" cy="39.7" r="1.1"/>
					<ellipse id="XMLID_73_" class="st22" cx="32.2" cy="40" rx="1" ry="0.9"/>
				</g>
				<g id="XMLID_54_">
					<path class="st16" d="M12.1,44.1H19c0.6,0,1.1-0.5,1.1-1.1V27.7c0-0.6-0.5-1.1-1.1-1.1h-6.9c-0.6,0-1.1,0.5-1.1,1.1V43
						C11,43.6,11.5,44.1,12.1,44.1z"/>
					
						<rect x="11" y="26.4" transform="matrix(-1 -1.224647e-16 1.224647e-16 -1 31.1539 69.1031)" class="st6" width="9.1" height="16.3"/>
					<path id="XMLID_71_" class="st19" d="M11.9,26.6h7.3c0.3,0,0.5,0.1,0.7,0.3h-6c-0.5,0-0.9,0.4-0.9,0.9v15.8
						c0,0.2,0.1,0.4,0.2,0.5h-1.3c-0.5,0-0.9-0.4-0.9-0.9V27.4C11,26.9,11.4,26.6,11.9,26.6z"/>
					<path class="st20" d="M11,44.1h9.1V27.7c0-0.6-0.5-1.1-1.1-1.1h-6.9c-0.6,0-1.1,0.5-1.1,1.1V44.1z"/>
					<path id="XMLID_66_" class="st21" d="M13.5,26.3c0-1.1,0.9-2,2-2s2,0.9,2,2H13.5z"/>
					
						<rect x="11" y="33.9" transform="matrix(-1 -1.224647e-16 1.224647e-16 -1 31.1506 69.525)" class="st21" width="9.1" height="1.8"/>
					
						<rect x="9.3" y="42.7" transform="matrix(-1 -1.224647e-16 1.224647e-16 -1 31.0297 87.297)" class="st21" width="12.5" height="1.8"/>
					<polygon class="st19" points="7.7,46.6 20.2,46.6 21.8,44.6 9.3,44.6 					"/>
					<polygon id="XMLID_65_" class="st18" points="12.1,40.5 19.1,40.5 18.3,42.7 12.9,42.7 					"/>
					<circle id="XMLID_64_" class="st22" cx="18.4" cy="40.6" r="1.1"/>
					<circle id="XMLID_63_" class="st22" cx="17.4" cy="39.7" r="0.9"/>
					<circle id="XMLID_62_" class="st22" cx="16.5" cy="40.6" r="0.9"/>
					<circle id="XMLID_61_" class="st22" cx="16.4" cy="39" r="0.8"/>
					<circle id="XMLID_60_" class="st22" cx="14.9" cy="40.5" r="0.8"/>
					<circle id="XMLID_59_" class="st22" cx="14.1" cy="39.8" r="0.5"/>
					<circle id="XMLID_58_" class="st22" cx="13.6" cy="40.5" r="0.6"/>
					<circle id="XMLID_57_" class="st22" cx="12.7" cy="39.9" r="1"/>
					<circle id="XMLID_56_" class="st22" cx="14.7" cy="39.5" r="1.1"/>
					<ellipse id="XMLID_55_" class="st22" cx="16.3" cy="39.9" rx="1" ry="0.9"/>
				</g>
				
					<rect x="1.9" y="46.9" transform="matrix(-1 -1.224647e-16 1.224647e-16 -1 47.7173 97.1761)" class="st17" width="43.9" height="3.4"/>
				
					<rect x="1.9" y="110.1" transform="matrix(-1 -1.224647e-16 1.224647e-16 -1 47.7173 223.6461)" class="st17" width="43.9" height="3.4"/>
				
					<rect x="4.7" y="147.9" transform="matrix(-1 -1.224647e-16 1.224647e-16 -1 48.1138 307.2684)" class="st6" width="38.7" height="11.6"/>
			</g>
			<polygon id="XMLID_52_" class="st6" points="2.2,47.7 -32.7,47.7 -35.3,65 4.8,65 			"/>
			<polygon id="XMLID_51_" class="st19" points="2.9,52.3 2.2,47.7 -32.7,47.7 -33.4,52.3 			"/>
			<rect x="-37.4" y="65" class="st21" width="44" height="3.5"/>
			<rect x="-32.7" y="45.3" class="st21" width="34.6" height="2.5"/>
			<rect x="-35.3" y="68.5" class="st19" width="40" height="7.9"/>
		</g>
	</g>
</g>
<circle class="st38" cx="58.5" cy="189.1" r="5.6"/>
<path class="st1" d="M91.9,30.8H57.6c-1,0-1.8-0.8-1.8-1.8v0c0-1,0.8-1.8,1.8-1.8h34.3c1,0,1.8,0.8,1.8,1.8v0
	C93.7,30,92.9,30.8,91.9,30.8z"/>
<path class="st1" d="M91.9,37.9H57.6c-1,0-1.8-0.8-1.8-1.8v0c0-1,0.8-1.8,1.8-1.8h34.3c1,0,1.8,0.8,1.8,1.8v0
	C93.7,37,92.9,37.9,91.9,37.9z"/>
<path class="st1" d="M91.9,44.9H57.6c-1,0-1.8-0.8-1.8-1.8v0c0-1,0.8-1.8,1.8-1.8h34.3c1,0,1.8,0.8,1.8,1.8v0
	C93.7,44.1,92.9,44.9,91.9,44.9z"/>
<path class="st1" d="M91.9,52H57.6c-1,0-1.8-0.8-1.8-1.8v0c0-1,0.8-1.8,1.8-1.8h34.3c1,0,1.8,0.8,1.8,1.8v0
	C93.7,51.1,92.9,52,91.9,52z"/>
</svg>
