<?xml version="1.0" encoding="utf-8"?>
<!-- Generator: Adobe Illustrator 20.1.0, SVG Export Plug-In . SVG Version: 6.00 Build 0)  -->
<svg version="1.1" id="Objects" xmlns="http://www.w3.org/2000/svg" xmlns:xlink="http://www.w3.org/1999/xlink" x="0px" y="0px"
	 viewBox="0 0 76.4 112" style="enable-background:new 0 0 76.4 112;" xml:space="preserve">
<style type="text/css">
	.st0{fill:#FFA440;}
	.st1{fill:#FFFFFF;}
	.st2{fill:#EA0632;}
</style>
<path class="st0" d="M69.7,0H34c-3.7,0-6.7,3-6.7,6.7v31.7l-4.2,4.7l-7,10.3l21.8-7.3h31.8c3.7,0,6.7-3,6.7-6.7V6.7
	C76.4,3,73.4,0,69.7,0z"/>
<path class="st1" d="M68.9,11.8H34.6c-1,0-1.8-0.8-1.8-1.8v0c0-1,0.8-1.8,1.8-1.8h34.3c1,0,1.8,0.8,1.8,1.8v0
	C70.7,11,69.9,11.8,68.9,11.8z"/>
<path class="st1" d="M68.9,18.9H34.6c-1,0-1.8-0.8-1.8-1.8v0c0-1,0.8-1.8,1.8-1.8h34.3c1,0,1.8,0.8,1.8,1.8v0
	C70.7,18.1,69.9,18.9,68.9,18.9z"/>
<path class="st1" d="M68.9,25.9H34.6c-1,0-1.8-0.8-1.8-1.8v0c0-1,0.8-1.8,1.8-1.8h34.3c1,0,1.8,0.8,1.8,1.8v0
	C70.7,25.1,69.9,25.9,68.9,25.9z"/>
<path class="st1" d="M68.9,33H34.6c-1,0-1.8-0.8-1.8-1.8v0c0-1,0.8-1.8,1.8-1.8h34.3c1,0,1.8,0.8,1.8,1.8v0
	C70.7,32.1,69.9,33,68.9,33z"/>
<g>
	<path class="st2" d="M31.7,80c0-8.6-7-15.6-15.6-15.6c-8.6,0-15.6,7-15.6,15.6c0,4.5,1.9,8.6,5,11.4l11.1,20.9l9.8-20.7
		C29.7,88.8,31.7,84.6,31.7,80z"/>
	<circle class="st1" cx="16.1" cy="80.5" r="10.3"/>
</g>
</svg>
