<?xml version="1.0" encoding="utf-8"?>
<!-- Generator: Adobe Illustrator 20.1.0, SVG Export Plug-In . SVG Version: 6.00 Build 0)  -->
<svg version="1.1" id="Слой_1" xmlns="http://www.w3.org/2000/svg" xmlns:xlink="http://www.w3.org/1999/xlink" x="0px" y="0px"
	 viewBox="0 0 132.8 110.8" style="enable-background:new 0 0 132.8 110.8;" xml:space="preserve">
<style type="text/css">
	.st0{fill:#FF7C24;}
	.st1{fill:#3FB23F;}
	.st2{fill:#69D2E7;}
	.st3{fill:#A7DBD8;}
	.st4{fill:#C1C1C1;}
	.st5{fill:#0D7DD1;}
	.st6{fill:#06B6ED;}
	.st7{fill:#FF2727;}
	.st8{fill:#FFFFFF;}
	.st9{fill:#EA5706;}
</style>
<g>
	<rect x="0.2" y="20" class="st0" width="9.1" height="6.9"/>
	<rect x="22.2" y="20" class="st0" width="6.9" height="6.9"/>
	<rect x="22.2" y="0.2" class="st0" width="6.9" height="6.9"/>
	<rect x="79.5" y="0.2" class="st0" width="13.5" height="6.9"/>
	<rect x="108.1" y="0.2" class="st0" width="15.7" height="6.9"/>
	<rect x="108.1" y="22.2" class="st0" width="24.5" height="4.7"/>
	<rect x="116.9" y="57.5" class="st0" width="15.7" height="4.7"/>
	<path class="st1" d="M132.6,66.3v37.6c0,3.7-3,6.7-6.7,6.7h-0.8l-22.7-61.9h30.2v4.7h-17.7c-1.1,0-2.1,0.9-2.1,2.1v8.8
		c0,1.1,0.9,2.1,2.1,2.1H132.6z"/>
	<rect x="81.7" y="83.9" class="st0" width="9.1" height="17.9"/>
	<rect x="59.7" y="88.3" class="st0" width="4.7" height="13.5"/>
	<path class="st0" d="M84.2,57.5v4.7H66.4c-1.1,0-2.1,0.9-2.1,2.1v11.1h-4.7V62c0-2.5,2-4.5,4.5-4.5H84.2z"/>
	<path class="st1" d="M89.2,48.7l22.7,61.9h-61V48.7H89.2z M94.9,103.8V82.4c0-1.4-1.2-2.6-2.6-2.6H79.6c-1.1,0-2.1,0.9-2.1,2.1
		v21.5c0,1.4,1.2,2.6,2.6,2.6h12.7C94,105.9,94.9,105,94.9,103.8z M88.3,64.2v-8.8c0-1.1-0.9-2.1-2.1-2.1h-22
		c-4.8,0-8.7,3.9-8.7,8.7v15.4c0,1.1,0.9,2.1,2.1,2.1h8.8c1.1,0,2.1-0.9,2.1-2.1V66.3h17.7C87.4,66.3,88.3,65.3,88.3,64.2z
		 M68.5,103.8V86.2c0-1.1-0.9-2.1-2.1-2.1h-8.8c-1.1,0-2.1,0.9-2.1,2.1v17.6c0,1.1,0.9,2.1,2.1,2.1h8.8
		C67.5,105.9,68.5,105,68.5,103.8z"/>
	<rect x="0.2" y="79.5" class="st0" width="6.9" height="15.7"/>
	<path class="st0" d="M29.1,69.5v25.7h-4.7V73c0-0.1,0-0.1,0-0.2c0,0,0-0.1,0-0.1c0,0,0-0.1,0-0.1c0,0,0-0.1,0-0.1c0,0,0-0.1,0-0.1
		c0,0,0-0.1,0-0.1c0,0,0-0.1,0-0.1c0,0,0-0.1,0-0.1c0,0,0-0.1,0-0.1c0,0,0-0.1,0-0.1c0,0,0-0.1-0.1-0.1c0,0,0-0.1-0.1-0.1
		c0,0,0-0.1-0.1-0.1c0-0.1-0.1-0.1-0.1-0.1L15,62.7c0,0-0.1-0.1-0.2-0.1c0,0,0,0-0.1-0.1c0,0-0.1,0-0.1-0.1c0,0-0.1,0-0.1-0.1
		c0,0-0.1,0-0.1-0.1c0,0-0.1,0-0.1,0s-0.1,0-0.1,0c0,0-0.1,0-0.1,0c0,0-0.1,0-0.1,0c0,0-0.1,0-0.1,0c0,0-0.1,0-0.1,0
		c0,0-0.1,0-0.1,0c0,0-0.1,0-0.1,0c-0.1,0-0.1,0-0.2,0c0,0,0,0,0,0H0.2v-4.7h16.9L29.1,69.5z"/>
	<path class="st1" d="M37.9,48.7v61.9H7c-3.7,0-6.7-3-6.7-6.7v-4.5h8.9c1.1,0,2.1-0.9,2.1-2.1V77.4c0-1.1-0.9-2.1-2.1-2.1H0.2v-9.1
		h12.5l7.6,7.6v23.4c0,1.1,0.9,2.1,2.1,2.1h8.8c1.1,0,2.1-0.9,2.1-2.1V68.6c0-0.1,0-0.1,0-0.2c0,0,0-0.1,0-0.1c0,0,0-0.1,0-0.1
		c0,0,0-0.1,0-0.1c0,0,0-0.1,0-0.1c0,0,0-0.1,0-0.1c0,0,0-0.1,0-0.1c0,0,0-0.1,0-0.1c0,0,0-0.1,0-0.1c0,0,0-0.1,0-0.1
		c0,0,0-0.1-0.1-0.1c0,0,0-0.1-0.1-0.1c0,0,0-0.1-0.1-0.1c0-0.1-0.1-0.1-0.1-0.2L19.4,53.9c0,0-0.1-0.1-0.2-0.1c0,0,0,0-0.1-0.1
		c0,0-0.1,0-0.1-0.1c0,0-0.1,0-0.1-0.1c0,0-0.1,0-0.1-0.1c0,0-0.1,0-0.1,0c0,0-0.1,0-0.1,0c0,0-0.1,0-0.1,0c0,0-0.1,0-0.1,0
		c0,0-0.1,0-0.1,0c0,0-0.1,0-0.1,0c0,0-0.1,0-0.1,0c0,0-0.1,0-0.1,0c-0.1,0-0.1,0-0.2,0c0,0,0,0,0,0H0.2v-4.7H37.9z"/>
	<path class="st0" d="M93,22.2v4.7H64.2c-2.5,0-4.5-2-4.5-4.5v-8.9h4.7v6.7c0,1.1,0.9,2.1,2.1,2.1H93z"/>
	<path class="st1" d="M132.6,31v4.7H50.9V0.2h24.5v8.9c0,1.1,0.9,2.1,2.1,2.1H95c1.1,0,2.1-0.9,2.1-2.1V0.2h6.9v8.9
		c0,1.1,0.9,2.1,2.1,2.1h19.8c1.1,0,2.1-0.9,2.1-2.1V0.5c2.7,0.9,4.7,3.4,4.7,6.4v11.1H106c-1.1,0-2.1,0.9-2.1,2.1V29
		c0,1.1,0.9,2.1,2.1,2.1H132.6z M97.1,29v-8.8c0-1.1-0.9-2.1-2.1-2.1H68.5v-6.7c0-1.1-0.9-2.1-2.1-2.1h-8.8c-1.1,0-2.1,0.9-2.1,2.1
		v11c0,4.8,3.9,8.7,8.7,8.7H95C96.2,31,97.1,30.1,97.1,29z"/>
	<path class="st2" d="M132.6,39.9v4.7H99.4c-0.7,0-1.3,0.3-1.7,0.9c-0.4,0.6-0.5,1.3-0.2,1.9l23.2,63.3h-4.4L92.6,45.9
		c-0.3-0.8-1.1-1.4-1.9-1.4H48.8c-1.1,0-2.1,0.9-2.1,2.1v64h-4.7v-64c0-0.6-0.2-1.1-0.6-1.5c-0.4-0.4-0.9-0.6-1.5-0.6H0.2v-4.7H40
		c1.1,0,2.1-0.9,2.1-2.1V0.2h4.7v37.6c0,0.5,0.2,1.1,0.6,1.5c0.4,0.4,0.9,0.6,1.5,0.6H132.6z"/>
	<path class="st1" d="M37.9,0.2v35.5H0.2V31h11.1c1.1,0,2.1-0.9,2.1-2.1V18c0-1.1-0.9-2.1-2.1-2.1H0.2V7c0-3.7,3-6.7,6.7-6.7h11.1
		v8.9c0,1.1,0.9,2.1,2.1,2.1h11c1.1,0,2.1-0.9,2.1-2.1V0.2H37.9z M33.2,29V18c0-1.1-0.9-2.1-2.1-2.1h-11c-1.1,0-2.1,0.9-2.1,2.1v11
		c0,1.1,0.9,2.1,2.1,2.1h11C32.3,31,33.2,30.1,33.2,29z"/>
</g>
<path class="st7" d="M33.2,26.5c0-5.3,6.4-9.6,11.7-9.6c5.3,0,11.7,4.3,11.7,9.6c0,5.3-6.4,21.1-11.7,21.1
	C39.7,47.6,33.2,31.8,33.2,26.5L33.2,26.5z M33.2,26.5"/>
<path class="st8" d="M39,27.1c0-3.3,2.7-6,6-6c3.3,0,6,2.7,6,6c0,3.3-2.7,6-6,6C41.7,33.1,39,30.4,39,27.1L39,27.1z M39,27.1"/>
<path class="st9" d="M43.2,52.7c0-1,0.8-1.8,1.8-1.8c1,0,1.8,0.8,1.8,1.8c0,1-0.8,1.8-1.8,1.8C44,54.5,43.2,53.7,43.2,52.7
	L43.2,52.7z M43.2,52.7"/>
</svg>
