<?xml version="1.0" encoding="utf-8"?>
<!-- Generator: Adobe Illustrator 20.1.0, SVG Export Plug-In . SVG Version: 6.00 Build 0)  -->
<svg version="1.1" id="Слой_1" xmlns="http://www.w3.org/2000/svg" xmlns:xlink="http://www.w3.org/1999/xlink" x="0px" y="0px"
	 viewBox="0 0 140.7 140.3" style="enable-background:new 0 0 140.7 140.3;" xml:space="preserve">
<style type="text/css">
	.st0{fill:#FF7C24;}
	.st1{fill:#3FB23F;}
	.st2{fill:#69D2E7;}
	.st3{fill:#A7DBD8;}
	.st4{fill:#C1C1C1;}
	.st5{fill:#0D7DD1;}
	.st6{fill:#06B6ED;}
	.st7{fill:#FF2727;}
	.st8{fill:#FFFFFF;}
	.st9{fill:#EA5706;}
	.st10{fill:#E1DEEE;}
	.st11{fill:#E5E5E4;}
	.st12{fill:#B3B3B4;}
	.st13{fill:#DEDBDC;}
	.st14{fill:#9B9597;}
	.st15{fill:#22212C;}
	.st16{fill:#514B4D;}
	.st17{fill:#CBC9D5;}
	.st18{fill:#352623;}
	.st19{fill:#B9B7C4;}
	.st20{fill:#252527;}
	.st21{fill:#313133;}
	.st22{fill:#58575D;}
</style>
<g>
	<path class="st3" d="M80.8,135.3c0,2.4-2,4.4-4.4,4.4h-68c-2.4,0-4.4-2-4.4-4.4V4.4C4,2,6,0,8.4,0h68c2.4,0,4.4,2,4.4,4.4V135.3z
		 M80.8,135.3"/>
	<rect x="4" y="14.6" class="st1" width="76.8" height="110.6"/>
	<path class="st4" d="M137.4,108h-6.2V66.9h-16v20h-3.6V76.7h-9.8v-6.5L85.3,53.1V41.5H53v43.6h-7.3v-8.4H39L27.5,98.2h-3.3v-5.5
		h-16V108H2.8c-1.4,0-2.5,1.1-2.5,2.5c0,1.4,1.1,2.5,2.5,2.5h134.6c1.4,0,2.5-1.1,2.5-2.5C139.9,109.2,138.8,108,137.4,108
		L137.4,108z M75.2,48.2h4.4v4.4h-4.4V48.2z M75.2,55h4.4v4.4h-4.4V55z M75.2,61.8h4.4v4.4h-4.4V61.8z M75.2,68.7h4.4V73h-4.4V68.7z
		 M75.2,75.5h4.4v4.4h-4.4V75.5z M75.2,82.3h4.4v4.4h-4.4V82.3z M75.2,89.1h4.4v4.4h-4.4V89.1z M75.2,95.9h4.4v4.4h-4.4V95.9z
		 M67,48.2h4.4v4.4H67V48.2z M67,55h4.4v4.4H67V55z M67,61.8h4.4v4.4H67V61.8z M67,68.7h4.4V73H67V68.7z M67,75.5h4.4v4.4H67V75.5z
		 M67,82.3h4.4v4.4H67V82.3z M67,89.1h4.4v4.4H67V89.1z M67,95.9h4.4v4.4H67V95.9z M58.8,48.2h4.4v4.4h-4.4V48.2z M58.8,55h4.4v4.4
		h-4.4V55z M58.8,61.8h4.4v4.4h-4.4V61.8z M58.8,68.7h4.4V73h-4.4V68.7z M58.8,75.5h4.4v4.4h-4.4V75.5z M58.8,82.3h4.4v4.4h-4.4
		V82.3z M58.8,89.1h4.4v4.4h-4.4V89.1z M58.8,95.9h4.4v4.4h-4.4V95.9z M58.8,95.9"/>
	<path class="st4" d="M31.7,113.1h76.8V76.7h-6.8v-6.5L85.3,53.1V41.5H53v43.6h-7.3v-8.4H39l-7.3,13.6V113.1L31.7,113.1z M75.2,48.2
		h4.4v4.4h-4.4V48.2z M75.2,55h4.4v4.4h-4.4V55z M75.2,61.8h4.4v4.4h-4.4V61.8z M75.2,68.7h4.4V73h-4.4V68.7z M75.2,75.5h4.4v4.4
		h-4.4V75.5z M75.2,82.3h4.4v4.4h-4.4V82.3z M75.2,89.1h4.4v4.4h-4.4V89.1z M75.2,95.9h4.4v4.4h-4.4V95.9z M67,48.2h4.4v4.4H67V48.2
		z M67,55h4.4v4.4H67V55z M67,61.8h4.4v4.4H67V61.8z M67,68.7h4.4V73H67V68.7z M67,75.5h4.4v4.4H67V75.5z M67,82.3h4.4v4.4H67V82.3z
		 M67,89.1h4.4v4.4H67V89.1z M67,95.9h4.4v4.4H67V95.9z M58.8,48.2h4.4v4.4h-4.4V48.2z M58.8,55h4.4v4.4h-4.4V55z M58.8,61.8h4.4
		v4.4h-4.4V61.8z M58.8,68.7h4.4V73h-4.4V68.7z M58.8,75.5h4.4v4.4h-4.4V75.5z M58.8,82.3h4.4v4.4h-4.4V82.3z M58.8,89.1h4.4v4.4
		h-4.4V89.1z M58.8,95.9h4.4v4.4h-4.4V95.9z M58.8,95.9"/>
	<rect x="17" y="116.7" class="st5" width="4.9" height="4.9"/>
	<rect x="65.3" y="116.7" class="st5" width="4.9" height="4.9"/>
	<path class="st5" d="M46.3,119.1c0,1.5-1.2,2.7-2.7,2.7c-1.5,0-2.7-1.2-2.7-2.7c0-1.5,1.2-2.7,2.7-2.7
		C45.1,116.4,46.3,117.6,46.3,119.1L46.3,119.1z M46.3,119.1"/>
	<path class="st5" d="M75.7,20.5C75.7,20.5,75.7,20.5,75.7,20.5L75.6,20c0-0.3-0.2-0.5-0.5-0.5h-9.5c-0.3,0-0.5,0.2-0.5,0.5v3.4
		c0,0.3,0.2,0.5,0.5,0.5h9.5c0.3,0,0.5-0.2,0.5-0.5v-0.5c0,0,0,0,0.1,0c0.3,0,0.5-0.2,0.5-0.5V21C76.2,20.7,76,20.5,75.7,20.5
		L75.7,20.5z M75.7,20.5"/>
	<path class="st5" d="M50.3,23.1c0,0.3-0.3,0.6-0.6,0.6c-0.3,0-0.6-0.3-0.6-0.6v-2.9c0-0.3,0.3-0.6,0.6-0.6c0.3,0,0.6,0.3,0.6,0.6
		V23.1z M50.3,23.1"/>
	<path class="st5" d="M52.7,23.1c0,0.3-0.3,0.6-0.6,0.6c-0.3,0-0.6-0.3-0.6-0.6v-2.9c0-0.3,0.3-0.6,0.6-0.6c0.3,0,0.6,0.3,0.6,0.6
		V23.1z M52.7,23.1"/>
	<path class="st5" d="M55.1,23.1c0,0.3-0.3,0.6-0.6,0.6c-0.3,0-0.6-0.3-0.6-0.6v-2.9c0-0.3,0.3-0.6,0.6-0.6c0.3,0,0.6,0.3,0.6,0.6
		V23.1z M55.1,23.1"/>
	<path class="st5" d="M57.5,23.1c0,0.3-0.3,0.6-0.6,0.6c-0.3,0-0.6-0.3-0.6-0.6v-2.9c0-0.3,0.3-0.6,0.6-0.6c0.3,0,0.6,0.3,0.6,0.6
		V23.1z M57.5,23.1"/>
	<path class="st5" d="M59.9,23.1c0,0.3-0.3,0.6-0.6,0.6c-0.3,0-0.6-0.3-0.6-0.6v-2.9c0-0.3,0.3-0.6,0.6-0.6c0.3,0,0.6,0.3,0.6,0.6
		V23.1z M59.9,23.1"/>
	<path class="st6" d="M53.1,7.8c0,0.5-0.4,0.9-0.9,0.9H32.6c-0.5,0-0.9-0.4-0.9-0.9c0-0.5,0.4-0.9,0.9-0.9h19.6
		C52.7,6.9,53.1,7.3,53.1,7.8L53.1,7.8z M53.1,7.8"/>
	<path class="st6" d="M53.1,131.8c0,0.5-0.4,0.9-0.9,0.9H32.6c-0.5,0-0.9-0.4-0.9-0.9c0-0.5,0.4-0.9,0.9-0.9h19.6
		C52.7,130.9,53.1,131.3,53.1,131.8L53.1,131.8z M53.1,131.8"/>
	<path class="st6" d="M69.6,7.4c0,1.3-1,2.3-2.3,2.3S65,8.7,65,7.4c0-1.3,1-2.3,2.3-2.3S69.6,6.1,69.6,7.4L69.6,7.4z M69.6,7.4"/>
</g>
</svg>
