<?xml version="1.0" encoding="utf-8"?>
<!-- Generator: Adobe Illustrator 20.1.0, SVG Export Plug-In . SVG Version: 6.00 Build 0)  -->
<svg version="1.1" id="Слой_1" xmlns="http://www.w3.org/2000/svg" xmlns:xlink="http://www.w3.org/1999/xlink" x="0px" y="0px"
	 viewBox="0 0 250.3 94.9" style="enable-background:new 0 0 250.3 94.9;" xml:space="preserve">
<style type="text/css">
	.st0{fill:#FF7C24;}
	.st1{fill:#3FB23F;}
	.st2{fill:#69D2E7;}
	.st3{fill:#A7DBD8;}
	.st4{fill:#C1C1C1;}
	.st5{fill:#0D7DD1;}
	.st6{fill:#06B6ED;}
	.st7{fill:#FF2727;}
	.st8{fill:#FFFFFF;}
	.st9{fill:#EA5706;}
	.st10{fill:#E1DEEE;}
	.st11{fill:#E5E5E4;}
	.st12{fill:#B3B3B4;}
	.st13{fill:#DEDBDC;}
	.st14{fill:#9B9597;}
	.st15{fill:#22212C;}
	.st16{fill:#514B4D;}
	.st17{fill:#CBC9D5;}
	.st18{fill:#352623;}
	.st19{fill:#B9B7C4;}
	.st20{fill:#252527;}
	.st21{fill:#313133;}
	.st22{fill:#58575D;}
</style>
<g>
	<path class="st10" d="M67.6,89.5c-1.2,0-2.1-0.9-2.1-2.1c0-10.2,1.9-19.3,5.7-27.2c3-6.3,7.2-11.8,12.5-16.3
		c4.7-4,9.4-6.5,12.5-7.8c3.4-1.5,5.7-2,5.8-2.1c1.1-0.3,2.3,0.4,2.5,1.6c0.3,1.1-0.4,2.2-1.6,2.5l0,0c0,0-2.1,0.5-5.3,1.9
		c-2.9,1.3-7.2,3.5-11.5,7.2c-11,9.4-16.6,22.9-16.6,40.2C69.7,88.6,68.8,89.5,67.6,89.5z"/>
	<path class="st10" d="M178.6,89.5c1.2,0,2.1-0.9,2.1-2.1c0-10.2-1.9-19.3-5.7-27.2c-3-6.3-7.2-11.8-12.5-16.3
		c-4.7-4-9.4-6.5-12.5-7.8c-3.4-1.5-5.7-2-5.8-2.1c-1.1-0.3-2.3,0.4-2.5,1.6c-0.3,1.1,0.4,2.2,1.6,2.5l0,0c0,0,2.1,0.5,5.3,1.9
		c2.9,1.3,7.2,3.5,11.5,7.2c11,9.4,16.6,22.9,16.6,40.2C176.5,88.6,177.5,89.5,178.6,89.5z"/>
	<g>
		<path class="st4" d="M124.2,0.2c-17.4,0-31.5,9.3-32.1,20.9h64.2C155.7,9.5,141.6,0.2,124.2,0.2z"/>
	</g>
	<path class="st11" d="M77,28.4c3.9-0.8,34.2-2.3,34.2-2.3c0.7-0.2,24.3,0.3,25.6,0.2c1.3-0.2,24.6,0.8,24.6,0.8s9.8,1,11.2,1.1
		c1.5,0.2,31.7,3.7,35.8,3.9c2.5,0.1,6.3-0.5,8.9-1c0,3.4-4.1,4-5.6,4.1c-1.7,0.1-9,0.4-12.1-0.5c-1.5-0.4-21.3-1.9-22.9-1.5
		c-3.9-0.6-11.1-1.6-14.6-0.8c-4.3,1-5.3,1.3-4.7,2.7c-1.7,0.4-7.4,1.6-8.3,1.8c-1.1,0.2-2.9,0.9-3.1,0.9s-6.4,0-6.4,0
		s-1.2,1.8-1.5,2.7c-0.3,0.8-0.7,2-2.3,2.9V45l-0.1,0v-2.8h-21.3v1.2c-1.6-0.9-2.1-2-2.3-2.8c-0.3-0.8-1.5-2.7-1.5-2.7s-6.1,0-6.4,0
		c-0.3,0-2-0.7-3.1-0.9c-1.1-0.2-8.7-1.9-8.7-1.9S80.4,34.4,78,34.2c-2.4-0.3-6.1-2-9.2-1.1c-3.2,0.9-10.5,0.6-12.1,0.5
		c-1.6-0.1-5.9-0.7-5.6-4.4C54.8,31.4,73.5,29.2,77,28.4z"/>
	<path class="st4" d="M54.8,25.1c0,0,12.6-1.1,13.9-1.2c1.3-0.1,7.8-0.6,7.8-0.6c1.3-0.5,24.6-3.1,24.6-3.1c2.3-3.3,9-5.3,9-5.3
		c3.3-6.3,5.6-6.7,5.6-6.7c-1.2,0.9-3,3.8-3.1,5.1c-0.2,1.3,0,1.7,3.3,2.4c3.3,0.8,5.8,5.4,5.8,5.4s0.9,2.2,3.5,2.4
		c2.6-0.2,3.5-2.4,3.5-2.4s2.4-4.6,5.8-5.4c3.3-0.8,3.4-1.2,3.3-2.4c-0.2-1.3-1.9-4.2-3.1-5.1c0,0,2.3,0.5,5.6,6.7c0,0,6.7,2,9,5.3
		c0,0,23.3,2.6,24.6,3.1c0,0,24.5,2.1,25.8,2.2c1.3,0.1,13.9,1.2,13.9,1.2s3.3-0.2,3.8,3.8c0,0.2,0,0.4,0,0.6
		c-2.6,0.5-6.4,1.1-8.9,1c-4.1-0.2-34.4-3.7-35.9-3.8c-1.5-0.2-11.3-0.9-11.3-0.9s-23.2-1.3-24.5-1.1c-1.3,0.2-24.9-0.3-25.6-0.2
		c0,0-30.4,1.6-34.2,2.3c-3.5,0.7-22.3,2.9-26,0.7c0-0.1,0-0.2,0-0.3C51.5,24.9,54.8,25.1,54.8,25.1z"/>
	<ellipse class="st12" cx="178.7" cy="89.4" rx="5.7" ry="5.5"/>
	<ellipse class="st12" cx="68.3" cy="88.5" rx="5.7" ry="5.5"/>
	<path class="st11" d="M172.7,28.4c-3.9-0.8-34.2-2.3-34.2-2.3c-0.7-0.2-24.3,0.3-25.6,0.2c-1.3-0.2-24.6,0.8-24.6,0.8
		s-9.8,1-11.2,1.1c-1.5,0.2-31.7,3.7-35.8,3.9c-2.5,0.1-6.3-0.5-8.9-1c0,3.4,4.1,4,5.6,4.1c1.7,0.1,9,0.4,12.1-0.5
		c1.5-0.4,21.3-1.9,22.9-1.5c3.9-0.6,11.1-1.6,14.6-0.8c4.3,1,5.3,1.3,4.7,2.7c1.7,0.4,7.4,1.6,8.3,1.8c1.1,0.2,2.9,0.9,3.1,0.9
		c0.3,0,6.4,0,6.4,0s1.2,1.8,1.5,2.7c0.3,0.8,0.7,2,2.3,2.9V45l0.1,0v-2.8h21.3v1.2c1.6-0.9,2.1-2,2.3-2.8c0.3-0.8,1.5-2.7,1.5-2.7
		s6.1,0,6.4,0c0.3,0,2-0.7,3.1-0.9c1.1-0.2,8.7-1.9,8.7-1.9s12.1-0.6,14.5-0.8c2.4-0.3,6.1-2,9.2-1.1c3.2,0.9,10.5,0.6,12.1,0.5
		c1.6-0.1,8,2,7.7-1.8C197,34.1,176.2,29.2,172.7,28.4z"/>
	<path class="st4" d="M194.9,25.1c0,0-12.6-1.1-13.9-1.2c-1.3-0.1-7.8-0.6-7.8-0.6c-1.3-0.5-24.6-3.1-24.6-3.1c-2.3-3.3-9-5.3-9-5.3
		c-3.3-6.3-5.6-6.7-5.6-6.7c1.2,0.9,3,3.8,3.1,5.1c0.2,1.3,0,1.7-3.3,2.4c-3.3,0.8-5.8,5.4-5.8,5.4s-0.9-3.4-3.5-3.2
		c-2.6-0.2-3.5,3.2-3.5,3.2s-2.4-4.6-5.8-5.4c-3.3-0.8-3.4-1.2-3.3-2.4c0.2-1.3,1.9-4.2,3.1-5.1c0,0-2.3,0.5-5.6,6.7
		c0,0-6.7,2-9,5.3c0,0-23.3,2.6-24.6,3.1c0,0-24.5,2.1-25.8,2.2c-1.3,0.1-13.9,1.2-13.9,1.2s-3.3-0.2-3.8,3.8c0,0.2,0,0.4,0,0.6
		c2.6,0.5,6.4,1.1,8.9,1c4.1-0.2,34.4-3.7,35.9-3.8c1.5-0.2,11.3-0.9,11.3-0.9s23.2-1.3,24.5-1.1c1.3,0.2,24.9-0.3,25.6-0.2
		c0,0,30.4,1.6,34.2,2.3c3.5,0.7,22.3,2.9,26,0.7c0-0.1,0-0.2,0-0.3C198.1,24.9,194.9,25.1,194.9,25.1z"/>
	<path class="st13" d="M113.9,42.2V45l-0.1,0v8.3c0,0,0.7,1,1.5,1.4c0,0-0.1,2.7,0.9,2.7v3.3c0,0,0.1,0.8,1.8,1c0,0,1.4,0.8,2.6,1v0
		h0.2h7.1h0.2v0c1.2-0.2,2.6-1,2.6-1c1.8-0.2,1.8-1,1.8-1v-3.3c0.9,0,0.9-2.7,0.9-2.7c0.8-0.5,1.5-1.4,1.5-1.4v-9.9c0,0,0,0,0,0
		v-1.2H113.9z"/>
	<path class="st14" d="M87.6,32.4c-3.6-0.8-10.8,0.1-14.6,0.8c1.7,0.4,3.2,0.9,4.4,1c2.4,0.3,14.5,0.8,14.5,0.8s0.2,0,0.5,0.1
		C92.9,33.7,91.8,33.3,87.6,32.4z"/>
	<path class="st15" d="M37.7,14c0,0-0.5-0.2-0.5-0.6c0-0.4,1.1-6.4,3.9-6.4c2.8,0,3.9,6.4,3.9,6.4s0,0.7-0.5,0.7S37.7,14,37.7,14z"
		/>
	<path class="st15" d="M211.9,15.2c0,0,0.5-0.2,0.5-0.6c0-0.4-1.1-6.4-3.9-6.4c-2.8,0-3.9,6.4-3.9,6.4s0,0.7,0.5,0.7
		C205.6,15.2,211.9,15.2,211.9,15.2z"/>
	<path class="st16" d="M215.8,29.4v-5.1L201,24.2v5.2c0,0,0.1,0.8,7.2,0.8C215.2,30.1,215.8,29.4,215.8,29.4z"/>
	<path class="st15" d="M212,19.3l0.4,0.1l3.4,2.2v2.8c0,0,0.2,0.5-7.3,0.5c-7.5,0-7.5-0.6-7.5-0.6v-2.9l3.9-2.1H212z"/>
	<path class="st17" d="M165.9,16.7c1.2,0.1,13.9-0.8,15.8-0.9c2-0.1,11.6-1.1,12.6-1.1c1,0,7.3,0.5,7.9,0.6c0.4,0.1,1.5,0.2,2.1,0.3
		c0.1-0.3,0.2-0.4,0.7-0.4h7.3c0.2,0,0.3,0.2,0.4,0.4c0.6-0.1,1.6-0.2,2.4-0.4c1.3-0.3,5.4-1.2,8.4-1.2c3,0,9.5-0.1,11.3-0.2
		c1.8-0.2,15.7-1.4,15.6-1.1c-0.1,0.3-1.4,0.6-6.1,1.5c-4.7,0.9-20.6,3.6-23.4,3.7c-2.3,0.1-6.8,0.4-8.1,0.5
		c-0.1,0.7-0.4,1.3-1.1,1.3h-6c-0.4,0-0.7-0.2-0.9-0.5c-4-0.1-12.8,0.8-16.6,1c-4,0.2-12.2-0.4-14.5-0.6c-2.3-0.2-7.6-0.8-8.8-1.5
		C163.4,17.4,164.6,16.6,165.9,16.7z"/>
	<path class="st16" d="M33.9,28.3v-5.1L48.7,23v5.2c0,0-0.1,0.8-7.2,0.8S33.9,28.3,33.9,28.3z"/>
	<path class="st15" d="M37.6,18.2l-0.4,0.1l-3.4,2.2v2.8c0,0-0.2,0.5,7.3,0.5c7.5,0,7.5-0.6,7.5-0.6v-2.9l-3.9-2.1H37.6z"/>
	<path class="st14" d="M161.3,32.4c3.6-0.8,10.8,0.1,14.6,0.8c-1.7,0.4-3.2,0.9-4.4,1C169.1,34.4,157,35,157,35s-0.2,0-0.5,0.1
		C156,33.7,157,33.3,161.3,32.4z"/>
	<ellipse transform="matrix(0.3134 -0.9496 0.9496 0.3134 10.3057 69.1062)" class="st18" cx="52.9" cy="27.4" rx="0.9" ry="0.4"/>
	<ellipse transform="matrix(0.3133 -0.9496 0.9496 0.3133 11.5838 70.6368)" class="st18" cx="54.6" cy="27.3" rx="0.9" ry="0.4"/>
	<ellipse transform="matrix(0.3135 -0.9496 0.9496 0.3135 12.6262 71.9528)" class="st18" cx="56.1" cy="27.2" rx="0.9" ry="0.4"/>
	<ellipse transform="matrix(0.3135 -0.9496 0.9496 0.3135 13.8972 73.4764)" class="st18" cx="57.8" cy="27.1" rx="0.9" ry="0.4"/>
	<ellipse transform="matrix(0.3133 -0.9496 0.9496 0.3133 14.9517 74.8986)" class="st18" cx="59.3" cy="27.1" rx="0.9" ry="0.4"/>
	<ellipse transform="matrix(0.9496 -0.3134 0.3134 0.9496 1.1168 61.3669)" class="st18" cx="191.4" cy="27.2" rx="0.4" ry="0.9"/>
	<ellipse transform="matrix(0.9496 -0.3134 0.3134 0.9496 1.067 60.8226)" class="st18" cx="189.7" cy="27.1" rx="0.4" ry="0.9"/>
	<ellipse transform="matrix(0.9496 -0.3134 0.3134 0.9496 1.0153 60.3723)" class="st18" cx="188.3" cy="27" rx="0.4" ry="0.9"/>
	<ellipse transform="matrix(0.9496 -0.3135 0.3135 0.9496 0.9695 59.851)" class="st18" cx="186.6" cy="26.9" rx="0.4" ry="0.9"/>
	<ellipse transform="matrix(0.9496 -0.3134 0.3134 0.9496 0.897 59.3686)" class="st18" cx="185.1" cy="26.9" rx="0.4" ry="0.9"/>
	<g>
		<path class="st19" d="M27.8,13.6c-1.1-0.2-6.2,0.4-19.1-0.4C6,13,4,12.8,2.4,12.5c0.8,0.2,1.8,0.3,3,0.6
			c4.7,0.9,20.6,3.6,23.4,3.7c2.3,0.1,6.6,0.4,8,0.5C36.4,15.8,28.8,13.7,27.8,13.6z"/>
		<path class="st17" d="M83.8,15.6c-1.2,0.1-13.9-0.8-15.8-0.9c-2-0.1-11.6-1.1-12.6-1.1c-1,0-7.3,0.5-7.9,0.6
			c-0.4,0.1-1.5,0.2-2.1,0.3c-0.1-0.3-0.2-0.4-0.7-0.4h-7.3c-0.2,0-0.3,0.2-0.4,0.4c-0.6-0.1-1.6-0.2-2.4-0.4
			c-1.3-0.3-5.4-1.2-8.4-1.2s-9.5-0.1-11.3-0.2c-1.8-0.2-15.7-1.4-15.6-1.1c0.1,0.3,0.8,0.5,3.1,0.9C4,12.8,6,13,8.7,13.2
			c12.8,0.8,18,0.3,19.1,0.4c1,0.1,8.6,2.2,9.1,3.8c0,0,0.1,0,0.1,0c0.1,0.7,0.4,1.3,1.1,1.3h6c0.4,0,0.7-0.2,0.9-0.5
			c4-0.1,12.8,0.8,16.6,1c4,0.2,12.2-0.4,14.5-0.6c2.3-0.2,7.6-0.8,8.8-1.5C86.2,16.3,85,15.5,83.8,15.6z"/>
	</g>
	<path class="st20" d="M114.7,47.1v6.2c0,0-0.7,1.3,9.9,1.3c10.6,0,9.6-0.8,9.6-0.8v-6.6c0,0-6.2,0.3-8.7,0.3
		C122.9,47.5,114.7,47.1,114.7,47.1z"/>
	<circle cx="124.4" cy="51" r="2.7"/>
	<circle class="st21" cx="124.4" cy="51" r="2.1"/>
	<path class="st22" d="M95,32c0,0-0.1,0-0.1-0.1c-0.1-0.1,0-0.2,0-0.2l1.7-1.2c0.1-0.1,0.2,0,0.2,0c0.1,0.1,0,0.2,0,0.2L95,32
		C95.1,32,95.1,32,95,32z"/>
	<path class="st22" d="M96.5,32.5c0,0-0.1,0-0.1-0.1c-0.1-0.1,0-0.2,0-0.2l2.5-1.9c0.1-0.1,0.2,0,0.2,0c0.1,0.1,0,0.2,0,0.2
		L96.5,32.5C96.6,32.5,96.5,32.5,96.5,32.5z"/>
	<path class="st22" d="M98,33C98,33,97.9,32.9,98,33c-0.2-0.1-0.2-0.2-0.1-0.3c0.1-0.1,1.4-1.8,2.9-2.5c0.1,0,0.2,0,0.2,0.1
		c0,0.1,0,0.2-0.1,0.2c-1.4,0.7-2.8,2.4-2.8,2.5C98.1,32.9,98,33,98,33z"/>
	<path class="st22" d="M99.4,33.7C99.4,33.7,99.4,33.7,99.4,33.7c-0.1,0-0.2-0.1-0.1-0.2c0.3-1,3.4-3.2,3.8-3.5c0.1,0,0.2,0,0.2,0
		c0,0.1,0,0.2,0,0.2c-0.9,0.7-3.4,2.5-3.7,3.3C99.5,33.7,99.5,33.7,99.4,33.7z"/>
	<path class="st22" d="M100.8,34.5C100.7,34.5,100.7,34.5,100.8,34.5c-0.2-0.1-0.2-0.2-0.1-0.2c0.1-0.1,2-3,3.7-3.6
		c0.1,0,0.2,0,0.2,0.1c0,0.1,0,0.2-0.1,0.2c-1.6,0.7-3.6,3.5-3.6,3.5C100.9,34.4,100.8,34.5,100.8,34.5z"/>
	<path class="st22" d="M153.8,32c0,0,0.1,0,0.1-0.1c0.1-0.1,0-0.2,0-0.2l-1.7-1.2c-0.1-0.1-0.2,0-0.2,0c-0.1,0.1,0,0.2,0,0.2
		L153.8,32C153.7,32,153.7,32,153.8,32z"/>
	<path class="st22" d="M152.3,32.5c0,0,0.1,0,0.1-0.1c0.1-0.1,0-0.2,0-0.2l-2.5-1.9c-0.1-0.1-0.2,0-0.2,0c-0.1,0.1,0,0.2,0,0.2
		L152.3,32.5C152.2,32.5,152.3,32.5,152.3,32.5z"/>
	<path class="st22" d="M150.8,33C150.8,33,150.9,32.9,150.8,33c0.2-0.1,0.2-0.2,0.1-0.3c-0.1-0.1-1.4-1.8-2.9-2.5
		c-0.1,0-0.2,0-0.2,0.1c0,0.1,0,0.2,0.1,0.2c1.4,0.7,2.8,2.4,2.8,2.5C150.7,32.9,150.8,33,150.8,33z"/>
	<path class="st22" d="M149.4,33.7C149.4,33.7,149.4,33.7,149.4,33.7c0.1,0,0.2-0.1,0.1-0.2c-0.3-1-3.4-3.2-3.8-3.5
		c-0.1,0-0.2,0-0.2,0c0,0.1,0,0.2,0,0.2c0.9,0.7,3.4,2.5,3.7,3.3C149.3,33.7,149.3,33.7,149.4,33.7z"/>
	<path class="st22" d="M148,34.5C148.1,34.5,148.1,34.5,148,34.5c0.2-0.1,0.2-0.2,0.1-0.2c-0.1-0.1-2-3-3.7-3.6
		c-0.1,0-0.2,0-0.2,0.1c0,0.1,0,0.2,0.1,0.2c1.6,0.7,3.6,3.5,3.6,3.5C147.9,34.4,148,34.5,148,34.5z"/>
</g>
</svg>
