<?xml version="1.0" encoding="utf-8"?>
<!-- Generator: Adobe Illustrator 20.1.0, SVG Export Plug-In . SVG Version: 6.00 Build 0)  -->
<svg version="1.1" id="Layer_1" xmlns="http://www.w3.org/2000/svg" xmlns:xlink="http://www.w3.org/1999/xlink" x="0px" y="0px"
	 viewBox="113.6 349.8 86.4 49" style="enable-background:new 113.6 349.8 86.4 49;" xml:space="preserve">
<style type="text/css">
	.st0{fill:#C7CFE2;}
	.st1{fill:#FFFFFF;}
	.st2{fill:#FF5050;}
	.st3{fill:#EFF2FA;}
	.st4{fill:#8DC6FF;}
	.st5{fill:#D7DEED;}
	.st6{fill:#69CC69;}
	.st7{fill:#FDFFFD;}
	.st8{fill:#FFCE00;}
</style>
<g>
	<path class="st0" d="M196.9,349.9h-64.2c-1.6,0-2.9,1.3-2.9,2.9v43c0,1.6,1.3,2.9,2.9,2.9h64.2c1.6,0,2.9-1.3,2.9-2.9v-43
		C199.8,351.2,198.5,349.9,196.9,349.9z"/>
</g>
<g>
	<rect x="134.2" y="354.3" class="st1" width="61.3" height="35.9"/>
</g>
<g>
	<g>
		<path class="st2" d="M190,368.3l-0.5-1.2c-0.5-0.1-0.9-0.3-1.3-0.5l-1.2,0.5l-1.9-1.9l0.5-1.1c-0.3-0.4-0.4-0.8-0.5-1.3l-1.2-0.5
			v-2.7l1.2-0.5c0.1-0.5,0.3-0.9,0.5-1.3l-0.5-1.2l1.9-1.9l1.1,0.5c0.4-0.3,0.8-0.4,1.3-0.5l0.5-1.2h2.7l0.5,1.2
			c0.5,0.1,0.9,0.3,1.3,0.5l1.2-0.5l1.9,1.9l-0.5,1.1c0.3,0.4,0.4,0.8,0.5,1.3l1.2,0.5v2.7l-1.2,0.5c-0.1,0.5-0.3,0.9-0.5,1.3
			l0.5,1.2l-1.9,1.9l-1.1-0.5c-0.4,0.3-0.8,0.4-1.3,0.5l-0.5,1.2H190z M191.4,358.2c-1.5,0-2.7,1.2-2.7,2.7c0,1.5,1.2,2.7,2.7,2.7
			c1.5,0,2.7-1.2,2.7-2.7C194.1,359.4,192.9,358.2,191.4,358.2z"/>
	</g>
	<g>
		<path class="st1" d="M192.6,353.8l0.4,1.2c0.5,0.1,1,0.4,1.4,0.6l1.1-0.5l1.7,1.7l-0.5,1.1c0.3,0.4,0.4,0.9,0.6,1.4l1.2,0.4v2.4
			l-1.2,0.4c-0.1,0.5-0.4,1-0.6,1.4l0.5,1.1l-1.7,1.7l-1.1-0.5c-0.4,0.3-0.9,0.4-1.4,0.6l-0.4,1.2h-2.4l-0.4-1.2
			c-0.5-0.1-1-0.4-1.4-0.6l-1.1,0.5l-1.7-1.7l0.5-1.1c-0.3-0.4-0.4-0.9-0.6-1.4l-1.2-0.4v-2.4l1.2-0.4c0.1-0.5,0.4-1,0.6-1.4
			l-0.5-1.1l1.7-1.7l1.1,0.5c0.4-0.3,0.9-0.4,1.4-0.6l0.4-1.2H192.6 M191.4,363.8c1.6,0,2.9-1.3,2.9-2.9s-1.3-2.9-2.9-2.9
			c-1.6,0-2.9,1.3-2.9,2.9S189.7,363.8,191.4,363.8 M192.9,353.3h-0.3h-2.4h-0.3l-0.1,0.3l-0.4,1c-0.4,0.1-0.7,0.2-1.1,0.5l-0.9-0.4
			l-0.3-0.1l-0.2,0.2l-1.7,1.7l-0.2,0.2l0.1,0.3l0.4,0.9c-0.2,0.3-0.3,0.7-0.5,1.1l-1,0.4l-0.3,0.1v0.3v2.4v0.3l0.3,0.1l1,0.4
			c0.1,0.4,0.2,0.7,0.5,1.1l-0.4,0.9l-0.1,0.3l0.2,0.2l1.7,1.7l0.2,0.2l0.3-0.1l0.9-0.4c0.3,0.2,0.7,0.3,1.1,0.5l0.4,1l0.1,0.3h0.3
			h2.4h0.3l0.1-0.3l0.4-1c0.4-0.1,0.7-0.2,1.1-0.5l0.9,0.4l0.3,0.1l0.2-0.2l1.7-1.7l0.2-0.2l-0.1-0.3l-0.4-0.9
			c0.2-0.3,0.3-0.7,0.5-1.1l1-0.4l0.3-0.1v-0.3v-2.4v-0.3l-0.3-0.1l-1-0.4c-0.1-0.4-0.2-0.7-0.5-1.1l0.4-0.9l0.1-0.3l-0.2-0.2
			l-1.7-1.7l-0.2-0.2l-0.3,0.1l-0.9,0.4c-0.3-0.2-0.7-0.3-1.1-0.5l-0.4-1L192.9,353.3L192.9,353.3z M191.4,363.4
			c-1.4,0-2.5-1.1-2.5-2.5c0-1.4,1.1-2.5,2.5-2.5c1.4,0,2.5,1.1,2.5,2.5C193.9,362.3,192.7,363.4,191.4,363.4L191.4,363.4z"/>
	</g>
</g>
<g>
	<g>
		<g>
			<rect x="158" y="374" class="st3" width="1.2" height="13.7"/>
		</g>
		<g>
			<rect x="154.5" y="380.6" class="st3" width="1.2" height="7.1"/>
		</g>
		<g>
			<rect x="161.6" y="369.3" class="st3" width="1.2" height="18.4"/>
		</g>
		<g>
			<rect x="165.2" y="382.3" class="st3" width="1.2" height="5.4"/>
		</g>
		<g>
			<rect x="168.7" y="380" class="st3" width="1.2" height="7.7"/>
		</g>
		<g>
			<rect x="172.3" y="376.4" class="st3" width="1.2" height="11.3"/>
		</g>
		<g>
			<rect x="175.9" y="357.4" class="st3" width="1.2" height="30.3"/>
		</g>
		<g>
			<rect x="179.5" y="383.5" class="st3" width="1.2" height="4.2"/>
		</g>
	</g>
	<g>
		<path class="st4" d="M180.1,384.1c-0.1,0-0.1,0-0.2,0l-10.7-3.6c-0.1,0-0.2-0.1-0.3-0.2l-6.7-10l-3.1,4.1
			c-0.2,0.2-0.5,0.3-0.8,0.2l-7.1-4.2c-0.3-0.2-0.4-0.5-0.2-0.8c0.2-0.3,0.5-0.4,0.8-0.2l6.7,3.9l3.3-4.3c0.1-0.2,0.3-0.3,0.5-0.2
			c0.2,0,0.4,0.1,0.5,0.3l7,10.5l10.5,3.5c0.3,0.1,0.5,0.4,0.4,0.8C180.5,384,180.3,384.1,180.1,384.1z"/>
	</g>
	<g>
		<path class="st4" d="M151.5,388.3c-0.1,0-0.2,0-0.3-0.1c-0.3-0.1-0.4-0.5-0.3-0.8l3.6-7.1c0.1-0.2,0.4-0.4,0.6-0.3l10.5,1.7
			l6.8-5.1l3.5-19.4c0.1-0.3,0.4-0.5,0.7-0.5c0.3,0.1,0.5,0.4,0.5,0.7l-3.6,19.6c0,0.1-0.1,0.3-0.2,0.4l-7.1,5.4
			c-0.1,0.1-0.3,0.1-0.5,0.1l-10.3-1.7L152,388C151.9,388.2,151.7,388.3,151.5,388.3z"/>
	</g>
	<g>
		<g>
			<path class="st5" d="M151.5,384.7h-1.2c-0.3,0-0.6-0.3-0.6-0.6l0,0c0-0.3,0.3-0.6,0.6-0.6h1.2V384.7z"/>
		</g>
		<g>
			<path class="st5" d="M151.5,381.2h-1.2c-0.3,0-0.6-0.3-0.6-0.6l0,0c0-0.3,0.3-0.6,0.6-0.6h1.2V381.2z"/>
		</g>
		<g>
			<path class="st5" d="M151.5,377.6h-1.2c-0.3,0-0.6-0.3-0.6-0.6l0,0c0-0.3,0.3-0.6,0.6-0.6h1.2V377.6z"/>
		</g>
		<g>
			<path class="st5" d="M151.5,374h-1.2c-0.3,0-0.6-0.3-0.6-0.6l0,0c0-0.3,0.3-0.6,0.6-0.6h1.2V374z"/>
		</g>
		<g>
			<path class="st5" d="M151.5,370.4h-1.2c-0.3,0-0.6-0.3-0.6-0.6l0,0c0-0.3,0.3-0.6,0.6-0.6h1.2V370.4z"/>
		</g>
		<g>
			<path class="st5" d="M151.5,366.9h-1.2c-0.3,0-0.6-0.3-0.6-0.6l0,0c0-0.3,0.3-0.6,0.6-0.6h1.2V366.9z"/>
		</g>
		<g>
			<path class="st5" d="M151.5,363.3h-1.2c-0.3,0-0.6-0.3-0.6-0.6l0,0c0-0.3,0.3-0.6,0.6-0.6h1.2V363.3z"/>
		</g>
		<g>
			<path class="st5" d="M151.5,359.7h-1.2c-0.3,0-0.6-0.3-0.6-0.6l0,0c0-0.3,0.3-0.6,0.6-0.6h1.2V359.7z"/>
		</g>
		<g>
			<path class="st5" d="M180.6,387.7v1.2c0,0.3-0.3,0.6-0.6,0.6l0,0c-0.3,0-0.6-0.3-0.6-0.6v-1.2H180.6z"/>
		</g>
		<g>
			<path class="st5" d="M177.1,387.7v1.2c0,0.3-0.3,0.6-0.6,0.6l0,0c-0.3,0-0.6-0.3-0.6-0.6v-1.2H177.1z"/>
		</g>
		<g>
			<path class="st5" d="M173.5,387.7v1.2c0,0.3-0.3,0.6-0.6,0.6l0,0c-0.3,0-0.6-0.3-0.6-0.6v-1.2H173.5z"/>
		</g>
		<g>
			<path class="st5" d="M169.9,387.7v1.2c0,0.3-0.3,0.6-0.6,0.6l0,0c-0.3,0-0.6-0.3-0.6-0.6v-1.2H169.9z"/>
		</g>
		<g>
			<path class="st5" d="M166.4,387.7v1.2c0,0.3-0.3,0.6-0.6,0.6l0,0c-0.3,0-0.6-0.3-0.6-0.6v-1.2H166.4z"/>
		</g>
		<g>
			<path class="st5" d="M162.8,387.7v1.2c0,0.3-0.3,0.6-0.6,0.6l0,0c-0.3,0-0.6-0.3-0.6-0.6v-1.2H162.8z"/>
		</g>
		<g>
			<path class="st5" d="M159.2,387.7v1.2c0,0.3-0.3,0.6-0.6,0.6l0,0c-0.3,0-0.6-0.3-0.6-0.6v-1.2H159.2z"/>
		</g>
		<g>
			<path class="st5" d="M155.7,387.7v1.2c0,0.3-0.3,0.6-0.6,0.6l0,0c-0.3,0-0.6-0.3-0.6-0.6v-1.2H155.7z"/>
		</g>
	</g>
	<g>
		<g>
			<path class="st0" d="M151.5,389.5L151.5,389.5c-0.3,0-0.6-0.3-0.6-0.6v-33.3c0-0.3,0.3-0.6,0.6-0.6l0,0c0.3,0,0.6,0.3,0.6,0.6
				v33.3C152.1,389.2,151.8,389.5,151.5,389.5z"/>
		</g>
		<g>
			<path class="st0" d="M149.7,387.7L149.7,387.7c0-0.3,0.3-0.6,0.6-0.6h33.3c0.3,0,0.6,0.3,0.6,0.6l0,0c0,0.3-0.3,0.6-0.6,0.6
				h-33.3C150,388.3,149.7,388,149.7,387.7z"/>
		</g>
	</g>
	<g>
		<g>
			<circle class="st2" cx="155.1" cy="380.6" r="1.4"/>
		</g>
		<g>
			<path class="st1" d="M155.1,379.4c0.7,0,1.2,0.5,1.2,1.2c0,0.7-0.5,1.2-1.2,1.2s-1.2-0.5-1.2-1.2
				C153.9,379.9,154.4,379.4,155.1,379.4 M155.1,379c-0.9,0-1.6,0.7-1.6,1.6c0,0.9,0.7,1.6,1.6,1.6c0.9,0,1.6-0.7,1.6-1.6
				C156.7,379.7,155.9,379,155.1,379L155.1,379z"/>
		</g>
	</g>
	<g>
		<g>
			<circle class="st6" cx="158.6" cy="374" r="1.2"/>
			<path class="st7" d="M158.6,375.4c-0.8,0-1.4-0.6-1.4-1.4s0.6-1.4,1.4-1.4c0.8,0,1.4,0.6,1.4,1.4S159.4,375.4,158.6,375.4z
				 M158.6,373c-0.5,0-1,0.4-1,1s0.4,1,1,1c0.5,0,1-0.4,1-1S159.2,373,158.6,373z"/>
		</g>
		<g>
			<circle class="st6" cx="162.2" cy="369.3" r="1.2"/>
			<path class="st7" d="M162.2,370.7c-0.8,0-1.4-0.6-1.4-1.4c0-0.8,0.6-1.4,1.4-1.4c0.8,0,1.4,0.6,1.4,1.4
				C163.6,370,163,370.7,162.2,370.7z M162.2,368.3c-0.5,0-1,0.4-1,1c0,0.5,0.4,1,1,1c0.5,0,1-0.4,1-1
				C163.2,368.7,162.7,368.3,162.2,368.3z"/>
		</g>
		<g>
			<circle class="st6" cx="169.3" cy="380" r="1.2"/>
			<path class="st7" d="M169.3,381.4c-0.8,0-1.4-0.6-1.4-1.4c0-0.8,0.6-1.4,1.4-1.4c0.8,0,1.4,0.6,1.4,1.4
				C170.7,380.7,170.1,381.4,169.3,381.4z M169.3,379c-0.5,0-1,0.4-1,1c0,0.5,0.4,1,1,1c0.5,0,1-0.4,1-1
				C170.3,379.4,169.9,379,169.3,379z"/>
		</g>
		<g>
			<circle class="st6" cx="180.1" cy="383.5" r="1.2"/>
			<path class="st7" d="M180.1,384.9c-0.8,0-1.4-0.6-1.4-1.4c0-0.8,0.6-1.4,1.4-1.4c0.8,0,1.4,0.6,1.4,1.4
				C181.5,384.3,180.8,384.9,180.1,384.9z M180.1,382.6c-0.5,0-1,0.4-1,1c0,0.5,0.4,1,1,1s1-0.4,1-1
				C181,383,180.6,382.6,180.1,382.6z"/>
		</g>
	</g>
	<g>
		<g>
			<g>
				<circle class="st2" cx="165.8" cy="382.3" r="1.4"/>
			</g>
			<g>
				<path class="st1" d="M165.8,381.2c0.7,0,1.2,0.5,1.2,1.2s-0.5,1.2-1.2,1.2s-1.2-0.5-1.2-1.2S165.1,381.2,165.8,381.2
					 M165.8,380.7c-0.9,0-1.6,0.7-1.6,1.6s0.7,1.6,1.6,1.6c0.9,0,1.6-0.7,1.6-1.6S166.7,380.7,165.8,380.7L165.8,380.7z"/>
			</g>
		</g>
		<g>
			<g>
				<circle class="st2" cx="172.9" cy="377" r="1.4"/>
			</g>
			<g>
				<path class="st1" d="M172.9,375.8c0.7,0,1.2,0.5,1.2,1.2c0,0.7-0.5,1.2-1.2,1.2s-1.2-0.5-1.2-1.2
					C171.7,376.3,172.3,375.8,172.9,375.8 M172.9,375.4c-0.9,0-1.6,0.7-1.6,1.6c0,0.9,0.7,1.6,1.6,1.6s1.6-0.7,1.6-1.6
					C174.5,376.1,173.8,375.4,172.9,375.4L172.9,375.4z"/>
			</g>
		</g>
		<g>
			<g>
				<circle class="st2" cx="176.5" cy="357.4" r="1.4"/>
			</g>
			<g>
				<path class="st1" d="M176.5,356.2c0.7,0,1.2,0.5,1.2,1.2s-0.5,1.2-1.2,1.2s-1.2-0.5-1.2-1.2S175.8,356.2,176.5,356.2
					 M176.5,355.7c-0.9,0-1.6,0.7-1.6,1.6c0,0.9,0.7,1.6,1.6,1.6s1.6-0.7,1.6-1.6C178.1,356.5,177.4,355.7,176.5,355.7L176.5,355.7z
					"/>
			</g>
		</g>
	</g>
</g>
<g>
	<g>
		<path class="st8" d="M113.2,396.7L113.2,396.7c0-1.4,1.1-2.5,2.5-2.5h16.2c1.4,0,2.5,1.1,2.5,2.5v0c0,1.4-1.1,2.5-2.5,2.5h-16.2
			C114.4,399.2,113.2,398.1,113.2,396.7z"/>
	</g>
	<g>
		<path class="st7" d="M132.4,394.6c0.8,0,1.5,0.7,1.5,1.5v0.6c0,1.1-0.9,2.1-2.1,2.1h-16.2c-1.1,0-2.1-0.9-2.1-2.1l0,0
			c0-1.1,0.9-2.1,2.1-2.1H132.4 M132.4,393.8h-16.7c-1.6,0-2.9,1.3-2.9,2.9l0,0c0,1.6,1.3,2.9,2.9,2.9h16.2c1.6,0,2.9-1.3,2.9-2.9
			v-0.6C134.8,394.8,133.7,393.8,132.4,393.8L132.4,393.8z"/>
	</g>
</g>
<g>
	<g>
		<path class="st8" d="M113.2,390.7L113.2,390.7c0-1.4,1.1-2.5,2.5-2.5h16.2c1.4,0,2.5,1.1,2.5,2.5v0c0,1.4-1.1,2.5-2.5,2.5h-16.2
			C114.4,393.2,113.2,392.1,113.2,390.7z"/>
	</g>
	<g>
		<path class="st7" d="M132.4,388.6c0.8,0,1.5,0.7,1.5,1.5v0.6c0,1.1-0.9,2.1-2.1,2.1h-16.2c-1.1,0-2.1-0.9-2.1-2.1l0,0
			c0-1.1,0.9-2.1,2.1-2.1H132.4 M132.4,387.8h-16.7c-1.6,0-2.9,1.3-2.9,2.9l0,0c0,1.6,1.3,2.9,2.9,2.9h16.2c1.6,0,2.9-1.3,2.9-2.9
			v-0.6C134.8,388.8,133.7,387.8,132.4,387.8L132.4,387.8z"/>
	</g>
</g>
<g>
	<g>
		<path class="st8" d="M113.2,384.7L113.2,384.7c0-1.4,1.1-2.5,2.5-2.5h16.2c1.4,0,2.5,1.1,2.5,2.5v0c0,1.4-1.1,2.5-2.5,2.5h-16.2
			C114.4,387.2,113.2,386,113.2,384.7z"/>
	</g>
	<g>
		<path class="st7" d="M132.4,382.6c0.8,0,1.5,0.7,1.5,1.5v0.6c0,1.1-0.9,2.1-2.1,2.1h-16.2c-1.1,0-2.1-0.9-2.1-2.1l0,0
			c0-1.1,0.9-2.1,2.1-2.1H132.4 M132.4,381.7h-16.7c-1.6,0-2.9,1.3-2.9,2.9l0,0c0,1.6,1.3,2.9,2.9,2.9h16.2c1.6,0,2.9-1.3,2.9-2.9
			v-0.6C134.8,382.8,133.7,381.7,132.4,381.7L132.4,381.7z"/>
	</g>
</g>
<g>
	<g>
		<path class="st8" d="M113.2,378.6L113.2,378.6c0-1.4,1.1-2.5,2.5-2.5h16.2c1.4,0,2.5,1.1,2.5,2.5l0,0c0,1.4-1.1,2.5-2.5,2.5h-16.2
			C114.4,381.1,113.2,380,113.2,378.6z"/>
	</g>
	<g>
		<path class="st7" d="M132.4,376.5c0.8,0,1.5,0.7,1.5,1.5v0.6c0,1.1-0.9,2.1-2.1,2.1h-16.2c-1.1,0-2.1-0.9-2.1-2.1v0
			c0-1.1,0.9-2.1,2.1-2.1H132.4 M132.4,375.7h-16.7c-1.6,0-2.9,1.3-2.9,2.9l0,0c0,1.6,1.3,2.9,2.9,2.9h16.2c1.6,0,2.9-1.3,2.9-2.9
			v-0.6C134.8,376.8,133.7,375.7,132.4,375.7L132.4,375.7z"/>
	</g>
</g>
<g>
	<g>
		<path class="st8" d="M113.2,372.6L113.2,372.6c0-1.4,1.1-2.5,2.5-2.5h16.2c1.4,0,2.5,1.1,2.5,2.5v0c0,1.4-1.1,2.5-2.5,2.5h-16.2
			C114.4,375.1,113.2,374,113.2,372.6z"/>
	</g>
	<g>
		<path class="st7" d="M132.4,370.5c0.8,0,1.5,0.7,1.5,1.5v0.6c0,1.1-0.9,2.1-2.1,2.1h-16.2c-1.1,0-2.1-0.9-2.1-2.1l0,0
			c0-1.1,0.9-2.1,2.1-2.1H132.4 M132.4,369.7h-16.7c-1.6,0-2.9,1.3-2.9,2.9l0,0c0,1.6,1.3,2.9,2.9,2.9h16.2c1.6,0,2.9-1.3,2.9-2.9
			V372C134.8,370.7,133.7,369.7,132.4,369.7L132.4,369.7z"/>
	</g>
</g>
<g>
	<g>
		<path class="st8" d="M135.5,396.7L135.5,396.7c0-1.4,1.1-2.5,2.5-2.5h16.2c1.4,0,2.5,1.1,2.5,2.5v0c0,1.4-1.1,2.5-2.5,2.5H138
			C136.6,399.2,135.5,398.1,135.5,396.7z"/>
	</g>
	<g>
		<path class="st7" d="M154.7,394.6c0.8,0,1.5,0.7,1.5,1.5v0.6c0,1.1-0.9,2.1-2.1,2.1H138c-1.1,0-2.1-0.9-2.1-2.1l0,0
			c0-1.1,0.9-2.1,2.1-2.1H154.7 M154.7,393.8H138c-1.6,0-2.9,1.3-2.9,2.9l0,0c0,1.6,1.3,2.9,2.9,2.9h16.2c1.6,0,2.9-1.3,2.9-2.9
			v-0.6C157.1,394.8,156,393.8,154.7,393.8L154.7,393.8z"/>
	</g>
</g>
<g>
	<g>
		<path class="st8" d="M135.5,390.7L135.5,390.7c0-1.4,1.1-2.5,2.5-2.5h16.2c1.4,0,2.5,1.1,2.5,2.5v0c0,1.4-1.1,2.5-2.5,2.5H138
			C136.6,393.2,135.5,392.1,135.5,390.7z"/>
	</g>
	<g>
		<path class="st7" d="M154.7,388.6c0.8,0,1.5,0.7,1.5,1.5v0.6c0,1.1-0.9,2.1-2.1,2.1H138c-1.1,0-2.1-0.9-2.1-2.1l0,0
			c0-1.1,0.9-2.1,2.1-2.1H154.7 M154.7,387.8H138c-1.6,0-2.9,1.3-2.9,2.9l0,0c0,1.6,1.3,2.9,2.9,2.9h16.2c1.6,0,2.9-1.3,2.9-2.9
			v-0.6C157.1,388.8,156,387.8,154.7,387.8L154.7,387.8z"/>
	</g>
</g>
<g>
	<g>
		<path class="st8" d="M135.5,384.7L135.5,384.7c0-1.4,1.1-2.5,2.5-2.5h16.2c1.4,0,2.5,1.1,2.5,2.5v0c0,1.4-1.1,2.5-2.5,2.5H138
			C136.6,387.2,135.5,386,135.5,384.7z"/>
	</g>
	<g>
		<path class="st7" d="M154.7,382.6c0.8,0,1.5,0.7,1.5,1.5v0.6c0,1.1-0.9,2.1-2.1,2.1H138c-1.1,0-2.1-0.9-2.1-2.1l0,0
			c0-1.1,0.9-2.1,2.1-2.1H154.7 M154.7,381.7H138c-1.6,0-2.9,1.3-2.9,2.9l0,0c0,1.6,1.3,2.9,2.9,2.9h16.2c1.6,0,2.9-1.3,2.9-2.9
			v-0.6C157.1,382.8,156,381.7,154.7,381.7L154.7,381.7z"/>
	</g>
</g>
</svg>
