<?xml version="1.0" encoding="utf-8"?>
<!-- Generator: Adobe Illustrator 20.1.0, SVG Export Plug-In . SVG Version: 6.00 Build 0)  -->
<svg version="1.1" id="Layer_1" xmlns="http://www.w3.org/2000/svg" xmlns:xlink="http://www.w3.org/1999/xlink" x="0px" y="0px"
	 viewBox="148.9 346.6 84.3 51.6" style="enable-background:new 148.9 346.6 84.3 51.6;" xml:space="preserve">
<style type="text/css">
	.st0{fill:#AEADB3;}
	.st1{fill:#57555C;}
	.st2{fill:#FF7953;}
	.st3{fill:#2B292C;}
	.st4{fill:#C7CFE2;}
	.st5{fill:#FFFFFF;}
	.st6{fill:#F8FFF8;}
	.st7{fill:#80C588;}
</style>
<g>
	<path class="st0" d="M214.1,376.3v0.4h-34.2l4.6-11.9h15.3c0.8,0,1.6,0.1,2.4,0.2c2.7,0.6,5,2,6.6,4.2L214.1,376.3z"/>
	<path class="st1" d="M209.8,368.1c-1.8-2.5-4.6-4.2-7.6-4.9c-0.9-0.2-1.9-0.3-2.9-0.3h-19.4v3.8h1.3l-4.6,11.9h38.8v-2.9
		L209.8,368.1z M182.2,374.8l3.1-8.1h14c1,0,2,0.2,2.9,0.4c1.8,0.6,3.4,1.7,4.6,3.2l3.3,4.4H182.2z"/>
	<path class="st2" d="M233.2,383.9v8.3h-61.9v-6.7c0-5.9,4.8-10.7,10.7-10.7h32.9l13,2.4C231,377.9,233.2,380.7,233.2,383.9z"/>
	<path class="st0" d="M187.5,390.3c0,2-1.7,3.7-3.7,3.7c-2,0-3.7-1.7-3.7-3.7c0-2,1.7-3.7,3.7-3.7
		C185.8,386.6,187.5,388.3,187.5,390.3z"/>
	<path class="st3" d="M190.1,390.3c0-3.4-2.9-6.2-6.3-6.2c-3.5,0-6.3,2.8-6.3,6.3l0,0.1c0,3.5,2.8,6.3,6.3,6.3
		C187.3,396.6,190.1,393.8,190.1,390.3L190.1,390.3z M183.8,392.9c-1.4,0-2.5-1.1-2.5-2.5l0,0c0-1.4,1.1-2.5,2.5-2.5
		c1.4,0,2.5,1.1,2.5,2.5v0c0,0,0,0,0,0C186.3,391.7,185.2,392.9,183.8,392.9z"/>
	<path class="st0" d="M224.1,390.3c0,2-1.7,3.7-3.7,3.7c-2,0-3.7-1.7-3.7-3.7c0-2,1.7-3.7,3.7-3.7
		C222.4,386.6,224.1,388.3,224.1,390.3z"/>
	<path class="st3" d="M226.7,390.3c0-3.4-2.9-6.2-6.3-6.2c-3.5,0-6.3,2.8-6.3,6.3l0,0.1c0,3.5,2.8,6.3,6.3,6.3
		C223.9,396.6,226.7,393.8,226.7,390.3L226.7,390.3z M220.4,392.9c-1.4,0-2.5-1.1-2.5-2.5l0,0c0-1.4,1.1-2.5,2.5-2.5
		c1.4,0,2.5,1.1,2.5,2.5v0c0,0,0,0,0,0C222.9,391.7,221.8,392.9,220.4,392.9z"/>
</g>
<g>
	<g>
		<path class="st4" d="M151.6,398.4c-1.9,0-3.1-1.2-3.1-3.1v-46c0-1.9,1.2-3.1,3.1-3.1h28.7c1.9,0,3.1,1.6,3.1,3.1v46
			c0,1.9-1.2,3.1-3.1,3.1H151.6z"/>
		<path class="st5" d="M180.4,346.6c1.6,0,2.7,1.4,2.7,2.7v46c0,1.6-1.1,2.7-2.7,2.7h-28.7c-1.6,0-2.7-1.1-2.7-2.7v-46
			c0-1.6,1.1-2.7,2.7-2.7H180.4 M180.4,345.9h-28.7c-2,0-3.5,1.4-3.5,3.5v46c0,2,1.4,3.5,3.5,3.5h28.7c2,0,3.5-1.4,3.5-3.5v-46
			C183.8,347.7,182.5,345.9,180.4,345.9L180.4,345.9z"/>
	</g>
	<rect x="151.1" y="351.3" class="st5" width="29.9" height="38.6"/>
	<g>
		<path class="st6" d="M170.2,349.1h-8.5c-0.3,0-0.5,0.3-0.5,0.5s0.3,0.5,0.5,0.5h8.5c0.3,0,0.5-0.3,0.5-0.5
			S170.5,349.1,170.2,349.1z"/>
		<circle class="st6" cx="165.9" cy="392.8" r="1.9"/>
	</g>
</g>
<g>
	<circle class="st7" cx="166.5" cy="377" r="3.3"/>
</g>
<g>
	<path class="st7" d="M160.2,374.8c-0.2,0-0.3,0-0.5-0.1c-0.5-0.3-0.7-0.9-0.4-1.4c1.4-2.7,4.2-4.4,7.3-4.4c2.6,0,5.1,1.3,6.6,3.4
		c0.3,0.5,0.2,1.1-0.2,1.5c-0.5,0.3-1.1,0.2-1.5-0.2c-1.1-1.6-3-2.5-4.9-2.5c-2.3,0-4.3,1.3-5.4,3.3
		C161,374.6,160.6,374.8,160.2,374.8z"/>
</g>
<g>
	<path class="st7" d="M157.6,371.3c-0.2,0-0.4-0.1-0.6-0.2c-0.5-0.3-0.6-1-0.3-1.5c2.2-3.3,5.9-5.2,9.8-5.2c3.9,0,7.5,1.9,9.8,5.2
		c0.3,0.5,0.2,1.1-0.3,1.5c-0.5,0.3-1.1,0.2-1.5-0.3c-1.8-2.7-4.8-4.2-8-4.2c-3.2,0-6.2,1.6-8.1,4.3
		C158.3,371.1,158,371.3,157.6,371.3z"/>
</g>
<g>
	<path class="st7" d="M153.9,368.7c-0.2,0-0.4-0.1-0.6-0.2c-0.5-0.3-0.6-1-0.2-1.5c3.1-4.3,8.2-6.8,13.5-6.8c4.9,0,9.5,2.1,12.7,5.9
		c0.4,0.4,0.3,1.1-0.1,1.5c-0.4,0.4-1.1,0.3-1.5-0.1c-2.8-3.3-6.9-5.1-11.1-5.1c-4.6,0-9,2.2-11.8,5.9
		C154.6,368.6,154.2,368.7,153.9,368.7z"/>
</g>
<g>
	<circle class="st7" cx="222.3" cy="371.9" r="1.6"/>
</g>
<g>
	<path class="st7" d="M219.3,370.9c-0.1,0-0.2,0-0.2-0.1c-0.2-0.1-0.3-0.4-0.2-0.7c0.7-1.3,2-2.1,3.5-2.1c1.2,0,2.4,0.6,3.2,1.6
		c0.2,0.2,0.1,0.5-0.1,0.7c-0.2,0.2-0.5,0.1-0.7-0.1c-0.5-0.8-1.4-1.2-2.3-1.2c-1.1,0-2.1,0.6-2.6,1.6
		C219.7,370.8,219.5,370.9,219.3,370.9z"/>
</g>
<g>
	<path class="st7" d="M218.1,369.2c-0.1,0-0.2,0-0.3-0.1c-0.2-0.2-0.3-0.5-0.1-0.7c1-1.6,2.8-2.5,4.7-2.5c1.9,0,3.6,0.9,4.6,2.5
		c0.2,0.2,0.1,0.5-0.1,0.7c-0.2,0.2-0.5,0.1-0.7-0.1c-0.9-1.3-2.3-2-3.8-2c-1.5,0-3,0.8-3.8,2C218.4,369.1,218.2,369.2,218.1,369.2z
		"/>
</g>
<g>
	<path class="st7" d="M216.3,368c-0.1,0-0.2,0-0.3-0.1c-0.2-0.2-0.3-0.5-0.1-0.7c1.5-2,3.9-3.2,6.4-3.2c2.3,0,4.5,1,6.1,2.8
		c0.2,0.2,0.2,0.5-0.1,0.7c-0.2,0.2-0.5,0.2-0.7-0.1c-1.3-1.6-3.3-2.4-5.3-2.4c-2.2,0-4.3,1.1-5.6,2.8
		C216.6,367.9,216.5,368,216.3,368z"/>
</g>
</svg>
