<?xml version="1.0" encoding="utf-8"?>
<!-- Generator: Adobe Illustrator 20.1.0, SVG Export Plug-In . SVG Version: 6.00 Build 0)  -->
<svg version="1.1" id="Layer_1" xmlns="http://www.w3.org/2000/svg" xmlns:xlink="http://www.w3.org/1999/xlink" x="0px" y="0px"
	 viewBox="0 0 70 61.9" style="enable-background:new 0 0 70 61.9;" xml:space="preserve">
<style type="text/css">
	.st0{fill:#EFF2FA;}
	.st1{fill:#C7CFE2;}
	.st2{fill:#8DC6FF;}
	.st3{fill:#54C0EB;}
	.st4{fill:#FF5050;}
	.st5{fill:#FFFFFF;}
</style>
<path class="st0" d="M26.5,25.8l-0.6,3.8v0l-0.4,2.6l-0.2,1.2l-0.2,1l-3.3,21.8l-0.8,5.7L0,54.5l14.5-30.9l4.8,0.9l0.8,0.2
	c0.7,1.4,1.5,2.9,2.4,4.4l-0.9-0.2c1,1.6,2,3.3,3.3,5.2c0.1,0.1,0.2,0.3,0.3,0.4l0.2-1v0l0.2-1.2c-0.6-1-1.3-2-1.9-3
	c-0.9-1.5-1.7-2.9-2.5-4.4L26.5,25.8z"/>
<path class="st1" d="M43.4,54.5l-22.3,7.4l0.8-5.7h0l3.3-21.8c3.9,5.7,7.7,10.3,7.7,10.3l1.2,1.4l1.2-1.4c0,0,2.6-3.2,5.7-7.5
	l-0.2-1.1l-0.1-1.1c-3.5,5-6.6,8.7-6.6,8.7s-4.4-5.3-8.6-11.6l0.4-2.6v0l0.6-3.8l12.7-2.2l0.5,3.8l1,7.6l0.2,1.1l0.1,1.1l1.6,12
	L43.4,54.5z"/>
<path class="st0" d="M45.1,28.4c-1.4,2.3-2.9,4.6-4.3,6.6l-1-7.6l-0.5-3.8l7.8,1.3C46.4,26.1,45.8,27.2,45.1,28.4z"/>
<path class="st0" d="M70,61.9l-26.6-7.4l-0.7-5.3l-1.6-12c0.7-1,1.5-2.1,2.2-3.3c1.3-1.9,2.4-3.7,3.3-5.3c0.7-1.2,1.4-2.4,1.9-3.5
	l3.9,0.6L70,61.9z"/>
<g>
	<path class="st2" d="M59.7,53.7l-17-4.5l-0.1,0L41,37.3l-0.2-1.1l-0.1-1.1l-1-7.7h0l5.4,1c-1.4,2.3-2.9,4.6-4.3,6.6l0.2,1.1
		l0.1,1.1c0.7-1,1.5-2.1,2.2-3.3c1.3-1.9,2.4-3.7,3.3-5.3l2.2,0.4L59.7,53.7z"/>
	<path class="st2" d="M24.9,34c0.1,0.1,0.2,0.3,0.3,0.4v0l-3.4,21.9l-16.1-5l10.8-23.4l5.1,0.9C22.6,30.5,23.7,32.2,24.9,34z"/>
	<path class="st2" d="M25.9,29.6l-0.4,2.6c-0.6-1-1.3-2-1.9-3L25.9,29.6z"/>
</g>
<path class="st3" d="M42.6,49.2l-20.7,7h0l-0.1,0l3.4-21.9v0l0.2-1v0l0.2-1.2l0.4-2.6h0v0l13.8-2.2l1,7.7c-3.5,5-6.6,8.7-6.6,8.7
	s-4.4-5.3-8.6-11.6l-0.2,1.2l-0.2,1c3.9,5.7,7.7,10.3,7.7,10.3l1.2,1.4l1.2-1.4c0,0,2.6-3.2,5.7-7.5L42.6,49.2z"/>
<path class="st4" d="M50,15.9c0,2.4-1.2,5.6-3,9c-0.6,1.2-1.3,2.3-2,3.5c-1.4,2.3-2.9,4.6-4.3,6.6l0.2,1.1c0,0,0,0,0,0l-0.1-1.1
	c-3.5,5-6.6,8.7-6.6,8.7s-4.4-5.3-8.6-11.6l-0.2,1.2c0,0,0,0,0-0.1v0l0.2-1.2c-0.6-1-1.3-2-1.9-3c-0.9-1.5-1.7-2.9-2.5-4.4
	c-1.7-3.3-2.9-6.5-2.9-8.9C18.2,7.2,25.3,0,34.1,0S50,7.1,50,15.9z"/>
<path class="st5" d="M22.6,29l-1-0.2c-0.9-1.5-1.7-2.9-2.4-4.4l1,0.2C20.8,26.1,21.7,27.5,22.6,29z"/>
<circle class="st5" cx="34" cy="14.6" r="8"/>
</svg>
