<?xml version="1.0" encoding="utf-8"?>
<!-- Generator: Adobe Illustrator 20.1.0, SVG Export Plug-In . SVG Version: 6.00 Build 0)  -->
<svg version="1.1" id="Layer_1" xmlns="http://www.w3.org/2000/svg" xmlns:xlink="http://www.w3.org/1999/xlink" x="0px" y="0px"
	 viewBox="173.9 364.5 66.1 65.2" style="enable-background:new 173.9 364.5 66.1 65.2;" xml:space="preserve">
<style type="text/css">
	.st0{fill:#FFD652;}
	.st1{fill:#FFFFFF;}
	.st2{fill:#5AC779;}
	.st3{fill:#FB9D46;}
	.st4{fill:#666666;}
	.st5{fill:#4C4C4C;}
	.st6{fill:#AFF078;}
	.st7{fill:#B2B2B2;}
	.st8{fill:#FF7452;}
	.st9{fill:#F2F2F2;}
	.st10{fill:#999999;}
</style>
<path class="st0" d="M236.8,375.7h-38.4c-1.7,0-3.1,1.4-3.1,3.1v23.7c0,1.7,1.4,3.1,3.1,3.1h38.4c1.7,0,3.1-1.4,3.1-3.1v-23.7
	C239.9,377,238.5,375.7,236.8,375.7z"/>
<path class="st1" d="M203.7,396.9h28.2c0.6,0,1-0.5,1-1V393c0-0.6-0.5-1-1-1h-28.2c-0.6,0-1,0.5-1,1v2.9
	C202.6,396.4,203.1,396.9,203.7,396.9z"/>
<rect x="196.4" y="383.5" class="st2" width="43.5" height="5.5"/>
<path class="st3" d="M231.8,401.2h-13.1c-0.6,0-1-0.5-1-1s0.5-1,1-1h13.1c0.6,0,1,0.5,1,1S232.4,401.2,231.8,401.2z"/>
<path class="st4" d="M210.1,369.1h-33c-1.7,0-3.1,1.4-3.1,3.1v54.2c0,1.7,1.4,3.1,3.1,3.1h33c1.7,0,3.1-1.4,3.1-3.1v-54.2
	C213.2,370.5,211.8,369.1,210.1,369.1z"/>
<path class="st5" d="M177.6,426.4v-54.2c0-1.7,1.4-3.1,3.1-3.1h-3.5c-1.7,0-3.1,1.4-3.1,3.1v54.2c0,1.7,1.4,3.1,3.1,3.1h3.5
	C178.9,429.5,177.6,428.1,177.6,426.4z"/>
<path class="st6" d="M205.8,404.5h-24.3c-1.1,0-2-0.9-2-2v-7.4c0-1.1,0.9-2,2-2h24.3c1.1,0,2,0.9,2,2v7.4
	C207.8,403.6,206.9,404.5,205.8,404.5z"/>
<g>
	<path class="st5" d="M183.8,416.7c-2.2,0-4-1.8-4-4c0-2.2,1.8-4,4-4c2.2,0,4,1.8,4,4C187.9,414.9,186.1,416.7,183.8,416.7z
		 M183.8,410.7c-1.1,0-2,0.9-2,2c0,1.1,0.9,2,2,2c1.1,0,2-0.9,2-2C185.8,411.6,184.9,410.7,183.8,410.7z"/>
	<path class="st5" d="M203.5,416.7c-2.2,0-4-1.8-4-4c0-2.2,1.8-4,4-4c2.2,0,4,1.8,4,4C207.5,414.9,205.7,416.7,203.5,416.7z
		 M203.5,410.7c-1.1,0-2,0.9-2,2c0,1.1,0.9,2,2,2s2-0.9,2-2C205.4,411.6,204.5,410.7,203.5,410.7z"/>
	<path class="st5" d="M193.6,416.7c-2.2,0-4-1.8-4-4c0-2.2,1.8-4,4-4s4,1.8,4,4C197.7,414.9,195.9,416.7,193.6,416.7z M193.6,410.7
		c-1.1,0-2,0.9-2,2c0,1.1,0.9,2,2,2s2-0.9,2-2C195.6,411.6,194.7,410.7,193.6,410.7z"/>
	<path class="st5" d="M183.8,426c-2.2,0-4-1.8-4-4c0-2.2,1.8-4,4-4c2.2,0,4,1.8,4,4C187.9,424.2,186.1,426,183.8,426z M183.8,420
		c-1.1,0-2,0.9-2,2c0,1.1,0.9,2,2,2c1.1,0,2-0.9,2-2C185.8,420.8,184.9,420,183.8,420z"/>
	<path class="st5" d="M203.5,426c-2.2,0-4-1.8-4-4c0-2.2,1.8-4,4-4c2.2,0,4,1.8,4,4C207.5,424.2,205.7,426,203.5,426z M203.5,420
		c-1.1,0-2,0.9-2,2c0,1.1,0.9,2,2,2s2-0.9,2-2C205.4,420.8,204.5,420,203.5,420z"/>
	<path class="st5" d="M193.6,426c-2.2,0-4-1.8-4-4c0-2.2,1.8-4,4-4s4,1.8,4,4C197.7,424.2,195.9,426,193.6,426z M193.6,420
		c-1.1,0-2,0.9-2,2c0,1.1,0.9,2,2,2s2-0.9,2-2C195.6,420.8,194.7,420,193.6,420z"/>
</g>
<g>
	<circle class="st7" cx="183.8" cy="412.7" r="3"/>
	<circle class="st7" cx="203.5" cy="412.7" r="3"/>
	<circle class="st7" cx="193.6" cy="412.7" r="3"/>
</g>
<circle class="st8" cx="183.8" cy="421.9" r="3"/>
<circle class="st2" cx="203.5" cy="421.9" r="3"/>
<circle class="st0" cx="193.6" cy="421.9" r="3"/>
<path class="st9" d="M203.9,364.5h-20.4c-1.7,0-3.1,1.4-3.1,3.1v21.9h26.6v-21.9C206.9,365.9,205.6,364.5,203.9,364.5z"/>
<path class="st5" d="M208.4,389.7h-29.4c-0.6,0-1-0.5-1-1s0.5-1,1-1h29.4c0.6,0,1,0.5,1,1S208.9,389.7,208.4,389.7z"/>
<g>
	<path class="st10" d="M194.7,371.2h-7.6c-0.6,0-1-0.5-1-1s0.5-1,1-1h7.6c0.6,0,1,0.5,1,1S195.3,371.2,194.7,371.2z"/>
	<path class="st10" d="M200.2,377.7h-13.1c-0.6,0-1-0.5-1-1s0.5-1,1-1h13.1c0.6,0,1,0.5,1,1S200.8,377.7,200.2,377.7z"/>
	<path class="st10" d="M200.2,384.5h-13.1c-0.6,0-1-0.5-1-1s0.5-1,1-1h13.1c0.6,0,1,0.5,1,1S200.8,384.5,200.2,384.5z"/>
</g>
</svg>
