<?xml version="1.0" encoding="utf-8"?>
<!-- Generator: Adobe Illustrator 20.1.0, SVG Export Plug-In . SVG Version: 6.00 Build 0)  -->
<svg version="1.1" id="_x32_" xmlns="http://www.w3.org/2000/svg" xmlns:xlink="http://www.w3.org/1999/xlink" x="0px" y="0px"
	 viewBox="0 0 168.2 192" style="enable-background:new 0 0 168.2 192;" xml:space="preserve">
<style type="text/css">
	.st0{fill:#A7DBD8;}
	.st1{fill:#FFFFFF;}
	.st2{fill:#3FB23F;}
	.st3{fill:#69D2E7;}
</style>
<g>
	<circle class="st0" cx="126.6" cy="150.4" r="41.6"/>
	<g>
		<path class="st1" d="M120.7,121.7h6.4c0,0-0.8,15.6,5.8,11.2c3-2,8.2-5.6,14.4-0.2c4.9,4.3,9.4,11.3,2.6,26
			c-3.6,7.7-15.3,19.9-33.2,6.6c-2.7-2-10-6.9-10.4,8.7H100c0,0-0.3-18.2,10.2-16.8c5.5,0.7,18.1,4,20.1-9c0.4-2.7,1.6-6-4.8-9.8
			C122.7,136.8,120.5,135.3,120.7,121.7z"/>
	</g>
</g>
<circle class="st2" cx="126.6" cy="41.6" r="41.6"/>
<g>
	<circle class="st3" cx="41.8" cy="99" r="41.6"/>
	<g>
		<path class="st1" d="M51.4,82.1c-6.1-6.1-6.1,0.2-6.1,0.2v10.5L43.5,91v-1.9h-3.2v1.8l-1.8,1.8V82.2c0,0,0-6.2-6.1-0.2
			c0,0-21.4,22.3-12.4,36.4c1,1.6,4.4,3.6,8.2-1.6c1.6-2.4,9.4,2.3,10.3-5.9V95l3.5-3.5l3.5,3.5v15.8c1,8.2,8.7,3.5,10.3,5.9
			c3.6,5.3,7,3.3,8.2,1.6C72.7,104.4,51.4,82.1,51.4,82.1z"/>
		<rect x="40.2" y="77.9" class="st1" width="3.2" height="1.9"/>
		<rect x="40.2" y="81.6" class="st1" width="3.2" height="1.9"/>
		<rect x="40.2" y="85.3" class="st1" width="3.2" height="1.8"/>
	</g>
</g>
<g>
	<path class="st1" d="M119.7,47.9l2.3-10.8c0.1-0.4,0.4-0.7,0.9-0.7c0.4,0,0.8,0.3,0.9,0.7l2.5,16l2.2-20.1c0.1-0.4,0.4-0.8,0.9-0.8
		l0,0c0.4,0,0.8,0.3,0.9,0.8l1.3,14.9l2.3-6.2c0.2-0.3,0.5-0.6,0.9-0.5c0.3,0,0.7,0.3,0.8,0.7l1,6.2h10.4c2.3-3.2,3.9-6.5,3.9-9.5
		c0-6.9-5.6-12.6-12.6-12.6c-4.2,0-7.9,2.1-10.2,5.2c-2.3-3.1-6-5.2-10.2-5.2c-6.9,0-12.6,3.9-12.6,12.6c0,3,1.4,6.2,3.6,9.2
		L119.7,47.9L119.7,47.9L119.7,47.9z"/>
	<path class="st1" d="M135.6,49.9c-0.4,0-0.8-0.3-0.9-0.7l-0.6-3.8l-2.5,6.7c-0.2,0.3-0.5,0.6-1,0.5c-0.4-0.1-0.7-0.3-0.8-0.8
		L129,41.8l-1.9,17.9c-0.1,0.4-0.4,0.8-0.9,0.8l0,0c-0.4,0-0.8-0.3-0.9-0.7l-2.8-17.6l-1.5,6.9c-0.1,0.4-0.4,0.7-0.9,0.7h-10.5
		c6.7,8.6,18.1,15.9,18.1,15.9s10.8-7.3,17.6-15.5h-9.8L135.6,49.9L135.6,49.9z"/>
</g>
</svg>
