<?xml version="1.0" encoding="utf-8"?>
<!-- Generator: Adobe Illustrator 20.1.0, SVG Export Plug-In . SVG Version: 6.00 Build 0)  -->
<svg version="1.1" id="_x32_" xmlns="http://www.w3.org/2000/svg" xmlns:xlink="http://www.w3.org/1999/xlink" x="0px" y="0px"
	 viewBox="0 0 165.7 192" style="enable-background:new 0 0 165.7 192;" xml:space="preserve">
<style type="text/css">
	.st0{fill:#A7DBD8;}
	.st1{fill:#FFFFFF;}
	.st2{fill:#3FB23F;}
</style>
<g>
	<circle class="st0" cx="41.2" cy="41.2" r="41.2"/>
	<path class="st1" d="M59.4,25.3c-0.1-1.9-1.1-4.3-2.1-5.3c-0.9-1.1-2.7-2.1-4-2.3c-1.2-0.2-3.7-0.2-5.6,0.1l-6.6,0.9l-6.6-0.9
		c-1.9-0.3-4.4-0.3-5.6-0.1c-1.2,0.2-3,1.2-4,2.3s-2,3.5-2.1,5.3c-0.2,3.4,0,8.6,2.4,13.4c0,0,1.7,3.4,1.7,8.9
		c0,4,1.5,12.5,3.5,16.4c0.9,1.6,3.4,1.4,4-0.4c1.8-6.4,3.1-22.3,6.6-22.3c3.4-0.1,4.8,15.9,6.6,22.3c0.5,1.8,3.1,2.1,4,0.4
		c2-3.8,3.5-12.4,3.5-16.4c0-5.4,1.7-8.9,1.7-8.9C59.4,33.8,59.6,28.5,59.4,25.3z"/>
</g>
<circle class="st2" cx="41.2" cy="150.8" r="41.2"/>
<path class="st1" d="M52.1,129.8c7.5,0,13.5,6,13.5,13.5c0,12.3-24.4,28.7-24.4,28.7s-24.4-15.7-24.4-28.7c0-9.3,6-13.5,13.5-13.5
	c4.5,0,8.4,2.2,10.9,5.6C43.7,131.9,47.6,129.8,52.1,129.8z"/>
<g>
	<circle class="st0" cx="124.5" cy="98.2" r="41.2"/>
	<g>
		<path class="st1" d="M121.5,105c-0.8-1.1-1.6-2.1-2.5-3.2c-0.5-0.8-1.1-1.5-1.5-2.4c-1-2.8-0.5-5.3,1.4-7.6c0.9-1,2.1-2,3.1-2.9
			c1.5-1.4,2.4-2.9,2.5-5.1c0.1-2.2-1-4-3-4.6c-1-0.3-3.2-0.4-3.2-0.3c-3.1,0.2-6,0.8-8.7,2.3c-2.5,1.4-4.2,3.4-4.7,6.4
			c-0.4,2.5-0.2,4.9,0.7,7.2c0.8,2.1,1.7,4,2.7,6.1c1.1,2.4,1.8,4.8,1.9,7.5c0,0.7,0,1.4,0.2,2.1c0.4,2.2,1.5,4,3.5,5
			c1.3,0.6,2.6,0.4,4,0.3c2.5-0.3,4.1-1.8,4.6-4.1C123,109.3,122.9,107,121.5,105z"/>
		<path class="st1" d="M125.1,75.5c0.9-1.1,1.3-2.5,1.3-4c0-0.3-0.1-0.6-0.1-1c-0.1-0.3-0.2-0.7-0.3-0.9c-0.8-2-2.6-2.4-4.1-0.9
			c-1.5,1.5-2,4.6-0.9,6.5C122,76.9,123.8,77.2,125.1,75.5z"/>
		<path class="st1" d="M118,75.4c1.1-1.1,1.4-3.4,0.5-4.7c-0.8-1.2-2.1-1.3-2.9-0.2c-0.6,0.8-0.8,1.6-0.8,2.6c0,0.8,0.2,1.5,0.6,2.1
			C116,76.1,117.1,76.2,118,75.4z"/>
		<path class="st1" d="M113,76.1c0.5-0.6,0.6-1.3,0.7-2.1c0-0.8-0.2-1.5-0.7-2.1c-0.6-0.7-1.5-0.7-2.1,0c-0.9,1-0.9,3.1,0,4.1
			C111.6,76.9,112.4,76.9,113,76.1z"/>
		<path class="st1" d="M109.8,77.5c0.5-0.9,0.2-2.5-0.6-3.2c-0.6-0.5-1.4-0.3-1.7,0.3c-0.2,0.3-0.2,0.7-0.3,1.1
			c0.1,0.9,0.3,1.5,0.9,2.1C108.7,78.3,109.4,78.2,109.8,77.5z"/>
		<path class="st1" d="M107,79.9c0.3-0.3,0.3-0.9,0.5-1.3c-0.2-0.4-0.3-0.9-0.4-1.2c-0.3-0.6-1-0.6-1.5-0.1
			c-0.5,0.6-0.6,1.9-0.1,2.5C106,80.5,106.7,80.5,107,79.9z"/>
		<path class="st1" d="M134.8,92.3c0-0.1-2.1-0.4-3.2-0.4c-2.1,0-3.6,1.5-4.1,3.6c-0.5,2.1,0,3.9,1,5.5c0.8,1.2,1.5,2.4,2.1,3.7
			c1.3,2.7,1,5.2-0.7,7.6c-0.5,0.8-1.3,1.4-2.1,1.9c-1,0.9-2.2,1.5-3.2,2.4c-1.8,1.5-2.5,3.7-2.7,6.1c-0.2,2.4,1,4.2,3.4,5.2
			c1.2,0.5,2.5,1,3.9,0.8c2.3-0.3,3.8-1.8,4.7-3.9c0.3-0.6,0.5-1.3,0.7-1.9c0.8-2.5,2.1-4.7,3.8-6.7c1.5-1.7,2.9-3.4,4.2-5.2
			c1.5-2,2.3-4.3,2.6-6.8c0.3-2.9-0.9-5.3-2.8-7.4C140.4,94.6,137.8,93.2,134.8,92.3z"/>
		<path class="st1" d="M133.5,87.9c1.5-1.5,1.8-4.7,0.8-6.6c-1-1.8-2.9-1.9-4.2-0.2c-0.2,0.3-0.3,0.5-0.5,0.9
			c-0.2,0.3-0.3,0.7-0.4,0.9c-0.3,1.5-0.4,2.9,0.2,4.3C130.2,89.1,132,89.5,133.5,87.9z"/>
		<path class="st1" d="M138.8,89.5c0.5-0.4,0.9-1,1.1-1.8c0.3-0.9,0.3-1.8-0.1-2.7c-0.5-1.4-1.8-1.6-2.9-0.7
			c-1.2,1.1-1.5,3.4-0.8,4.7C136.8,90.1,137.9,90.2,138.8,89.5z"/>
		<path class="st1" d="M142.8,91.6c1.1-0.8,1.6-2.8,1-4c-0.4-0.9-1.2-1.1-2-0.5c-0.7,0.4-0.9,1.1-1.2,1.8c-0.2,0.7-0.2,1.5,0.1,2.1
			C141.2,92,142.1,92.2,142.8,91.6z"/>
		<path class="st1" d="M143.6,93.2c0.2,0.8,0.9,1.1,1.5,0.8c0.8-0.3,1.2-0.9,1.5-1.7c0-0.3,0.1-0.8,0-1.1c-0.2-0.8-0.8-1.1-1.5-0.8
			C144,90.8,143.4,92.2,143.6,93.2z"/>
		<path class="st1" d="M147.7,94.3c-0.3-0.6-0.9-0.8-1.4-0.3c-0.3,0.3-0.5,0.7-0.8,1c0,0.5,0,0.9,0.2,1.4c0.3,0.7,0.9,0.9,1.5,0.4
			C147.7,96.2,148,95.1,147.7,94.3z"/>
	</g>
</g>
</svg>
