<?xml version="1.0" encoding="iso-8859-1"?>
<!-- Generator: Adobe Illustrator 19.0.0, SVG Export Plug-In . SVG Version: 6.00 Build 0)  -->
<svg version="1.1" id="Capa_1" xmlns="http://www.w3.org/2000/svg" xmlns:xlink="http://www.w3.org/1999/xlink" x="0px" y="0px"
	 viewBox="0 0 512 512" style="enable-background:new 0 0 512 512;" xml:space="preserve">
<g>
	<g>
		<g>
			<path d="M469.333,42.667H192v-32C192,4.771,187.229,0,181.333,0h-64c-5.896,0-10.667,4.771-10.667,10.667v32h-64
				C19.135,42.667,0,61.802,0,85.333V384c0,23.531,19.135,42.667,42.667,42.667h149.362c-0.46,17.052-3.728,44.306-15.893,57.104
				c-4.469,4.708-9.604,6.896-16.135,6.896c-5.896,0-10.667,4.771-10.667,10.667c0,5.896,4.771,10.667,10.667,10.667h192
				c5.896,0,10.667-4.771,10.667-10.667c0-5.896-4.771-10.667-10.667-10.667c-6.531,0-11.667-2.188-16.135-6.896
				c-12.165-12.798-15.434-40.052-15.893-57.104h149.362C492.865,426.667,512,407.531,512,384V85.333
				C512,61.802,492.865,42.667,469.333,42.667z M117.333,128c5.896,0,10.667-4.771,10.667-10.667v-96h42.667v96
				c0,5.896,4.771,10.667,10.667,10.667H192l-42.667,56.885L106.667,128H117.333z M197.729,490.667
				c12.881-19.749,15.374-48.188,15.695-64h85.151c0.322,15.813,2.814,44.251,15.695,64H197.729z M490.667,384
				c0,11.76-9.573,21.333-21.333,21.333H42.667c-11.76,0-21.333-9.573-21.333-21.333v-42.667h469.333V384z M490.667,320H21.333
				V85.333C21.333,73.573,30.906,64,42.667,64h64v42.667H85.333c-4.042,0-7.729,2.281-9.542,5.896
				c-1.802,3.615-1.417,7.938,1.01,11.167l64,85.333c2.01,2.688,5.177,4.271,8.531,4.271c3.354,0,6.521-1.583,8.531-4.271l64-85.333
				c2.427-3.229,2.813-7.552,1.01-11.167c-1.813-3.615-5.5-5.896-9.542-5.896H192V64h277.333c11.76,0,21.333,9.573,21.333,21.333
				V320z"/>
			<circle cx="256" cy="373.333" r="21.333"/>
			<path d="M439.917,166.719l-10.104-2.531l5.354-8.948c2.521-4.188,1.854-9.563-1.604-13.021l-21.115-21.115
				c-3.458-3.469-8.833-4.115-13.021-1.604l-8.948,5.354l-2.531-10.104c-1.177-4.75-5.448-8.083-10.344-8.083h-29.875
				c-4.896,0-9.167,3.333-10.344,8.083l-2.531,10.104l-8.948-5.354c-4.177-2.5-9.552-1.854-13.021,1.604l-21.115,21.115
				c-3.458,3.458-4.125,8.833-1.604,13.021l5.354,8.948l-10.104,2.531c-4.75,1.177-8.083,5.448-8.083,10.344v29.875
				c0,4.896,3.333,9.167,8.083,10.344l10.104,2.531l-5.354,8.948c-2.521,4.188-1.854,9.563,1.604,13.021l21.115,21.115
				c3.458,3.448,8.823,4.115,13.021,1.604l8.948-5.354l2.531,10.104c1.177,4.75,5.448,8.083,10.344,8.083h29.875
				c4.896,0,9.167-3.333,10.344-8.083l2.531-10.104l8.948,5.354c4.177,2.5,9.573,1.854,13.021-1.604l21.115-21.115
				c3.458-3.458,4.125-8.833,1.604-13.021l-5.354-8.948l10.104-2.531c4.75-1.177,8.083-5.448,8.083-10.344v-29.875
				C448,172.167,444.667,167.896,439.917,166.719z M426.667,198.604l-10.396,2.604c-3.5,0.865-6.323,3.448-7.5,6.854
				c-0.615,1.802-1.302,3.531-2.115,5.219c-1.573,3.24-1.406,7.052,0.448,10.135l5.49,9.167l-9.344,9.344l-9.167-5.49
				c-3.094-1.875-6.906-2.031-10.135-0.448c-1.688,0.813-3.417,1.5-5.219,2.115c-3.406,1.177-5.99,4-6.854,7.5L369.271,256h-13.208
				l-2.604-10.396c-0.865-3.5-3.448-6.323-6.854-7.5c-1.802-0.615-3.531-1.302-5.219-2.115c-3.25-1.573-7.063-1.406-10.135,0.448
				l-9.167,5.49l-9.344-9.344l5.49-9.167c1.854-3.083,2.021-6.896,0.448-10.135c-0.813-1.688-1.5-3.417-2.115-5.219
				c-1.177-3.406-4-5.99-7.5-6.854l-10.396-2.604v-13.208l10.396-2.604c3.5-0.865,6.323-3.448,7.5-6.854
				c0.615-1.802,1.302-3.531,2.115-5.219c1.573-3.24,1.406-7.052-0.448-10.135l-5.49-9.167l9.344-9.344l9.167,5.49
				c3.073,1.854,6.875,2.021,10.135,0.448c1.688-0.813,3.417-1.5,5.219-2.115c3.406-1.177,5.99-4,6.854-7.5L356.063,128h13.208
				l2.604,10.396c0.865,3.5,3.448,6.323,6.854,7.5c1.802,0.615,3.531,1.302,5.219,2.115c3.24,1.583,7.063,1.406,10.135-0.448
				l9.167-5.49l9.344,9.344l-5.49,9.167c-1.854,3.083-2.021,6.896-0.448,10.135c0.813,1.688,1.5,3.417,2.115,5.219
				c1.177,3.406,4,5.99,7.5,6.854l10.396,2.604V198.604z"/>
			<path d="M362.667,160c-17.646,0-32,14.354-32,32s14.354,32,32,32s32-14.354,32-32S380.313,160,362.667,160z M362.667,202.667
				c-5.885,0-10.667-4.781-10.667-10.667s4.781-10.667,10.667-10.667s10.667,4.781,10.667,10.667S368.552,202.667,362.667,202.667z"
				/>
			<path d="M224,234.667H74.667c-5.896,0-10.667,4.771-10.667,10.667C64,251.229,68.771,256,74.667,256H224
				c5.896,0,10.667-4.771,10.667-10.667C234.667,239.438,229.896,234.667,224,234.667z"/>
			<path d="M160,277.333H74.667C68.771,277.333,64,282.104,64,288s4.771,10.667,10.667,10.667H160
				c5.896,0,10.667-4.771,10.667-10.667S165.896,277.333,160,277.333z"/>
		</g>
	</g>
</g>
<g>
</g>
<g>
</g>
<g>
</g>
<g>
</g>
<g>
</g>
<g>
</g>
<g>
</g>
<g>
</g>
<g>
</g>
<g>
</g>
<g>
</g>
<g>
</g>
<g>
</g>
<g>
</g>
<g>
</g>
</svg>
