<?xml version="1.0" encoding="utf-8"?>
<!-- Generator: Adobe Illustrator 20.1.0, SVG Export Plug-In . SVG Version: 6.00 Build 0)  -->
<svg version="1.1" id="Layer_1" xmlns="http://www.w3.org/2000/svg" xmlns:xlink="http://www.w3.org/1999/xlink" x="0px" y="0px"
	 viewBox="166.6 366 78.2 62.1" style="enable-background:new 166.6 366 78.2 62.1;" xml:space="preserve">
<style type="text/css">
	.st0{fill:#797979;}
	.st1{fill:#A98258;}
	.st2{fill:#C0C0C0;}
	.st3{fill:#48A0DC;}
	.st4{fill:#896745;}
	.st5{fill:#C69666;}
	.st6{fill:#E8D5B2;}
	.st7{fill:#337FAA;}
</style>
<g>
	<g>
		<path class="st0" d="M188.2,421.2c0-3.7-3-6.7-6.7-6.7s-6.7,3-6.7,6.7s3,6.7,6.7,6.7S188.2,424.9,188.2,421.2"/>
		<path class="st0" d="M236.7,421.2c0-3.7-3-6.7-6.7-6.7s-6.7,3-6.7,6.7s3,6.7,6.7,6.7S236.7,424.9,236.7,421.2"/>
	</g>
	<path class="st1" d="M211.1,401.9v-17h-18.8v18.8h12.1C206.8,403.7,209.1,403.1,211.1,401.9"/>
	<g>
		<path class="st2" d="M181.5,423.9c-1.5,0-2.7-1.2-2.7-2.7c0-1.5,1.2-2.7,2.7-2.7s2.7,1.2,2.7,2.7
			C184.2,422.7,183,423.9,181.5,423.9"/>
		<path class="st2" d="M229.9,423.9c-1.5,0-2.7-1.2-2.7-2.7c0-1.5,1.2-2.7,2.7-2.7c1.5,0,2.7,1.2,2.7,2.7
			C232.6,422.7,231.4,423.9,229.9,423.9"/>
	</g>
	<path class="st3" d="M243.9,407.4l-5.9-2.4l-3.5-14.1c-0.3-1.2-1.4-2-2.6-2h-14v1.3c0,7.4-6,13.4-13.4,13.4h-37.7v16.1
		c0,0.7,0.6,1.3,1.3,1.3h6.7c0-3.7,3-6.7,6.7-6.7c3.7,0,6.7,3,6.7,6.7h29.6h5.4c0-3.7,3-6.7,6.7-6.7c3.7,0,6.7,3,6.7,6.7h6.7
		c0.7,0,1.3-0.6,1.3-1.3v-11.2C244.7,408.1,244.4,407.6,243.9,407.4"/>
	<polygon class="st4" points="173.5,403.7 192.3,403.7 192.3,384.9 173.5,384.9 	"/>
	<polygon class="st5" points="182.9,384.9 201.7,384.9 201.7,366.1 182.9,366.1 	"/>
	<g>
		<polygon class="st6" points="196.3,374.1 192.3,371.4 188.2,374.1 188.2,366.1 196.3,366.1 		"/>
		<polygon class="st6" points="186.9,393 182.9,390.3 178.8,393 178.8,384.9 186.9,384.9 		"/>
		<polygon class="st6" points="205.7,393 201.7,390.3 197.7,393 197.7,384.9 205.7,384.9 		"/>
	</g>
	<path class="st7" d="M225.9,411.8h-2.7c-0.7,0-1.3-0.6-1.3-1.3s0.6-1.3,1.3-1.3h2.7c0.7,0,1.3,0.6,1.3,1.3S226.6,411.8,225.9,411.8
		"/>
	<path class="st3" d="M219.2,390.3c-0.7,0-1.3-0.6-1.3-1.3v-10.8c0-0.7,0.6-1.3,1.3-1.3s1.3,0.6,1.3,1.3v10.8
		C220.5,389.7,219.9,390.3,219.2,390.3"/>
	<path class="st7" d="M241.4,406.4l-3.4-1.3l-0.3-1.3h-11.4c-0.9,0-1.7-0.8-1.7-1.7v-6.4c0-0.7-0.6-1.3-1.3-1.3s-1.3,0.6-1.3,1.3
		v6.4c0,2.4,2,4.4,4.4,4.4H241.4z"/>
</g>
</svg>
