<?xml version="1.0" encoding="utf-8"?>
<!-- Generator: Adobe Illustrator 20.1.0, SVG Export Plug-In . SVG Version: 6.00 Build 0)  -->
<svg version="1.1" id="Слой_1" xmlns="http://www.w3.org/2000/svg" xmlns:xlink="http://www.w3.org/1999/xlink" x="0px" y="0px"
	 viewBox="0 0 91 43.8" style="enable-background:new 0 0 91 43.8;" xml:space="preserve">
<style type="text/css">
	.st0{fill:#8DC6FF;}
	.st1{fill:#EBF0F2;}
	.st2{fill:#69CC69;}
	.st3{fill:#FF5050;}
	.st4{fill:#C7CFE2;}
</style>
<path class="st0" d="M53.9,42.8c0,0.6-0.5,1-1,1H38.3c-0.6,0-1-0.5-1-1v-8.9c0-0.6,0.5-1,1-1h14.6c0.6,0,1,0.5,1,1V42.8z"/>
<path class="st1" d="M52.1,38.4c0,2.1-1.7,3.8-3.8,3.8s-3.8-1.7-3.8-3.8s1.7-3.8,3.8-3.8S52.1,36.3,52.1,38.4L52.1,38.4z"/>
<path class="st1" d="M43.1,36.7c0,0.2-0.1,0.3-0.3,0.3h-3.5c-0.2,0-0.3-0.1-0.3-0.3V35c0-0.2,0.1-0.3,0.3-0.3h3.5
	c0.2,0,0.3,0.1,0.3,0.3V36.7z"/>
<path class="st2" d="M46.2,33.3c0,0.4-0.3,0.7-0.7,0.7c-0.4,0-0.7-0.3-0.7-0.7v-2.8c0-0.4,0.3-0.7,0.7-0.7c0.4,0,0.7,0.3,0.7,0.7
	V33.3z"/>
<path class="st2" d="M47.8,33c0,0.4-0.3,0.7-0.7,0.7h-3c-0.4,0-0.7-0.3-0.7-0.7s0.3-0.7,0.7-0.7h3C47.5,32.2,47.8,32.5,47.8,33
	L47.8,33z"/>
<path class="st3" d="M50.2,26.6h-9.3c-0.3,0.7-0.8,1.5-1.3,2.4c-0.2,0.3-0.2,0.6-0.1,0.9c0.1,0.3,0.3,0.5,0.6,0.6
	c1.7,0.5,3.6,0.8,5.5,0.8s3.8-0.3,5.5-0.8c0.3-0.1,0.5-0.3,0.6-0.6s0.1-0.6-0.1-0.9C51,28.1,50.6,27.3,50.2,26.6L50.2,26.6z"/>
<path class="st4" d="M63.6,12.3c0,4.2-8.1,7.6-18.1,7.6s-18.1-3.4-18.1-7.6c0-4.2,8.1-7.6,18.1-7.6S63.6,8.1,63.6,12.3L63.6,12.3z"
	/>
<path class="st0" d="M63.6,12.3c0,4.2-8.1,7.6-18.1,7.6s-18.1-3.4-18.1-7.6"/>
<path class="st4" d="M39,10.6c0,2.8-2.2,5-5,5s-22.7-2.2-22.7-5s19.9-5,22.7-5C36.7,5.6,39,7.8,39,10.6L39,10.6z"/>
<path class="st4" d="M34,5.6c2.8,0,5,2.3,5,5"/>
<path class="st0" d="M39,10.6c0,2.8,3.2,8.7,0.5,8.7c-2.8,0-28.2-5.9-28.2-8.7"/>
<path class="st0" d="M16.3,11.8c0,1.6-1.3,2.9-2.9,2.9s-2.9-1.3-2.9-2.9V9.2c0-1.6,1.3-2.9,2.9-2.9s2.9,1.3,2.9,2.9V11.8z"/>
<path class="st4" d="M16.3,8.9c0,1.6-1.3,2.9-2.9,2.9s-2.9-1.3-2.9-2.9V6.3c0-1.6,1.3-2.9,2.9-2.9s2.9,1.3,2.9,2.9V8.9z"/>
<path class="st0" d="M10.6,6.3c0.3,1.3,1.4,2.2,2.8,2.2s2.5-0.9,2.8-2.2c-0.3-1.3-1.4-2.2-2.8-2.2S10.9,5.1,10.6,6.3L10.6,6.3z"/>
<path class="st2" d="M26.8,4c0,1.2-6,2.1-13.4,2.1S0,5.2,0,4s6-2.1,13.4-2.1C20.8,1.9,26.8,2.9,26.8,4L26.8,4z"/>
<path class="st2" d="M20.8,4c0,1.2-3.3,2.1-7.4,2.1S6,5.2,6,4s3.3-2.1,7.4-2.1C17.5,1.9,20.8,2.9,20.8,4L20.8,4z"/>
<path class="st2" d="M26.7,4c0,0.2-0.2,0.4-0.4,0.4H0.5C0.3,4.4,0.1,4.2,0.1,4s0.2-0.4,0.4-0.4h25.8C26.5,3.7,26.7,3.8,26.7,4
	L26.7,4z"/>
<path class="st0" d="M16.3,1.5c0,0.8,1.1,1.5,0.3,1.5h-6.4c-0.9,0,0.3-0.7,0.3-1.5C10.5,0.6,11.2,0,12,0h2.8
	C15.7-0.1,16.3,0.6,16.3,1.5L16.3,1.5z"/>
<path class="st4" d="M52.1,10.6c0,2.8,2.2,5,5,5s22.7-2.2,22.7-5s-19.9-5-22.7-5C54.4,5.6,52.1,7.8,52.1,10.6L52.1,10.6z"/>
<path class="st4" d="M57.1,5.6c-2.8,0-5,2.3-5,5"/>
<path class="st0" d="M52.1,10.6c0,2.8-3.2,8.7-0.5,8.7c2.8,0,28.2-5.9,28.2-8.7"/>
<path class="st0" d="M74.8,11.8c0,1.6,1.3,2.9,2.9,2.9s2.9-1.3,2.9-2.9V9.2c0-1.6-1.3-2.9-2.9-2.9s-2.9,1.3-2.9,2.9V11.8z"/>
<path class="st4" d="M74.8,8.9c0,1.6,1.3,2.9,2.9,2.9s2.9-1.3,2.9-2.9V6.3c0-1.6-1.3-2.9-2.9-2.9s-2.9,1.3-2.9,2.9V8.9z"/>
<path class="st0" d="M80.5,6.3c-0.3,1.3-1.4,2.2-2.8,2.2s-2.5-0.9-2.8-2.2c0.3-1.3,1.4-2.2,2.8-2.2S80.2,5.1,80.5,6.3L80.5,6.3z"/>
<path class="st2" d="M91,4c0,1.2-6,2.1-13.4,2.1S64.2,5.2,64.2,4s6-2.1,13.4-2.1C85.1,1.9,91,2.9,91,4L91,4z"/>
<path class="st2" d="M85.1,4c0,1.2-3.3,2.1-7.4,2.1S70.3,5.2,70.3,4s3.3-2.1,7.4-2.1C81.8,1.9,85.1,2.9,85.1,4L85.1,4z"/>
<path class="st2" d="M64.4,4c0,0.2,0.2,0.4,0.4,0.4h25.8C90.8,4.4,91,4.2,91,4s-0.2-0.4-0.4-0.4H64.8C64.6,3.7,64.4,3.8,64.4,4
	L64.4,4z"/>
<path class="st0" d="M74.8,1.5c0,0.8-1.1,1.5-0.3,1.5h6.4c0.9,0-0.3-0.7-0.3-1.5c0-0.9-0.7-1.5-1.5-1.5h-2.8
	C75.4-0.1,74.8,0.6,74.8,1.5L74.8,1.5z"/>
<path class="st0" d="M54.1,13h-2.8c-0.4,0-0.8,0.2-1.1,0.5c-0.4,0.5-2.1,1.1-4.7,1.1s-4.3-0.7-4.7-1.1c-0.3-0.3-0.7-0.5-1.1-0.5
	h-2.8c-0.8,0-1.4,0.6-1.4,1.4v2.9c0,0.4,0.1,0.7,0.4,1c0.5,0.6,1.3,0.8,2,1c1.4,0.4,1.5,0.6,1.5,1.1c0,1.2-1.1,3.6-2.7,5.9
	c-0.3,0.4-0.3,0.8-0.2,1.3c0.2,0.4,0.5,0.8,0.9,0.9c2.4,0.7,5.2,1.1,7.9,1.1c2.8,0,5.5-0.4,7.9-1.1c0.4-0.1,0.8-0.5,0.9-0.9
	c0.2-0.4,0.1-0.9-0.2-1.3c-1.6-2.3-2.7-4.8-2.7-5.9c0-0.5,0.2-0.7,1.5-1.1c0.7-0.2,1.5-0.5,2-1c0.2-0.3,0.4-0.6,0.4-1v-2.9
	C55.5,13.7,54.9,13,54.1,13L54.1,13z"/>
<path class="st3" d="M48.4,7.2c0,0.1-0.1,0.3-0.3,0.3h-5.2c-0.1,0-0.3-0.1-0.3-0.3c0-0.1,0.1-0.3,0.3-0.3h5.3
	C48.3,6.9,48.4,7,48.4,7.2L48.4,7.2z"/>
<path class="st3" d="M48.4,8.8c0,0.1-0.1,0.3-0.3,0.3h-5.2c-0.1,0-0.3-0.1-0.3-0.3c0-0.1,0.1-0.3,0.3-0.3h5.3
	C48.3,8.5,48.4,8.6,48.4,8.8L48.4,8.8z"/>
<path class="st3" d="M48.4,10.4c0,0.1-0.1,0.3-0.3,0.3h-5.2c-0.1,0-0.3-0.1-0.3-0.3c0-0.1,0.1-0.3,0.3-0.3h5.3
	C48.3,10.1,48.4,10.2,48.4,10.4L48.4,10.4z"/>
</svg>
