<?xml version="1.0" encoding="utf-8"?>
<!-- Generator: Adobe Illustrator 20.1.0, SVG Export Plug-In . SVG Version: 6.00 Build 0)  -->
<svg version="1.1" id="Layer_1" xmlns="http://www.w3.org/2000/svg" xmlns:xlink="http://www.w3.org/1999/xlink" x="0px" y="0px"
	 viewBox="158.5 288.8 97.1 94" style="enable-background:new 158.5 288.8 97.1 94;" xml:space="preserve">
<style type="text/css">
	.st0{fill:#5B5D6E;}
	.st1{fill:#707487;}
	.st2{fill:#464655;}
	.st3{fill:#E6E7E8;}
	.st4{fill:#F4B331;}
	.st5{fill:#4F4C4D;}
	.st6{fill:#FFFFFF;}
</style>
<path class="st0" d="M230.1,344.1h-46.2l-1.6,15.8c-0.2,2.4,1.3,4.7,3.7,5.3l17.5,4.7c2.3,0.6,4.6,0.6,6.9,0l17.5-4.7
	c2.4-0.6,3.9-2.9,3.7-5.3L230.1,344.1z"/>
<path class="st1" d="M208.5,352.1l46.6-10.9c0.5-0.1,0.5-0.8,0-1l-46.6-10.9c-1-0.2-2-0.2-3,0l-46.6,10.9c-0.5,0.1-0.5,0.8,0,1
	l46.6,10.9C206.5,352.3,207.5,352.3,208.5,352.1z"/>
<path class="st2" d="M238,345.5l-23.9-6.6c-0.9-0.2-1.8,0.3-2.1,1.2c-0.2,0.9,0.3,1.8,1.2,2.1l23.9,6.6v15.5h3.3v-15.5
	C240.4,347.2,239.4,345.9,238,345.5z"/>
<g>
	<circle class="st0" cx="238.8" cy="365.8" r="3.3"/>
	<path class="st0" d="M240.4,382.5h-3.3c-0.9,0-1.7-0.7-1.7-1.7v-8.4c0-1.8,1.5-3.3,3.3-3.3l0,0c1.8,0,3.3,1.5,3.3,3.3v8.4
		C242.1,381.8,241.4,382.5,240.4,382.5z"/>
</g>
<g>
	<path class="st3" d="M212.6,323c0,0-2.9,2-4.9,1.9c-2-0.1-4.9-2.1-4.9-2.1l0.1-8.2l9.7,0.2L212.6,323z"/>
	<path class="st4" d="M208.3,289.1c-5.7-0.1-10.5,4.4-10.6,10c0,2.7,0.9,5.3,2.5,7.4c0.8,1.3,2.1,3.8,2.3,5.5c0.2,1.4,0.2,2,0.2,2.6
		c0,0.4,0.3,0.7,0.8,0.7l8.8,0.2c0.4,0,0.8-0.3,0.8-0.7c0-0.6,0.1-1.3,0.4-2.7c0.4-2,2.2-4.9,2.8-5.8c1.4-1.9,2.3-4.3,2.3-6.7
		C218.7,293.8,214,289.2,208.3,289.1z"/>
	<polygon class="st5" points="203,315.7 212.7,315.9 212.7,316.6 203,317.3 	"/>
	
		<rect x="207.2" y="313.5" transform="matrix(1.717197e-02 -0.9999 0.9999 1.717197e-02 -114.0076 520.6631)" class="st5" width="1.2" height="9.7"/>
	<polygon class="st5" points="203,319.3 212.7,319.5 212.7,320.3 202.9,320.8 	"/>
	
		<rect x="207.5" y="316.7" transform="matrix(1.717197e-02 -0.9999 0.9999 1.717197e-02 -117.2874 523.7782)" class="st5" width="0.5" height="9.7"/>
	<path class="st5" d="M212.6,323c0,0-2.9,2-4.9,1.9c-2-0.1-4.9-2.1-4.9-2.1l0-0.6l9.7,0.2L212.6,323z"/>
	<path class="st6" d="M207.2,315.4c0,0,0-0.1,0-0.1c0-2,0.1-4,0.1-6c0.1-2.1,0.4-4.1,0.4-6.2c0-0.8,0-1.7,0.1-2.5
		c0-0.7,0-1.3-0.4-1.9c-0.6-1-2-1-2.8-0.3c-0.9,0.8-1.1,2.2-0.7,3.2c0.4,1.1,1.3,1.8,2.4,2.2c1.9,0.7,5,0.3,6-1.7
		c0.5-1.1,0.5-2.8-0.5-3.7c-0.4-0.4-1-0.5-1.6-0.3c-0.7,0.2-1.1,0.9-1.2,1.6c-0.2,0.9-0.2,1.8-0.2,2.7c-0.1,1.5-0.1,2.9-0.1,4.4
		c-0.1,2.8-0.5,5.7-0.6,8.5c0,0,0,0.1,0,0.1l0.7,0c0,0,0-0.1,0-0.1c0.1-2.1,0.3-4.1,0.4-6.2c0.2-2.1,0.1-4.3,0.2-6.5
		c0-1-0.2-3.5,1-4c1.2-0.4,1.6,1.1,1.6,1.9c0,2.7-3.7,3.2-5.7,2.4c-1.3-0.5-2.1-1.8-1.7-3.2c0.2-0.6,0.7-1.3,1.3-1.3
		c1-0.1,1.3,0.9,1.4,1.7c0.1,2.4-0.2,4.9-0.4,7.3c-0.2,2.6-0.2,5.2-0.2,7.8c0,0,0,0.1,0,0.1L207.2,315.4z"/>
</g>
</svg>
