<?xml version="1.0" encoding="utf-8"?>
<!-- Generator: Adobe Illustrator 20.1.0, SVG Export Plug-In . SVG Version: 6.00 Build 0)  -->
<svg version="1.1" id="Слой_1" xmlns="http://www.w3.org/2000/svg" xmlns:xlink="http://www.w3.org/1999/xlink" x="0px" y="0px"
	 viewBox="0 0 225.8 192.7" style="enable-background:new 0 0 225.8 192.7;" xml:space="preserve">
<style type="text/css">
	.st0{fill:#62C7D7;}
	.st1{fill:#828282;}
	.st2{opacity:0.2;fill:#FFFFFF;}
	.st3{fill:#FFFFFF;}
	.st4{fill:#549465;}
	.st5{fill:#F7F1E6;}
	.st6{fill:#232323;}
	.st7{fill:#D64329;}
	.st8{fill:#6CA2D7;}
	.st9{fill:#EF4F24;}
	.st10{fill:#DD4A21;}
	.st11{fill:#E3E4E5;}
	.st12{opacity:0.7;fill:#FFFFFF;}
	.st13{fill:#0F3041;}
	.st14{fill:#FAAE3E;}
	.st15{fill:#F05C42;}
	.st16{fill:#0C8485;}
	.st17{opacity:0.5;fill:#232323;}
	.st18{opacity:5.000000e-02;fill:#231F20;}
	.st19{fill:#FFA6D9;}
	.st20{fill:#4D4D4D;}
	.st21{opacity:0.2;fill:#828282;}
	.st22{opacity:0.1;fill:#231F20;}
	.st23{opacity:0.25;fill:#FFFFFF;}
</style>
<polygon class="st20" points="133.3,187.8 90.8,187.8 94.1,145.4 130,145.4 "/>
<rect x="9.3" y="43" class="st0" width="206.9" height="106.1"/>
<path class="st1" d="M225.7,45.4c0-7.5-6.1-13.5-13.5-13.5H13.3C5.8,31.9-0.2,38-0.2,45.4v103.6h9.5v-106h206.9v106h9.5V45.4z"/>
<path class="st1" d="M-0.2,149.1v7.6c0,7.5,6.1,13.5,13.5,13.5h198.9c7.5,0,13.5-6.1,13.5-13.5v-7.6H-0.2z"/>
<circle class="st21" cx="112.1" cy="160.7" r="4.1"/>
<path class="st1" d="M152.6,186.4h-81c-1.8,0-3.3,0.7-3.3,1.6v2.6c0,0.9,1.5,1.6,3.3,1.6h81c1.8,0,3.3-0.7,3.3-1.6V188
	C155.9,187.1,154.4,186.4,152.6,186.4z"/>
<rect x="9.3" y="43" class="st22" width="207" height="1.7"/>
<rect x="9.2" y="147.4" class="st18" width="207" height="1.7"/>
<rect x="9.3" y="123.7" class="st4" width="207" height="25.4"/>
<g>
	<rect x="32.3" y="72.7" class="st5" width="73.9" height="69.3"/>
	<g>
		<rect x="77" y="57.9" class="st6" width="6.9" height="7.8"/>
		<polygon class="st7" points="32.3,72.6 106.2,72.6 97.9,64.5 39.6,64.5 		"/>
	</g>
	<g>
		<g>
			<g>
				<rect x="42.4" y="82.4" class="st8" width="8.6" height="22.5"/>
				<path class="st6" d="M51.4,105.3H42V82h9.4V105.3z M42.8,104.5h7.8V82.8h-7.8V104.5z"/>
			</g>
			<rect x="46.5" y="77.6" class="st6" width="0.6" height="27.5"/>
			<rect x="42.4" y="92.4" class="st6" width="8.8" height="0.4"/>
			<rect x="42.4" y="99" class="st6" width="8.7" height="0.4"/>
			<path class="st3" d="M40,86.5h13.5c0,0,0.8-7.3-6.4-8.2C47.2,78.3,40.8,78.6,40,86.5z"/>
			<path class="st9" d="M47.2,78.3c0,0-4.6,0.1-4.9,8.2h2.3C44.5,86.5,44.3,79.7,47.2,78.3z"/>
			<path class="st9" d="M46.8,78.3c0,0,3.7,0.1,3.9,8.2h-2.1C48.7,86.5,48.8,79.7,46.8,78.3z"/>
		</g>
		<g>
			<g>
				<rect x="65.1" y="82.8" class="st8" width="8.6" height="22.5"/>
				<path class="st6" d="M74.1,105.3h-9.4V82h9.4V105.3z M65.5,104.5h7.8V82.8h-7.8V104.5z"/>
			</g>
			<rect x="69.2" y="77.6" class="st6" width="0.6" height="27.3"/>
			<rect x="65.1" y="92.4" class="st6" width="8.6" height="0.4"/>
			<rect x="65.1" y="99" class="st6" width="8.6" height="0.4"/>
			<path class="st3" d="M62.5,86.5H76c0,0,0.8-7.3-6.4-8.2C69.6,78.3,63.3,78.6,62.5,86.5z"/>
			<path class="st9" d="M69.8,78.3c0,0-4.6,0.1-4.9,8.2h2.3C67.1,86.5,67,79.7,69.8,78.3z"/>
			<path class="st9" d="M69.5,78.3c0,0,3.7,0.1,3.9,8.2h-2.1C71.3,86.5,71.5,79.7,69.5,78.3z"/>
		</g>
		<g>
			<g>
				<rect x="87.5" y="82.4" class="st8" width="8.6" height="22.5"/>
				<path class="st6" d="M96.4,105.3h-9.4V82h9.4V105.3z M87.9,104.5h7.8V82.8h-7.8V104.5z"/>
			</g>
			<rect x="91.5" y="77.6" class="st6" width="0.6" height="27.3"/>
			<rect x="87.5" y="92.4" class="st6" width="8.4" height="0.4"/>
			<rect x="87.5" y="99" class="st6" width="8.4" height="0.4"/>
			<path class="st3" d="M84.9,86.5h13.5c0,0,0.8-7.3-6.4-8.2C92.1,78.3,85.7,78.6,84.9,86.5z"/>
			<path class="st9" d="M92.3,78.3c0,0-4.6,0.1-4.9,8.2h2.3C89.6,86.5,89.4,79.7,92.3,78.3z"/>
			<path class="st9" d="M91.9,78.3c0,0,3.7,0.1,3.9,8.2h-2.1C93.8,86.5,93.9,79.7,91.9,78.3z"/>
		</g>
	</g>
	<g>
		<path class="st6" d="M69.2,121.7h-1H44.7V142h1h0.5h21.9h1h22.5h1h1v-20.3H69.2z"/>
		<g>
			<rect x="46.3" y="122.9" class="st8" width="21.9" height="12.8"/>
			<rect x="69.2" y="122.9" class="st8" width="22.5" height="12.8"/>
		</g>
	</g>
	<g>
		<g>
			<rect x="43.7" y="114.2" class="st10" width="7.3" height="11.8"/>
			<rect x="43.7" y="113" class="st9" width="7.3" height="10.3"/>
			<rect x="51" y="114.2" class="st11" width="7.4" height="11.8"/>
			<rect x="51" y="113" class="st3" width="7.4" height="10.3"/>
			<rect x="58.3" y="114.2" class="st10" width="7.3" height="11.8"/>
			<rect x="58.3" y="113" class="st9" width="7.3" height="10.3"/>
			<rect x="65.6" y="114.2" class="st11" width="7.3" height="11.8"/>
			<rect x="65.6" y="113" class="st3" width="7.3" height="10.3"/>
			<rect x="72.9" y="114.2" class="st10" width="7.4" height="11.8"/>
			<rect x="72.9" y="113" class="st9" width="7.4" height="10.3"/>
			<rect x="80.2" y="114.2" class="st11" width="7.4" height="11.8"/>
			<rect x="80.2" y="113" class="st3" width="7.4" height="10.3"/>
			<rect x="87.4" y="114.2" class="st10" width="7.4" height="11.8"/>
			<rect x="87.4" y="113" class="st9" width="7.4" height="10.3"/>
		</g>
	</g>
</g>
<g>
	<rect x="139" y="65.7" class="st12" width="63.8" height="52.1"/>
	<g>
		<rect x="142.8" y="70" class="st13" width="56" height="9.8"/>
		<rect x="184" y="82.8" class="st14" width="15" height="14.2"/>
		<rect x="163.5" y="82.8" class="st15" width="15" height="14.2"/>
		<rect x="143.1" y="82.8" class="st16" width="15" height="14.2"/>
		<rect x="184.3" y="100.5" class="st15" width="15" height="14.2"/>
		<rect x="163.8" y="100.5" class="st16" width="15" height="14.2"/>
		<rect x="143.4" y="100.5" class="st14" width="15" height="14.2"/>
	</g>
</g>
<g>
	<rect x="111.6" y="50.1" class="st17" width="91" height="3.4"/>
	<rect x="152" y="56.1" class="st17" width="50.4" height="3.4"/>
</g>
<g>
	<g>
		<circle class="st19" cx="111.8" cy="37.5" r="6.8"/>
		<path class="st19" d="M128.1,21c-0.1-0.1-0.2-0.2-0.3-0.3l-0.3-0.3c-0.1-0.1-0.1-0.1-0.2-0.1c-8.8-8-22.4-7.7-30.8,0.7l-1,1
			l-1.4,1.4c-1.7,1.7-1.7,4.4,0,6.1c1.7,1.7,4.4,1.7,6.1,0l2.4-2.4c5.4-5.4,14.1-5.4,19.5,0l1.7,1.7c1.7,1.7,4.3,1.6,6,0
			c0.8-0.8,1.2-1.9,1.2-3c0-1.1-0.4-2.2-1.2-3L128.1,21z"/>
		<path class="st19" d="M139.8,12.5l-1.4-1.4c0,0,0,0,0,0l-1.1-1.1c-0.2-0.2-0.4-0.4-0.6-0.5c-14.4-12.7-36.3-12.3-50.3,1.2
			c-0.1,0.1-0.1,0.1-0.2,0.2l-2.6,2.6c-1.5,1.5-1.5,4,0,5.5c1.5,1.5,4,1.5,5.5,0l2.6-2.6c0,0,0,0,0-0.1c11.3-10.9,29.2-11,40.6-0.2
			l2,2c1.5,1.5,4,1.5,5.5,0C141.3,16.5,141.3,14.1,139.8,12.5z"/>
	</g>
</g>
</svg>
