<svg id="Layer_2" data-name="Layer 2" xmlns="http://www.w3.org/2000/svg" viewBox="0 0 100 100"><defs><style>.cls-1{fill:#4d6172;}</style></defs><title>Service &amp;amp; Featured Icons x</title><path class="cls-1" d="M27.73,59.88l-0.22,0a10.43,10.43,0,0,0-1.84.13,9,9,0,0,0-1.23.27c-0.46.12-.92,0.25-1.36,0.41a13.09,13.09,0,0,0-3.19,1.68,13.78,13.78,0,0,0-3.39,3.46,12.9,12.9,0,0,0-1.17,2.1,15,15,0,0,0-.58,1.59c-0.15.49-.27,1-0.38,1.49a7.39,7.39,0,0,0-.12.94,10.63,10.63,0,0,0-.09,1.72c0,0.6.11,1.19,0.17,1.79a6.58,6.58,0,0,0,.14.91c0.13,0.52.28,1,.45,1.55a13.68,13.68,0,0,0,3.95,5.81,12.37,12.37,0,0,0,2.55,1.73c0.51,0.25,1,.5,1.54.71a8.29,8.29,0,0,0,1.11.34c0.55,0.14,1.1.28,1.65,0.37a15.45,15.45,0,0,0,1.62.14,11.53,11.53,0,0,0,2.22-.11c0.49-.07,1-0.19,1.44-0.29a10.92,10.92,0,0,0,2.22-.75c0.45-.2.39-0.13,0.21-0.5-0.5-1.05-1-2.1-1.52-3.15-0.37-.77-0.72-1.54-1.09-2.31l-1.1-2.28L29,76.06,28.2,74.4c-0.14-.3-0.29-0.59-0.42-0.89a0.81,0.81,0,0,1,0-.32q0-4.66,0-9.32v-4Z"/><path class="cls-1" d="M35.6,86.25c0.23-.11.43-0.19,0.62-0.3a14,14,0,0,0,3-2.27,13.59,13.59,0,0,0,1.83-2.24,12.57,12.57,0,0,0,1-1.77c0.22-.49.41-1,0.58-1.51s0.28-1,.39-1.46c0.06-.27.08-0.54,0.13-0.81a9.21,9.21,0,0,0,.11-1.59c0-.28,0-0.29-0.3-0.29H30.29a0.7,0.7,0,0,0-.51.08Z"/><path class="cls-1" d="M58,62.45h9.32a4.19,4.19,0,0,0,.42,0,0.19,0.19,0,0,1,.07,0,1.14,1.14,0,0,0,.54,0,1.83,1.83,0,0,0,1.41-.91A1.87,1.87,0,0,0,70,60a2,2,0,0,0-1.12-1.43,2.21,2.21,0,0,0-1-.19H48.3a2,2,0,0,0-2,1.43,2,2,0,0,0,1.15,2.43,2.08,2.08,0,0,0,.53.12,12.34,12.34,0,0,0,1.85.06H58Z"/><path class="cls-1" d="M27,45H17.22a2,2,0,0,0-1.83,1,1.91,1.91,0,0,0-.21,1.41A2,2,0,0,0,16,48.74a2.17,2.17,0,0,0,1.18.33H34.1l1.18,0,1.4,0a2.64,2.64,0,0,0,1-.17,1.85,1.85,0,0,0,1.06-1A2,2,0,0,0,38,45.39a2,2,0,0,0-.63-0.27,3.83,3.83,0,0,0-1-.07H27Z"/><path class="cls-1" d="M27,24.47H36.9a2,2,0,0,0,2-1.48,1.94,1.94,0,0,0-1-2.28,1.71,1.71,0,0,0-.81-0.22H17.26A2.13,2.13,0,0,0,16,20.8a1.86,1.86,0,0,0-.84,1.2,2.07,2.07,0,0,0-.07.39,2,2,0,0,0,1.39,2,2.15,2.15,0,0,0,.66.09H27Z"/><path class="cls-1" d="M58.16,74.71h9.75a2.42,2.42,0,0,0,.81-0.1,2,2,0,0,0,1.33-2.12,2,2,0,0,0-1.77-1.76c-0.16,0-.32,0-0.48,0H48.48a2.23,2.23,0,0,0-1.45.42,2,2,0,0,0,.43,3.41,1.43,1.43,0,0,0,.65.16H58.16Z"/><path class="cls-1" d="M58.15,87h9.67a3.23,3.23,0,0,0,.77-0.08,2,2,0,0,0,0-3.85A1.84,1.84,0,0,0,68,83H48.29a2,2,0,0,0-1.64.79,1.87,1.87,0,0,0-.39,1.26,1.94,1.94,0,0,0,.57,1.34,2,2,0,0,0,1.25.59c0.15,0,.3,0,0.45,0h9.62Z"/><path class="cls-1" d="M27,32.77h-9.7A2.12,2.12,0,0,0,16.2,33a2,2,0,0,0-1,1.35A2,2,0,0,0,17,36.77H36.65a2.84,2.84,0,0,0,.84-0.09,1.92,1.92,0,0,0,1.29-1.15,2,2,0,0,0-.62-2.35A1.88,1.88,0,0,0,37,32.77H27Z"/><path class="cls-1" d="M29.2,71.94V58.44a13.28,13.28,0,0,1,9.46,3.84,13.6,13.6,0,0,1,4.1,9.65C42.48,72,29.4,72,29.2,71.94Zm12.59-1.62c0-.29-0.1-0.57-0.16-0.86s-0.15-.72-0.26-1.06-0.31-.89-0.48-1.33A10.62,10.62,0,0,0,39.79,65a13,13,0,0,0-1.28-1.63,12.85,12.85,0,0,0-2.25-1.94,12.71,12.71,0,0,0-2.17-1.18,13.27,13.27,0,0,0-1.63-.56,10.27,10.27,0,0,0-2.24-.38l-0.17,0c-0.06.21-.06,11.54,0,11.79H41.84C41.82,70.84,41.82,70.58,41.79,70.31Z"/><path class="cls-1" d="M75,53.5V89.11c0,0.17-.21.34-0.22,0.5a2.29,2.29,0,0,1-.26.8,1.74,1.74,0,0,1-1.48,1c-0.21,0-.47,0-0.68,0H13.75c-0.25,0-.5,0-0.75,0a1.62,1.62,0,0,1-.51-0.11,2,2,0,0,1-1.28-1.48c0-.33-0.21-0.68-0.21-1V16.23a4.83,4.83,0,0,1,.22-0.58,1.78,1.78,0,0,1,.25-0.52,1.59,1.59,0,0,1,1.48-.78c0.28,0,21.05-.23,31.05-0.23V11.21c-11,0-32.09.15-32.78,0.17a3.26,3.26,0,0,0-1.87,1.08,4.61,4.61,0,0,0-1.06,3.28q0,18.54,0,37.08t0,37a4.18,4.18,0,0,0,.11,1.12A5,5,0,0,0,9,92.24a4.86,4.86,0,0,0,2.24,1.95,4.25,4.25,0,0,0,1.72.35H72.78a4.82,4.82,0,0,0,1.12-.07,4.94,4.94,0,0,0,1.44-.58,4.83,4.83,0,0,0,1.93-2.19,6.07,6.07,0,0,0,.37-1.29,7.1,7.1,0,0,0,.09-1.55c0-11.82,0-23.35,0-35.35H75Z"/><path class="cls-1" d="M62.54,47.87v-1q0-4.13,0-8.26a6.69,6.69,0,0,1,0-.74,0.89,0.89,0,0,1,1.77-.09,4.23,4.23,0,0,1,0,.82q0,4.13,0,8.26v1h5.14V46.94q0-3.39,0-6.78a4.14,4.14,0,0,1,0-.74,0.9,0.9,0,0,1,1.78,0,3.85,3.85,0,0,1,0,.66q0,3.39,0,6.78v1h5.15v-1q0-5.58,0-11.16a4.23,4.23,0,0,1,.09-1,0.87,0.87,0,0,1,1.71.08,5.48,5.48,0,0,1,0,.82q0,5.62,0,11.24v1h5.2v-1q0-10.54,0-21.07a7.53,7.53,0,0,1,0-.83,0.89,0.89,0,0,1,.79-0.83,0.88,0.88,0,0,1,1,.71,4.59,4.59,0,0,1,.06,1q0,10.5,0,21c0,0.33,0,.65,0,1h5.1c0-.32,0-0.66,0-1q0-13.68,0-27.36a6.45,6.45,0,0,1,0-.83,0.9,0.9,0,0,1,.94-0.86,0.87,0.87,0,0,1,.88.9c0,0.22,0,.44,0,0.66q0,14.46,0,28.93c0,0.19,0,.39,0,0.58a0.84,0.84,0,0,1-.88.88c-0.19,0-.39,0-0.58,0H49.57c-0.19,0-.39,0-0.58,0a0.92,0.92,0,0,1-1-1c0-.19,0-0.39,0-0.58q0-19.38,0-38.76a5.91,5.91,0,0,1,0-.74,0.84,0.84,0,0,1,.8-0.8,0.87,0.87,0,0,1,1,.7,5.11,5.11,0,0,1,0,1q0,17.64,0,35.29v0.95L50,45.87c0.23-.33.47-0.65,0.69-1L62.53,27.54c0.11-.16.21-0.33,0.33-0.47a0.86,0.86,0,0,1,1.23-.29c0.27,0.13.53,0.29,0.79,0.45l5.61,3.33c0.24,0.14.48,0.26,0.84,0.45Q79.38,19.92,87.38,8.83l-0.09-.16-2.47.49C84.2,9.29,83.59,9.43,83,9.55a0.94,0.94,0,0,1-1-.29A0.81,0.81,0,0,1,82.3,8a6,6,0,0,1,1.11-.3l5.5-1.14c1.07-.22,1.41,0,1.66,1,0.51,2.17,1,4.35,1.48,6.52a0.89,0.89,0,1,1-1.69.34c-0.34-1.42-.65-2.84-1-4.26,0-.21-0.13-0.41-0.22-0.71-0.25.32-.44,0.54-0.61,0.78l-15.94,22,0,0.07c-0.67.91-.92,1-1.92,0.38l-4-2.36-2.79-1.65L50.8,47.88h4.7c0-.55,0-1.07,0-1.58a4.82,4.82,0,0,1,0-.82,0.92,0.92,0,0,1,.92-0.8,0.9,0.9,0,0,1,.87.92c0,0.55,0,1.1,0,1.65,0,0.19,0,.38,0,0.62h5.16Z"/><path class="cls-1" d="M57.33,16.83q0,4.71,0,9.42a5,5,0,0,1,0,.74,0.84,0.84,0,0,1-.78.74,0.81,0.81,0,0,1-.91-0.56,2.44,2.44,0,0,1-.12-0.81q0-9.54,0-19.09a2.45,2.45,0,0,1,.12-0.81,0.88,0.88,0,0,1,1.69.19,5.08,5.08,0,0,1,0,.74Q57.34,12.12,57.33,16.83Z"/><path class="cls-1" d="M71.36,14.54q0,3.79,0,7.59a6.55,6.55,0,0,1,0,.66,0.88,0.88,0,0,1-.88.9,0.89,0.89,0,0,1-.94-0.93c0-.14,0-0.27,0-0.41q0-7.84,0-15.67c0-.87.31-1.31,0.89-1.33s0.94,0.45.94,1.36Q71.36,10.62,71.36,14.54Z"/><path class="cls-1" d="M62.54,12.25q0-3,0-6a4.5,4.5,0,0,1,0-.66,0.85,0.85,0,0,1,.83-0.77,0.82,0.82,0,0,1,.89.59,2.39,2.39,0,0,1,.1.73q0,6.11,0,12.22a2.5,2.5,0,0,1-.09.73,0.84,0.84,0,0,1-1,.61,0.83,0.83,0,0,1-.77-0.74,5.52,5.52,0,0,1,0-.74Q62.54,15.22,62.54,12.25Z"/><path class="cls-1" d="M78.35,10.58q0,1.9,0,3.8a4,4,0,0,1,0,.66,0.89,0.89,0,0,1-1.69.15,2.65,2.65,0,0,1-.11-0.81q0-3.8,0-7.6a3.18,3.18,0,0,1,0-.66,0.92,0.92,0,0,1,.93-0.78,0.88,0.88,0,0,1,.84.86c0,0.55,0,1.1,0,1.65C78.35,8.77,78.35,9.67,78.35,10.58Z"/></svg>