<svg id="Layer_2" data-name="Layer 2" xmlns="http://www.w3.org/2000/svg" viewBox="0 0 100 100"><defs><style>.cls-1{fill:#4d6172;}</style></defs><title>Service &amp;amp; Featured Icons x</title><path class="cls-1" d="M45.58,22.32c0,0.78,0,1.55,0,2.33a1.18,1.18,0,0,1-1.27,1.27q-2.33,0-4.65,0a1.17,1.17,0,0,1-1.26-1.27q0-2.33,0-4.65a1.16,1.16,0,0,1,1.27-1.26q2.33,0,4.65,0A1.18,1.18,0,0,1,45.57,20C45.59,20.77,45.58,21.54,45.58,22.32Zm-4.75-1.18v2.33h2.31V21.14H40.82Z"/><path class="cls-1" d="M54,18.72c0.78,0,1.55,0,2.33,0A1.17,1.17,0,0,1,57.6,20q0,2.33,0,4.65a1.17,1.17,0,0,1-1.27,1.27q-2.33,0-4.65,0a1.17,1.17,0,0,1-1.26-1.27q0-2.33,0-4.65a1.17,1.17,0,0,1,1.27-1.26C52.46,18.71,53.23,18.72,54,18.72Zm1.16,4.78V21.16H52.85V23.5h2.32Z"/><path class="cls-1" d="M45.58,34.38c0,0.75,0,1.5,0,2.25a1.19,1.19,0,0,1-1.3,1.31q-2.29,0-4.58,0a1.19,1.19,0,0,1-1.31-1.3q0-2.29,0-4.58a1.18,1.18,0,0,1,1.3-1.31q2.29,0,4.58,0a1.19,1.19,0,0,1,1.32,1.3C45.59,32.83,45.58,33.6,45.58,34.38Zm-4.79,1.14h2.35V33.19H40.79v2.33Z"/><path class="cls-1" d="M54,30.75c0.78,0,1.55,0,2.33,0A1.17,1.17,0,0,1,57.6,32q0,2.33,0,4.65a1.17,1.17,0,0,1-1.27,1.26q-2.33,0-4.65,0a1.17,1.17,0,0,1-1.26-1.27q0-2.33,0-4.65a1.17,1.17,0,0,1,1.27-1.26C52.46,30.74,53.24,30.75,54,30.75Zm1.17,4.78V33.18H52.84v2.35h2.34Z"/><path class="cls-1" d="M41.93,50c-0.75,0-1.5,0-2.25,0a1.19,1.19,0,0,1-1.3-1.31q0-2.29,0-4.58a1.18,1.18,0,0,1,1.31-1.3q2.29,0,4.58,0a1.19,1.19,0,0,1,1.3,1.31q0,2.29,0,4.58A1.19,1.19,0,0,1,44.26,50C43.48,50,42.71,50,41.93,50Zm1.2-2.42V45.23h-2.3v2.33h2.3Z"/><path class="cls-1" d="M57.61,46.38c0,0.78,0,1.55,0,2.33A1.18,1.18,0,0,1,56.34,50Q54,50,51.69,50a1.17,1.17,0,0,1-1.27-1.26q0-2.33,0-4.65a1.16,1.16,0,0,1,1.26-1.27q2.33,0,4.65,0a1.18,1.18,0,0,1,1.27,1.26C57.62,44.82,57.61,45.6,57.61,46.38Zm-4.78,1.16h2.34V45.23H52.83v2.31Z"/><path class="cls-1" d="M45.58,58.45c0,0.75,0,1.5,0,2.25A1.19,1.19,0,0,1,44.26,62Q42,62,39.69,62a1.18,1.18,0,0,1-1.3-1.31q0-2.29,0-4.58a1.18,1.18,0,0,1,1.3-1.3q2.29,0,4.58,0a1.19,1.19,0,0,1,1.31,1.3C45.59,56.9,45.58,57.67,45.58,58.45Zm-2.41-1.19H40.82v2.31h2.34V57.26Z"/><path class="cls-1" d="M20.32,50c-0.78,0-1.55,0-2.33,0a1.17,1.17,0,0,1-1.26-1.27q0-2.33,0-4.65A1.17,1.17,0,0,1,18,42.79q2.33,0,4.65,0a1.17,1.17,0,0,1,1.26,1.27q0,2.33,0,4.65A1.19,1.19,0,0,1,22.64,50c-0.77,0-1.55,0-2.33,0h0Zm-1.17-2.45h2.35V45.21H19.15v2.32Z"/><path class="cls-1" d="M23.92,34.38c0,0.75,0,1.5,0,2.25a1.21,1.21,0,0,1-1.3,1.31q-2.29,0-4.58,0a1.19,1.19,0,0,1-1.31-1.3q0-2.29,0-4.58A1.19,1.19,0,0,1,18,30.75q2.29,0,4.58,0a1.19,1.19,0,0,1,1.31,1.3c0,0.77,0,1.55,0,2.33h0Zm-4.78,1.14h2.35V33.18H19.14v2.34Z"/><path class="cls-1" d="M16.72,58.34c0-.75,0-1.5,0-2.25A1.18,1.18,0,0,1,18,54.82q2.33,0,4.65,0a1.17,1.17,0,0,1,1.27,1.26q0,2.33,0,4.65A1.18,1.18,0,0,1,22.65,62Q20.33,62,18,62a1.19,1.19,0,0,1-1.28-1.34C16.71,59.89,16.72,59.12,16.72,58.34Zm2.44-1.11v2.34h2.31V57.23H19.17Z"/><path class="cls-1" d="M20.37,66.85c0.75,0,1.5,0,2.25,0a1.19,1.19,0,0,1,1.3,1.32q0,2.29,0,4.58A1.2,1.2,0,0,1,22.6,74q-2.29,0-4.58,0a1.19,1.19,0,0,1-1.3-1.32q0-2.29,0-4.58A1.2,1.2,0,0,1,18,66.85c0.77,0,1.55,0,2.33,0h0Zm-1.23,4.77h2.35V69.28H19.14v2.34Z"/><path class="cls-1" d="M64.86,59.47l2.85,0.76,2.81-2.73,3.09,1.77-0.87,3.51,2,2.21,3.73-1L80.29,67l-2.68,2.83L78.5,73l3.71,1v3.58l-3.72,1.07-0.79,3,2.72,2.78L78.6,87.56,75,86.64l-2.13,2,1,3.68-3.08,1.81-2.83-2.7-3.06.85L63.8,96H60.2L59.14,92.3l-2.84-.75-2.79,2.74L50.41,92.5l0.9-3.58-2-2.16-3.77,1-1.83-3,2.68-2.85-0.9-3.16-3.7-1V74.09l3.72-1,0.8-3-2.72-2.8,1.81-3.08,3.68,0.93,2.07-2-1-3.67,3.09-1.82,2.82,2.69,3.07-.84,1.06-3.71H63.8ZM75.1,75.75a13.09,13.09,0,1,0-13,13.18A13.09,13.09,0,0,0,75.1,75.75Z"/><path class="cls-1" d="M53.5,73.24a2.39,2.39,0,0,0,0-1.09,9.41,9.41,0,0,0-1,3.95c0,1.46,1,2.84,1,4.06V73.24Z"/><path class="cls-1" d="M81.6,61.46l-1.76,1.69-1.93-1.1,0.56-2.25-1.23-1.36-2.39.62-1.13-1.89,1.67-1.81-0.56-2-2.31-.68V50.51l2.31-.69L75.34,48l-1.7-1.77,1.14-1.92L77,44.86l1.36-1.22-0.62-2.36,1.92-1.13,1.79,1.68,1.92-.53L84.08,39H86.3L87,41.31l1.78,0.47,1.76-1.71,1.92,1.11-0.53,2.18,1.17,1.42,2.41-.63,1.16,1.91L95,47.84l0.57,2,2.31,0.69v2.22l-2.33.7L95,55.24,96.73,57l-1.12,1.89-2.27-.56L92,59.64,92.6,62l-1.91,1.12-1.81-1.68L87,61.94l-0.66,2.29H84.06l-0.69-2.32Zm3.57-18a8.2,8.2,0,1,0,8.23,8.17A8.2,8.2,0,0,0,85.17,43.43Z"/><path class="cls-1" d="M81.39,35.78c1.2,0,2,.22,2.42,1.22h2.62a0.38,0.38,0,0,1-.09-0.2,4.86,4.86,0,0,0-4.75-3.72c-4.48,0-9-.08-13.44-0.08H67.5V32.31c0-5.76-.14-11.56-0.13-17.31,0-3.56-.91-5-4.18-6H32.8a2.18,2.18,0,0,0-.41.2,4.92,4.92,0,0,0-3.76,4.69c0,2.13-.13,4.28-0.13,6.4v0.8a4.88,4.88,0,0,1-.65,0H14.78c-2.89,0-4.39,1.16-5.23,3.93a0.55,0.55,0,0,0-.05.12V82a3.83,3.83,0,0,0,2,3,4.44,4.44,0,0,0,2.09.93H39.87l-1.13-1.66L39.26,84H31.5V82.88c0-22.93-.18-45.87-0.18-68.8a2.33,2.33,0,0,1,2.47-2.6H62.25a2.5,2.5,0,0,1,2.62,2.8c0,12.53,0,24.72,0,37.72h2l0.67,1.37V36h2.91C74.07,36,77.73,35.77,81.39,35.78ZM28.5,84H22c-2.48,0-5-.15-7.44-0.16a2.47,2.47,0,0,1-2.63-2.68q0-27.48,0-55a2.41,2.41,0,0,1,2.41-2.62c4.71,0,9.32,0,14,0a0.28,0.28,0,0,1,.17,0V84Z"/><path class="cls-1" d="M62,64.68a11.26,11.26,0,1,0,11.3,11.23A11.22,11.22,0,0,0,62,64.68ZM58.6,70A2.53,2.53,0,0,1,59.54,68a4.76,4.76,0,0,1,1.41-.86A1.34,1.34,0,0,1,61.82,67a8.38,8.38,0,0,1,1.85.7,5.13,5.13,0,0,1,1,.71,1.78,1.78,0,0,1,.59,1.16l0,0.3s-0.09.94-.14,1.41a0.31,0.31,0,0,0,.1.31,0.43,0.43,0,0,1,.14.37,2.82,2.82,0,0,1-.34,1.26,1.34,1.34,0,0,0-.13.31,5.32,5.32,0,0,1-1.16,2.24,2.71,2.71,0,0,1-1.32.87A1.94,1.94,0,0,1,61,76.47,4,4,0,0,1,59.52,75,5.77,5.77,0,0,1,59,73.71a3.17,3.17,0,0,0-.19-0.48,2.9,2.9,0,0,1-.31-1.2,0.47,0.47,0,0,1,.15-0.4,0.28,0.28,0,0,0,.08-0.26C58.68,70.93,58.62,70.49,58.6,70ZM69.34,82.74a10.83,10.83,0,0,1-3.19,2.09,10.2,10.2,0,0,1-2.55.72c-0.41.06-.82,0.08-1.23,0.11a8.83,8.83,0,0,1-1.46,0,10.38,10.38,0,0,1-2.38-.52,10.49,10.49,0,0,1-3.21-1.79c-0.28-.23-0.54-0.48-0.81-0.72a0.26,0.26,0,0,1-.08-0.17,6.25,6.25,0,0,1,.4-2.47,3.75,3.75,0,0,1,.68-1.17,3.35,3.35,0,0,1,1.24-.84c0.51-.21,1-0.41,1.54-0.63a6.13,6.13,0,0,0,1.37-.83c0.18-.14.2-0.14,0.39,0a7.87,7.87,0,0,0,.82.58,2.22,2.22,0,0,0,2.52-.2c0.19-.13.36-0.28,0.54-0.42a0.18,0.18,0,0,1,.28,0,7.89,7.89,0,0,0,2.1,1.16c0.37,0.15.74,0.29,1.1,0.45a2.8,2.8,0,0,1,1.24,1.05,4.87,4.87,0,0,1,.65,1.57,6.71,6.71,0,0,1,.16,1.21c0,0.15,0,.29,0,0.5A0.4,0.4,0,0,1,69.34,82.74Z"/><path class="cls-1" d="M62.31,78.08H61.54c-0.13-.18-0.25-0.37-0.38-0.56,0.1,0,1.38,0,1.52,0Z"/><path class="cls-1" d="M62,78.53l-0.13.14,0-.07-0.1-.13c-0.06,0,0,.14,0,0.13s-0.08-.19-0.19-0.22c0,0.13-.36,5.68-0.37,5.82L61.93,85l0.76-.78c0-.13-0.34-5.35-0.35-5.48C62.22,78.75,62.16,78.52,62,78.53Z"/><path class="cls-1" d="M85.1,44.65a7,7,0,1,0,7.11,6.88A6.95,6.95,0,0,0,85.1,44.65Zm-2.6,8.69v1.75h-2V53.36a0.27,0.27,0,0,0,.09.18,0.57,0.57,0,0,0,1,0c0.2-.24.57-0.48,0.77-0.73h0.2v0.55Zm1,1.75V52.54s0.59,0.34.71,0.45a0.62,0.62,0,0,0,.95,0,0.9,0.9,0,0,0,.34-0.48v2.59Zm6-3.68v3.66h-2s0-2.19,0-3.23a0.1,0.1,0,0,1,0-.09c0.27-.34.54-0.64,0.81-1l0,0c0.06,0.08.1,0.54,1.1,0.48v0.21Zm0-1.7a0.34,0.34,0,0,1-.25.19,0.35,0.35,0,0,1-.3-0.06l-0.71-.59-0.17-.15L88,49.21l-2.92,2.71a0.25,0.25,0,0,1-.41,0l-1.2-1-0.14-.11L83.16,51l-1.64,1.54a0.24,0.24,0,0,1-.4,0L80.49,52a0.16,0.16,0,0,1,0-.29L83,49.41a0.23,0.23,0,0,1,.37,0l1.29,1,0.12,0.09,2.32-2.22L87,48.2l-0.82-.7a0.3,0.3,0,0,1-.08-0.3A0.31,0.31,0,0,1,86.32,47H89a0.62,0.62,0,0,1,.49.38V49.7Z"/></svg>