<svg id="Layer_2" data-name="Layer 2" xmlns="http://www.w3.org/2000/svg" viewBox="0 0 100 100"><defs><style>.cls-1,.cls-2{fill:#4d6172;}.cls-1{stroke:#4d6172;stroke-miterlimit:10;}</style></defs><title>Service &amp;amp; Featured Icons x</title><path class="cls-1" d="M44,35.62h0.4a1.35,1.35,0,0,0,.27,0H44.8L45,35.53a1.49,1.49,0,0,0,.52-0.35,2,2,0,0,0,.41-0.61A1.72,1.72,0,0,0,46.11,34s0.11-1.24.12-1.32a2.57,2.57,0,0,0-.06-1A2.72,2.72,0,0,0,46,31.3a1.68,1.68,0,0,0-.53-0.66,1.36,1.36,0,0,0-.77-0.27l-0.34,0-1.3-.09a0.21,0.21,0,0,1-.21-0.17c0-.1,0-0.18-0.06-0.26l-0.13-.43,0-.12c0-.13-0.08-0.25-0.13-0.38s-0.12-.29-0.18-0.43l0-.11A7.22,7.22,0,0,0,42,27.71l-0.19-.34a0.22,0.22,0,0,1,0-.29L41.86,27l0.33-.35L42.8,26l0-.05a1.94,1.94,0,0,0,.23-0.28,1.54,1.54,0,0,0,.22-0.74,1.83,1.83,0,0,0-.07-0.54,1.77,1.77,0,0,0-.16-0.43,2.57,2.57,0,0,0-.59-0.73l-0.64-.58-0.11-.1A2.59,2.59,0,0,0,41,22l-0.3-.11-0.24,0a2.07,2.07,0,0,0-.9.08,1.43,1.43,0,0,0-.47.33L38.4,23l-0.22.23-0.34.37a0.24,0.24,0,0,1-.28.07l-0.37-.16-0.33-.13-0.12,0-0.21-.07-0.16-.05A4,4,0,0,0,35.91,23L35.71,23l-0.1,0H35.55l-0.17,0a0.63,0.63,0,0,0-.17,0l-0.08,0H35.06a1.18,1.18,0,0,1-.27,0h0a0.22,0.22,0,0,1-.19-0.21,1.93,1.93,0,0,0,0-.28s0-.09,0-0.14a0.74,0.74,0,0,0,0-.16,0.26,0.26,0,0,1,0-.07l-0.06-.37,0-.28,0-.11a3.43,3.43,0,0,0-.08-0.43A1.34,1.34,0,0,0,34,20.31a1.65,1.65,0,0,0-.45-0.41,1.8,1.8,0,0,0-.53-0.23l-0.37-.08a1.78,1.78,0,0,0-.56,0l-0.35.06-0.56.08a0.58,0.58,0,0,1-.22,0H30.94a1.15,1.15,0,0,1-.25.05l-0.14,0-0.07,0-0.29.1a2.08,2.08,0,0,0-1,.84,1.84,1.84,0,0,0-.15.37,1.45,1.45,0,0,0,0,.42,1.7,1.7,0,0,0,0,.2V22l0,0.12s0,0,0,.07v0.05l0,0.2,0,0.28,0,0.29,0,0.2,0,0.06a0.93,0.93,0,0,1,0,.32v0.07l-0.09.05-0.09,0a9,9,0,0,0-1,.6,8.29,8.29,0,0,0-.77.58l-0.3.26-0.16.14a0.2,0.2,0,0,1-.27,0l0,0-0.46-.26L25.78,25,25,24.51a1.4,1.4,0,0,0-.51-0.16,1.51,1.51,0,0,0-.64.06,2.05,2.05,0,0,0-.64.32,2.27,2.27,0,0,0-.62.7L21.89,26.6a2.52,2.52,0,0,0-.15.32,0.6,0.6,0,0,0,0,.1,0.92,0.92,0,0,1,0,.15,0.93,0.93,0,0,0,0,.24c0,0.06,0,.11,0,0.17a0.94,0.94,0,0,0,0,.33c0,0.06,0,.13,0,0.19l0,0.15a1.29,1.29,0,0,0,.08.21,1.69,1.69,0,0,0,.26.38,1.75,1.75,0,0,0,.46.34l1,0.55L23.87,30a0.24,0.24,0,0,1,.15.3,0.5,0.5,0,0,1,0,.07v0.1l-0.08.47,0,0.14v0.12l0,0.16c0,0.07,0,.14,0,0.2s0,0.08,0,.12,0,0.09,0,.13a6.18,6.18,0,0,0,0,1.16c0,0.05,0,.1,0,0.15a0.24,0.24,0,0,1-.16.26h0l-0.35.14L23,33.58l-0.31.12-0.44.18L22,34a1.37,1.37,0,0,0-.49.33,1.63,1.63,0,0,0-.45.92,0.26,0.26,0,0,1,0,.09,0.36,0.36,0,0,0,0,.14c0,0.11,0,.22,0,0.33a0.39,0.39,0,0,0,0,0,0.7,0.7,0,0,1,0,.21,0.48,0.48,0,0,0,0,.14,1,1,0,0,1,.05.16l0,0.09,0.08,0.21,0.36,0.89a3.44,3.44,0,0,0,.16.36,2.06,2.06,0,0,0,1,.94,1.25,1.25,0,0,0,.43.13l0.08,0a0.81,0.81,0,0,0,.32,0l0.19,0,0.11,0,0.43-.16,0.32-.13,0.24-.1,0.47-.19,0.25-.1,0.09,0a0.19,0.19,0,0,1,.16.09l0,0c0.25,0.29.45,0.51,0.64,0.7a9.32,9.32,0,0,0,.86.77l0.41,0.31L28,40.25a0.23,0.23,0,0,1,.1.31v0l-0.07.2-0.1.33-0.07.23,0,0.11-0.13.41,0,0.16c0,0.09,0,.17-0.06.24a0.93,0.93,0,0,0,0,.11v0.07a1.48,1.48,0,0,0,0,.4,0.72,0.72,0,0,0,0,.14l0,0.1a1.26,1.26,0,0,0,.19.36,2.11,2.11,0,0,0,.5.49,2.41,2.41,0,0,0,.49.27l0.33,0.11,0.13,0,0.36,0.11,0.19,0.06,0.15,0,0.09,0,0.16,0a1.34,1.34,0,0,0,.35.08h0.07a1.08,1.08,0,0,0,.32.14S31.06,45,31.09,45h0a0.47,0.47,0,0,0,.08-0.11,1.35,1.35,0,0,1,.21-0.1,0.63,0.63,0,0,0,.16-0.06l0.14-.07,0.1,0a1.5,1.5,0,0,0,.37-0.21,1.39,1.39,0,0,0,.45-0.57,3.05,3.05,0,0,0,.12-0.35l0.06-.2c0-.09.05-0.18,0.08-0.27l0-.14L33,42.71l0.13-.41,0.07-.23a0.25,0.25,0,0,1,.25-0.18h0.81a1.36,1.36,0,0,1,.29,0h0.25l0.1,0,0.4-.06h0l0.45-.1,0.17,0,0.17-.05,0.22-.07a0.23,0.23,0,0,1,.31.11l0.46,0.66,0.45,0.65a1.39,1.39,0,0,0,1,.62l0.09,0a1,1,0,0,0,.43,0l0.12,0a0.94,0.94,0,0,0,.23-0.05l0.13,0,0.09,0a3.19,3.19,0,0,0,.59-0.32l0.93-.64a2.88,2.88,0,0,0,.42-0.33,2.28,2.28,0,0,0,.37-0.46,2.4,2.4,0,0,0,.21-0.45,1,1,0,0,0,.06-0.25,3.2,3.2,0,0,0,0-.38A1.17,1.17,0,0,0,42,39.93l-0.29-.42-0.25-.36-0.24-.35-0.06-.09A1.7,1.7,0,0,1,41,38.47l0-.07L41,38.3l0.05-.08,0.06-.08,0.08-.1,0.32-.46A7.2,7.2,0,0,0,42,36.69l0.09-.17,0.19-.4c0.05-.12.1-0.24,0.14-0.36v0a0.25,0.25,0,0,1,.28-0.19l1,0.08H44Zm-1-.62H42.77a2.14,2.14,0,0,1-.39,0H42.19l-0.07.2c0,0.13-.09.25-0.14,0.37s-0.22.54-.38,0.84a9.44,9.44,0,0,1-.57,1c-0.18.26-.37,0.52-0.58,0.77l-0.22.28,0.91,1.3,0.38,0.54a0.79,0.79,0,0,1,.14.44,1.3,1.3,0,0,1-.21.7,2,2,0,0,1-.62.62l-0.36.24-0.57.39a2.31,2.31,0,0,1-.54.29,1.6,1.6,0,0,1-.67.08,1,1,0,0,1-.41-0.12A0.77,0.77,0,0,1,38,42.62L36.72,41a17.59,17.59,0,0,1-3,1h-1s0-.2,0-0.12,0,0-.07.06,0,0,0,.06,0,0,0,.07l-0.06.18,0,0.1,0,0.11,0,0.17-0.06.23-0.07.23-0.06.17,0,0.11c0,0.06,0,.12-0.06.18a0.89,0.89,0,0,1-.41.47,1.21,1.21,0,0,1-.57.18H30.71a1.41,1.41,0,0,1-.29-0.06h0L30,44l-0.35-.11-0.37-.11A2.39,2.39,0,0,1,29,43.7a1.64,1.64,0,0,1-.62-0.45,1.17,1.17,0,0,1-.25-0.48,0.74,0.74,0,0,1,0-.47,1.11,1.11,0,0,0,0-.12l0.07-.25,0.1-.36,0.07-.23L28.5,41l0-.15,0.07-.21,0.06-.19,0.08-.27,0-.07a0.16,0.16,0,0,1,0,0l-0.3-.19a8.91,8.91,0,0,1-1.81-1.51L26.32,38l-0.08-.09-0.18-.22-0.12-.15-0.6.24-0.22.08-0.2.08L24.69,38l-0.2.08-0.39.15-0.15.06-0.19.08a0.47,0.47,0,0,1-.17,0H23.5a1,1,0,0,1-.57-0.14,1.6,1.6,0,0,1-.59-0.57,2.42,2.42,0,0,1-.21-0.46L22,37l-0.25-.6-0.06-.16,0-.06a0.87,0.87,0,0,1-.06-0.27s0,0,0-.06,0-.06,0-0.08,0-.15,0-0.22,0-.07,0-0.11a1.11,1.11,0,0,1,.48-0.82,1,1,0,0,1,.21-0.1h0l0.29-.11,0.29-.11,0.2-.08,0.23-.1,0.3-.11,0.25-.1c0.14-.06.29,0.07,0.43,0L24.4,34h0V33.73a1.92,1.92,0,0,0,0-.36,0.82,0.82,0,0,1,0-.17V32.95c0-.17,0-0.36,0-0.53s0-.44,0-0.65V31.53a0.61,0.61,0,0,1,0-.08V31.37s0-.08,0-0.13v0a0.79,0.79,0,0,1,0-.23V30.9c0-.07.07-0.37,0.09-0.42l0-.13c0-.07,0-0.15,0-0.22s0-.14.06-0.21l0-.11-0.74-.42-0.54-.31L23,28.86l-0.26-.14-0.19-.11a0.86,0.86,0,0,1-.31-0.36,1,1,0,0,1-.12-0.5V27.47a0.9,0.9,0,0,1,.06-0.28l0-.06a2.28,2.28,0,0,1,.24-0.48l0.1-.16,0.36-.63L23,25.73a1.83,1.83,0,0,1,.57-0.61A1.15,1.15,0,0,1,24,24.94H24a0.79,0.79,0,0,1,.47,0,0.81,0.81,0,0,1,.35.14l0.08,0,0.47,0.27,0.28,0.16,0.5,0.28,0.62,0.35L27,26l0.26-.24A9.68,9.68,0,0,1,28.17,25a9.34,9.34,0,0,1,1.1-.67L29.86,24l0.07,0s0,0,0-.07a0.39,0.39,0,0,0,0-.15,0.31,0.31,0,0,1,0-.12,1.75,1.75,0,0,0,0-.25c0-.11,0-0.21,0-0.32l0-.15,0-.08v0a0.21,0.21,0,0,1,0-.07,1.36,1.36,0,0,0,0-.25c0-.05,0-0.11,0-0.16s-0.05-.33-0.08-0.5a1.29,1.29,0,0,1,0-.44,0.94,0.94,0,0,1,.08-0.25,1.34,1.34,0,0,1,.55-0.58,1.31,1.31,0,0,1,.37-0.16l0.09,0a1.49,1.49,0,0,1,.26,0l0.3,0,0.14,0h0.08l0.26,0a6.56,6.56,0,0,1,.69-0.09,1.48,1.48,0,0,1,1.18.47,0.88,0.88,0,0,1,.21.52,0.42,0.42,0,0,0,0,.07v0.07a0.58,0.58,0,0,1,0,.08,1.75,1.75,0,0,0,0,.25c0,0.1,0,.2,0,0.3l0,0.14L34,22.35l0.15,0.93h0l0.28,0h0.05a0.79,0.79,0,0,1,.19,0h0.15l0.13,0H35a1.27,1.27,0,0,1,.26,0l0.13,0,0.22,0,0.14,0L36,23.64l0.28,0.09,0.22,0.07,0.24,0.08L37.05,24l0.6,0.28,0.18,0.09,0.92-1,0.64-.7A0.94,0.94,0,0,1,40,22.39a1.2,1.2,0,0,1,.45,0,2,2,0,0,1,.92.51l0.2,0.19,0.65,0.6a1.86,1.86,0,0,1,.45.62,1.41,1.41,0,0,1,.09.74,0.61,0.61,0,0,1-.14.31l-0.22.25-0.58.63-0.55.59L41,27.15,41,27.25c0.16,0.25.35,0.55,0.51,0.86a7.69,7.69,0,0,1,.34.72l0,0.12c0.06,0.16.13,0.33,0.19,0.49s0.06,0.2.09,0.3L42.27,30l0.1,0.38c0,0.08,0,.16.05,0.23l0,0.11,0,0.09h0.34l0.31,0,0.19,0h0.2a5.67,5.67,0,0,1,.59,0h0.44a2.08,2.08,0,0,1,.36.05,0.77,0.77,0,0,1,.32.18,1.39,1.39,0,0,1,.35.5,1.87,1.87,0,0,1,.12.56v0.07a0.55,0.55,0,0,1,0,.1l0,0.54a0.9,0.9,0,0,1,0,.26v0.11c0,0.05,0,.1,0,0.15a1.73,1.73,0,0,1,0,.34c0,0.07,0,.14,0,0.2v0a1.59,1.59,0,0,1-.59.93,0.77,0.77,0,0,1-.49.16l-0.39,0-1-.06H42.93Z"/><path class="cls-2" d="M38.93,34.51l-0.45,0a0.29,0.29,0,0,1-.16-0.06l-4.21-3.78a0.16,0.16,0,0,0-.17,0c-0.5.13-1,.28-1.5,0.38a2,2,0,0,1-1.51-.24,1.63,1.63,0,0,1-.61-0.68,0.42,0.42,0,0,1,.26-0.59c0.9-.26,1.76-0.6,2.63-0.93a2.11,2.11,0,0,1,.87-0.14,1.2,1.2,0,0,1,.34.09l2.58,1a0.27,0.27,0,0,0,.15,0l1.93-.53a0.11,0.11,0,0,1,.15,0,8.07,8.07,0,0,1,.72,1.19c0.55,1.07,1,2.18,1.47,3.29a0.09,0.09,0,0,1,0,.11,2.89,2.89,0,0,1-1.6.87c-0.28.05-.56,0.07-0.84,0.11v0Z"/><path class="cls-2" d="M29.85,34.5a0.84,0.84,0,0,1,.91.39,0.77,0.77,0,0,1-.12,1,2.68,2.68,0,0,1,.33,0A0.81,0.81,0,0,1,31.58,37a0.77,0.77,0,0,1-.12.18l-0.7.77a0.77,0.77,0,0,1-1.09,0,22.32,22.32,0,0,1-1.73-2l-1-1.35a1.25,1.25,0,0,1-.3-0.68,0.6,0.6,0,0,1,.17-0.47l0.57-.6a0.83,0.83,0,0,1,1.31.22c0,0.06.06,0.13,0.09,0.2a0.84,0.84,0,0,1,1,.17A0.82,0.82,0,0,1,29.85,34.5Z"/><path class="cls-2" d="M31.36,38.14l0.45-.49,0.07,0.06,0.58,0.58a0.78,0.78,0,0,0,1.22-.19L33.62,38,32.18,36.6a0.27,0.27,0,0,1-.06-0.32,0.26,0.26,0,0,1,.27-0.15,0.41,0.41,0,0,1,.2.1c0.62,0.62,1.24,1.23,1.86,1.86a0.64,0.64,0,0,0,.62.18,0.83,0.83,0,0,0,.63-0.51,0.12,0.12,0,0,0,0-.15L33,34.94a0.3,0.3,0,0,1-.11-0.3,0.28,0.28,0,0,1,.43-0.16l0.09,0.08,2.75,2.75a0.2,0.2,0,0,0,.17.06,0.85,0.85,0,0,0,.77-0.66,0.14,0.14,0,0,0,0-.15L34,33.47a0.31,0.31,0,0,1-.11-0.23,0.28,0.28,0,0,1,.46-0.2l0.24,0.24,2.18,2.18,0.68,0.68a0.14,0.14,0,0,0,.14,0,0.83,0.83,0,0,0,.61-1.12l0-.05,0.75,0.07a1.25,1.25,0,0,1,0,.54,1.53,1.53,0,0,1-1.08,1.22,0.12,0.12,0,0,0-.07.07,1.56,1.56,0,0,1-1.4,1.16,0.11,0.11,0,0,0-.07,0,1.52,1.52,0,0,1-1.48.86,1.28,1.28,0,0,1-.65-0.2,0.1,0.1,0,0,0-.14,0,1.45,1.45,0,0,1-1.93.1C31.83,38.66,31.61,38.4,31.36,38.14Z"/><path class="cls-2" d="M32.47,28.21l-1,.37H31.35l-2.83-.92a0.13,0.13,0,0,0-.14,0,4.45,4.45,0,0,0-1.63,2.87,4.55,4.55,0,0,0,0,1,0.92,0.92,0,0,0,.17.45l0.22,0.3-0.46.52A2.14,2.14,0,0,1,26,31.49a5.2,5.2,0,0,1,.43-2.41,5.13,5.13,0,0,1,1.59-2l0.25-.17a0.11,0.11,0,0,1,.12,0l2.23,0.72,1.8,0.58Z"/><path class="cls-2" d="M47.69,88.74c-1.24,0-2.44,0-3.63-.11a37,37,0,0,1-6.58-.88c-0.68-.17-1.33-0.43-2-0.64a0.55,0.55,0,0,1-.4-0.64A9.39,9.39,0,0,1,35.88,83a6.69,6.69,0,0,1,1.55-2.36,6.12,6.12,0,0,1,1.39-1c1.38-.72,2.83-1.27,4.26-1.87a0.34,0.34,0,0,1,.48.15,5.51,5.51,0,0,0,1.88,1.61,4.56,4.56,0,0,0,4.79-.21A5.49,5.49,0,0,0,51.68,78c0.26-.33.27-0.34,0.65-0.18,1.28,0.54,2.56,1.06,3.83,1.63a6.35,6.35,0,0,1,3.31,3.64,9.11,9.11,0,0,1,.72,3v0c0.08,0.76.08,0.77-.62,1a15.2,15.2,0,0,1-3.21.85c-1.21.18-2.42,0.33-3.63,0.48-0.5.06-1,.09-1.51,0.1Z"/><path class="cls-2" d="M47.53,62.76c0.54,0.17,1,.28,1.51.48A11,11,0,0,1,52,64.83a3.18,3.18,0,0,1,1.33,2.67A16.44,16.44,0,0,1,53.06,70a0.33,0.33,0,0,0,.09.37,1,1,0,0,1,.3,1,4.69,4.69,0,0,1-.62,1.88,1.44,1.44,0,0,0-.16.43,8.84,8.84,0,0,1-1.53,3.25,5.07,5.07,0,0,1-2.42,1.87,3.22,3.22,0,0,1-2.67-.28,6.68,6.68,0,0,1-2.56-2.68,8.94,8.94,0,0,1-.85-2.15,2.41,2.41,0,0,0-.23-0.55,4.77,4.77,0,0,1-.56-2,0.78,0.78,0,0,1,.27-0.71A0.41,0.41,0,0,0,42.25,70,19.49,19.49,0,0,1,42,67.6a4.31,4.31,0,0,1,1.66-3.38,7.77,7.77,0,0,1,2.47-1.44A2.36,2.36,0,0,1,47.53,62.76Z"/><path class="cls-2" d="M6.71,52.83A5.85,5.85,0,0,1,8.59,49.5a5.49,5.49,0,0,1,3.62-1.23H68a5.13,5.13,0,0,1,5,2.95,5.86,5.86,0,0,1,.55,2.45q0.05,18.63,0,37.27a5.2,5.2,0,0,1-5.41,5.39q-28,0-56,0A5.2,5.2,0,0,1,6.81,92a1.57,1.57,0,0,0-.1-0.24V52.83Zm64.72,1.7c0.23-2.65-1-4.18-3.35-4.18H12.2a3.25,3.25,0,0,0-3.3,4.18H64.56a5.87,5.87,0,0,1,.72,0,1,1,0,0,1,1,1,1,1,0,0,1-.94,1,4.73,4.73,0,0,1-.72,0H24.52v37.6H67.9c2.34,0,3.57-1.24,3.57-3.59q0-16.65,0-33.29V56.62c-0.7,0-1.31,0-1.92,0a1.05,1.05,0,1,1,0-2.08C70.18,54.52,70.78,54.53,71.43,54.53ZM22.33,94.22V56.65H8.8v0.67q0,16.67,0,33.34c0,2.31,1.25,3.56,3.53,3.56h10Z"/><path class="cls-2" d="M10.9,52.39a1,1,0,1,1,1,1.08A1.07,1.07,0,0,1,10.9,52.39Z"/><path class="cls-2" d="M15,53.47a1,1,0,1,1,1.08-1A1.07,1.07,0,0,1,15,53.47Z"/><path class="cls-2" d="M18.18,53.47a1,1,0,1,1,1.06-1A1.07,1.07,0,0,1,18.18,53.47Z"/><path class="cls-2" d="M15.66,58.71c1.13,0,2.26,0,3.38,0a1.06,1.06,0,1,1,0,2.08h-6.9a1.06,1.06,0,1,1,0-2.08h3.51Z"/><path class="cls-2" d="M15.59,65H12.14a1.06,1.06,0,1,1,0-2.08H19A1.06,1.06,0,1,1,19,65C17.89,65,16.74,65,15.59,65Z"/><path class="cls-2" d="M15.59,67.06H19a1.06,1.06,0,1,1,0,2.08h-6.9a1.06,1.06,0,1,1,0-2.08C13.29,67.06,14.44,67.06,15.59,67.06Z"/><path class="cls-2" d="M14,73.33c-0.65,0-1.3,0-1.95,0a1,1,0,1,1,0-2.08q2,0,4,0a1,1,0,1,1,0,2.08C15.33,73.35,14.66,73.33,14,73.33Z"/><path class="cls-2" d="M14,77.51c-0.65,0-1.3,0-1.95,0a1,1,0,1,1,0-2.08q2,0,4,0a1.05,1.05,0,0,1,1.16,1.06,1.07,1.07,0,0,1-1.19,1C15.31,77.52,14.66,77.51,14,77.51Z"/><path class="cls-2" d="M12.48,79.6h0.32a1.05,1.05,0,1,1,0,2.09,8.34,8.34,0,0,1-.84,0,1,1,0,1,1,0-2.08c0.17,0,.35,0,0.52,0h0Z"/><path class="cls-2" d="M81.58,26.74H75.16a1.19,1.19,0,0,1-.77-0.2A1.16,1.16,0,0,1,74,25.23a1.25,1.25,0,0,1,1.1-.76c1.88,0,3.77,0,5.65,0h7.23a1.24,1.24,0,0,1,.82.21,1.13,1.13,0,0,1,.4,1.27,1.06,1.06,0,0,1-1.06.78H81.58Z"/><path class="cls-2" d="M81.59,35.1H75.18a1.2,1.2,0,0,1-1-.36A1.07,1.07,0,0,1,74,33.56a1,1,0,0,1,1-.72H88.13A1.12,1.12,0,0,1,89.22,34a1.11,1.11,0,0,1-1.11,1.14H81.59Z"/><path class="cls-2" d="M80.71,41h5.5a1.13,1.13,0,1,1,.11,2.26c-0.59,0-1.19,0-1.78,0H75.22a1.24,1.24,0,0,1-1-.33A1.08,1.08,0,0,1,74,41.7,1,1,0,0,1,75,41h5.7Z"/><path class="cls-2" d="M69,42.14l0.4-.37c0.53-.53,1.07-1,1.58-1.59a1,1,0,0,1,1.64.36,0.83,0.83,0,0,1-.25.92c-0.49.51-1,1-1.5,1.52l-1,1a1.78,1.78,0,0,1-.27.22,0.77,0.77,0,0,1-1.11,0,11.73,11.73,0,0,1-.92-0.87c-0.37-.37-0.75-0.74-1.1-1.13a0.89,0.89,0,0,1,0-1.24,0.9,0.9,0,0,1,1.13-.23,2.29,2.29,0,0,1,.43.35Z"/><path class="cls-2" d="M69,25.65l0.46-.45,1.62-1.62a0.81,0.81,0,0,1,1-.19,1,1,0,0,1,.61.87,1,1,0,0,1-.29.67c-0.83.87-1.67,1.73-2.55,2.56a1,1,0,0,1-1.63,0c-0.59-.56-1.16-1.14-1.72-1.73a0.93,0.93,0,0,1,.36-1.59,0.76,0.76,0,0,1,.85.16c0.22,0.19.42,0.4,0.62,0.6Z"/><path class="cls-2" d="M81.58,18.66H75.16a1.19,1.19,0,0,1-.77-0.2A1.16,1.16,0,0,1,74,17.15a1.25,1.25,0,0,1,1.1-.76c1.88,0,3.77,0,5.65,0h7.23a1.24,1.24,0,0,1,.82.21,1.13,1.13,0,0,1,.4,1.27,1.06,1.06,0,0,1-1.06.78H81.58Z"/><path class="cls-2" d="M69,17.57l0.46-.45,1.62-1.62a0.81,0.81,0,0,1,1-.19,1,1,0,0,1,.61.87,1,1,0,0,1-.29.67c-0.83.87-1.67,1.73-2.55,2.56a1,1,0,0,1-1.63,0c-0.59-.56-1.16-1.14-1.72-1.73a0.93,0.93,0,0,1,.36-1.59,0.76,0.76,0,0,1,.85.16c0.22,0.19.42,0.4,0.62,0.6Z"/><path class="cls-2" d="M69,33.93l0.44-.42C70,33,70.52,32.44,71,31.89a0.9,0.9,0,0,1,1-.21,1,1,0,0,1,.61.81,0.92,0.92,0,0,1-.31.73c-0.13.15-.28,0.29-0.43,0.44l-1.72,1.73c-0.16.16-.31,0.31-0.48,0.46a0.91,0.91,0,0,1-1.43,0c-0.65-.62-1.29-1.26-1.9-1.91a0.91,0.91,0,0,1,0-1.28,0.89,0.89,0,0,1,1.31,0C68.17,33,68.55,33.47,69,33.93Z"/><path class="cls-2" d="M94.43,45.3c0-6.62,0-25.8,0-32.42a4,4,0,0,0,0-.66,4.87,4.87,0,0,0-4.81-4.15H59a6,6,0,0,0-1.36.13A4.83,4.83,0,0,0,53.84,13c0,0.53,0,.8,0,1.33,0,0.13,0,.16,0,0.16H53c-0.46,0-.92.25-1.38,0.25a1.23,1.23,0,0,0-1,1.72,1.27,1.27,0,0,0,1,.85c0.42,0,.85.19,1.27,0.19h0.6v6H53.3c-0.54,0-1.09.12-1.63,0.13a1.17,1.17,0,0,0-1.16,1.18A1.14,1.14,0,0,0,51.69,26l1.57,0a0.49,0.49,0,0,1,.24,0V32.5H53.34c-0.53,0-1.06.15-1.58,0.11a1.14,1.14,0,0,0-1.24,1.11,1.12,1.12,0,0,0,1.27,1.05c0.54,0,.93,0,1.47,0a0.53,0.53,0,0,1,.24,0v6.65l-0.27,0c-0.56,0-1,0-1.6,0a1.09,1.09,0,0,0-1.15,1.14,0.86,0.86,0,0,0,.41.87H60a1,1,0,0,0,.47-1A1.54,1.54,0,0,0,59.6,41a1.28,1.28,0,0,0-1.71.09,2.05,2.05,0,0,1-1.39.4V34.79a5.56,5.56,0,0,1,.79,0,0.59,0.59,0,0,1,.32.25,1.73,1.73,0,1,0,1.66-2.95,1.56,1.56,0,0,0-1.63.29,0.82,0.82,0,0,1-.78.33,2.55,2.55,0,0,0-.35,0V26a5.54,5.54,0,0,1,.78,0,0.63,0.63,0,0,1,.33.25,1.74,1.74,0,0,0,2.74-.6,1.83,1.83,0,0,0-2.81-2.16,0.57,0.57,0,0,1-.51.24H56.5V17.28a7.11,7.11,0,0,1,.81,0,0.5,0.5,0,0,1,.25.2,1.68,1.68,0,0,0,2.28.07,1.77,1.77,0,0,0,.55-1.92,1.79,1.79,0,0,0-1.58-1.25,1.75,1.75,0,0,0-1.41.47A0.61,0.61,0,0,1,57,15c-0.29,0-.58,0-0.91,0,0-.17,0-0.32,0-0.46,0-.53,0-1.05,0-1.58a2.58,2.58,0,0,1,2.53-2.61c1.2-.06,2.47,0,3.68,0a0.4,0.4,0,0,1,.18,0V43.5h0.92c0-13,0-33,.11-33H64c3.58,0,7.17-.08,10.75-0.08,4.87,0,9.75,0,14.62,0a2.67,2.67,0,0,1,2.78,2.77c0,2.6,0,5.19,0,7.78,0,0,0,25.73,0,34.43a3,3,0,0,1-.75,1.11,2.91,2.91,0,0,1-1.95.87c-2.31,0-4.66.16-7,.16H78s0,1.35,0,2.11c3.85,0,7.7-.08,11.55-0.08a5.77,5.77,0,0,0,1-.14,4.83,4.83,0,0,0,3.91-4.65c0-3.13,0-6.27,0-9.4v0ZM92.5,49.9c0,0.53,0,1.06,0,1.58,0-1.33,0-2.25,0-1.81V49.9Z"/><path class="cls-2" d="M48.5,14.5H21.33a5.93,5.93,0,0,0-4.42,1.89,6.1,6.1,0,0,0-1.69,4.45c0,6.05,0,11.9,0,17.95V46.5H17v-26a4.18,4.18,0,0,1,4.41-4.3c2.06,0,4,0,6,0H48.5V14.5Z"/></svg>