<svg id="Layer_2" data-name="Layer 2" xmlns="http://www.w3.org/2000/svg" viewBox="0 0 100 100"><defs><style>.cls-1{fill:#4d6172;}</style></defs><title>Service &amp;amp; Featured Icons x</title><rect class="cls-1" x="7.38" y="28.96" width="11.98" height="2.11" transform="translate(43.38 16.65) rotate(90)"/><path class="cls-1" d="M14.36,25H27l-0.69,1.18c-0.51.57-1,1.31-1.57,1.82s-0.94,1-1.37,1.5l1.29,1.36,6.23-6.2-6.11-6.08-1.35,1L27.12,23H12.28s0,0.72,0,.88c0,0.37,0,.45,0,0.82a1.9,1.9,0,0,0,0,.3h2Z"/><rect class="cls-1" x="76.41" y="71.18" width="11.98" height="2.11" transform="translate(164.8 144.48) rotate(180)"/><path class="cls-1" d="M87.33,71.24V58.64l-1.14.69c-0.57.51-1.29,1-1.8,1.57s-1,.94-1.49,1.37L81.55,61l6.2-6.23,6.08,6.11-1.54,1.35-4-3.73V73.32H88c-0.37,0-.22,0-0.59,0-0.18,0-.07,0-0.07,0v-2Z"/><path class="cls-1" d="M26.06,70.73H13.56V58.23h12.5v12.5ZM14.84,69.44h9.92V59.52H14.84v9.92Z"/><rect class="cls-1" x="29.22" y="59.46" width="32.1" height="1.56"/><rect class="cls-1" x="29.22" y="62.41" width="32.1" height="1.56"/><rect class="cls-1" x="13.58" y="73.45" width="47.74" height="1.56"/><rect class="cls-1" x="13.58" y="76.4" width="47.74" height="1.56"/><rect class="cls-1" x="29.22" y="65.37" width="16.69" height="1.56"/><path class="cls-1" d="M69.13,37.18H64.32a5.06,5.06,0,0,1-.59,0,1,1,0,0,1-.25-2,2.21,2.21,0,0,1,.71-0.1H74a2.16,2.16,0,0,1,.58.06,1,1,0,0,1-.19,2c-0.33,0-.66,0-1,0H69.13Z"/><path class="cls-1" d="M69.12,29.73h4.74a4.37,4.37,0,0,1,.59,0,1,1,0,0,1,.14,2,2.5,2.5,0,0,1-.65.07H64.2a2.4,2.4,0,0,1-.71-0.09,1,1,0,0,1,.17-2,3.56,3.56,0,0,1,.59,0h4.87Z"/><path class="cls-1" d="M72.93,22c-0.55,0-1.1,0-1.64,0a1,1,0,1,1-.05-2.1q1.64,0,3.29,0A1,1,0,0,1,75.59,21a1,1,0,0,1-1.08,1c-0.53,0-1.05,0-1.58,0h0Z"/><path class="cls-1" d="M3.3,42.72a2.52,2.52,0,0,0,.14-0.29,3.17,3.17,0,0,1,3-2.24H67.9a6.16,6.16,0,0,1,1.26.1,3.09,3.09,0,0,1,2.46,2.87c0,0.2,0,.4,0,0.6q0,19.89,0,39.78a6,6,0,0,1,0,.93A3.1,3.1,0,0,1,69,87.08a6.59,6.59,0,0,1-1.06.07H47.37l1.54,5.44c0.2,0,.37,0,0.54,0h3.67a3.16,3.16,0,0,1,.6,0,1,1,0,0,1,.79.88,1,1,0,0,1-.64,1,2.91,2.91,0,0,1-.85.1H22a3.73,3.73,0,0,1-.73,0,1,1,0,0,1-.83-1,1,1,0,0,1,.94-1c0.62,0,1.25,0,1.87,0H26l1.57-5.48H6.52a3.18,3.18,0,0,1-3.09-2.3,1.29,1.29,0,0,0-.13-0.22V42.72Zm34.24-.52H7.11a6.19,6.19,0,0,0-.67,0A1.17,1.17,0,0,0,5.3,43.38c0,0.15,0,.31,0,0.47q0,19.82,0,39.64a4.58,4.58,0,0,0,0,.6,1.09,1.09,0,0,0,.92,1,3.14,3.14,0,0,0,.66.06H68a3.29,3.29,0,0,0,.6,0,1.12,1.12,0,0,0,1-1.08,5.1,5.1,0,0,0,0-.53q0-19.82,0-39.64c0-.16,0-0.31,0-0.47a1.17,1.17,0,0,0-1.13-1.18,6,6,0,0,0-.67,0H37.54Zm9.29,50.4L45.28,87.2H29.65L28.11,92.6H46.83Z"/><path class="cls-1" d="M37.46,44.47H65.68a5.22,5.22,0,0,1,.73,0,1,1,0,0,1,.93,1,4.58,4.58,0,0,1,0,.53q0,17.68,0,35.37c0,0.16,0,.31,0,0.47a1,1,0,0,1-1,1,4,4,0,0,1-.6,0H9.08c-1.2,0-1.51-.31-1.51-1.49q0-17.72,0-35.43a4.28,4.28,0,0,1,0-.47,1,1,0,0,1,1-1,5.52,5.52,0,0,1,.67,0H37.46ZM9.59,80.78a0.7,0.7,0,0,0,.18.08H64.89l0.33,0a0.13,0.13,0,0,0,.05,0l0,0V55.12A0.56,0.56,0,0,0,65.16,55H10l-0.33,0a0.13,0.13,0,0,0-.05,0l-0.07.06V80.78ZM9.59,53L10,53l55.26,0a0.1,0.1,0,0,0,.05,0l0,0v-6.4a2.48,2.48,0,0,0-.29,0L9.7,46.5a0.12,0.12,0,0,0-.05,0l-0.06.06V53Z"/><path class="cls-1" d="M39.58,50.75H24.1a4.48,4.48,0,0,1-.73,0,1,1,0,0,1-.79-0.87,0.94,0.94,0,0,1,.63-1,3.22,3.22,0,0,1,.92-0.11H55.22a2.69,2.69,0,0,1,.72.08,1,1,0,0,1-.15,1.89,5.48,5.48,0,0,1-.73,0H39.58Z"/><path class="cls-1" d="M61,50.75c-0.35,0-.71,0-1.06,0a1,1,0,0,1-1-.94,0.94,0.94,0,0,1,.92-1,16.67,16.67,0,0,1,2.25,0,1,1,0,0,1,.95,1,1,1,0,0,1-1.06,1H61Z"/><path class="cls-1" d="M13.84,49.77a1,1,0,0,1-1,1,1,1,0,0,1-1-1,1,1,0,0,1,1-1A1,1,0,0,1,13.84,49.77Z"/><path class="cls-1" d="M16,48.77a1,1,0,0,1,1,.95,1,1,0,0,1-.91,1,1,1,0,0,1-1.06-1A1.05,1.05,0,0,1,16,48.77Z"/><path class="cls-1" d="M19.26,50.74a1,1,0,0,1-1-1,1.06,1.06,0,0,1,1-1,1,1,0,0,1,1,1A1,1,0,0,1,19.26,50.74Z"/><path class="cls-1" d="M97.29,33.6C96.72,28.38,93.8,24.72,89,22.53c-0.53-.24-1.1-0.41-1.7-0.63A16.7,16.7,0,0,0,81.41,8.73a16.43,16.43,0,0,0-6.53-3.44,15.64,15.64,0,0,0-9.22.3,16.9,16.9,0,0,0-9.79,8.47c-3.16-2.14-6.44-2.59-9.78-.7a9.09,9.09,0,0,0-4.78,8.55,5.57,5.57,0,0,1-.68-0.15C34.37,23.76,30.34,30,31.25,36h2.11a9.81,9.81,0,0,1-.05-2.8,10.83,10.83,0,0,1,9.05-9.53c1.1-.22,1.29-0.42,1.19-1.54a8.69,8.69,0,0,1,0-1.92,6.27,6.27,0,0,1,4.25-5.45A6.69,6.69,0,0,1,54.93,16c0.23,0.2.43,0.45,0.67,0.64a1,1,0,0,0,1.58-.31,4.67,4.67,0,0,0,.23-0.54A14.32,14.32,0,0,1,74.13,7.25a14.19,14.19,0,0,1,11,15c-0.07,1,.12,1.33,1.13,1.56A11.19,11.19,0,0,1,95.15,36.6a11,11,0,0,1-9.64,9.56c-0.8.09-1.62,0.07-2.43,0.12A1,1,0,0,0,82,47.37a1,1,0,0,0,1.08,1,13,13,0,0,0,8.66-2.6C95.78,42.73,97.83,38.66,97.29,33.6Z"/><path class="cls-1" d="M79.65,22.63c0-1.08,0-2.15,0-3.23a3.57,3.57,0,0,0-3.57-3.5l-7.65,0c-2.18,0-4.35,0-6.53,0a3.49,3.49,0,0,0-3.44,3.59c0,5.19,0,10,0,15.2,0,0.55,0,1.28,0,1.28h2.86V20A7.46,7.46,0,0,1,61,19.12a0.92,0.92,0,0,1,.82-1A3.38,3.38,0,0,1,62.51,18H76a2.58,2.58,0,0,1,.56.06,1,1,0,0,1,.87.87,3.13,3.13,0,0,1,.08.63c0,5.16,0,10.41,0,15.41h0c0,5,.26,9.66.26,14.45,0,0.48.5,2.24-.5,2.41v2.25c2-.4,2.33-1.62,2.44-3.15,0-.35,0-0.7,0-1.05C79.73,40.82,79.66,31.73,79.65,22.63Z"/></svg>