<?xml version="1.0" encoding="utf-8"?>
<!-- Generator: Adobe Illustrator 17.0.0, SVG Export Plug-In . SVG Version: 6.00 Build 0)  -->
<!DOCTYPE svg PUBLIC "-//W3C//DTD SVG 1.1//EN" "http://www.w3.org/Graphics/SVG/1.1/DTD/svg11.dtd">
<svg version="1.1" id="Layer_1" xmlns="http://www.w3.org/2000/svg" xmlns:xlink="http://www.w3.org/1999/xlink" x="0px" y="0px"
	 width="51px" height="51.05px" viewBox="280.5 370.505 51 51.05" enable-background="new 280.5 370.505 51 51.05"
	 xml:space="preserve">
<g>
	<path fill="#03A9F5" d="M368.643,414.495"/>
</g>
<g>
	<g>
		<g>
			<g>
				<path fill="#03A9F5" d="M331.5,394.904c0-0.323,0-0.645-0.219-0.864l-17.578-23.105c-0.323-0.427-0.864-0.541-1.301-0.323
					l-13.455,6.454c-0.246,0.048-0.478,0.175-0.647,0.384l-17.578,23.105c-0.208,0.323-0.323,0.76-0.104,1.082
					c0.219,0.437,0.541,0.656,0.978,0.656h4.017v18.109c0,0.645,0.427,1.082,1.082,1.082h4.777c0.645,0,1.082-0.427,1.082-1.082
					v-16.704h13.228v16.714c0,0.645,0.427,1.082,1.082,1.082h4.777c0.295,0,0.585-0.158,0.791-0.385l13.425-6.348
					c0.437-0.219,0.656-0.541,0.656-0.978v-15.84l4.094-2.1l0.287-0.136l-0.004-0.009l0.067-0.034
					C331.177,395.445,331.396,395.227,331.5,394.904L331.5,394.904z M311.643,400.118c-0.645,0-1.082,0.427-1.082,1.082v18.119
					h-2.602h-0.125v-16.704c0-0.645-0.427-1.082-1.082-1.082h-15.403c-0.645,0-1.082,0.427-1.082,1.082v16.704h-2.602v-18.119
					c0-0.645-0.427-1.082-1.082-1.082h-2.82l15.403-20.18l15.299,20.18H311.643L311.643,400.118z M324.34,413.128l-11.615,5.481
					v-16.315h4.017c0.154,0,0.294-0.042,0.42-0.11l0.022,0.046l7.156-3.404V413.128L324.34,413.128z M327.719,394.821l-10.621,5.053
					l-16.212-21.31l11.631-5.568l16.267,21.262L327.719,394.821L327.719,394.821z"/>
			</g>
			<g>
				<rect x="294.835" y="407.06" width="2.716" height="2.165"/>
			</g>
			<g>
				<rect x="294.835" y="412.919" width="2.716" height="2.165"/>
			</g>
			<g>
				<rect x="294.835" y="418.675" width="2.716" height="2.165"/>
			</g>
			<g>
				<rect x="300.038" y="407.06" width="2.716" height="2.165"/>
			</g>
			<g>
				<rect x="300.038" y="412.919" width="2.716" height="2.165"/>
			</g>
			<g>
				<rect x="300.038" y="418.675" width="2.716" height="2.165"/>
			</g>
		</g>
	</g>
	<g>
		<path d="M291.409,421.555c-0.663,0-1.2-0.537-1.2-1.2V402.75c0-0.663,0.538-1.2,1.2-1.2s1.2,0.537,1.2,1.2v17.604
			C292.609,421.018,292.072,421.555,291.409,421.555z"/>
	</g>
	<g>
		<path d="M306.667,421.555c-0.663,0-1.2-0.537-1.2-1.2V402.75c0-0.663,0.537-1.2,1.2-1.2s1.2,0.537,1.2,1.2v17.604
			C307.867,421.018,307.33,421.555,306.667,421.555z"/>
	</g>
	<g>
		<path d="M306.417,403.95h-15.008c-0.663,0-1.2-0.537-1.2-1.2s0.538-1.2,1.2-1.2h15.008c0.663,0,1.2,0.537,1.2,1.2
			S307.08,403.95,306.417,403.95z"/>
	</g>
</g>
</svg>
