<?xml version="1.0" encoding="utf-8"?>
<!-- Generator: Adobe Illustrator 17.1.0, SVG Export Plug-In . SVG Version: 6.00 Build 0)  -->
<!DOCTYPE svg PUBLIC "-//W3C//DTD SVG 1.1//EN" "http://www.w3.org/Graphics/SVG/1.1/DTD/svg11.dtd">
<svg version="1.1" id="Слой_1" xmlns="http://www.w3.org/2000/svg" xmlns:xlink="http://www.w3.org/1999/xlink" x="0px" y="0px"
	 viewBox="0 0 48.1 52.7" enable-background="new 0 0 48.1 52.7" xml:space="preserve">
<g>
	<path fill="#201600" d="M40.8,18.4c-3.8,0-6.9,2.9-7.3,6.6h-5.4c-0.4-4.4-4.1-7.8-8.5-7.8c-1.3,0-2.6,0.3-3.7,0.9l-3.8-5.2
		c1.5-1.3,2.5-3.3,2.5-5.4c0-4-3.3-7.3-7.3-7.3C3.3,0,0,3.3,0,7.3s3.3,7.3,7.3,7.3c1.3,0,2.6-0.4,3.6-1l3.7,5.1
		c-2.2,1.6-3.6,4.1-3.6,7c0,2.9,1.5,5.5,3.7,7.1l-2.6,5.6c-0.7-0.2-1.4-0.3-2.1-0.3c-4,0-7.3,3.3-7.3,7.3c0,4,3.3,7.3,7.3,7.3
		c4,0,7.3-3.3,7.3-7.3c0-2.8-1.5-5.2-3.8-6.4l2.6-5.5c1.1,0.5,2.3,0.8,3.5,0.8c4.5,0,8.2-3.5,8.5-7.8h5.4c0.4,3.7,3.5,6.6,7.3,6.6
		c4,0,7.3-3.3,7.3-7.3S44.9,18.4,40.8,18.4z M1.5,7.3c0-3.2,2.6-5.8,5.8-5.8c3.2,0,5.8,2.6,5.8,5.8s-2.6,5.8-5.8,5.8
		C4.1,13.1,1.5,10.5,1.5,7.3z M15.9,45.4c0,3.2-2.6,5.8-5.8,5.8c-3.2,0-5.8-2.6-5.8-5.8c0-3.2,2.6-5.8,5.8-5.8
		C13.3,39.6,15.9,42.2,15.9,45.4z M19.7,32.8c-3.9,0-7.1-3.2-7.1-7.1s3.2-7.1,7.1-7.1s7.1,3.2,7.1,7.1S23.6,32.8,19.7,32.8z
		 M40.8,31.5c-3.2,0-5.8-2.6-5.8-5.8s2.6-5.8,5.8-5.8c3.2,0,5.8,2.6,5.8,5.8S44,31.5,40.8,31.5z"/>
	<path fill="#201600" d="M19,13.7c1.4-1.6,3.3-2.6,5.5-2.6c3.9,0,7.1,3.2,7.1,7.1c0,0.5,0,1-0.1,1.4c-0.1,0.4,0.2,0.8,0.6,0.9
		c0.1,0,0.1,0,0.2,0c0.3,0,0.7-0.2,0.7-0.6c0.1-0.6,0.2-1.1,0.2-1.7c0-4.7-3.9-8.6-8.6-8.6c-2.6,0-5,1.1-6.6,3.1
		c-0.3,0.3-0.2,0.8,0.1,1.1S18.7,14,19,13.7z"/>
	<path fill="#201600" d="M31.8,31.2c-0.4,0.1-0.6,0.5-0.5,0.9c0.1,0.6,0.2,1.2,0.2,1.8c0,3.9-3.2,7.1-7.1,7.1c-1.9,0-3.7-0.7-5-2.1
		c-0.3-0.3-0.8-0.3-1.1,0s-0.3,0.8,0,1.1c1.6,1.6,3.8,2.5,6.1,2.5c4.7,0,8.6-3.9,8.6-8.6c0-0.7-0.1-1.5-0.3-2.2
		C32.7,31.3,32.2,31.1,31.8,31.2z"/>
	<path fill="#201600" d="M8.7,19.5c0.4-0.2,0.6-0.6,0.4-1c-0.2-0.4-0.6-0.6-1-0.4c-3.2,1.3-5.3,4.4-5.3,7.9c0,4.7,3.9,8.6,8.6,8.6
		c0.4,0,0.8-0.3,0.8-0.8s-0.3-0.8-0.8-0.8c-3.9,0-7.1-3.2-7.1-7.1C4.2,23.2,6,20.6,8.7,19.5z"/>
	<circle fill="#201600" cx="6.3" cy="5.7" r="1.4"/>
	<circle fill="#201600" cx="18.1" cy="23.6" r="1.4"/>
	<circle fill="#201600" cx="8" cy="42.4" r="1.4"/>
	<circle fill="#201600" cx="39.8" cy="23.6" r="1.4"/>
</g>
<style>
path{
    fill:#3F51B5 !important;
	}
</style>
</svg>
