<?xml version="1.0" encoding="utf-8"?>
<!-- Generator: Adobe Illustrator 17.1.0, SVG Export Plug-In . SVG Version: 6.00 Build 0)  -->
<!DOCTYPE svg PUBLIC "-//W3C//DTD SVG 1.1//EN" "http://www.w3.org/Graphics/SVG/1.1/DTD/svg11.dtd">
<svg version="1.1" id="Слой_1" xmlns="http://www.w3.org/2000/svg" xmlns:xlink="http://www.w3.org/1999/xlink" x="0px" y="0px"
	 viewBox="0 0 49.1 51.6" enable-background="new 0 0 49.1 51.6" xml:space="preserve">
<path fill="#201600" d="M49.1,32.6c0-2.3-1.9-4.2-4.2-4.2c-0.7,0-1.4,0.2-2,0.5c-0.7-1-1.4-1.9-2.3-2.9c4.4-5,6.2-9.9,4.3-13.2
	c-1.9-3.1-6.8-4-13.1-2.6c-2.1-6.2-5.3-9.9-8.9-9.9c-0.9,0-1.7,0.2-2.5,0.6C19.6,0.4,18.7,0,17.7,0c-2.3,0-4.2,1.9-4.2,4.2
	c0,1.3,0.6,2.5,1.5,3.2c-0.4,0.9-0.7,1.8-1.1,2.8c-0.8-0.2-1.5-0.3-2.3-0.4c-5.4-0.8-9.2,0.3-10.8,3c-1.9,3.2-0.2,8.1,4.3,13.2
	c-4.4,5-6.2,10-4.3,13.2c0.3,0.4,0.6,0.8,1,1.2c-0.1,0.3-0.1,0.5-0.1,0.8c0,2.3,1.9,4.2,4.2,4.2c1.9,0,3.6-1.3,4.1-3.1
	c1.2-0.1,2.5-0.3,3.9-0.6c2,6.1,5.3,9.9,8.9,9.9c3.7,0,6.9-3.8,8.9-9.9c1.9,0.4,3.8,0.7,5.4,0.7c3.6,0,6.4-1,7.7-3.2
	c0.4-0.7,0.7-1.5,0.7-2.4C47.5,36.4,49.1,34.7,49.1,32.6z M43.5,13.6c2.2,3.6-2,10.5-9.6,16.6C34,28.8,34,27.4,34,26
	c0-1.4-0.1-2.8-0.2-4.2c1.3,1,2.5,2.1,3.6,3.2c0.3,0.3,0.8,0.3,1.1,0c0.3-0.3,0.3-0.8,0-1.1c-1.4-1.4-3.1-2.8-4.8-4.1
	c-0.1-1.1-0.3-2.2-0.4-3.2c0,0,0,0,0,0c-0.3-1.8-0.7-3.4-1.1-4.9C37.7,10.5,42,11.1,43.5,13.6z M25.1,36.7c0.1,0.3,0.4,0.4,0.7,0.4
	c0.1,0,0.2,0,0.4-0.1c0.8-0.4,1.6-0.9,2.4-1.4c1.2-0.7,2.4-1.5,3.5-2.2c-0.3,2.3-0.8,4.5-1.4,6.5c-4-1-8.5-2.9-12.9-5.6
	c-0.7-0.4-1.4-0.8-2-1.3c-0.3-0.2-0.8-0.1-1,0.2c-0.2,0.3-0.1,0.8,0.2,1c0.7,0.4,1.4,0.9,2.1,1.3c1.3,0.8,2.7,1.5,4,2.2
	c-2.1,0.9-4.2,1.6-6.1,2.1c-1.2-4-1.9-8.8-1.9-13.9c0-0.9,0-1.7,0.1-2.6c0-0.4-0.3-0.8-0.7-0.8c-0.4,0-0.8,0.3-0.8,0.7
	c0,0.9-0.1,1.8-0.1,2.7c0,1.4,0,2.8,0.1,4.1C10,28.8,8.4,27.4,7.1,26c2.8-2.9,6.4-5.8,10.7-8.4c0.7-0.4,1.3-0.8,2-1.1
	c0.4-0.2,0.5-0.7,0.3-1c-0.2-0.4-0.7-0.5-1-0.3c-0.7,0.4-1.4,0.8-2,1.2c-1.2,0.7-2.4,1.5-3.5,2.3c0.3-2.4,0.8-4.6,1.4-6.6
	c4.1,1.1,8.6,3,12.9,5.6c1.6,0.9,3.1,1.9,4.5,3c0.2,1.8,0.3,3.6,0.3,5.4c0,1.8-0.1,3.6-0.3,5.4c-1.4,1-2.9,2-4.5,3
	c-0.8,0.5-1.6,0.9-2.4,1.3C25.1,35.9,24.9,36.3,25.1,36.7z M31.8,16.8L31.8,16.8C31.8,16.8,31.8,16.8,31.8,16.8
	c0.1,0.6,0.2,1.2,0.3,1.8c-1.1-0.8-2.3-1.5-3.5-2.3c-1.3-0.8-2.7-1.5-4-2.2c2.1-0.9,4.2-1.6,6.1-2.1C31.1,13.5,31.5,15.1,31.8,16.8z
	 M17.7,1.5c0.7,0,1.3,0.2,1.7,0.6c0,0.1,0,0.1,0.1,0.2c0.1,0.1,0.2,0.2,0.4,0.3c0.4,0.5,0.6,1,0.6,1.7c0,1.5-1.2,2.7-2.7,2.7
	s-2.7-1.2-2.7-2.7S16.1,1.5,17.7,1.5z M16.3,8.2c0.4,0.2,0.9,0.3,1.4,0.3c2.3,0,4.2-1.9,4.2-4.2c0-0.8-0.2-1.5-0.6-2.1
	c0.5-0.2,1-0.3,1.5-0.3c2.9,0,5.6,3.3,7.5,8.7c-2.3,0.6-4.8,1.5-7.5,2.7c-2.5-1.2-5.1-2.1-7.5-2.7C15.6,9.7,15.9,9,16.3,8.2z
	 M2.1,13.6c1.3-2.1,4.7-2.9,9.3-2.3c0.7,0.1,1.3,0.2,2,0.4c-0.7,2.5-1.2,5.2-1.6,8.1c-2.2,1.6-4.1,3.4-5.8,5.1
	C2.2,20.4,0.5,16.1,2.1,13.6z M5.9,43.9c-1.5,0-2.7-1.2-2.7-2.7c0-1.5,1.2-2.7,2.7-2.7c1.5,0,2.7,1.2,2.7,2.7
	C8.6,42.7,7.4,43.9,5.9,43.9z M10.1,40.8c-0.2-2.2-2-3.9-4.2-3.9c-1.5,0-2.8,0.8-3.5,1.9c-0.1-0.1-0.2-0.3-0.3-0.4
	c-1.6-2.6,0.2-6.9,4-11.3c1.6,1.7,3.6,3.4,5.7,5.1c0.3,3,0.8,5.7,1.5,8.1C12.3,40.5,11.1,40.7,10.1,40.8z M22.8,50.1
	c-2.9,0-5.6-3.4-7.4-8.8c2.4-0.6,4.9-1.5,7.4-2.7c2.6,1.2,5.1,2.1,7.4,2.7C28.4,46.7,25.7,50.1,22.8,50.1z M32.2,40.3
	c0.7-2.4,1.2-5.2,1.5-8.1c2.2-1.6,4.1-3.4,5.8-5.1c0.8,0.9,1.5,1.9,2.1,2.8c-0.6,0.7-1,1.7-1,2.7c0,2.1,1.5,3.8,3.5,4.2
	c-0.1,0.6-0.2,1.1-0.5,1.6C42,40.9,37.7,41.4,32.2,40.3z M44.8,35.3c-1.5,0-2.7-1.2-2.7-2.7c0-1.5,1.2-2.7,2.7-2.7
	c1.5,0,2.7,1.2,2.7,2.7C47.6,34.1,46.3,35.3,44.8,35.3z"/>
	<style>
path{
    fill:#3F51B5 !important;
	}
</style>
</svg>
