<?xml version="1.0" encoding="utf-8"?>
<!-- Generator: Adobe Illustrator 17.1.0, SVG Export Plug-In . SVG Version: 6.00 Build 0)  -->
<!DOCTYPE svg PUBLIC "-//W3C//DTD SVG 1.1//EN" "http://www.w3.org/Graphics/SVG/1.1/DTD/svg11.dtd">
<svg version="1.1" id="Слой_1" xmlns="http://www.w3.org/2000/svg" xmlns:xlink="http://www.w3.org/1999/xlink" x="0px" y="0px"
	 viewBox="0 0 59.6 48.5" enable-background="new 0 0 59.6 48.5" xml:space="preserve">
<g>
	<path fill="#201600" d="M58.2,38.5L33.8,13.5l-0.5-3.6c0-0.2-0.1-0.3-0.2-0.4l-2.6-2.6c-0.3-0.3-0.8-0.3-1.1,0L18.1,18.3
		c-0.3,0.3-0.3,0.8,0,1.1l2.6,2.6c0.1,0.1,0.3,0.2,0.5,0.2l3.7-0.1c2.5,2.6,22.9,23.3,25.1,25.3c0.8,0.8,1.7,1.1,2.7,1.1
		c0.1,0,0.2,0,0.3,0c0,0,0.1,0,0.1,0c0,0,0,0,0,0c0.1,0,0.2,0,0.3-0.1c1.2-0.3,2-1,2.1-1.1l2.6-2.6c0.9-0.9,1.4-1.9,1.4-3
		C59.6,40,58.3,38.6,58.2,38.5z M31.1,26.1l6.4-0.3L52.7,42L52.5,47c-0.5-0.1-0.9-0.3-1.4-0.7C49.5,44.8,38,33.2,31.1,26.1z
		 M57.2,43.7l-2.6,2.6c0,0-0.2,0.2-0.6,0.4l0.2-4.9c0-0.2-0.1-0.4-0.2-0.5L38.3,24.5c-0.2-0.2-0.4-0.2-0.6-0.2l-8,0.4c0,0,0,0,0,0
		c-1.5-1.6-2.7-2.8-3.4-3.4l4-4.3c0.3-0.3,0.3-0.8,0-1.1c-0.3-0.3-0.8-0.3-1.1,0l-4.2,4.6l-3.4,0.1l-1.8-1.8L29.9,8.4l1.9,1.9
		l0.5,3.6c0,0.2,0.1,0.3,0.2,0.4l24.6,25.3c0,0,1,1,0.9,2.2C58.1,42.5,57.8,43.1,57.2,43.7z"/>
	<path fill="#201600" d="M25.8,25.8c-0.4,0-0.8,0.3-0.8,0.7c0,0-0.1,1.5-0.9,2.3c0,0-0.1-0.1-0.1-0.1c-0.4-0.2-0.8-0.1-1,0.3
		c-0.2,0.3-0.1,0.7,0.1,0.9c0,0.1,0,0.2,0.1,0.3c0,0.1,0.1,0.2,0.2,0.2c0.2,0.6,0.3,1.8,0,4.1C23.2,36.4,22,38,20.2,39
		c-2.2,1.2-4.9,1.3-7.1,0.2c-3-1.5-3.4-5.1-3.4-6.1c0,0,0,0,0,0c0.7,0,1.5-0.1,2.1-0.4c0.4-0.1,0.6-0.6,0.4-1
		c-0.1-0.4-0.6-0.6-1-0.4c-1.5,0.6-3.5,0.2-5.4-0.9c-2.4-1.4-4-3.8-4.4-6.2c-0.6-4.7,3.1-8.5,3.2-8.6C5,15.5,5,15,4.7,14.7
		c-0.3-0.3-0.8-0.3-1.1,0c-0.1,0.1-0.5,0.6-1.2,1.4c-1.1-1.7-1.9-6,1.3-9.7c3.4-4,9.9-1.6,10-1.6c0.2,0.1,0.5,0.1,0.7-0.1
		c0.2-0.1,0.3-0.3,0.3-0.6c0-0.1,0.3-2.7,4.9-2.7c4.8,0.1,6,3.8,6.1,4C26,5.9,26.4,6.1,26.8,6c0.4-0.1,0.6-0.5,0.5-0.9
		c0-0.1-1.5-5-7.5-5.1c-4.3,0-5.7,2-6.2,3.2C11.5,2.6,6,1.5,2.7,5.5c-4,4.7-2.7,10.1-1,12c-1,1.8-1.9,4.2-1.6,7.1
		c0.4,2.8,2.3,5.6,5.1,7.3c1,0.6,2,1,3,1.2c0,0.9,0.2,5.6,4.2,7.6c1.2,0.6,2.6,0.9,3.9,0.9c1.5,0,3.1-0.4,4.5-1.1
		c2.3-1.2,3.8-3.3,4-5.7c0.2-2.2,0.2-3.6,0-4.5c1.5-1.2,1.7-3.5,1.7-3.6C26.6,26.2,26.3,25.8,25.8,25.8z"/>
	<path fill="#201600" d="M16.9,11.8c0.4,0.1,0.8-0.3,0.8-0.7s-0.3-0.8-0.7-0.8c-3.2-0.3-5.5,0.4-6.8,2c-2.2,2.8-0.6,7.3-0.5,7.5
		c0.1,0.3,0.4,0.5,0.7,0.5c0.1,0,0.2,0,0.3,0c0.4-0.1,0.6-0.6,0.4-1c0,0-1.4-3.9,0.3-6.1C12.4,12,14.2,11.5,16.9,11.8z"/>
</g>
<style>
path{
    fill:#3F51B5 !important;
	}
</style>
</svg>
