<?xml version="1.0" encoding="utf-8"?>
<!-- Generator: Adobe Illustrator 17.1.0, SVG Export Plug-In . SVG Version: 6.00 Build 0)  -->
<!DOCTYPE svg PUBLIC "-//W3C//DTD SVG 1.1//EN" "http://www.w3.org/Graphics/SVG/1.1/DTD/svg11.dtd">
<svg version="1.1" id="Слой_1" xmlns="http://www.w3.org/2000/svg" xmlns:xlink="http://www.w3.org/1999/xlink" x="0px" y="0px"
	 viewBox="0 0 59.8 48.3" enable-background="new 0 0 59.8 48.3" xml:space="preserve">
<g>
	<path fill="#201600" d="M56.1,0H3.8C1.7,0,0,1.7,0,3.8v40.8c0,2.1,1.7,3.8,3.8,3.8h52.3c2.1,0,3.8-1.7,3.8-3.8V3.8
		C59.8,1.7,58.2,0,56.1,0z M58.3,44.6c0,1.2-1,2.3-2.3,2.3H3.8c-1.2,0-2.3-1-2.3-2.3V3.8c0-1.2,1-2.3,2.3-2.3h52.3
		c1.2,0,2.3,1,2.3,2.3V44.6z"/>
	<path fill="#201600" d="M49.2,7H10.4c-2.1,0-3.8,1.7-3.8,3.8v24.4c0,2.1,1.7,3.8,3.8,3.8h38.8c2.1,0,3.8-1.7,3.8-3.8V10.8
		C52.9,8.7,51.2,7,49.2,7z M51.4,35.2c0,1.2-1,2.3-2.3,2.3H10.4c-1.2,0-2.3-1-2.3-2.3V10.8c0-1.2,1-2.3,2.3-2.3h38.8
		c1.2,0,2.3,1,2.3,2.3V35.2z"/>
	<path fill="#201600" d="M48.6,40c-1.5,0-2.8,1.2-2.8,2.8s1.2,2.8,2.8,2.8s2.8-1.2,2.8-2.8S50.1,40,48.6,40z M48.6,44
		c-0.7,0-1.3-0.6-1.3-1.3s0.6-1.3,1.3-1.3s1.3,0.6,1.3,1.3S49.3,44,48.6,44z"/>
	<path fill="#201600" d="M15.1,42H9.2c-0.4,0-0.8,0.3-0.8,0.8s0.3,0.8,0.8,0.8h5.9c0.4,0,0.8-0.3,0.8-0.8S15.5,42,15.1,42z"/>
	<path fill="#201600" d="M24.3,42h-5.9c-0.4,0-0.8,0.3-0.8,0.8s0.3,0.8,0.8,0.8h5.9c0.4,0,0.8-0.3,0.8-0.8S24.7,42,24.3,42z"/>
	<path fill="#201600" d="M33.4,42h-5.9c-0.4,0-0.8,0.3-0.8,0.8s0.3,0.8,0.8,0.8h5.9c0.4,0,0.8-0.3,0.8-0.8S33.9,42,33.4,42z"/>
	<path fill="#201600" d="M42.6,42h-5.9c-0.4,0-0.8,0.3-0.8,0.8s0.3,0.8,0.8,0.8h5.9c0.4,0,0.8-0.3,0.8-0.8S43,42,42.6,42z"/>
	<path fill="#201600" d="M46.1,22.7h-9.2c-0.3,0-0.6,0.2-0.7,0.5l-1.8,4.2c0.1-10.5,0-10.6-0.1-10.8c-0.2-0.4-0.6-0.5-1-0.4
		c-0.4,0.2-0.4,0.2-3.4,9.1c-0.6,1.7-1,3-1.4,4.1c0-1.3,0-2.8,0-4.4c0-4.8,0-10.1,0-11.8l0-0.6c0-0.4-0.3-0.7-0.6-0.7
		c-0.3-0.1-0.5-0.1-0.9,0.7l0,0c-0.4,0.8-0.9,2.6-2,6c-0.7,2.3-1.5,4.7-1.8,5.7h-7c-0.4,0-0.8,0.3-0.8,0.8s0.3,0.8,0.8,0.8h7.6
		c0.3,0,0.6-0.2,0.7-0.5c0.7-2.4,1.7-5.5,2.5-7.9c0,14.5,0,16.6,0,16.8l0,0c0,0.2,0,0.2,0,0.3c0.1,0.3,0.4,0.5,0.7,0.5
		c0,0,0.1,0,0.1,0c0.3-0.1,0.5-0.1,0.6-0.6l0,0c0.2-0.7,2.8-8.4,4.4-13.3c0,3,0,7,0,10c0,0.4,0.2,0.7,0.6,0.7
		c0.3,0.1,0.7-0.1,0.8-0.4l3.1-7.3h8.7c0.4,0,0.8-0.3,0.8-0.8S46.5,22.7,46.1,22.7z"/>
	<path fill="#201600" d="M16.8,22.4c0.1,0,0.2,0.1,0.3,0.1c0,0,0,0,0,0c0,0,0,0,0,0s0,0,0,0c0,0,0,0,0,0c0.1,0,0.2,0,0.3-0.1
		c0,0,0,0,0,0c0.2-0.1,4.7-2.2,5.4-5.2c0.4-1.9-0.1-3.1-0.6-3.7c-0.7-0.8-1.7-1.3-3-1.3c-1,0-1.6,0.4-2.1,0.9
		c-0.5-0.5-1.1-0.9-2.1-0.9c-1.3,0-2.4,0.4-3,1.3c-0.5,0.6-1,1.8-0.6,3.7C12.1,20.2,16.6,22.3,16.8,22.4
		C16.8,22.4,16.8,22.4,16.8,22.4z M12.9,16.8c-0.2-1.1-0.1-1.9,0.3-2.4c0.4-0.5,1-0.7,1.8-0.7c1.2,0,1.3,1,1.4,1.4
		c0,0.1,0,0.1,0,0.1c0,0,0,0.1,0,0.1c0,0.1,0.1,0.1,0.1,0.1c0,0,0,0.1,0.1,0.1c0.1,0.1,0.1,0.1,0.2,0.1c0,0,0,0,0,0
		c0.1,0,0.2,0.1,0.3,0.1c0,0,0,0,0,0c0,0,0,0,0,0c0,0,0,0,0,0c0,0,0,0,0,0c0,0,0.1,0,0.1,0c0.2,0,0.3-0.1,0.4-0.2c0,0,0,0,0,0
		c0.1-0.1,0.1-0.1,0.1-0.2c0,0,0-0.1,0-0.1c0,0,0-0.1,0-0.1c0-0.3,0.1-1.3,1.4-1.4c0.8,0,1.5,0.2,1.8,0.7c0.4,0.5,0.5,1.4,0.3,2.4
		c-0.4,1.8-3,3.4-4.2,4.1C15.8,20.2,13.3,18.6,12.9,16.8z"/>
</g>
<style>
path{
    fill:#3F51B5 !important;
	}
</style>
</svg>
