<?xml version="1.0" encoding="utf-8"?>
<!-- Generator: Adobe Illustrator 17.1.0, SVG Export Plug-In . SVG Version: 6.00 Build 0)  -->
<!DOCTYPE svg PUBLIC "-//W3C//DTD SVG 1.1//EN" "http://www.w3.org/Graphics/SVG/1.1/DTD/svg11.dtd">
<svg version="1.1" id="Слой_1" xmlns="http://www.w3.org/2000/svg" xmlns:xlink="http://www.w3.org/1999/xlink" x="0px" y="0px"
	 viewBox="0 0 58 50.6" enable-background="new 0 0 58 50.6" xml:space="preserve">
<g>
	<path fill="#201600" d="M54.4,9.8H40.8V3.6c0-2-1.6-3.6-3.6-3.6H20.8c-2,0-3.6,1.6-3.6,3.6v6.2H3.6c-2,0-3.6,1.6-3.6,3.6v33.5
		c0,2,1.6,3.6,3.6,3.6h50.7c2,0,3.6-1.6,3.6-3.6V13.5C58,11.5,56.4,9.8,54.4,9.8z M18.7,3.6c0-1.2,1-2.1,2.1-2.1h16.4
		c1.2,0,2.1,1,2.1,2.1v6.2H18.7V3.6z M3.6,11.3h50.7c1.2,0,2.1,1,2.1,2.1v6.9h-55v-6.9C1.5,12.3,2.5,11.3,3.6,11.3z M54.4,49.1H3.6
		c-1.2,0-2.1-1-2.1-2.1v-25h55v25C56.5,48.1,55.5,49.1,54.4,49.1z"/>
	<path fill="#201600" d="M36.3,23.9H20.2c-2,0-3.6,1.6-3.6,3.6v16.1c0,2,1.6,3.6,3.6,3.6h16.1c2,0,3.6-1.6,3.6-3.6V27.6
		C40,25.6,38.3,23.9,36.3,23.9z M38.5,43.7c0,1.2-1,2.1-2.1,2.1H20.2c-1.2,0-2.1-1-2.1-2.1V27.6c0-1.2,1-2.1,2.1-2.1h16.1
		c1.2,0,2.1,1,2.1,2.1V43.7z"/>
	<path fill="#201600" d="M34.1,32.3h-2.5v-2.5c0-0.9-0.8-1.7-1.7-1.7h-3.3c-0.9,0-1.7,0.8-1.7,1.7v2.5h-2.5c-0.9,0-1.7,0.8-1.7,1.7
		v3.3c0,0.9,0.8,1.7,1.7,1.7h2.5v2.5c0,0.9,0.8,1.7,1.7,1.7h3.3c0.9,0,1.7-0.8,1.7-1.7V39h2.5c0.9,0,1.7-0.8,1.7-1.7V34
		C35.8,33,35,32.3,34.1,32.3z M34.3,37.3c0,0.1-0.1,0.2-0.2,0.2h-3.2c-0.4,0-0.8,0.3-0.8,0.8v3.2c0,0.1-0.1,0.2-0.2,0.2h-3.3
		c-0.1,0-0.2-0.1-0.2-0.2v-3.2c0-0.4-0.3-0.8-0.8-0.8h-3.2c-0.1,0-0.2-0.1-0.2-0.2V34c0-0.1,0.1-0.2,0.2-0.2h3.2
		c0.4,0,0.8-0.3,0.8-0.8v-3.2c0-0.1,0.1-0.2,0.2-0.2h3.3c0.1,0,0.2,0.1,0.2,0.2V33c0,0.4,0.3,0.8,0.8,0.8h3.2c0.1,0,0.2,0.1,0.2,0.2
		V37.3z"/>
	<path fill="#201600" d="M6.8,8.3H14c0.4,0,0.8-0.3,0.8-0.8S14.5,6.8,14,6.8H6.8c-0.4,0-0.8,0.3-0.8,0.8S6.4,8.3,6.8,8.3z"/>
	<path fill="#201600" d="M43.2,8.3h7.2c0.4,0,0.8-0.3,0.8-0.8s-0.3-0.8-0.8-0.8h-7.2c-0.4,0-0.8,0.3-0.8,0.8S42.8,8.3,43.2,8.3z"/>
</g>
<style>
path{
    fill:#3F51B5 !important;
	}
</style>
</svg>
