<?xml version="1.0" encoding="iso-8859-1"?>
<!-- Generator: Adobe Illustrator 19.0.0, SVG Export Plug-In . SVG Version: 6.00 Build 0)  -->
<svg version="1.1" id="Layer_1" xmlns="http://www.w3.org/2000/svg" xmlns:xlink="http://www.w3.org/1999/xlink" x="0px" y="0px"
	 viewBox="0 0 512 512" style="enable-background:new 0 0 512 512;" xml:space="preserve">
<g>
	<g>
		<path d="M367.165,0h-222.33c-23.281,0-42.221,18.941-42.221,42.221v427.557c0,23.281,18.941,42.221,42.221,42.221h222.33
			c23.281,0,42.221-18.941,42.221-42.221V42.221C409.386,18.941,390.445,0,367.165,0z M393.353,469.779
			c0,14.441-11.748,26.188-26.188,26.188h-222.33c-14.44,0-26.188-11.747-26.188-26.188V42.221
			c0-14.441,11.748-26.188,26.188-26.188h222.33c14.44,0,26.188,11.747,26.188,26.188V469.779z"/>
	</g>
</g>
<g>
	<g>
		<path d="M367.165,68.409h-222.33c-4.427,0-8.017,3.588-8.017,8.017v290.737c0,4.428,3.589,8.017,8.017,8.017
			s8.017-3.588,8.017-8.017V84.443h206.296v26.186c0,4.428,3.589,8.017,8.017,8.017c4.427,0,8.017-3.588,8.017-8.017V76.426
			C375.182,71.997,371.592,68.409,367.165,68.409z"/>
	</g>
</g>
<g>
	<g>
		<path d="M367.165,136.82c-4.427,0-8.017,3.588-8.017,8.017v282.72H152.852v-26.186c0-4.428-3.589-8.017-8.017-8.017
			s-8.017,3.588-8.017,8.017v34.202c0,4.428,3.589,8.017,8.017,8.017h222.33c4.427,0,8.017-3.588,8.017-8.017V144.837
			C375.182,140.409,371.592,136.82,367.165,136.82z"/>
	</g>
</g>
<g>
	<g>
		<path d="M273.102,461.762h-34.205c-4.427,0-8.017,3.588-8.017,8.017c0,4.428,3.589,8.017,8.017,8.017h34.205
			c4.427,0,8.017-3.588,8.017-8.017C281.119,465.35,277.53,461.762,273.102,461.762z"/>
	</g>
</g>
<g>
	<g>
		<path d="M281.653,34.205h-51.307c-4.427,0-8.017,3.588-8.017,8.017c0,4.428,3.589,8.017,8.017,8.017h51.307
			c4.427,0,8.017-3.588,8.017-8.017C289.67,37.793,286.081,34.205,281.653,34.205z"/>
	</g>
</g>
<g>
	<g>
		<path d="M196.227,34.205h-0.086c-4.427,0-7.974,3.588-7.974,8.017c0,4.428,3.632,8.017,8.059,8.017s8.017-3.588,8.017-8.017
			C204.244,37.793,200.655,34.205,196.227,34.205z"/>
	</g>
</g>
<g>
	<g>
		<path d="M331.579,269.515l-8.551-17.102c-1.357-2.715-4.133-4.432-7.17-4.432h-9.086v-0.534c0-4.231-0.528-8.341-1.508-12.273
			l7.711-7.711c0.88-0.88,1.543-1.953,1.937-3.134l8.551-25.653c1.4-4.201-0.87-8.741-5.071-10.141
			c-4.201-1.399-8.74,0.869-10.141,5.07l-7.953,23.858l-1.979,1.979c-4.235-6.378-9.869-11.745-16.464-15.665l7.401-22.203
			c1.4-4.201-0.87-8.741-5.071-10.141c-4.201-1.397-8.739,0.87-10.141,5.07l-7.123,21.369c-3.521-0.776-7.174-1.197-10.925-1.197
			c-3.751,0-7.403,0.421-10.925,1.197l-7.123-21.369c-1.401-4.2-5.941-6.467-10.141-5.07c-4.201,1.4-6.47,5.941-5.071,10.141
			l7.401,22.203c-6.595,3.92-12.229,9.287-16.464,15.665l-1.979-1.979l-7.953-23.858c-1.401-4.2-5.94-6.467-10.141-5.07
			c-4.201,1.4-6.47,5.941-5.071,10.141l8.551,25.653c0.393,1.18,1.057,2.253,1.937,3.134l7.711,7.711
			c-0.98,3.932-1.508,8.041-1.508,12.273v0.537h-9.081c-3.037,0-5.813,1.716-7.17,4.432l-8.551,17.102
			c-1.981,3.96-0.375,8.776,3.585,10.756c1.151,0.576,2.374,0.849,3.579,0.849c2.941,0,5.772-1.625,7.177-4.433l6.335-12.673h4.131
			v0.534c0,7.004,1.426,13.682,4.002,19.757l-9.754,8.361c-2.306,1.976-3.296,5.086-2.56,8.032l8.551,34.205
			c0.911,3.642,4.179,6.075,7.771,6.075c0.643,0,1.298-0.078,1.951-0.242c4.296-1.074,6.907-5.427,5.833-9.723l-7.349-29.398
			l4.196-3.598c9.312,10.597,22.949,17.303,38.131,17.303c15.182,0,28.818-6.706,38.131-17.303l4.196,3.598l-7.349,29.398
			c-1.074,4.296,1.537,8.648,5.833,9.723c0.652,0.162,1.306,0.242,1.951,0.242c3.591,0,6.86-2.432,7.771-6.075l8.551-34.205
			c0.736-2.946-0.254-6.055-2.56-8.032l-9.754-8.361c2.576-6.076,4.002-12.753,4.002-19.757v-0.534h4.131l6.335,12.671
			c1.404,2.809,4.235,4.433,7.177,4.433c1.205,0,2.427-0.274,3.579-0.849C331.954,278.291,333.56,273.476,331.579,269.515z
			 M256,212.71c7.995,0,15.363,2.722,21.241,7.279c-4.893,6.771-12.805,10.892-21.241,10.892c-8.435,0-16.348-4.121-21.241-10.891
			C240.637,215.432,248.005,212.71,256,212.71z M290.739,264.551c0,16.396-11.421,30.165-26.722,33.795v-33.795
			c0-4.428-3.589-8.017-8.017-8.017c-4.427,0-8.017,3.588-8.017,8.017v33.795c-15.301-3.63-26.722-17.398-26.722-33.795v-17.102
			c0-5.233,1.169-10.195,3.25-14.65c7.931,8.855,19.379,14.116,31.489,14.116c12.111,0,23.557-5.26,31.489-14.116
			c2.081,4.454,3.25,9.417,3.25,14.65V264.551z"/>
	</g>
</g>
<g>
</g>
<g>
</g>
<g>
</g>
<g>
</g>
<g>
</g>
<g>
</g>
<g>
</g>
<g>
</g>
<g>
</g>
<g>
</g>
<g>
</g>
<g>
</g>
<g>
</g>
<g>
</g>
<g>
</g>
</svg>
