<?xml version="1.0" encoding="utf-8"?>
<!-- Generator: Adobe Illustrator 17.0.0, SVG Export Plug-In . SVG Version: 6.00 Build 0)  -->
<!DOCTYPE svg PUBLIC "-//W3C//DTD SVG 1.1//EN" "http://www.w3.org/Graphics/SVG/1.1/DTD/svg11.dtd">
<svg version="1.1" id="Capa_1" xmlns="http://www.w3.org/2000/svg" xmlns:xlink="http://www.w3.org/1999/xlink" x="0px" y="0px"
	 width="52.542px" height="51px" viewBox="279.729 370.5 52.542 51" enable-background="new 279.729 370.5 52.542 51"
	 xml:space="preserve">
<g>
	<g>
		<path d="M330.966,407.27h-2.016v-3.191c0-3.859-3.148-7.007-7.007-7.007s-7.007,3.148-7.007,7.007v3.191h-2.016
			c-0.711,0-1.294,0.582-1.294,1.294v11.642c0,0.711,0.582,1.294,1.294,1.294h18.056c0.711,0,1.294-0.582,1.294-1.294v-11.642
			C332.26,407.842,331.689,407.27,330.966,407.27z M317.524,404.08c0-2.436,1.983-4.42,4.42-4.42s4.42,1.984,4.42,4.42v3.191h-8.84
			V404.08z M329.673,418.913h-15.458v-9.055h15.469v9.055H329.673z"/>
		<path fill="#03A9F5" d="M308.436,413.264h-26.109V384.32h38.323v9.562c0,0.711,0.582,1.294,1.294,1.294
			c0.711,0,1.294-0.582,1.294-1.294v-10.855c0-0.043,0-0.086-0.011-0.119c0-0.011,0-0.032,0-0.043c0-0.022-0.011-0.054-0.011-0.075
			c0-0.022-0.011-0.032-0.011-0.054c0-0.022-0.011-0.043-0.011-0.065c0-0.022-0.011-0.032-0.011-0.054
			c-0.011-0.022-0.011-0.043-0.022-0.054c-0.011-0.022-0.011-0.032-0.022-0.054c-0.011-0.022-0.022-0.043-0.032-0.065
			c-0.011-0.011-0.011-0.032-0.022-0.043c-0.022-0.032-0.032-0.065-0.054-0.097c-0.011-0.011-0.011-0.022-0.022-0.032
			c-0.011-0.022-0.022-0.032-0.032-0.054l-8.84-11.222c-0.248-0.313-0.614-0.496-1.013-0.496h-23.252
			c-0.399,0-0.765,0.183-1.013,0.496l-8.84,11.222c-0.011,0.011-0.022,0.032-0.032,0.043c-0.011,0.011-0.022,0.022-0.022,0.032
			c-0.022,0.032-0.032,0.054-0.054,0.086c-0.011,0.022-0.022,0.032-0.032,0.054c-0.011,0.022-0.022,0.043-0.032,0.065
			c-0.011,0.022-0.011,0.032-0.022,0.054c-0.011,0.022-0.011,0.032-0.022,0.054c-0.011,0.022-0.011,0.032-0.022,0.054
			c-0.011,0.022-0.011,0.043-0.011,0.065c0,0.022-0.011,0.032-0.011,0.054c0,0.022-0.011,0.043-0.011,0.075
			c0,0.011,0,0.032-0.011,0.043c0,0.043-0.011,0.075-0.011,0.119v31.531c0,0.711,0.582,1.294,1.294,1.294h27.403
			c0.711,0,1.294-0.582,1.294-1.294C309.73,413.846,309.148,413.264,308.436,413.264z M319.281,381.733h-16.493v-8.635h9.691
			L319.281,381.733z M290.498,373.098h9.691v8.635h-16.493L290.498,373.098z"/>
	</g>
</g>
</svg>
